<svg width="254" height="149" viewBox="0 0 254 149" fill="none" xmlns="http://www.w3.org/2000/svg">
<path d="M78.4416 80.0566H94.5174V85.3284H86.87V122.37H78.4416V80.0566Z" fill="#0079C2"/>
<path d="M104.048 106.485L105.493 85.3284H105.976L107.421 106.485H104.048ZM94.7144 122.37H102.967L103.748 111.132H107.722L108.506 122.37H116.755L112.359 80.0566H99.11L94.7144 122.37Z" fill="#0079C2"/>
<path d="M128.825 107.56V115.537C128.825 116.612 129.655 116.924 130.139 116.924C130.933 116.924 131.486 116.266 131.486 115.537V105.687C131.486 104.369 131.244 102.913 128.1 102.913H124.679V98.2651H128.238C130.622 98.2651 131.486 97.7102 131.486 95.109V86.7157C131.486 85.9874 130.933 85.3284 130.139 85.3284C129.655 85.3284 128.825 85.6059 128.825 86.7157V93.6176H120.394V87.6175C120.394 84.6695 120.739 80.0566 126.648 80.0566H133.629C139.538 80.0566 139.918 84.6695 139.918 87.6175V94.3806C139.918 98.9934 136.704 100.242 134.182 100.138V100.554C139.849 100.415 139.918 104.785 139.918 106.277V114.809C139.918 117.792 139.538 122.37 133.629 122.37H126.648C120.739 122.37 120.394 117.792 120.394 114.809V107.56H128.825Z" fill="#0079C2"/>
<path d="M145.447 80.0566H164.972V122.37H156.54V85.3284H153.879V122.37H145.447V80.0566Z" fill="#0079C2"/>
<path d="M178.933 103.329V85.3284H180.039C180.937 85.3284 181.594 86.0914 181.594 87.4441V101.213C181.594 102.566 180.937 103.329 180.039 103.329H178.933ZM170.501 122.37H178.933V107.976H183.771C189.645 107.976 190.025 103.398 190.025 100.415V87.6175C190.025 84.6695 189.645 80.0566 183.771 80.0566H170.501V122.37Z" fill="#0079C2"/>
<path d="M206.647 115.537C206.647 116.266 206.094 116.924 205.3 116.924C204.816 116.924 203.986 116.612 203.986 115.537V86.7157C203.986 85.6059 204.816 85.3284 205.3 85.3284C206.094 85.3284 206.647 85.9874 206.647 86.7157V115.537ZM195.555 114.809C195.555 117.792 195.935 122.37 201.809 122.37H208.824C214.699 122.37 215.079 117.792 215.079 114.809V87.6175C215.079 84.6695 214.699 80.0566 208.824 80.0566H201.809C195.935 80.0566 195.555 84.6695 195.555 87.6175V114.809Z" fill="#0079C2"/>
<path d="M242.517 80.0566H253.506V122.37H245.074V95.8373H244.763L240.409 122.37H233.671L229.351 95.8373H229.04V122.37H220.608V80.0566H231.563L237.057 109.814L242.517 80.0566Z" fill="#0079C2"/>
<path d="M67.5148 22.2057C64.9334 10.8644 58.4643 1.63882 57.5728 0.147461C56.1628 2.26311 51.0035 10.4136 48.3807 19.4311C45.5159 29.5238 45.0943 38.472 46.0826 47.2467C47.0641 56.0561 50.772 65.1084 50.772 65.1084C52.7417 69.8252 55.6929 74.9236 57.6142 77.4207C60.4306 73.7444 66.9031 62.7846 68.9212 48.4953C70.0443 40.5182 70.0927 33.547 67.5148 22.2057ZM57.5728 74.5768C56.3045 72.1836 54.3348 67.6402 54.1482 60.5649C54.0998 53.7671 56.8194 47.9057 57.6142 46.6918C58.3226 47.9057 60.6656 53.0041 60.9455 59.9753C61.1356 66.7731 58.8825 72.149 57.5728 74.5768ZM66.7649 41.4547C66.6681 45.79 66.1532 50.3682 65.4966 53.1081C65.7316 48.3913 65.1684 41.7668 64.0902 36.5644C63.012 31.3967 59.9606 22.726 57.5244 18.7374C55.2748 22.5525 52.5033 30.044 51.0519 36.5297C49.5936 43.0154 49.5521 50.8884 49.5521 53.2468C49.1651 51.2699 48.1975 44.1599 48.4705 37.0499C48.6986 31.1886 50.067 25.1191 50.8169 22.3445C53.6782 13.0842 56.9162 7.15339 57.5244 6.21694C58.1326 7.15339 62.2103 14.4714 64.3252 22.1364C66.4297 29.8013 66.8547 37.154 66.7649 41.4547Z" fill="#0079C2"/>
<path d="M42.3263 80.0566V93.2708C42.3436 93.2708 42.3574 93.2361 42.3747 93.2361C46.9984 88.5886 54.4972 88.5886 59.1244 93.2361C63.7481 97.8489 63.7481 105.375 59.1244 110.023C59.1037 110.057 59.0829 110.057 59.0622 110.092C59.038 110.092 59.0138 110.127 58.9931 110.161C54.3797 114.739 48.353 117.029 42.3263 117.029C36.272 117.029 30.2176 114.739 25.6009 110.092C17.4593 101.941 16.4951 89.2823 22.7015 80.0566C23.5378 78.8081 24.5019 77.6288 25.6009 76.519C30.2176 71.8715 36.272 69.5824 42.3263 69.5824V37.813C19.0627 37.813 0.205078 56.7151 0.205078 80.0566C0.205078 103.398 19.0627 122.335 42.3263 122.335C54.4558 122.335 65.3826 117.167 73.068 108.947V80.0566H42.3263Z" fill="#0079C2"/>
<path d="M78.4416 80.0566H94.5174V85.3284H86.87V122.37H78.4416V80.0566Z" fill="#0071FE"/>
<path d="M104.048 106.485L105.493 85.3284H105.976L107.421 106.485H104.048ZM94.7144 122.37H102.967L103.748 111.132H107.722L108.506 122.37H116.755L112.359 80.0566H99.11L94.7144 122.37Z" fill="#0071FE"/>
<path d="M128.825 107.56V115.537C128.825 116.612 129.655 116.924 130.139 116.924C130.933 116.924 131.486 116.266 131.486 115.537V105.687C131.486 104.369 131.244 102.913 128.1 102.913H124.679V98.2651H128.238C130.622 98.2651 131.486 97.7102 131.486 95.109V86.7157C131.486 85.9874 130.933 85.3284 130.139 85.3284C129.655 85.3284 128.825 85.6059 128.825 86.7157V93.6176H120.394V87.6175C120.394 84.6695 120.739 80.0566 126.648 80.0566H133.629C139.538 80.0566 139.918 84.6695 139.918 87.6175V94.3806C139.918 98.9934 136.704 100.242 134.182 100.138V100.554C139.849 100.415 139.918 104.785 139.918 106.277V114.809C139.918 117.792 139.538 122.37 133.629 122.37H126.648C120.739 122.37 120.394 117.792 120.394 114.809V107.56H128.825Z" fill="#0071FE"/>
<path d="M145.447 80.0566H164.972V122.37H156.54V85.3284H153.879V122.37H145.447V80.0566Z" fill="#0071FE"/>
<path d="M178.933 103.329V85.3284H180.039C180.937 85.3284 181.594 86.0914 181.594 87.4441V101.213C181.594 102.566 180.937 103.329 180.039 103.329H178.933ZM170.501 122.37H178.933V107.976H183.771C189.645 107.976 190.025 103.398 190.025 100.415V87.6175C190.025 84.6695 189.645 80.0566 183.771 80.0566H170.501V122.37Z" fill="#0071FE"/>
<path d="M206.647 115.537C206.647 116.266 206.094 116.924 205.3 116.924C204.816 116.924 203.986 116.612 203.986 115.537V86.7157C203.986 85.6059 204.816 85.3284 205.3 85.3284C206.094 85.3284 206.647 85.9874 206.647 86.7157V115.537ZM195.555 114.809C195.555 117.792 195.935 122.37 201.809 122.37H208.824C214.699 122.37 215.079 117.792 215.079 114.809V87.6175C215.079 84.6695 214.699 80.0566 208.824 80.0566H201.809C195.935 80.0566 195.555 84.6695 195.555 87.6175V114.809Z" fill="#0071FE"/>
<path d="M242.517 80.0566H253.506V122.37H245.074V95.8373H244.763L240.409 122.37H233.671L229.351 95.8373H229.04V122.37H220.608V80.0566H231.563L237.057 109.814L242.517 80.0566Z" fill="#0071FE"/>
<path d="M67.5148 22.2057C64.9334 10.8644 58.4643 1.63882 57.5728 0.147461C56.1628 2.26311 51.0035 10.4136 48.3807 19.4311C45.5159 29.5238 45.0943 38.472 46.0826 47.2467C47.0641 56.0561 50.772 65.1084 50.772 65.1084C52.7417 69.8252 55.6929 74.9236 57.6142 77.4207C60.4306 73.7444 66.9031 62.7846 68.9212 48.4953C70.0443 40.5182 70.0927 33.547 67.5148 22.2057ZM57.5728 74.5768C56.3045 72.1836 54.3348 67.6402 54.1482 60.5649C54.0998 53.7671 56.8194 47.9057 57.6142 46.6918C58.3226 47.9057 60.6656 53.0041 60.9455 59.9753C61.1356 66.7731 58.8825 72.149 57.5728 74.5768ZM66.7649 41.4547C66.6681 45.79 66.1532 50.3682 65.4966 53.1081C65.7316 48.3913 65.1684 41.7668 64.0902 36.5644C63.012 31.3967 59.9606 22.726 57.5244 18.7374C55.2748 22.5525 52.5033 30.044 51.0519 36.5297C49.5936 43.0154 49.5521 50.8884 49.5521 53.2468C49.1651 51.2699 48.1975 44.1599 48.4705 37.0499C48.6986 31.1886 50.067 25.1191 50.8169 22.3445C53.6782 13.0842 56.9162 7.15339 57.5244 6.21694C58.1326 7.15339 62.2103 14.4714 64.3252 22.1364C66.4297 29.8013 66.8547 37.154 66.7649 41.4547Z" fill="#0071FE"/>
<path d="M42.3263 80.0566V93.2708C42.3436 93.2708 42.3574 93.2361 42.3747 93.2361C46.9984 88.5886 54.4972 88.5886 59.1244 93.2361C63.7481 97.8489 63.7481 105.375 59.1244 110.023C59.1037 110.057 59.0829 110.057 59.0622 110.092C59.038 110.092 59.0138 110.127 58.9931 110.161C54.3797 114.739 48.353 117.029 42.3263 117.029C36.272 117.029 30.2176 114.739 25.6009 110.092C17.4593 101.941 16.4951 89.2823 22.7015 80.0566C23.5378 78.8081 24.5019 77.6288 25.6009 76.519C30.2176 71.8715 36.272 69.5824 42.3263 69.5824V37.813C19.0627 37.813 0.205078 56.7151 0.205078 80.0566C0.205078 103.398 19.0627 122.335 42.3263 122.335C54.4558 122.335 65.3826 117.167 73.068 108.947V80.0566H42.3263Z" fill="#0071FE"/>
</svg>
