<svg width="380" height="380" viewBox="0 0 380 380" fill="none" xmlns="http://www.w3.org/2000/svg">
<path d="M141.441 195.057H157.517V200.328H149.87V237.37H141.441V195.057Z" fill="#0079C2"/>
<path d="M167.048 221.485L168.493 200.328H168.976L170.421 221.485H167.048ZM157.714 237.37H165.967L166.748 226.132H170.722L171.506 237.37H179.755L175.359 195.057H162.11L157.714 237.37Z" fill="#0079C2"/>
<path d="M191.825 222.56V230.537C191.825 231.612 192.655 231.924 193.139 231.924C193.933 231.924 194.486 231.266 194.486 230.537V220.687C194.486 219.369 194.244 217.913 191.1 217.913H187.679V213.265H191.238C193.622 213.265 194.486 212.71 194.486 210.109V201.716C194.486 200.987 193.933 200.328 193.139 200.328C192.655 200.328 191.825 200.606 191.825 201.716V208.618H183.394V202.618C183.394 199.67 183.739 195.057 189.648 195.057H196.629C202.538 195.057 202.918 199.67 202.918 202.618V209.381C202.918 213.993 199.704 215.242 197.182 215.138V215.554C202.849 215.415 202.918 219.785 202.918 221.277V229.809C202.918 232.792 202.538 237.37 196.629 237.37H189.648C183.739 237.37 183.394 232.792 183.394 229.809V222.56H191.825Z" fill="#0079C2"/>
<path d="M208.447 195.057H227.972V237.37H219.54V200.328H216.879V237.37H208.447V195.057Z" fill="#0079C2"/>
<path d="M241.933 218.329V200.328H243.039C243.937 200.328 244.594 201.091 244.594 202.444V216.213C244.594 217.566 243.937 218.329 243.039 218.329H241.933ZM233.501 237.37H241.933V222.976H246.771C252.645 222.976 253.025 218.398 253.025 215.415V202.618C253.025 199.67 252.645 195.057 246.771 195.057H233.501V237.37Z" fill="#0079C2"/>
<path d="M269.647 230.537C269.647 231.266 269.094 231.924 268.3 231.924C267.816 231.924 266.986 231.612 266.986 230.537V201.716C266.986 200.606 267.816 200.328 268.3 200.328C269.094 200.328 269.647 200.987 269.647 201.716V230.537ZM258.555 229.809C258.555 232.792 258.935 237.37 264.809 237.37H271.824C277.699 237.37 278.079 232.792 278.079 229.809V202.618C278.079 199.67 277.699 195.057 271.824 195.057H264.809C258.935 195.057 258.555 199.67 258.555 202.618V229.809Z" fill="#0079C2"/>
<path d="M305.517 195.057H316.506V237.37H308.074V210.837H307.763L303.409 237.37H296.671L292.351 210.837H292.04V237.37H283.608V195.057H294.563L300.057 224.814L305.517 195.057Z" fill="#0079C2"/>
<path d="M130.515 137.206C127.933 125.864 121.464 116.639 120.573 115.147C119.163 117.263 114.003 125.414 111.381 134.431C108.516 144.524 108.094 153.472 109.083 162.247C110.064 171.056 113.772 180.108 113.772 180.108C115.742 184.825 118.693 189.924 120.614 192.421C123.431 188.744 129.903 177.785 131.921 163.495C133.044 155.518 133.093 148.547 130.515 137.206ZM120.573 189.577C119.304 187.184 117.335 182.64 117.148 175.565C117.1 168.767 119.819 162.906 120.614 161.692C121.323 162.906 123.666 168.004 123.945 174.975C124.136 181.773 121.882 187.149 120.573 189.577ZM129.765 156.455C129.668 160.79 129.153 165.368 128.497 168.108C128.732 163.391 128.168 156.767 127.09 151.564C126.012 146.397 122.961 137.726 120.524 133.737C118.275 137.553 115.503 145.044 114.052 151.53C112.594 158.015 112.552 165.888 112.552 168.247C112.165 166.27 111.197 159.16 111.47 152.05C111.699 146.189 113.067 140.119 113.817 137.344C116.678 128.084 119.916 122.153 120.524 121.217C121.133 122.153 125.21 129.471 127.325 137.136C129.43 144.801 129.855 152.154 129.765 156.455Z" fill="#0079C2"/>
<path d="M105.326 195.057V208.271C105.344 208.271 105.357 208.236 105.375 208.236C109.998 203.589 117.497 203.589 122.124 208.236C126.748 212.849 126.748 220.375 122.124 225.023C122.104 225.057 122.083 225.057 122.062 225.092C122.038 225.092 122.014 225.127 121.993 225.161C117.38 229.739 111.353 232.029 105.326 232.029C99.272 232.029 93.2176 229.739 88.6009 225.092C80.4593 216.941 79.4951 204.282 85.7015 195.057C86.5378 193.808 87.5019 192.629 88.6009 191.519C93.2176 186.871 99.272 184.582 105.326 184.582V152.813C82.0627 152.813 63.2051 171.715 63.2051 195.057C63.2051 218.398 82.0627 237.335 105.326 237.335C117.456 237.335 128.383 232.167 136.068 223.947V195.057H105.326Z" fill="#0079C2"/>
<path d="M141.441 195.057H157.517V200.328H149.87V237.37H141.441V195.057Z" fill="#0071FE"/>
<path d="M167.048 221.485L168.493 200.328H168.976L170.421 221.485H167.048ZM157.714 237.37H165.967L166.748 226.132H170.722L171.506 237.37H179.755L175.359 195.057H162.11L157.714 237.37Z" fill="#0071FE"/>
<path d="M191.825 222.56V230.537C191.825 231.612 192.655 231.924 193.139 231.924C193.933 231.924 194.486 231.266 194.486 230.537V220.687C194.486 219.369 194.244 217.913 191.1 217.913H187.679V213.265H191.238C193.622 213.265 194.486 212.71 194.486 210.109V201.716C194.486 200.987 193.933 200.328 193.139 200.328C192.655 200.328 191.825 200.606 191.825 201.716V208.618H183.394V202.618C183.394 199.67 183.739 195.057 189.648 195.057H196.629C202.538 195.057 202.918 199.67 202.918 202.618V209.381C202.918 213.993 199.704 215.242 197.182 215.138V215.554C202.849 215.415 202.918 219.785 202.918 221.277V229.809C202.918 232.792 202.538 237.37 196.629 237.37H189.648C183.739 237.37 183.394 232.792 183.394 229.809V222.56H191.825Z" fill="#0071FE"/>
<path d="M208.447 195.057H227.972V237.37H219.54V200.328H216.879V237.37H208.447V195.057Z" fill="#0071FE"/>
<path d="M241.933 218.329V200.328H243.039C243.937 200.328 244.594 201.091 244.594 202.444V216.213C244.594 217.566 243.937 218.329 243.039 218.329H241.933ZM233.501 237.37H241.933V222.976H246.771C252.645 222.976 253.025 218.398 253.025 215.415V202.618C253.025 199.67 252.645 195.057 246.771 195.057H233.501V237.37Z" fill="#0071FE"/>
<path d="M269.647 230.537C269.647 231.266 269.094 231.924 268.3 231.924C267.816 231.924 266.986 231.612 266.986 230.537V201.716C266.986 200.606 267.816 200.328 268.3 200.328C269.094 200.328 269.647 200.987 269.647 201.716V230.537ZM258.555 229.809C258.555 232.792 258.935 237.37 264.809 237.37H271.824C277.699 237.37 278.079 232.792 278.079 229.809V202.618C278.079 199.67 277.699 195.057 271.824 195.057H264.809C258.935 195.057 258.555 199.67 258.555 202.618V229.809Z" fill="#0071FE"/>
<path d="M305.517 195.057H316.506V237.37H308.074V210.837H307.763L303.409 237.37H296.671L292.351 210.837H292.04V237.37H283.608V195.057H294.563L300.057 224.814L305.517 195.057Z" fill="#0071FE"/>
<path d="M130.515 137.206C127.933 125.864 121.464 116.639 120.573 115.147C119.163 117.263 114.003 125.414 111.381 134.431C108.516 144.524 108.094 153.472 109.083 162.247C110.064 171.056 113.772 180.108 113.772 180.108C115.742 184.825 118.693 189.924 120.614 192.421C123.431 188.744 129.903 177.785 131.921 163.495C133.044 155.518 133.093 148.547 130.515 137.206ZM120.573 189.577C119.304 187.184 117.335 182.64 117.148 175.565C117.1 168.767 119.819 162.906 120.614 161.692C121.323 162.906 123.666 168.004 123.945 174.975C124.136 181.773 121.882 187.149 120.573 189.577ZM129.765 156.455C129.668 160.79 129.153 165.368 128.497 168.108C128.732 163.391 128.168 156.767 127.09 151.564C126.012 146.397 122.961 137.726 120.524 133.737C118.275 137.553 115.503 145.044 114.052 151.53C112.594 158.015 112.552 165.888 112.552 168.247C112.165 166.27 111.197 159.16 111.47 152.05C111.699 146.189 113.067 140.119 113.817 137.344C116.678 128.084 119.916 122.153 120.524 121.217C121.133 122.153 125.21 129.471 127.325 137.136C129.43 144.801 129.855 152.154 129.765 156.455Z" fill="#0071FE"/>
<path d="M105.326 195.057V208.271C105.344 208.271 105.357 208.236 105.375 208.236C109.998 203.589 117.497 203.589 122.124 208.236C126.748 212.849 126.748 220.375 122.124 225.023C122.104 225.057 122.083 225.057 122.062 225.092C122.038 225.092 122.014 225.127 121.993 225.161C117.38 229.739 111.353 232.029 105.326 232.029C99.272 232.029 93.2176 229.739 88.6009 225.092C80.4593 216.941 79.4951 204.282 85.7015 195.057C86.5378 193.808 87.5019 192.629 88.6009 191.519C93.2176 186.871 99.272 184.582 105.326 184.582V152.813C82.0627 152.813 63.2051 171.715 63.2051 195.057C63.2051 218.398 82.0627 237.335 105.326 237.335C117.456 237.335 128.383 232.167 136.068 223.947V195.057H105.326Z" fill="#0071FE"/>
</svg>
