<svg width="192" height="92" viewBox="0 0 192 92" fill="none" xmlns="http://www.w3.org/2000/svg">
<path fill-rule="evenodd" clip-rule="evenodd" d="M43.1215 0.468195C41.9262 2.27101 41.1368 3.67354 39.7652 6.43216C37.3978 11.1935 36.4428 14.0519 35.2236 20.026C35.0461 20.8955 34.7092 23.6424 34.5294 25.6855C34.3113 28.1634 34.4738 32.8707 34.8842 35.9676C35.0744 37.4019 35.2597 38.6235 35.2962 38.6822C35.3325 38.741 35.4842 39.3851 35.6331 40.1137C35.782 40.8422 36.0599 41.9533 36.2506 42.5827C37.0757 45.3048 37.7 47.2145 37.8729 47.5452C37.9752 47.7408 38.0593 47.9763 38.0598 48.0685C38.0614 48.4124 40.195 52.8119 41.2431 54.6329C42.1101 56.1393 43.4366 58.0662 43.6066 58.0662C43.7388 58.0662 44.8549 56.4245 45.6395 55.0761C47.4133 52.0272 48.9886 48.5215 50.0431 45.2755C50.8768 42.7091 51.0215 42.2149 51.3024 40.9719C51.8111 38.7211 51.9621 37.9179 52.1638 36.3893C52.2761 35.5377 52.4375 34.4168 52.5223 33.8985C52.7285 32.6381 52.7341 25.8636 52.53 24.4738C52.4429 23.8814 52.2517 22.5658 52.1048 21.5503C51.9581 20.5349 51.7201 19.202 51.5761 18.5883C51.4321 17.9746 51.2752 17.2302 51.2277 16.934C50.9779 15.3785 49.5909 11.2458 48.4271 8.58894C47.5517 6.59049 44.2324 0.63582 43.6752 0.0642781C43.5368 -0.0776312 43.4333 -0.00209885 43.1215 0.468195ZM44.918 7.23999C46.0051 9.393 47.5089 12.8147 47.5089 13.1356C47.5089 13.2 47.6547 13.6267 47.8327 14.0835C48.2872 15.2495 48.8385 17.2139 49.1999 18.9536C49.369 19.7681 49.5408 20.5255 49.5817 20.6366C49.6225 20.7476 49.7499 21.5959 49.8647 22.5215C50.2909 25.9556 50.4778 28.296 50.4781 30.204C50.4783 31.9888 50.1072 36.4094 49.8175 38.0723C49.702 38.7359 49.6999 38.7303 49.6796 37.6684C49.5804 32.4861 48.6531 26.8769 47.1534 22.3869C45.9966 18.9235 44.3615 15.0241 43.7227 14.2053L43.4846 13.8999L43.2171 14.3399C41.3859 17.3515 38.7186 25.3982 38.1384 29.6617C38.0228 30.5108 37.8627 31.6818 37.7828 32.2636C37.6639 33.1283 37.4852 35.8012 37.372 38.4089C37.3416 39.1091 37.1578 37.5557 36.91 34.5044C36.2537 26.4241 37.2251 19.4668 40.0306 12.1543C40.9186 9.83973 42.4533 6.423 43.1646 5.17692L43.4967 4.59501L43.7995 5.1096C43.9659 5.39275 44.4692 6.35137 44.918 7.23999ZM29.5394 28.3185C28.6758 28.3786 27.6736 28.4856 27.3123 28.5564C23.5466 29.2944 22.4959 29.5814 20.1378 30.5162C18.9852 30.973 16.455 32.2151 15.5197 32.7829C15.1073 33.0333 14.3903 33.5298 11.9693 35.2414C11.2987 35.7156 8.08273 38.8934 7.41501 39.7418C7.15855 40.0675 6.79074 40.5219 6.59746 40.7516C4.48847 43.2568 2.07147 48.2583 1.02784 52.2767C0.488206 54.354 0 58.0636 0 60.0857C0 62.2414 0.490905 65.8324 1.10221 68.148C2.18107 72.2345 4.04197 76.0738 6.51823 79.3213C7.20188 80.2179 8.77461 82.0347 9.32531 82.564C11.807 84.9492 13.7347 86.3998 16.3991 87.887C19.8115 89.7916 22.6555 90.8 26.7227 91.5471C28.4824 91.8703 29.0067 91.9074 31.9192 91.9141C34.8965 91.9208 35.3267 91.8911 37.2358 91.546C40.5652 90.9439 43.1319 90.1313 45.797 88.8357C48.8869 87.3335 51.5757 85.4796 53.884 83.2596L55.3375 81.8621V70.9739V60.0857H43.6621H31.9867V65.0632C31.9867 69.4322 32.0114 70.0311 32.1892 69.9631C32.3005 69.9204 32.3917 69.8415 32.3917 69.7877C32.3917 69.6684 33.5759 68.8542 34.4429 68.3775C35.9784 67.533 38.6204 67.2674 40.5698 67.7615C43.6914 68.5526 45.9955 70.7963 46.9266 73.9508C48.0179 77.649 46.5268 81.5035 43.0095 84.0774C42.4776 84.4667 42.012 84.8189 41.9749 84.86C41.8298 85.0209 40.2397 85.891 39.3429 86.3002C37.0951 87.3257 34.7439 87.8154 32.0542 87.8181C28.6719 87.8215 26.1176 87.148 22.9287 85.4117C21.4043 84.5818 19.1269 82.5894 17.9922 81.0932C17.6818 80.6839 17.3105 80.1974 17.167 80.0123C17.0235 79.8272 16.5956 79.0885 16.2161 78.3708C13.6815 73.5779 13.504 67.7781 15.7383 62.7599C16.6026 60.8183 17.5857 59.3779 19.1557 57.7519C20.9067 55.9386 22.8489 54.6132 25.3755 53.5077C26.4463 53.0391 29.164 52.4225 30.637 52.3138L32.0542 52.2094V40.2265V28.2436L31.5818 28.2264C31.322 28.217 30.4028 28.2583 29.5394 28.3185ZM43.958 35.8223C44.7642 37.5508 45.6658 40.9027 45.885 42.9866C46.0556 44.6089 46.059 46.773 45.8932 48.2113C45.6518 50.3061 44.7546 53.3971 43.855 55.2335L43.5609 55.834L43.2186 55.1662C42.3516 53.4742 41.4068 50.0761 41.1637 47.7752C40.7373 43.7394 41.3633 39.8536 43.0249 36.221C43.2874 35.6472 43.5382 35.1798 43.5822 35.1828C43.6261 35.1856 43.7952 35.4735 43.958 35.8223ZM59.2517 76.0429V92L62.5249 91.9639L65.798 91.9278L65.8325 78.0264L65.8668 64.1249H68.7007H71.5345V62.1053V60.0857H65.3931H59.2517V76.0429ZM74.9089 60.3316C74.9089 60.7793 74.6341 63.5041 74.4992 64.3942C74.4262 64.8755 74.2451 66.5417 74.0966 68.0967C73.948 69.6518 73.7679 71.4089 73.6963 72.0013C73.6246 72.5937 73.4432 74.3908 73.293 75.9949C73.1427 77.599 72.9913 78.9925 72.9563 79.0916C72.9215 79.1907 72.7662 80.6653 72.6112 82.3685C72.4564 84.0716 72.2746 85.859 72.2074 86.3403C72.0763 87.2779 71.6707 91.3683 71.6699 91.7595C71.6695 91.9772 71.9091 91.9951 74.816 91.9951H77.9627L78.1221 89.8073C78.2097 88.604 78.3524 86.6935 78.4392 85.5618L78.5968 83.5043L80.0261 83.5423L81.4552 83.5802L81.5381 84.6573C81.5837 85.2497 81.6894 86.7038 81.7731 87.8887C81.8566 89.0735 81.9612 90.4822 82.0053 91.019L82.0857 91.9951H85.2614H88.4371L88.3545 91.4229C88.3091 91.1083 88.1483 89.4875 87.9973 87.8213C87.8463 86.1552 87.6942 84.7109 87.6593 84.6118C87.6244 84.5127 87.4731 83.1192 87.3228 81.5151C87.1726 79.911 86.9912 78.1139 86.9195 77.5215C86.8479 76.9291 86.6678 75.172 86.5192 73.6169C86.3707 72.0619 86.1892 70.3957 86.1156 69.9144C86.0422 69.433 85.8585 67.676 85.7075 66.0098C85.4652 63.3387 85.3299 62.1454 85.0858 60.5233L85.0198 60.0857H79.9644C75.1591 60.0857 74.9089 60.0979 74.9089 60.3316ZM94.5478 60.1728C93.2199 60.4915 92.7123 60.8061 91.9997 61.7518C91.2903 62.693 91.2039 63.2118 91.1387 66.9187L91.0789 70.3183H94.3318H97.5847V67.4909C97.5847 64.8429 97.6019 64.6464 97.8547 64.3942C98.2078 64.042 98.8235 64.0488 99.1498 64.4084C99.39 64.6733 99.4069 64.945 99.4069 68.5486C99.4069 72.8736 99.3566 73.1744 98.5782 73.4989C98.2722 73.6264 97.5424 73.6843 96.2393 73.6843H94.3453V75.4869V77.2896L96.2687 77.3476C98.3055 77.409 98.7955 77.5485 99.2228 78.1883C99.4587 78.5416 99.5731 86.6026 99.3504 87.1869C99.1232 87.7828 98.3717 87.9257 97.6919 87.5021C97.6767 87.4926 97.631 85.9701 97.5907 84.1188L97.5173 80.7528H94.3453H91.1734L91.1359 84.0515C91.0977 87.4102 91.2155 88.8574 91.5918 89.6484C91.958 90.4181 92.7417 91.1978 93.5216 91.5685L94.2778 91.9278H98.5296H102.781L103.591 91.497C104.607 90.9563 104.906 90.6326 105.45 89.4818L105.886 88.5619V83.3783V78.1947L105.527 77.5215C104.965 76.469 104.416 76.0314 103.256 75.7123C102.701 75.5595 102.094 75.4293 101.907 75.4229C101.72 75.4164 102.022 75.3069 102.579 75.1796C104.192 74.8104 104.866 74.3344 105.515 73.1057L105.886 72.4052V68.0294C105.886 63.6792 105.884 63.6487 105.548 62.8002C105.106 61.6823 104.504 60.9967 103.554 60.5315L102.781 60.1531L98.7995 60.1306C96.6095 60.1182 94.6963 60.1372 94.5478 60.1728ZM110.036 76.0057L110.07 91.9278L113.276 91.9639L116.481 92V78.0625V64.1249H117.494H118.506V78.0625V92L121.712 91.9639L124.917 91.9278V76.0404V60.1531L117.459 60.1183L110.001 60.0834L110.036 76.0057ZM129.034 76.0338V91.9951H132.273H135.513V86.6096V81.224L137.369 81.2213C138.39 81.2199 139.618 81.162 140.098 81.0928C142.182 80.7923 143.43 79.5195 143.741 77.3781C143.92 76.1395 143.92 64.987 143.74 63.8556C143.582 62.8557 143.095 61.7617 142.581 61.2485C142.387 61.0553 141.887 60.7297 141.469 60.5251L140.709 60.1531L134.872 60.1128L129.034 60.0725V76.0338ZM151.372 60.1703C150.791 60.304 149.955 60.6524 149.955 60.761C149.955 60.824 149.837 60.913 149.692 60.9589C149.29 61.0861 148.652 62.0422 148.307 63.0331L147.998 63.9229V75.9731V88.0233L148.306 88.9939C148.737 90.3526 149.242 90.9458 150.495 91.5624L151.237 91.9278H155.489H159.741L160.482 91.539C161.663 90.9193 162.293 90.0772 162.658 88.6292C162.811 88.026 162.845 85.692 162.845 76.0404C162.845 63.5033 162.843 63.4489 162.219 62.2099C161.869 61.5145 161.096 60.778 160.36 60.4389C159.777 60.1695 159.508 60.1517 155.692 60.1306C153.465 60.1183 151.521 60.1361 151.372 60.1703ZM166.962 76.0386V91.9951H170.201H173.441V81.9421C173.441 76.413 173.466 71.9143 173.496 71.9451C173.567 72.0177 173.912 73.9561 174.249 76.1751C174.395 77.1377 174.607 78.4101 174.72 79.0025C174.833 79.5949 175.084 81.0793 175.277 82.3011C175.604 84.3782 175.862 85.9724 176.537 90.1102C176.689 91.0358 176.813 91.8386 176.814 91.8942C176.815 91.9498 177.987 91.9951 179.42 91.9951H182.025L182.322 90.3458C182.485 89.4388 182.712 88.0663 182.825 87.2961C182.938 86.5258 183.089 85.6473 183.16 85.3439C183.231 85.0402 183.415 83.9135 183.567 82.8397C183.72 81.766 183.877 80.7966 183.916 80.6855C183.956 80.5744 184.134 79.5444 184.314 78.3966C184.97 74.1897 185.314 72.1631 185.383 72.0942C185.422 72.0554 185.454 76.5184 185.454 82.0118V92L188.727 91.9639L192 91.9278V76.0404V60.1531L187.798 60.1175L183.597 60.082L183.453 60.6561C183.374 60.9718 183.153 62.1507 182.963 63.2759C182.772 64.4009 182.585 65.4046 182.546 65.5063C182.506 65.6079 182.327 66.5353 182.146 67.5671C181.374 71.9869 181.125 73.3603 181.061 73.5636C180.988 73.7995 180.338 77.3813 179.905 79.945C179.755 80.8336 179.598 81.6515 179.557 81.7626C179.432 82.1 179.225 81.1012 178.095 74.7277C177.908 73.6726 177.724 72.7119 177.687 72.5931C177.65 72.4744 177.435 71.3535 177.209 70.1023C176.984 68.8511 176.649 67.0095 176.465 66.0098C176.281 65.0102 175.966 63.2834 175.764 62.1726L175.398 60.1531L171.18 60.1175L166.962 60.082V76.0386ZM80.2279 64.9664C80.2698 65.4293 80.3983 67.4438 80.5135 69.4431C80.6285 71.4425 80.7772 73.5631 80.844 74.1555C80.9107 74.7479 81.0017 75.99 81.0461 76.9156C81.0905 77.8412 81.1609 78.8864 81.2025 79.2381L81.2781 79.8776H80.0354H78.7927L78.8587 78.9688C78.9394 77.8574 79.442 70.4871 79.6323 67.6255C79.8058 65.018 79.9113 64.1249 80.046 64.1249C80.104 64.1249 80.1857 64.5036 80.2279 64.9664ZM137.057 64.5439L137.41 64.9629L137.373 70.951L137.335 76.9392L136.956 77.2639C136.694 77.4886 136.413 77.5888 136.045 77.5888H135.513V70.8568V64.1249H136.108C136.609 64.1249 136.76 64.1916 137.057 64.5439ZM156.109 64.4083C156.357 64.6811 156.368 65.0905 156.407 75.4824C156.429 81.4172 156.41 86.5335 156.364 86.8518C156.294 87.3375 156.209 87.4647 155.836 87.6421C155.45 87.8254 155.339 87.8288 155.002 87.6674L154.612 87.4811L154.577 76.0501C154.546 65.5569 154.561 64.5987 154.767 64.372C155.075 64.0324 155.786 64.0515 156.109 64.4083Z" fill="#0071FE"/>
</svg>
