<svg width="249" height="120" viewBox="0 0 249 120" fill="none" xmlns="http://www.w3.org/2000/svg">
<path d="M76.8141 78.4563H92.5976V83.6322H85.0892V120H76.8141V78.4563Z" fill="#0071FE"/>
<path d="M101.955 104.404L103.373 83.6322H103.848L105.266 104.404H101.955ZM92.791 120H100.893L101.66 108.967H105.562L106.332 120H114.431L110.115 78.4563H97.1067L92.791 120Z" fill="#0071FE"/>
<path d="M126.282 105.46V113.292C126.282 114.347 127.096 114.654 127.571 114.654C128.351 114.654 128.894 114.007 128.894 113.292V103.621C128.894 102.327 128.657 100.897 125.569 100.897H122.21V96.3337H125.705C128.046 96.3337 128.894 95.7888 128.894 93.2349V84.9943C128.894 84.2792 128.351 83.6322 127.571 83.6322C127.096 83.6322 126.282 83.9047 126.282 84.9943V91.7707H118.003V85.8797C118.003 82.9852 118.342 78.4563 124.144 78.4563H130.998C136.8 78.4563 137.173 82.9852 137.173 85.8797V92.5198C137.173 97.0488 134.017 98.2747 131.541 98.1725V98.5811C137.105 98.4449 137.173 102.736 137.173 104.2V112.577C137.173 115.505 136.8 120 130.998 120H124.144C118.342 120 118.003 115.505 118.003 112.577V105.46H126.282Z" fill="#0071FE"/>
<path d="M142.601 78.4563H161.771V120H153.492V83.6322H150.88V120H142.601V78.4563Z" fill="#0071FE"/>
<path d="M175.478 101.305V83.6322H176.564C177.446 83.6322 178.091 84.3814 178.091 85.7094V99.2281C178.091 100.556 177.446 101.305 176.564 101.305H175.478ZM167.199 120H175.478V105.868H180.228C185.996 105.868 186.369 101.373 186.369 98.4449V85.8797C186.369 82.9852 185.996 78.4563 180.228 78.4563H167.199V120Z" fill="#0071FE"/>
<path d="M202.689 113.292C202.689 114.007 202.146 114.654 201.365 114.654C200.89 114.654 200.076 114.347 200.076 113.292V84.9943C200.076 83.9047 200.89 83.6322 201.365 83.6322C202.146 83.6322 202.689 84.2792 202.689 84.9943V113.292ZM191.798 112.577C191.798 115.505 192.171 120 197.939 120H204.826C210.594 120 210.967 115.505 210.967 112.577V85.8797C210.967 82.9852 210.594 78.4563 204.826 78.4563H197.939C192.171 78.4563 191.798 82.9852 191.798 85.8797V112.577Z" fill="#0071FE"/>
<path d="M237.906 78.4563H248.696V120H240.417V93.95H240.112L235.837 120H229.221L224.98 93.95H224.674V120H216.396V78.4563H227.151L232.546 107.673L237.906 78.4563Z" fill="#0071FE"/>
<path d="M66.0859 21.6572C63.5514 10.5221 57.2 1.46425 56.3247 0C54.9404 2.07718 49.8748 10.0794 47.2997 18.933C44.487 28.8422 44.0731 37.6277 45.0434 46.2429C46.007 54.8921 49.6475 63.7798 49.6475 63.7798C51.5815 68.4109 54.4789 73.4166 56.3654 75.8683C59.1305 72.2588 65.4853 61.4983 67.4668 47.4688C68.5694 39.6368 68.6169 32.7923 66.0859 21.6572ZM56.3247 73.076C55.0795 70.7264 53.1455 66.2656 52.9623 59.319C52.9148 52.6447 55.585 46.8899 56.3654 45.6981C57.0609 46.8899 59.3612 51.8956 59.6361 58.7401C59.8227 65.4143 57.6105 70.6924 56.3247 73.076ZM65.3496 40.5562C65.2546 44.8127 64.7491 49.3076 64.1044 51.9977C64.3351 47.3666 63.7821 40.8626 62.7236 35.7548C61.665 30.681 58.6691 22.168 56.2771 18.252C54.0684 21.9977 51.3473 29.353 49.9223 35.7208C48.4906 42.0885 48.4498 49.8184 48.4498 52.1339C48.0699 50.193 47.1198 43.2123 47.3879 36.2315C47.6118 30.4767 48.9554 24.5176 49.6916 21.7934C52.5009 12.7015 55.68 6.87854 56.2771 5.95912C56.8743 6.87854 60.8779 14.0636 62.9543 21.5891C65.0205 29.1146 65.4378 36.3337 65.3496 40.5562Z" fill="#0071FE"/>
<path d="M41.3554 78.4563V91.4302C41.3724 91.4302 41.3859 91.3961 41.4029 91.3961C45.9425 86.8332 53.305 86.8332 57.848 91.3961C62.3877 95.9251 62.3877 103.314 57.848 107.877C57.8277 107.911 57.8073 107.911 57.787 107.946C57.7632 107.946 57.7395 107.98 57.7191 108.014C53.1897 112.509 47.2725 114.756 41.3554 114.756C35.4111 114.756 29.4669 112.509 24.934 107.946C16.9405 99.9432 15.9939 87.5142 22.0874 78.4563C22.9085 77.2304 23.8551 76.0726 24.934 74.983C29.4669 70.42 35.4111 68.1725 41.3554 68.1725V36.9807C18.5148 36.9807 0 55.5391 0 78.4563C0 101.373 18.5148 119.966 41.3554 119.966C53.2643 119.966 63.9925 114.892 71.5382 106.822V78.4563H41.3554Z" fill="#0071FE"/>
</svg>
