<svg width="158" height="180" viewBox="0 0 158 180" fill="none" xmlns="http://www.w3.org/2000/svg">
<path fill-rule="evenodd" clip-rule="evenodd" d="M125.502 9.13929C96.2153 25.1153 91.4308 27.9495 63.0452 46.1343C40.2103 60.7632 32.0366 66.4723 23.7712 73.5656C8.3721 86.7817 1.35373 98.2383 0.138097 112.144C-0.289937 117.042 0.262288 120.679 2.00149 124.412C4.79631 130.412 9.45638 135.274 19.6581 142.837C21.9933 144.568 24.0533 146.174 24.2356 146.407C24.6432 146.926 24.6658 148.166 24.2807 148.883C23.7853 149.805 22.4149 150.165 19.4012 150.165C17.8639 150.165 16.6064 150.266 16.6064 150.389C16.6064 150.512 16.9437 151.435 17.356 152.438L18.106 154.263L21.4028 154.42C25.5861 154.62 27.6379 155.368 32.2523 158.375C37.6371 161.883 39.7191 163.045 41.9487 163.789C43.7376 164.385 44.8651 165.068 49.1136 168.126C54.9988 172.363 55.9765 172.938 60.3364 174.72C69.2251 178.353 75.4924 179.685 84.9378 179.948C89.0348 180.062 91.0014 179.997 93.5622 179.661C100.373 178.769 106.555 177.197 111.927 174.994C114.323 174.011 123.345 168.833 125.826 167.016C128.712 164.904 135.649 157.826 138.197 154.395C142.666 148.375 144.42 145.141 147.3 137.611C150.289 129.795 150.837 127.131 151.103 119.103L151.279 113.816L154.682 113.742C156.553 113.701 158.046 113.569 157.999 113.449C157.952 113.329 157.325 111.79 156.605 110.03L155.298 106.829L153.041 106.754L150.785 106.678L150.066 103.241C148.027 93.4891 145.386 87.0434 140.35 79.5261C134.008 70.0583 126.553 63.4459 115.639 57.6088L113.966 56.714L114.18 55.3922C114.297 54.6652 114.39 53.1782 114.386 52.0877C114.375 49.0988 113.032 46.6091 110.449 44.7879L109.689 44.2521L114.032 40.8511C119.163 36.832 126.053 30.1064 127.879 27.3344C129.587 24.7407 131.082 21.6773 131.819 19.2574L132.438 17.225L134.426 16.4502L136.414 15.6753L139.535 7.9116C141.252 3.6414 142.627 0.0817954 142.589 0.00116571C142.552 -0.079464 134.863 4.03291 125.502 9.13929ZM121.468 22.942C118.68 28.9229 115.062 33.5722 107.305 41.1421L102.404 45.9257L103.549 46.648C105.244 47.7154 106.964 49.7486 107.357 51.1476C108.936 56.765 101.553 66.2317 92.0151 70.821C90.7995 71.406 89.6738 71.9281 89.5138 71.9813C89.3535 72.0344 89.7075 72.7252 90.3001 73.5164C92.2428 76.11 93.0227 78.2482 93.0283 80.997C93.0349 84.2166 91.8058 87.2613 88.9982 90.9803C86.9623 93.677 79.6165 101.09 74.6563 105.452L71.0088 108.661H90.485H109.961L116.463 124.853C120.04 133.758 122.91 141.134 122.843 141.243C122.776 141.352 121.008 141.441 118.915 141.441H115.109L109.589 127.688L104.068 113.934L100.247 114.007L96.4258 114.08L93.5134 121.35C91.9116 125.348 90.506 128.718 90.3903 128.838C90.2743 128.957 88.8209 125.658 87.1605 121.505L84.1417 113.954L78.5027 113.951C75.4014 113.949 72.8637 114.008 72.8637 114.081C72.8637 114.154 75.303 120.287 78.2846 127.711C81.9713 136.891 83.6012 141.248 83.3799 141.333C83.201 141.401 81.3947 141.424 79.3657 141.383L75.6769 141.309L69.0656 124.845L62.4543 108.381L59.1115 108.455L55.7689 108.528L54.3009 119.698C53.4937 125.841 52.7562 130.867 52.6623 130.867C52.5684 130.867 47.5638 125.811 41.5414 119.632L30.5914 108.396H26.6762H22.7613L30.0065 126.439L37.2518 144.481L42.7488 144.553C47.9131 144.62 48.2355 144.596 48.0734 144.156C47.9786 143.899 46.9883 141.4 45.8724 138.603C44.7566 135.806 43.9071 133.454 43.9843 133.377C44.1197 133.242 52.0886 141.172 54.1481 143.49L55.1461 144.614H57.078H59.0098L59.3134 142.433C59.4801 141.233 59.8208 138.715 60.0705 136.836C60.3199 134.958 60.6437 133.426 60.7896 133.431C60.9356 133.437 62.07 135.954 63.3106 139.026L65.5662 144.61L78.4051 144.546L91.2442 144.481L94.5029 136.294C96.2952 131.791 97.8677 128.071 97.9978 128.028C98.1275 127.985 99.7261 131.669 101.55 136.216L104.865 144.481L120.593 144.55C129.243 144.587 136.259 144.52 136.185 144.4C136.111 144.28 133.345 137.409 130.038 129.131C126.732 120.853 123.966 113.931 123.892 113.75C123.785 113.488 126.238 113.419 135.635 113.419H147.514L147.346 117.451C146.886 128.526 143.59 139.09 137.818 147.984L136.231 150.429H106.221H76.2116L74.1773 151.76C73.0585 152.491 71.1564 153.505 69.95 154.012C57.6644 159.173 43.8609 156.232 30.6712 145.641C27.4269 143.037 20.9385 136.421 18.6969 133.432C13.7227 126.8 11.5817 119.581 12.3237 111.941C13.3185 101.697 16.8386 93.4359 24.1398 84.2092C27.1039 80.4638 34.3497 73.3819 39.0297 69.6565C50.2695 60.7092 66.9838 50.2237 89.9798 37.693C97.4495 33.623 120.785 21.9642 121.479 21.956C121.902 21.9509 121.901 22.0131 121.468 22.942ZM116.19 62.445C120.853 64.9578 124.135 67.3431 128.138 71.1274C133.561 76.2552 138.013 82.2405 141.202 88.6941C143.647 93.6418 145.202 98.5362 146.768 106.215L146.943 107.074H111.495C91.5905 107.074 76.0481 106.974 76.0481 106.845C76.0481 106.718 78.2273 105.242 80.891 103.564C83.5548 101.886 86.7983 99.7591 88.0989 98.8373C100.498 90.0497 104.402 80.1574 98.1891 73.2735L97.0021 71.958L99.7707 70.5178C105.023 67.7851 109.073 64.603 111.115 61.6044C111.604 60.885 112.044 60.2934 112.092 60.2897C112.139 60.286 113.983 61.2559 116.19 62.445ZM134.163 153.043C134.163 153.171 132.547 154.947 130.573 156.988C124.705 163.056 120.412 166.242 113.427 169.711C93.8578 179.43 70.7321 177.97 52.5885 165.87C50.7344 164.634 50.5651 164.455 51.129 164.336C54.181 163.689 58.0524 162.633 60.256 161.845C63.9589 160.521 70.5625 157.19 74.1906 154.817L77.2423 152.821L105.703 152.815C122.032 152.811 134.163 152.908 134.163 153.043Z" fill="#162470"/>
</svg>
