<svg width="380" height="380" viewBox="0 0 380 380" fill="none" xmlns="http://www.w3.org/2000/svg">
<path fill-rule="evenodd" clip-rule="evenodd" d="M236.502 106.139C207.215 122.115 202.431 124.95 174.045 143.134C151.21 157.763 143.037 163.472 134.771 170.566C119.372 183.782 112.354 195.238 111.138 209.144C110.71 214.042 111.262 217.679 113.001 221.412C115.796 227.412 120.456 232.274 130.658 239.837C132.993 241.568 135.053 243.174 135.236 243.407C135.643 243.926 135.666 245.166 135.281 245.883C134.785 246.805 133.415 247.165 130.401 247.165C128.864 247.165 127.606 247.266 127.606 247.389C127.606 247.512 127.944 248.435 128.356 249.438L129.106 251.263L132.403 251.42C136.586 251.62 138.638 252.368 143.252 255.375C148.637 258.883 150.719 260.045 152.949 260.789C154.738 261.385 155.865 262.068 160.114 265.126C165.999 269.363 166.976 269.938 171.336 271.72C180.225 275.353 186.492 276.685 195.938 276.948C200.035 277.062 202.001 276.997 204.562 276.661C211.373 275.769 217.555 274.197 222.927 271.994C225.323 271.011 234.345 265.833 236.826 264.016C239.712 261.904 246.649 254.826 249.197 251.395C253.666 245.375 255.42 242.141 258.3 234.611C261.289 226.795 261.837 224.131 262.103 216.103L262.279 210.816L265.682 210.742C267.553 210.701 269.046 210.569 268.999 210.449C268.952 210.329 268.325 208.79 267.605 207.03L266.298 203.829L264.041 203.754L261.785 203.678L261.066 200.241C259.027 190.489 256.386 184.043 251.35 176.526C245.008 167.058 237.553 160.446 226.639 154.609L224.966 153.714L225.18 152.392C225.297 151.665 225.39 150.178 225.386 149.088C225.375 146.099 224.032 143.609 221.449 141.788L220.689 141.252L225.032 137.851C230.163 133.832 237.053 127.106 238.879 124.334C240.587 121.741 242.082 118.677 242.819 116.257L243.438 114.225L245.426 113.45L247.414 112.675L250.535 104.912C252.252 100.641 253.627 97.0818 253.589 97.0012C253.552 96.9205 245.863 101.033 236.502 106.139ZM232.468 119.942C229.68 125.923 226.062 130.572 218.305 138.142L213.404 142.926L214.549 143.648C216.244 144.715 217.964 146.749 218.357 148.148C219.936 153.765 212.553 163.232 203.015 167.821C201.799 168.406 200.674 168.928 200.514 168.981C200.354 169.034 200.708 169.725 201.3 170.516C203.243 173.11 204.023 175.248 204.028 177.997C204.035 181.217 202.806 184.261 199.998 187.98C197.962 190.677 190.617 198.09 185.656 202.452L182.009 205.661H201.485H220.961L227.463 221.853C231.04 230.758 233.91 238.134 233.843 238.243C233.776 238.352 232.008 238.441 229.915 238.441H226.109L220.589 224.688L215.068 210.934L211.247 211.007L207.426 211.08L204.513 218.35C202.912 222.348 201.506 225.718 201.39 225.838C201.274 225.957 199.821 222.658 198.16 218.505L195.142 210.954L189.503 210.951C186.401 210.949 183.864 211.008 183.864 211.081C183.864 211.154 186.303 217.287 189.285 224.711C192.971 233.891 194.601 238.248 194.38 238.333C194.201 238.401 192.395 238.424 190.366 238.383L186.677 238.309L180.066 221.845L173.454 205.381L170.111 205.455L166.769 205.528L165.301 216.698C164.494 222.841 163.756 227.867 163.662 227.867C163.568 227.867 158.564 222.811 152.541 216.632L141.591 205.396H137.676H133.761L141.007 223.439L148.252 241.481L153.749 241.553C158.913 241.62 159.235 241.596 159.073 241.156C158.979 240.899 157.988 238.4 156.872 235.603C155.757 232.806 154.907 230.454 154.984 230.377C155.12 230.242 163.089 238.172 165.148 240.49L166.146 241.614H168.078H170.01L170.313 239.433C170.48 238.233 170.821 235.715 171.07 233.836C171.32 231.958 171.644 230.426 171.79 230.431C171.936 230.437 173.07 232.954 174.311 236.026L176.566 241.61L189.405 241.546L202.244 241.481L205.503 233.294C207.295 228.791 208.868 225.071 208.998 225.028C209.128 224.985 210.726 228.669 212.55 233.216L215.865 241.481L231.593 241.55C240.243 241.587 247.259 241.52 247.185 241.4C247.111 241.28 244.345 234.409 241.038 226.131C237.732 217.853 234.966 210.931 234.892 210.75C234.785 210.488 237.238 210.419 246.635 210.419H258.514L258.346 214.451C257.886 225.526 254.59 236.09 248.818 244.984L247.231 247.429H217.221H187.212L185.177 248.76C184.058 249.491 182.156 250.505 180.95 251.012C168.664 256.173 154.861 253.232 141.671 242.641C138.427 240.037 131.938 233.421 129.697 230.432C124.723 223.8 122.582 216.581 123.324 208.941C124.318 198.697 127.839 190.436 135.14 181.209C138.104 177.464 145.35 170.382 150.03 166.657C161.27 157.709 177.984 147.224 200.98 134.693C208.449 130.623 231.785 118.964 232.479 118.956C232.902 118.951 232.901 119.013 232.468 119.942ZM227.19 159.445C231.853 161.958 235.135 164.343 239.138 168.127C244.561 173.255 249.013 179.24 252.202 185.694C254.647 190.642 256.202 195.536 257.768 203.215L257.943 204.074H222.495C202.591 204.074 187.048 203.974 187.048 203.845C187.048 203.718 189.227 202.242 191.891 200.564C194.555 198.886 197.798 196.759 199.099 195.837C211.498 187.05 215.402 177.157 209.189 170.273L208.002 168.958L210.771 167.518C216.023 164.785 220.073 161.603 222.115 158.604C222.604 157.885 223.044 157.293 223.092 157.29C223.139 157.286 224.983 158.256 227.19 159.445ZM245.163 250.043C245.163 250.171 243.547 251.947 241.573 253.988C235.705 260.056 231.412 263.242 224.427 266.711C204.858 276.43 181.732 274.97 163.589 262.87C161.734 261.634 161.565 261.455 162.129 261.336C165.181 260.689 169.052 259.633 171.256 258.845C174.959 257.521 181.562 254.19 185.191 251.817L188.242 249.821L216.703 249.815C233.032 249.811 245.163 249.908 245.163 250.043Z" fill="#162470"/>
</svg>
