<svg width="245" height="123" viewBox="0 0 245 123" fill="none" xmlns="http://www.w3.org/2000/svg">
<path fill-rule="evenodd" clip-rule="evenodd" d="M97.5671 36.7368C100.328 36.3697 104.727 36.6492 106.812 37.3979C107.78 37.7452 108.514 38.0135 109.345 38.4931C111.838 39.932 115.2 43.2726 128.327 56.3517M121.17 72.7827C119.4 72.7771 117.758 72.7725 116.232 72.7682C115.48 72.7661 114.757 72.7641 114.06 72.7621C116.17 72.7682 118.528 72.7743 121.17 72.7827ZM93.3118 71.1251C93.2731 71.1048 93.234 71.0841 93.1944 71.0632C92.9546 70.9369 92.6965 70.8009 92.4096 70.6545C92.7438 70.8251 93.0391 70.9816 93.3118 71.1251ZM60.775 85.3844C54.4186 81.8946 53.1762 75.7465 58.3528 73.3991C59.4711 72.8919 60.0657 72.8601 68.496 72.8545L77.4511 72.8487L77.3005 78.5463L70.2762 78.612C63.51 78.6753 63.2348 78.6981 62.7919 79.2329C61.7094 80.5391 63.7425 81.9781 71.0295 85.064C77.6645 87.8736 80.461 91.6324 80.4748 97.759C80.5031 110.662 63.1235 115.047 57.0865 103.66C54.0501 97.9331 55.9388 90.3196 61.1532 87.2644C61.8459 86.8586 62.2131 86.6437 62.2157 86.4244C62.2187 86.1768 61.7572 85.9237 60.775 85.3844ZM138.196 86.4792C138.46 86.215 142.158 84.9459 143.568 84.6358C147.507 83.7695 152.726 84.3085 155.691 85.8882C160.637 88.5237 161.336 94.9484 156.98 97.7426C155.699 98.5646 155.182 98.7141 147.839 100.387C145.246 100.977 144.496 101.457 144.496 102.524C144.496 105.036 150.148 105.636 155.652 103.708C156.733 103.33 157.804 102.961 158.034 102.888C158.646 102.695 160.567 107.249 160.076 107.731C159.431 108.365 155.709 109.667 153.386 110.072C144.827 111.565 137.907 108.54 137.412 103.09C136.997 98.5127 139.299 96.5058 146.718 94.9778C151.054 94.0848 151.964 93.7543 152.448 92.8978C153.957 90.2261 148.296 88.975 142.539 90.7081C141.244 91.0979 140.161 91.383 140.133 91.3417C139.877 90.9683 138.119 86.5555 138.196 86.4792ZM1.44688 102.924C-1.98075 95.7087 2.45945 86.9874 10.4169 85.3057C12.6334 84.8372 15.6303 85.2692 18.6341 86.49C18.9789 86.6302 19.0977 86.5027 19.1642 85.9211L19.2501 85.1714H25.3467L25.4167 98.1565C25.5028 114.106 25.3968 114.755 22.1526 118.156C15.0479 125.602 2.00485 121.598 0.673139 111.562L0.494215 110.214H3.70926C6.76844 110.214 6.9243 110.24 6.9243 110.755C6.9243 111.052 7.15412 111.746 7.43536 112.297C10.2353 117.784 18.6863 116.365 19.0698 110.343L19.1785 108.637L17.4913 109.324C11.4141 111.802 4.31945 108.972 1.44688 102.924ZM89.3613 116.309H83.2646V85.0389H89.3613V85.8339C89.3613 86.1996 89.3535 86.4264 89.4612 86.519C89.6377 86.6707 90.1238 86.4627 91.4611 85.9163C95.8197 84.1347 101.826 85.5728 104.968 89.1501C110.519 95.4705 108.76 105.145 101.389 108.832C97.6667 110.694 94.3796 110.674 89.8251 108.762C89.3957 108.582 89.3613 108.854 89.3613 112.438V116.309ZM114.141 106.371C107.274 99.3795 111.261 87.0301 120.937 85.3227C129.854 83.7494 137.612 92.084 135.342 100.797C132.87 110.288 121.042 113.397 114.141 106.371ZM169.943 116.309H163.846V85.0813L169.81 85.1714L169.894 85.9001C169.932 86.2291 169.944 86.4362 170.052 86.5223C170.236 86.6687 170.699 86.4652 172.043 85.9163C176.445 84.1169 182.307 85.5434 185.633 89.2235C191.162 95.3422 189.335 105.148 181.98 108.827C178.248 110.694 174.965 110.676 170.407 108.762C169.977 108.582 169.943 108.854 169.943 112.438V116.309ZM191.371 99.6843C190.277 93.3062 194.631 86.8753 201.026 85.4239C203.096 84.9541 205.787 85.1274 207.798 85.8604C209.431 86.4558 209.971 86.6686 210.148 86.5C210.247 86.4063 210.233 86.1945 210.233 85.8649V85.0389H216.33L216.347 94.2477C216.368 105.762 216.547 108.605 217.358 110.28C221.257 118.332 233.892 118.285 237.51 110.205C237.822 109.51 237.993 109.155 237.895 109.05C237.788 108.936 237.365 109.117 236.46 109.48C227.699 112.994 217.924 104.705 219.764 95.3218C221.379 87.0823 229.521 83.1059 237.847 86.49C238.192 86.6302 238.311 86.5027 238.378 85.9211L238.463 85.1714L244.722 85.0219L244.632 97.2868C244.559 107.449 244.566 109.649 243.835 111.569C243.604 112.175 243.3 112.753 242.895 113.545C237.111 124.88 220.056 125.786 212.931 115.136C211.713 113.316 210.499 110.443 210.499 109.383C210.499 108.624 210.144 108.615 208.38 109.327C201.033 112.294 192.726 107.584 191.371 99.6843ZM29.6629 103.68C25.9672 96.8898 29.3432 88.4129 36.7577 85.8638C45.9485 82.7042 55.3596 91.3772 52.9162 100.755C50.0269 111.846 35.1268 113.72 29.6629 103.68ZM18.474 100.261C19.9788 97.1866 18.664 93.5688 15.4914 92.0532C11.5667 90.1786 6.97864 92.8326 6.70455 97.136C6.25844 104.141 15.3888 106.565 18.474 100.261ZM40.7208 103.92C47.2715 103.92 49.3446 95.193 43.504 92.2024C41.041 90.9413 38.1658 91.4739 36.1619 93.5627C32.432 97.45 35.28 103.92 40.7208 103.92ZM72.485 102.087C75.3218 99.2515 74.7424 94.5119 71.2988 92.3837C67.16 89.8254 61.9641 92.8199 61.9363 97.7797C61.9055 103.229 68.6065 105.965 72.485 102.087ZM98.5921 103.165C103.107 100.916 103.076 94.4796 98.5385 92.1471C94.3841 90.0114 89.5582 93.0232 89.546 97.759C89.5344 102.352 94.3944 105.257 98.5921 103.165ZM123.158 103.854C130.208 103.854 131.821 94.1508 125.161 91.8018C120.961 90.3201 116.495 93.9048 117.018 98.3373C117.407 101.631 119.881 103.854 123.158 103.854ZM179.192 103.156C183.933 100.794 183.637 94.1889 178.69 91.9504C174.667 90.1298 170.139 93.2012 170.127 97.759C170.116 102.346 174.991 105.249 179.192 103.156ZM208.01 102.208C211.05 99.4074 210.56 94.5748 207.015 92.3837C202.867 89.8195 197.668 92.7415 197.649 97.6472C197.629 103.161 203.954 105.946 208.01 102.208ZM237.7 100.295C239.294 96.8734 237.681 93.0632 234.105 91.8018C228.182 89.7125 223.28 96.9312 227.374 101.713C230.31 105.143 235.793 104.39 237.7 100.295Z" fill="black"/>
<path fill-rule="evenodd" clip-rule="evenodd" d="M116.23 40.5184C107.255 29.8475 113.303 13.3327 127.098 10.8443C135.803 9.27388 144.643 14.6937 147.617 23.4256L148.34 25.5456L148.491 72.6463L133.085 57.4436C124.611 49.0819 117.026 41.4658 116.23 40.5184ZM165.172 11.1265C165.973 10.9707 166.868 10.7881 167.16 10.7211C167.451 10.654 168.763 10.6463 170.075 10.7041C183.377 11.2905 191.405 24.9732 185.546 37.0733C184.458 39.3213 184.422 39.3594 167.787 56.021L151.117 72.7162L151.255 25.2806L152.002 23.1606C154.113 17.1654 159.519 12.2255 165.172 11.1265ZM161.727 65.5407C188.656 38.5369 190.148 37.2887 196.386 36.5533C216.411 34.1924 224.865 62.0877 206.77 70.8159C205.984 71.1949 205.366 71.5033 204.726 71.7542C201.843 72.884 198.502 72.8487 177.311 72.8487H154.44L161.727 65.5407ZM92.4096 70.6545C77.7901 63.1915 80.4849 40.9561 96.496 36.9341C99.0234 36.2994 104.429 36.5422 106.812 37.3979C110.682 38.7871 110.825 38.9129 128.327 56.3517L144.894 72.8588L121.17 72.7827C100.034 72.715 97.0523 72.8032 94.5626 71.7402C93.9152 71.4638 93.301 71.1096 92.4096 70.6545Z" fill="#E53F25"/>
<path fill-rule="evenodd" clip-rule="evenodd" d="M127.097 10.8443C113.303 13.3327 107.255 29.8474 116.23 40.5183C117.026 41.4657 124.611 49.0819 133.085 57.4435L148.491 72.6462L148.339 25.5456L147.617 23.4256C144.643 14.6937 135.803 9.27387 127.097 10.8443ZM167.159 10.7211C166.868 10.7881 165.973 10.9707 165.171 11.1265C159.519 12.2255 154.112 17.1654 152.002 23.1606L151.255 25.2806L151.117 72.7162L167.787 56.021C184.422 39.3594 184.458 39.3213 185.546 37.0733C191.405 24.9732 183.377 11.2905 170.075 10.7041C168.763 10.6463 167.451 10.654 167.159 10.7211ZM196.386 36.5533C190.148 37.2887 188.656 38.5369 161.727 65.5407L154.44 72.8487H177.311C203.209 72.8487 202.446 72.9014 206.77 70.8159C224.865 62.0877 216.411 34.1924 196.386 36.5533ZM96.4959 36.9341C80.4848 40.9561 77.7901 63.1914 92.4096 70.6545C96.7289 72.8596 94.5384 72.6974 121.17 72.7827L144.894 72.8588L128.327 56.3517C110.825 38.9129 110.682 38.787 106.812 37.3979C104.429 36.5422 99.0233 36.2994 96.4959 36.9341ZM58.3528 73.3991C53.1762 75.7465 54.4186 81.8946 60.775 85.3844C62.6276 86.4015 62.6276 86.4007 61.1532 87.2644C55.9388 90.3196 54.0501 97.9331 57.0865 103.66C63.1235 115.047 80.5031 110.662 80.4748 97.759C80.461 91.6324 77.6645 87.8736 71.0295 85.064C63.7425 81.9781 61.7094 80.5391 62.7919 79.2329C63.2348 78.6981 63.51 78.6753 70.2762 78.612L77.3005 78.5463L77.4511 72.8487L68.496 72.8545C60.0657 72.8601 59.4711 72.8919 58.3528 73.3991ZM143.568 84.6358C142.158 84.9458 138.46 86.2149 138.196 86.4791C138.119 86.5555 139.877 90.9683 140.133 91.3417C140.161 91.383 141.244 91.0979 142.539 90.7081C148.296 88.9749 153.957 90.226 152.448 92.8978C151.964 93.7543 151.054 94.0847 146.718 94.9778C139.299 96.5058 136.997 98.5127 137.412 103.09C137.907 108.54 144.827 111.565 153.386 110.072C155.709 109.667 159.431 108.365 160.076 107.731C160.567 107.249 158.646 102.695 158.034 102.888C157.804 102.961 156.733 103.33 155.652 103.708C150.148 105.636 144.496 105.036 144.496 102.524C144.496 101.457 145.246 100.977 147.839 100.387C155.182 98.7141 155.699 98.5646 156.98 97.7426C161.336 94.9484 160.637 88.5236 155.691 85.8882C152.726 84.3085 147.507 83.7695 143.568 84.6358ZM10.4169 85.3057C2.45945 86.9874 -1.98075 95.7087 1.44688 102.924C4.31945 108.972 11.4141 111.802 17.4913 109.324L19.1785 108.637L19.0698 110.343C18.6863 116.365 10.2353 117.784 7.43536 112.297C7.15412 111.746 6.9243 111.052 6.9243 110.755C6.9243 110.24 6.76844 110.214 3.70926 110.214H0.494215L0.673139 111.562C2.00485 121.598 15.0479 125.602 22.1526 118.156C25.3968 114.755 25.5028 114.106 25.4167 98.1565L25.3467 85.1714H19.2501L19.1642 85.921C19.0977 86.5027 18.9789 86.6302 18.6341 86.49C15.6303 85.2691 12.6334 84.8372 10.4169 85.3057ZM83.2646 116.309H89.3613V112.438C89.3613 108.854 89.3957 108.582 89.8251 108.762C94.3796 110.674 97.6667 110.694 101.389 108.832C108.76 105.145 110.519 95.4704 104.968 89.1501C101.826 85.5728 95.8197 84.1347 91.4611 85.9163C89.3072 86.7963 89.3613 86.7985 89.3613 85.8339V85.0389H83.2646V116.309ZM120.937 85.3227C111.261 87.0301 107.274 99.3795 114.141 106.371C121.043 113.397 132.87 110.288 135.342 100.797C137.612 92.084 129.854 83.7493 120.937 85.3227ZM163.846 116.309H169.943V112.438C169.943 108.854 169.977 108.582 170.407 108.762C174.965 110.676 178.248 110.694 181.98 108.827C189.335 105.148 191.162 95.3422 185.633 89.2235C182.307 85.5434 176.445 84.1169 172.043 85.9163C169.91 86.7879 169.996 86.7887 169.894 85.9001L169.81 85.1714L163.846 85.0812V116.309ZM201.026 85.4239C194.631 86.8753 190.277 93.3062 191.371 99.6843C192.726 107.584 201.033 112.294 208.38 109.327C210.144 108.615 210.499 108.624 210.499 109.383C210.499 110.443 211.713 113.316 212.931 115.136C220.056 125.786 237.111 124.88 242.895 113.545C244.579 110.245 244.535 110.658 244.632 97.2868L244.722 85.0219L238.463 85.1714L238.378 85.921C238.311 86.5027 238.192 86.6302 237.847 86.49C229.521 83.1059 221.379 87.0823 219.764 95.3218C217.924 104.705 227.699 112.994 236.46 109.48C238.199 108.783 238.159 108.755 237.51 110.205C233.892 118.285 221.257 118.331 217.358 110.28C216.547 108.605 216.368 105.762 216.347 94.2477L216.33 85.0389H210.233V85.8649C210.233 86.7868 210.339 86.7871 207.798 85.8604C205.787 85.1274 203.096 84.954 201.026 85.4239ZM36.7577 85.8638C29.3432 88.4129 25.9672 96.8898 29.6629 103.68C35.1268 113.72 50.0269 111.846 52.9162 100.755C55.3596 91.3772 45.9485 82.7042 36.7577 85.8638ZM15.4914 92.0532C18.664 93.5688 19.9788 97.1866 18.474 100.261C15.3888 106.565 6.25844 104.141 6.70455 97.136C6.97864 92.8326 11.5667 90.1786 15.4914 92.0532ZM43.504 92.2024C49.3446 95.193 47.2715 103.92 40.7208 103.92C35.28 103.92 32.432 97.45 36.1619 93.5627C38.1658 91.4739 41.041 90.9413 43.504 92.2024ZM71.2988 92.3837C74.7424 94.5119 75.3218 99.2515 72.485 102.087C68.6065 105.965 61.9055 103.229 61.9363 97.7797C61.9641 92.8199 67.16 89.8253 71.2988 92.3837ZM98.5385 92.147C103.076 94.4796 103.107 100.916 98.5921 103.165C94.3944 105.256 89.5343 102.352 89.546 97.759C89.5582 93.0231 94.3841 90.0114 98.5385 92.147ZM125.161 91.8017C131.821 94.1507 130.208 103.854 123.158 103.854C119.881 103.854 117.407 101.631 117.018 98.3372C116.495 93.9048 120.961 90.3201 125.161 91.8017ZM178.69 91.9504C183.637 94.1889 183.933 100.794 179.192 103.156C174.991 105.249 170.116 102.346 170.127 97.759C170.139 93.2012 174.667 90.1298 178.69 91.9504ZM207.015 92.3837C210.56 94.5747 211.05 99.4073 208.01 102.208C203.954 105.946 197.629 103.161 197.649 97.6472C197.668 92.7414 202.867 89.8195 207.015 92.3837ZM234.105 91.8017C237.681 93.0632 239.294 96.8734 237.7 100.295C235.793 104.39 230.31 105.143 227.374 101.713C223.28 96.9311 228.182 89.7125 234.105 91.8017Z" fill="#0071FE"/>
</svg>
