<svg width="137" height="97" viewBox="0 0 137 97" fill="none" xmlns="http://www.w3.org/2000/svg">
<path fill-rule="evenodd" clip-rule="evenodd" d="M44.4279 0.374624C38.8835 1.83594 34.4815 5.50384 32.1984 10.565C31.0584 13.0917 30.684 15.2531 30.8002 18.6352C30.9409 22.7336 31.7838 25.2842 34.0412 28.4441C34.5439 29.1478 42.075 36.8721 50.7771 45.6091L66.599 61.4949V38.7233C66.599 18.7783 66.5572 15.7478 66.263 14.3082C64.9594 7.93304 60.1624 2.67738 53.7631 0.613023C51.6557 -0.0669912 46.5935 -0.196212 44.4279 0.374624ZM84.861 0.208726C82.7307 0.628804 80.1054 1.76728 78.0631 3.15652C75.5831 4.84365 72.9622 8.13156 71.7417 11.087C70.3823 14.3784 70.418 13.6352 70.418 38.7233V61.4949L86.2399 45.6091C94.942 36.8721 102.473 29.1478 102.976 28.4441C105.233 25.2842 106.076 22.7336 106.217 18.6352C106.304 16.1064 106.252 15.3659 105.878 13.7928C104.277 7.0545 99.0384 1.85833 92.2895 0.315556C90.6802 -0.0522787 86.4904 -0.11241 84.861 0.208726ZM14.8411 25.5949C8.73395 26.6124 3.03927 31.4597 1.0201 37.3587C-0.443188 41.6339 -0.32968 46.1823 1.34429 50.3473C2.2322 52.5568 3.22364 53.9876 5.38983 56.1848C7.28678 58.1093 7.74739 58.4539 9.73918 59.4395C10.9644 60.0459 12.7307 60.7541 13.6642 61.0136C15.3602 61.4847 15.3793 61.4851 38.3813 61.5499L61.401 61.6149L45.3827 45.4959C28.3158 28.3217 27.8645 27.9125 24.5959 26.6474C21.5083 25.4524 17.98 25.0718 14.8411 25.5949ZM115.506 25.706C113.309 26.1791 111.024 27.1323 109.239 28.3211C108.028 29.1269 103.863 33.1902 91.6343 45.4959L75.616 61.6149L98.6357 61.5499C121.638 61.4851 121.657 61.4847 123.353 61.0136C124.286 60.7541 126.053 60.0459 127.278 59.4395C129.27 58.4539 129.73 58.1093 131.627 56.1848C135.178 52.5824 136.686 49.2659 136.967 44.437C137.272 39.186 135.458 34.3992 131.747 30.6697C127.474 26.3751 121.243 24.4707 115.506 25.706ZM33.4465 69.5838C32.0422 70.0875 31.3799 70.9884 31.3799 72.395C31.3799 73.8541 32.4492 75.1924 34.5933 76.4164L35.4035 76.8789L34.4781 77.5344C31.9784 79.3053 30.9623 82.6898 32.0456 85.637C32.6734 87.3448 34.4231 89.0931 36.1535 89.7416C40.5496 91.3886 45.3958 88.0901 45.4573 83.4087C45.469 82.5248 45.3273 81.5296 45.0909 80.8374C44.5877 79.3629 42.7682 77.3685 41.2832 76.664C40.679 76.3774 39.2777 75.7168 38.1691 75.1963C35.8934 74.1273 35.1948 73.5296 35.6197 73.0148C35.8412 72.7466 36.5579 72.6909 39.7862 72.6909H43.6854V70.985V69.2791L38.9647 69.2885C35.575 69.2951 34.0192 69.3785 33.4465 69.5838ZM79.7981 75.9857C79.181 76.1358 78.3075 76.4256 77.8571 76.6296L77.0383 77.0009L77.5641 78.2044C77.8532 78.8663 78.1539 79.4708 78.2319 79.5476C78.3102 79.6243 79.0424 79.51 79.8592 79.2934C82.5293 78.585 84.7201 78.8334 84.98 79.8738C85.1905 80.7172 84.6737 81.0057 81.7768 81.6614C78.1416 82.4843 76.98 83.2545 76.6798 85.041C76.0785 88.6174 80.2295 91.0174 85.4228 90.096C86.3822 89.9258 87.6947 89.5439 88.3392 89.2473L89.511 88.708L88.943 87.3632C88.6307 86.6234 88.3685 86.0027 88.3604 85.9835C88.3524 85.9645 87.6775 86.1752 86.8606 86.452C83.9169 87.4491 81.2771 87.3382 80.7592 86.1957C80.5443 85.7216 80.5717 85.5988 80.9644 85.2794C81.2137 85.0764 82.234 84.7474 83.2318 84.5482C87.8054 83.6353 89.0932 82.6826 89.085 80.2182C89.0782 78.2255 87.3785 76.4098 85.0503 75.9078C83.6489 75.6059 81.2103 75.6419 79.7981 75.9857ZM6.34456 76.4426C3.87392 77.1026 1.99754 79.0456 1.34684 81.6177C0.0401213 86.7834 5.1766 91.5251 10.2165 89.8058L11.4365 89.3895V90.3412C11.4365 91.1586 11.323 91.407 10.6305 92.103C8.88925 93.8528 5.84555 93.2897 5.07816 91.0756L4.76649 90.1764H2.98601H1.20532L1.35341 90.976C1.7648 93.1986 3.38382 95.2657 5.44987 96.2065C6.95347 96.891 9.45064 96.8522 11.0219 96.1195C12.5735 95.3958 13.549 94.5077 14.3122 93.1231L14.9372 91.9889L15 84.0458L15.0626 76.1027H13.3358C11.7715 76.1027 11.5982 76.1441 11.4948 76.5414C11.4148 76.8484 11.2778 76.9352 11.0374 76.8311C10.329 76.5245 8.56655 76.1031 8.04866 76.1168C7.75312 76.1245 6.98636 76.271 6.34456 76.4426ZM46.8678 84.8455V93.5882H48.5651H50.2624V91.433C50.2624 89.4623 50.2942 89.2915 50.6337 89.436C53.6995 90.7419 56.6082 90.2357 58.7432 88.0246C60.1531 86.5644 60.5528 85.483 60.5492 83.1396C60.5464 81.3624 60.477 80.9829 59.9842 80.0476C58.9208 78.0302 57.1024 76.71 54.7964 76.2812C53.5696 76.0532 53.0093 76.1321 50.7398 76.8537C50.3475 76.9783 50.2624 76.925 50.2624 76.5541C50.2624 76.1321 50.1521 76.1027 48.5651 76.1027H46.8678V84.8455ZM67.495 76.3185C65.4105 76.7559 63.5333 78.2765 62.5159 80.3513C61.8298 81.7507 61.8419 84.4943 62.541 86.0613C63.2139 87.57 64.8911 89.1281 66.4982 89.7378C69.0234 90.6954 72.1679 89.9638 73.924 88.0099C75.7212 86.0108 76.2773 83.3217 75.4165 80.7939C74.8755 79.2049 72.8825 77.1736 71.3727 76.6721C69.9762 76.2085 68.6124 76.084 67.495 76.3185ZM91.21 84.8455V93.5882H93.0134H94.8168V91.4887V89.3889L95.9306 89.7757C99.8743 91.1451 104.149 88.6496 105.011 84.4744C105.536 81.9331 104.284 78.9149 102.095 77.4431C101.131 76.7953 99.0709 76.1027 98.107 76.1027C97.6593 76.1027 95.8392 76.5614 95.2159 76.8311C94.9755 76.9352 94.8384 76.8484 94.7584 76.5414C94.6551 76.1443 94.4816 76.1027 92.9272 76.1027H91.21V84.8455ZM111.809 76.3341C110.585 76.5755 108.725 77.7135 107.945 78.6978C105.721 81.5059 105.859 85.3129 108.284 88.0099C110.232 90.1766 113.534 90.7347 116.581 89.4115C116.708 89.3565 116.933 89.722 117.082 90.2237C118.33 94.422 121.846 97 126.323 97C131.243 97 135.058 93.7982 135.784 89.0618C135.896 88.3261 135.962 85.1333 135.929 81.9668L135.87 76.2093L134.12 76.1475C132.452 76.0884 132.37 76.107 132.37 76.5435C132.37 76.8928 132.282 76.9668 131.998 76.8559C129.693 75.9528 127.883 75.9786 125.854 76.9433C121.596 78.9669 120.65 84.8171 124.039 88.1673C125.753 89.8619 128.769 90.6195 130.876 89.8853C131.397 89.7039 131.87 89.603 131.928 89.6612C132.126 89.8604 131.227 91.2707 130.483 91.9271C129.282 92.9873 128.01 93.4562 126.315 93.4634C124.467 93.4711 122.787 92.7267 121.656 91.3989C120.389 89.9105 120.276 89.1663 120.276 82.2478V76.1027H118.559C117.005 76.1027 116.831 76.1443 116.728 76.5414C116.648 76.8484 116.511 76.9352 116.271 76.8311C115.543 76.5162 113.795 76.1038 113.282 76.1262C112.986 76.139 112.323 76.2326 111.809 76.3341ZM20.773 76.7753C19.197 77.4003 17.5687 79.0855 16.951 80.7306C16.0078 83.243 16.653 86.2614 18.5385 88.1562C21.052 90.6826 25.2712 90.8624 27.9505 88.5575C29.5852 87.1512 30.3333 85.4323 30.3369 83.0743C30.3409 80.5737 28.9644 78.3155 26.6707 77.0593C25.1204 76.2104 22.5142 76.085 20.773 76.7753ZM9.92249 80.3103C10.8789 81.0221 11.4365 82.0444 11.4365 83.0856C11.4365 85.0197 10.2919 86.3268 8.44159 86.5055C7.17497 86.6279 6.32653 86.2968 5.50927 85.3613C4.10178 83.7501 4.61967 81.1953 6.55673 80.1937C7.68692 79.6094 9.04413 79.6565 9.92249 80.3103ZM24.3662 79.9374C24.7661 80.0527 25.4119 80.4572 25.8008 80.8362C28.0264 83.0042 26.5237 86.5531 23.3813 86.5505C21.4457 86.549 20.1375 85.2082 20.136 83.2244C20.135 81.8397 20.7524 80.8605 22.0383 80.2075C23.1015 79.6678 23.3361 79.6405 24.3662 79.9374ZM40.0866 80.2075C42.0141 81.1844 42.532 83.7518 41.126 85.3613C40.3088 86.2968 39.4603 86.6279 38.1937 86.5055C36.368 86.3292 35.1988 85.0192 35.1988 83.15C35.1988 81.2556 36.6411 79.8128 38.6015 79.7461C38.8977 79.7361 39.566 79.9438 40.0866 80.2075ZM55.2795 80.1694C57.5471 81.2727 57.7815 84.4442 55.7102 85.9959C55.2483 86.342 54.8021 86.4447 53.7631 86.4447C52.7242 86.4447 52.278 86.342 51.8161 85.9959C50.9049 85.3133 50.4256 84.3299 50.4256 83.1428C50.4256 81.7904 51.0519 80.7603 52.23 80.1741C53.3604 79.6118 54.131 79.6107 55.2795 80.1694ZM70.426 80.2075C71.6623 80.834 72.3996 82.174 72.2585 83.537C72.0847 85.2137 70.6327 86.5514 68.9865 86.5514C67.0219 86.5514 65.7417 85.389 65.5826 83.4605C65.3536 80.6854 67.9405 78.9477 70.426 80.2075ZM99.7046 80.2075C100.941 80.834 101.678 82.174 101.537 83.537C101.363 85.2137 99.9112 86.5514 98.2651 86.5514C96.3938 86.5514 95.0654 85.4229 94.8686 83.6658C94.7323 82.4529 94.9036 81.8292 95.6018 80.9955C96.6957 79.6887 98.1354 79.4122 99.7046 80.2075ZM115.142 80.3039C116.064 80.9952 116.512 81.7808 116.618 82.8899C116.813 84.9318 115.305 86.5514 113.209 86.5514C110.736 86.5514 109.113 83.7059 110.35 81.5403C111.301 79.874 113.733 79.2465 115.142 80.3039ZM130.385 80.1694C131.421 80.6735 132.081 81.607 132.266 82.8295C132.43 83.9113 131.713 85.3896 130.694 86.0699C129.264 87.0247 127.066 86.5371 126.039 85.0369C125.619 84.4235 125.556 84.1087 125.625 82.9833C125.693 81.8659 125.806 81.5477 126.333 80.985C127.541 79.6947 128.863 79.4286 130.385 80.1694Z" fill="#0071FE"/>
</svg>
