<svg width="245" height="80" viewBox="0 0 245 80" fill="none" xmlns="http://www.w3.org/2000/svg">
<path d="M93.8208 69.7863C84.7297 63.93 72.392 62.9023 52.4944 68.4227C31.2824 73.4074 24.2101 76.6028 14.922 70.1882C11.3537 67.0371 10.0744 61.9635 11.0297 54.6554C13.2454 42.7418 19.233 31.2769 29.8685 18.5595C35.8051 11.944 41.3117 6.26667 48.5832 3.98688C54.1561 2.5567 53.6351 6.93641 52.9608 7.56278C52.2492 7.56278 51.0539 7.67486 50.1301 8.27771C49.3803 8.85919 47.3222 10.7368 47.2117 13.2624C47.0523 17.1287 51.0536 16.324 52.7794 14.2012C54.6395 11.809 57.3887 7.22806 55.2262 2.95861C54.3198 1.43895 52.7537 0.388686 50.8093 0.0310651C44.151 -0.34946 37.9499 2.82454 32.227 6.33355C19.7112 15.0279 9.6994 27.0752 4.03428 40.2623C0.768051 48.2188 -2.18575 59.6162 2.2419 68.8927C5.66693 75.3292 12.7778 78.7482 21.2614 78.0332C27.2115 77.4081 34.4064 75.485 39.2454 74.3239C44.0844 73.1609 68.8549 64.6461 76.9937 79.4656C76.9937 79.4656 79.7001 74.2118 86.4638 74.0997C92.0245 73.5866 100.046 75.7095 105.888 80C103.942 77.0731 98.4241 72.7593 93.8208 69.7863Z" fill="#E61D2A"/>
<path d="M55.0204 20.0568C50.3875 17.0172 41.0759 22.8283 33.6178 32.7962C26.7977 41.7373 23.8527 52.1291 27.0576 56.9345C31.8251 62.5889 40.6756 54.3643 44.4393 49.962L44.9249 49.4474C47.4844 46.6982 49.4618 43.3901 51.3758 40.2161C51.3758 40.2161 53.1349 37.3106 53.2188 37.1762C54.3061 36.9759 55.6156 36.6628 57.0913 36.238C57.0702 36.3046 51.4454 45.7591 52.0192 50.4518C52.1979 51.8835 52.0614 57.1135 57.1676 58.7C63.9731 59.8407 69.4073 54.5652 74.2015 49.8716C74.2015 49.8716 75.0184 49.0901 75.4805 48.6439C75.3635 49.1121 75.2111 49.7366 75.2111 49.7366C73.2187 56.6655 75.9044 58.1191 77.5844 58.6557C82.6616 60.1317 88.7271 52.7554 88.7466 52.7554C88.5894 55.0789 88.1294 57.0011 90.5787 58.5433C92.8906 59.371 95.2302 58.1094 97.0086 56.9247C103.414 52.41 108.575 45.3441 112.743 39.2361H110.084C110.053 39.2361 103.524 48.6998 99.2838 50.7566C99.277 50.7566 98.5056 51.1527 98.0609 50.8394C97.5106 50.3697 97.7278 49.3936 98.0677 48.7022C98.0891 48.657 114.438 20.3015 114.438 20.3015H106.719C106.719 20.3015 105.875 21.6657 105.807 21.7552C105.755 21.7106 105.631 21.476 105.545 21.3636C100.763 14.7481 89.9325 24.924 81.7787 36.7245C78.6395 41.2621 74.6428 46.3711 70.4985 50.0588C70.4985 50.0588 64.3591 55.6867 61.7358 51.6432C60.7768 49.9443 61.0718 47.4605 61.6127 45.8293C64.667 37.135 69.9299 29.2444 75.9187 24.4833C77.6094 23.1655 79.447 22.7844 80.3589 23.3432C81.2278 23.8581 81.3679 25.131 80.8182 26.0029C79.4235 25.9583 78.306 26.3822 77.3975 27.321C75.6078 29.1986 74.986 31.0093 75.555 32.7082C78.3192 36.6418 83.8319 28.8636 83.5653 24.1254C83.47 22.4264 82.5636 20.8176 81.211 20.0346C79.195 18.8282 76.1197 19.1407 74.1294 20.1024C71.4651 21.1077 67.2476 24.6164 64.7858 27.3436C61.6866 30.7638 56.3715 34.5629 54.7092 34.1375C55.2537 32.6841 59.7434 23.4984 55.0204 20.0568ZM92.2364 33.6458C93.7381 31.5676 98.1086 26.002 99.1741 25.0635C102.758 21.9109 104.19 23.298 104.314 24.2808C100.97 30.2706 97.0223 37.1325 93.3111 43.3016C93.3187 43.2796 92.1497 45.0671 92.1497 45.0671C90.5106 47.5698 88.8603 49.7155 86.1682 51.2129C85.7843 51.3253 85.1515 51.3702 84.7304 51.0562C84.2234 50.7209 84.0234 50.162 84.0805 49.5805C84.2417 47.659 86.1984 41.7819 92.2364 33.6458ZM50.2427 37.244C50.2427 37.244 50.1756 37.4459 50.1423 37.5118C50.1337 37.5118 46.7768 42.987 46.7768 42.987C44.7508 45.6919 42.2212 49.0901 39.0591 50.7209C38.1218 51.0339 36.8263 51.2355 36.1661 50.4091C34.7664 48.7324 35.4878 46.4081 36.0738 44.5308L36.2812 43.8601C37.9615 39.3012 40.6276 35.2772 43.2226 31.5447C43.255 31.5227 43.3276 31.5004 43.3539 31.5004C43.36 31.5227 43.3704 31.5227 43.375 31.5676C45.0033 34.6961 48.0567 36.1482 50.3402 36.8198C50.3539 36.8198 50.3686 36.8421 50.3686 36.887C50.3689 36.9536 50.3316 37.0437 50.2427 37.244ZM53.4231 30.7855C53.4085 30.83 51.9279 34.227 51.9279 34.227C51.7138 34.4056 51.3755 34.3165 50.9876 34.227L50.3231 34.1146C48.2363 33.4669 46.6623 32.081 46.177 30.4272C45.5076 27.2086 48.2571 24.683 49.4686 23.7671C50.6309 22.9618 52.4379 22.5373 53.4873 23.3646C54.1344 24.1247 54.3797 25.1078 54.3797 26.1813C54.38 27.6338 53.9316 29.2652 53.4231 30.7855Z" fill="#E61D2A"/>
<path d="M151.01 41.1552C150.266 39.5464 148.499 38.5181 146.615 38.6296C140.501 39.1888 134.519 44.2175 131.379 51.4361C129.731 55.1467 128.832 58.2083 128.242 63.0806C130.143 60.8909 134.022 57.2927 138.423 55.3257C138.423 55.3257 139.022 50.6546 142.076 46.4972C143.232 44.7757 145.544 42.0045 148.141 42.7418C150.41 43.5022 149.613 49.7827 146.597 55.8607C144.366 60.3314 140.952 64.8028 137.497 67.8864C134.443 70.4792 129.924 73.608 125.97 71.1944C123.48 69.72 122.21 66.6348 122.478 62.6564C123.668 51.3699 128.806 41.759 136.158 30.8074C143.739 20.638 152.096 10.2005 163.354 4.63428C165.65 3.47224 167.777 3.2041 169.615 3.91934C169.615 3.91934 159.047 9.73045 154.009 20.4814C152.728 23.2086 150.946 26.8953 152.741 30.1588C153.678 31.8571 155.344 31.9915 156.684 31.902C162.859 30.4712 166.849 24.705 170.108 19.4308C171.998 15.4301 173.678 11.4517 173.678 7.02615C173.678 6.48987 173.65 5.77494 173.604 5.23805C176.554 3.67411 182.604 6.44498 182.604 6.44498C187.331 8.01014 197.397 15.7214 200.792 17.1959C202.448 15.274 205.17 12.3688 206.702 10.9157L204.484 9.55209C200.932 7.38408 197.178 5.32753 193.483 3.29389C185.091 -1.28738 178.26 0.321454 174.783 1.57328C173.417 2.06466 172.168 2.48947 172.168 2.48947C169.588 -0.326599 165.357 -0.0590711 162.239 0.701369C151.027 3.91965 140.617 11.7644 129.456 25.3763C121.25 36.0377 116.161 45.2463 113.448 54.3426C111.357 60.4661 110.721 69.4735 115.825 74.8155C120.164 79.3513 125.918 78.3688 129.982 76.7377C138.785 72.4017 146.698 63.0586 150.641 52.308C151.592 49.1124 152.648 44.5977 151.01 41.1552ZM171.253 7.47356C170.088 20.8393 159.699 28.6849 157.128 29.3098C155.57 29.6222 152.912 28.9299 155.285 23.3206C158.78 15.7654 164.746 9.35145 171.147 6.06567C171.303 6.62455 171.299 6.98126 171.253 7.47356Z" fill="#E61D2A"/>
<path d="M232.882 9.17157C227.294 12.3459 221.501 14.4015 214.488 13.6866C212.544 15.8775 210.652 18.1347 208.908 20.4588C218.751 22.9621 229.185 17.3968 235.005 12.1003C241.161 6.75831 244.318 0.0313265 244.318 0.0313265C244.318 0.0313265 239.703 5.30554 232.882 9.17157Z" fill="#E61D2A"/>
<path d="M123.131 27.0205L127.268 20.3018H119.937L115.802 27.0205H123.131Z" fill="#E61D2A"/>
<path d="M214.459 70.4083C213.67 70.9446 212.563 70.5323 212.977 69.3034C214.008 66.1743 218.109 59.7976 218.109 59.7976L229.529 39.5418H221.706C221.335 40.1526 220.539 41.5553 220.539 41.5553C220.177 40.9524 219.095 39.6118 218.65 39.3222C216.738 38.1144 213.934 38.6855 212 39.7803C203.59 44.6981 197.453 54.4144 192.614 61.9916C192.614 61.9916 187.52 70.4144 184.692 71.0408C182.484 71.2198 182.712 68.2458 182.807 67.5529C183.661 62.5456 185.643 57.7853 187.64 53.4716C191.703 50.6555 196.338 46.9679 200.551 42.9226C209.694 34.1827 217.402 24.2814 218.529 22.0688C218.529 22.0688 217.31 22.315 215.87 22.3592C208.836 32.171 194.442 46.4313 190.078 48.5541C192.011 43.9044 204.501 21.7109 215.13 11.0947L216.802 9.4849C219.388 6.95927 222.068 4.36675 224.157 3.94194C224.377 3.91965 224.661 3.94194 224.906 4.45684C224.999 6.4233 224.267 7.87638 223.428 9.5301L222.251 11.9443C222.251 11.9443 223.918 11.6312 225.013 11.2727C226.283 8.88235 227.69 6.19944 227.171 3.00407C226.998 1.97579 226.254 1.19367 225.281 1.01471C222.111 0.411241 218.655 2.7573 215.875 4.65779L215.762 4.72437C201.469 15.9221 189.4 32.0593 178.848 54.0971C178.084 54.6773 175.129 55.3709 174.627 55.0352C175.669 52.8901 176.981 50.0063 177.637 46.8772C177.751 45.983 177.856 45.0671 177.856 44.1732C177.856 42.2495 177.395 40.4397 175.671 39.1885C173.651 38.1825 171.154 38.6522 169.47 39.4117C161.927 42.5408 156.29 50.2747 152.222 56.6438C150.034 60.6903 147.853 65.0242 147.249 69.9869C146.823 73.8752 147.689 76.3786 149.9 77.6307C152.174 78.7921 155.035 77.5849 156.159 77.0043C163.801 72.9813 169.14 64.9133 173.348 57.5371C173.516 57.5151 175.814 57.4485 177.552 57.0008C177.575 57.0008 177.585 57.0008 177.623 57.0243C177.524 57.3581 176.625 60.041 176.625 60.041C173.958 67.8632 172.725 73.1832 175.244 76.334C178.844 80.7821 184.805 76.1782 189.654 70.0978C188.613 77.3839 192.389 78.5243 195.267 77.966C198.574 77.0724 202.259 73.5402 203.969 71.7304C203.419 73.8532 203.569 77.6533 206.577 78.0329C208.638 78.414 210.181 77.2926 211.967 76.3312C218.37 72.8442 226.036 61.2247 228.027 57.8654H225.417C222.588 62.1412 218.987 67.7474 214.459 70.4083ZM156.977 69.6302C156.571 69.0267 156.436 68.3668 156.423 67.6533C156.345 63.2709 161.06 55.4225 164.388 51.1469C164.395 51.1469 164.395 51.1469 164.395 51.1469C165.79 54.2009 168.949 56.164 170.855 56.9913C168.487 62.2664 160.366 73.5637 156.977 69.6302ZM172.192 54.633C171.966 54.7903 167.983 53.4487 167.214 49.761C166.561 46.5861 168.747 44.1054 170.862 42.8548C171.77 42.1392 173.138 41.894 174.141 42.2501C175.072 42.8768 175.324 43.9951 175.324 45.2002C175.324 45.9393 175.226 46.6985 175.14 47.3911C175.14 47.3911 175.123 47.5258 175.121 47.5481C174.457 50.0282 173.442 52.4647 172.192 54.633ZM204.135 68.2223C204.132 68.2223 203.379 68.8926 203.379 68.8926C202.305 69.8531 201.199 70.8814 199.865 70.3671C199.496 70.233 199.237 69.742 199.175 69.3608C199.114 66.6116 200.352 64.0643 201.553 61.5839L201.86 60.9352C205.314 55.169 209.328 48.3745 215.223 43.6592C216.217 42.9424 217.295 42.3402 218.433 42.8099C218.694 43.0551 218.999 43.4802 218.999 43.9044C218.999 44.0391 218.88 44.3964 218.811 44.5076C217.164 47.1685 215.596 49.962 214.071 52.6437C211.091 57.9411 208 63.4163 204.135 68.2223Z" fill="#E61D2A"/>
</svg>
