<svg width="194" height="63" viewBox="0 0 194 63" fill="none" xmlns="http://www.w3.org/2000/svg">
<path d="M74.4675 55.0611C67.3415 50.5224 57.6706 49.726 42.074 54.0043C25.4471 57.8674 19.9034 60.3438 12.623 55.3725C9.82608 52.9304 8.8233 48.9984 9.5721 43.3346C11.3088 34.1016 16.0022 25.2163 24.3388 15.3603C28.9921 10.2333 33.3085 5.83335 39.0082 4.06651C43.3765 2.95813 42.9681 6.3524 42.4396 6.83784C41.8818 6.83784 40.9448 6.9247 40.2207 7.39191C39.633 7.84256 38.0198 9.29768 37.9331 11.2551C37.8082 14.2515 40.9446 13.6278 42.2974 11.9826C43.7555 10.1287 45.9104 6.57843 44.2153 3.2696C43.5048 2.09187 42.2773 1.27792 40.7531 1.00076C35.534 0.705853 30.6733 3.1657 26.1875 5.88519C16.3771 12.6233 8.52934 21.96 4.08876 32.18C1.52855 38.3463 -0.786778 47.1793 2.68381 54.3685C5.36851 59.3568 10.9423 62.0065 17.5922 61.4524C22.2561 60.9679 27.8958 59.4776 31.6888 58.5777C35.4818 57.6764 54.8981 51.0774 61.2777 62.5625C61.2777 62.5625 63.3991 58.4908 68.7007 58.404C73.0594 58.0063 79.3473 59.6515 83.9265 62.9767C82.4009 60.7083 78.0757 57.3652 74.4675 55.0611Z" fill="#0071FE"/>
<path d="M44.0231 16.6094C40.366 14.2305 33.0155 18.7785 27.1282 26.5799C21.7445 33.5777 19.4198 41.7108 21.9496 45.4717C25.7131 49.8972 32.6995 43.4601 35.6705 40.0147L36.0538 39.6119C38.0743 37.4603 39.6353 34.8712 41.1461 32.3871C41.1461 32.3871 42.5347 30.1131 42.601 30.0079C43.4592 29.8511 44.4929 29.6061 45.6578 29.2736C45.6412 29.3257 41.201 36.7253 41.654 40.3981C41.7951 41.5186 41.6873 45.6118 45.7181 46.8535C51.0903 47.7462 55.38 43.6174 59.1644 39.9439C59.1644 39.9439 59.8093 39.3323 60.174 38.9831C60.0817 39.3495 59.9614 39.8383 59.9614 39.8383C58.3886 45.2612 60.5086 46.3989 61.8348 46.8188C65.8427 47.974 70.6307 42.201 70.6462 42.201C70.522 44.0194 70.1589 45.5238 72.0924 46.7309C73.9173 47.3786 75.7642 46.3912 77.168 45.4641C82.2246 41.9307 86.2983 36.4005 89.5888 31.6201H87.49C87.4651 31.6201 82.3109 39.0268 78.964 40.6366C78.9587 40.6366 78.3498 40.9466 77.9988 40.7014C77.5643 40.3338 77.7358 39.5699 78.0041 39.0287C78.0209 38.9933 90.9265 16.8009 90.9265 16.8009H84.8331C84.8331 16.8009 84.1674 17.8686 84.1132 17.9386C84.0722 17.9037 83.9746 17.7202 83.9068 17.6322C80.1316 12.4546 71.5823 20.4187 65.1458 29.6544C62.6677 33.2057 59.5128 37.2043 56.2413 40.0904C56.2413 40.0904 51.395 44.4951 49.3241 41.3305C48.5671 40.0008 48.8 38.0569 49.227 36.7803C51.638 29.9756 55.7925 23.8001 60.52 20.0738C61.8546 19.0424 63.3051 18.7441 64.025 19.1815C64.7109 19.5845 64.8215 20.5807 64.3876 21.2631C63.2866 21.2282 62.4045 21.56 61.6873 22.2948C60.2746 23.7642 59.7837 25.1814 60.2329 26.5111C62.4148 29.5896 66.7665 23.502 66.5561 19.7937C66.4808 18.464 65.7653 17.2048 64.6976 16.592C63.1063 15.6479 60.6786 15.8924 59.1075 16.6451C57.0044 17.4319 53.6751 20.178 51.7318 22.3124C49.2853 24.9892 45.0896 27.9626 43.7774 27.6297C44.2073 26.4922 47.7513 19.303 44.0231 16.6094ZM73.401 27.2448C74.5863 25.6183 78.0364 21.2624 78.8775 20.5279C81.7063 18.0605 82.8369 19.1462 82.9348 19.9153C80.2948 24.6032 77.1789 29.9737 74.2493 34.8019C74.2553 34.7847 73.3325 36.1837 73.3325 36.1837C72.0386 38.1424 70.7358 39.8218 68.6108 40.9937C68.3077 41.0817 67.8082 41.1168 67.4758 40.8711C67.0756 40.6086 66.9177 40.1712 66.9628 39.7161C67.09 38.2122 68.6346 33.6125 73.401 27.2448ZM40.2517 30.061C40.2517 30.061 40.1986 30.219 40.1724 30.2706C40.1656 30.2706 37.5157 34.5557 37.5157 34.5557C35.9164 36.6727 33.9196 39.3323 31.4235 40.6086C30.6836 40.8536 29.6609 41.0114 29.1397 40.3646C28.0349 39.0524 28.6043 37.2332 29.0669 35.764L29.2306 35.2391C30.557 31.671 32.6616 28.5217 34.7101 25.6004C34.7356 25.5832 34.793 25.5657 34.8137 25.5657C34.8185 25.5832 34.8267 25.5832 34.8303 25.6183C36.1158 28.0668 38.5261 29.2034 40.3286 29.729C40.3394 29.729 40.351 29.7464 40.351 29.7815C40.3512 29.8337 40.3218 29.9042 40.2517 30.061ZM42.7623 25.0062C42.7507 25.0411 41.5819 27.6997 41.5819 27.6997C41.413 27.8395 41.1458 27.7697 40.8397 27.6997L40.3151 27.6117C38.6678 27.1048 37.4253 26.0201 37.0422 24.7258C36.5138 22.2068 38.6842 20.2301 39.6406 19.5133C40.5581 18.883 41.9845 18.5508 42.8129 19.1983C43.3237 19.7932 43.5173 20.5626 43.5173 21.4027C43.5176 22.5395 43.1636 23.8163 42.7623 25.0062Z" fill="#0071FE"/>
<path d="M119.868 33.0494C119.279 31.7898 117.881 30.9847 116.392 31.072C111.554 31.5098 106.822 35.4469 104.338 41.0986C103.034 44.0037 102.323 46.4007 101.856 50.2154C103.361 48.501 106.429 45.6839 109.911 44.1438C109.911 44.1438 110.385 40.4867 112.801 37.2318C113.715 35.884 115.544 33.7143 117.599 34.2915C119.394 34.8869 118.763 39.8041 116.377 44.5627C114.612 48.0629 111.911 51.5637 109.178 53.9779C106.762 56.0079 103.187 58.4575 100.059 56.5679C98.089 55.4135 97.0842 52.998 97.2966 49.8832C98.2379 41.0467 102.302 33.5221 108.119 24.9478C114.116 16.9859 120.727 8.81407 129.634 4.45616C131.45 3.54637 133.132 3.33644 134.587 3.89642C134.587 3.89642 126.226 8.44609 122.241 16.8633C121.227 18.9985 119.817 21.8849 121.237 24.44C121.979 25.7696 123.297 25.8748 124.357 25.8048C129.242 24.6846 132.398 20.1701 134.977 16.0407C136.472 12.9085 137.801 9.79367 137.801 6.32882C137.801 5.90896 137.779 5.34921 137.743 4.92887C140.076 3.70442 144.862 5.87381 144.862 5.87381C148.602 7.09921 156.565 13.1366 159.251 14.291C160.561 12.7863 162.714 10.5117 163.927 9.37405L162.172 8.30645C159.362 6.60905 156.392 4.99893 153.468 3.40673C146.829 -0.18006 141.426 1.07954 138.675 2.05962C137.594 2.44434 136.606 2.77694 136.606 2.77694C134.565 0.57216 131.218 0.781615 128.751 1.37698C119.881 3.89666 111.646 10.0385 102.817 20.6956C96.3254 29.0427 92.2989 36.2524 90.1527 43.3741C88.4985 48.1684 87.9957 55.2205 92.0333 59.4029C95.4662 62.9541 100.018 62.1849 103.233 60.9078C110.197 57.513 116.457 50.1981 119.576 41.7812C120.329 39.2792 121.164 35.7446 119.868 33.0494ZM135.883 6.67911C134.961 17.1435 126.742 23.2861 124.708 23.7753C123.476 24.0199 121.373 23.4778 123.25 19.0862C126.015 13.171 130.735 8.14936 135.799 5.57684C135.922 6.0144 135.919 6.29367 135.883 6.67911Z" fill="#0071FE"/>
<path d="M184.884 7.92561C180.465 10.3389 175.884 11.9017 170.339 11.3582C168.802 13.0238 167.306 14.7399 165.927 16.5068C173.709 18.4099 181.961 14.1789 186.562 10.1522C191.43 6.09092 193.927 0.976685 193.927 0.976685C193.927 0.976685 190.278 4.98644 184.884 7.92561Z" fill="#0071FE"/>
<path d="M97.6795 21.9767L100.927 16.9767H95.1723L91.9265 21.9767H97.6795Z" fill="#0071FE"/>
<path d="M170.036 55.9852C169.414 56.402 168.541 56.0815 168.867 55.1264C169.681 52.6944 172.916 47.7384 172.916 47.7384L181.927 31.9954H175.754C175.461 32.4701 174.834 33.5603 174.834 33.5603C174.548 33.0918 173.694 32.0498 173.343 31.8247C171.835 30.886 169.622 31.3299 168.096 32.1808C161.461 36.003 156.619 43.5545 152.801 49.4436C152.801 49.4436 148.782 55.9899 146.551 56.4767C144.809 56.6158 144.989 54.3044 145.064 53.7659C145.737 49.8741 147.301 46.1744 148.877 42.8218C152.082 40.6331 155.74 37.767 159.064 34.623C166.277 27.8303 172.359 20.1349 173.247 18.4152C173.247 18.4152 172.285 18.6065 171.149 18.6409C165.6 26.2668 154.243 37.35 150.8 38.9998C152.326 35.3861 162.18 18.137 170.565 9.886L171.885 8.63488C173.926 6.67193 176.04 4.657 177.687 4.32684C177.861 4.30951 178.086 4.32684 178.279 4.72702C178.352 6.25537 177.775 7.38472 177.112 8.67001L176.184 10.5463C176.184 10.5463 177.499 10.303 178.363 10.0244C179.365 8.16658 180.475 6.08139 180.066 3.59791C179.93 2.79873 179.342 2.19085 178.575 2.05176C176.073 1.58274 173.347 3.40613 171.153 4.8832L171.065 4.93495C159.788 13.6379 150.266 26.1799 141.941 43.3079C141.337 43.7589 139.006 44.2979 138.61 44.037C139.432 42.3698 140.467 40.1285 140.985 37.6965C141.075 37.0015 141.158 36.2897 141.158 35.5949C141.158 34.0998 140.794 32.6932 139.434 31.7208C137.84 30.9389 135.87 31.304 134.541 31.8943C128.59 34.3263 124.143 40.3371 120.933 45.2872C119.207 48.4322 117.486 51.8005 117.009 55.6576C116.674 58.6796 117.357 60.6253 119.101 61.5984C120.895 62.5011 123.153 61.5628 124.04 61.1116C130.069 57.9849 134.281 51.7144 137.601 45.9815C137.733 45.9644 139.546 45.9126 140.918 45.5647C140.936 45.5647 140.944 45.5647 140.974 45.583C140.895 45.8424 140.187 47.9276 140.187 47.9276C138.082 54.007 137.109 58.1418 139.097 60.5906C141.937 64.0477 146.64 60.4696 150.466 55.7438C149.644 61.4067 152.624 62.2929 154.895 61.8591C157.504 61.1646 160.411 58.4193 161.76 57.0127C161.326 58.6626 161.444 61.616 163.817 61.911C165.444 62.2073 166.661 61.3357 168.07 60.5885C173.122 57.8783 179.171 48.8476 180.741 46.2366H178.682C176.45 49.5599 173.609 53.9171 170.036 55.9852ZM124.685 55.3804C124.364 54.9114 124.258 54.3984 124.248 53.844C124.186 50.4379 127.906 44.338 130.532 41.015C130.538 41.015 130.538 41.015 130.538 41.015C131.638 43.3886 134.13 44.9143 135.634 45.5573C133.766 49.6572 127.358 58.4375 124.685 55.3804ZM136.689 43.7244C136.511 43.8467 133.368 42.804 132.761 39.9379C132.246 37.4703 133.971 35.5422 135.64 34.5703C136.356 34.0141 137.435 33.8235 138.227 34.1003C138.961 34.5874 139.16 35.4566 139.16 36.3932C139.16 36.9676 139.083 37.5576 139.015 38.096C139.015 38.096 139.002 38.2007 139 38.218C138.476 40.1456 137.675 42.0392 136.689 43.7244ZM161.891 54.2862C161.888 54.2862 161.295 54.8072 161.295 54.8072C160.447 55.5536 159.575 56.3528 158.522 55.9531C158.231 55.8489 158.027 55.4672 157.978 55.171C157.93 53.0343 158.906 51.0545 159.854 49.1267L160.096 48.6226C162.821 44.141 165.988 38.8603 170.639 35.1955C171.423 34.6384 172.274 34.1703 173.172 34.5354C173.378 34.726 173.619 35.0564 173.619 35.3861C173.619 35.4907 173.524 35.7684 173.47 35.8548C172.171 37.9229 170.934 40.0941 169.731 42.1783C167.379 46.2955 164.94 50.5509 161.891 54.2862Z" fill="#0071FE"/>
</svg>
