<svg width="250" height="83" viewBox="0 0 250 83" fill="none" xmlns="http://www.w3.org/2000/svg">
<path d="M95.8004 71.8384C86.541 65.8736 73.9748 64.8269 53.7087 70.4495C32.1039 75.5265 24.9006 78.7811 15.4405 72.2477C11.8062 69.0383 10.5032 63.8708 11.4762 56.4273C13.7328 44.2931 19.8313 32.6159 30.6638 19.663C36.7103 12.925 42.3189 7.14249 49.7251 4.82047C55.4012 3.36381 54.8705 7.82462 54.1837 8.46259C53.459 8.46259 52.2415 8.57675 51.3006 9.19077C50.5369 9.78301 48.4407 11.6954 48.3281 14.2678C48.1658 18.2057 52.2412 17.3861 53.999 15.224C55.8936 12.7875 58.6937 8.12168 56.4911 3.77316C55.5679 2.22536 53.9728 1.15565 51.9924 0.791406C45.2108 0.403834 38.8948 3.63661 33.066 7.21061C20.3185 16.066 10.1212 28.3364 4.35117 41.7677C1.02446 49.8715 -1.98404 61.48 2.5256 70.9282C6.01406 77.484 13.2566 80.9662 21.8974 80.2381C27.9576 79.6013 35.2857 77.6426 40.2143 76.46C45.143 75.2755 70.3722 66.6031 78.6617 81.6969C78.6617 81.6969 81.4183 76.3459 88.3071 76.2317C93.9708 75.7091 102.141 77.8713 108.091 82.2413C106.109 79.2601 100.489 74.8665 95.8004 71.8384Z" fill="#E61D2A"/>
<path d="M56.2815 21.188C51.5628 18.0921 42.0788 24.0108 34.4826 34.1633C27.5361 43.27 24.5366 53.8542 27.8008 58.7486C32.6567 64.5078 41.671 56.1308 45.5044 51.647L45.999 51.1228C48.6059 48.3227 50.62 44.9534 52.5694 41.7206C52.5694 41.7206 54.361 38.7613 54.4466 38.6244C55.5539 38.4204 56.8877 38.1015 58.3907 37.6689C58.3692 37.7367 52.6403 47.3663 53.2247 52.1459C53.4067 53.6041 53.2677 58.9309 58.4685 60.5468C65.4 61.7086 70.9348 56.3355 75.8178 51.5549C75.8178 51.5549 76.6498 50.7589 77.1205 50.3045C77.0013 50.7813 76.8461 51.4174 76.8461 51.4174C74.8168 58.4746 77.5522 59.9552 79.2633 60.5017C84.4346 62.005 90.6124 54.4922 90.6323 54.4922C90.4721 56.8587 90.0036 58.8164 92.4983 60.3872C94.853 61.2302 97.2359 59.9452 99.0472 58.7387C105.572 54.1404 110.828 46.9435 115.073 40.7225H112.365C112.333 40.7225 105.683 50.3614 101.365 52.4563C101.358 52.4563 100.572 52.8598 100.119 52.5406C99.5586 52.0622 99.7797 51.0681 100.126 50.3639C100.148 50.3178 116.799 21.4372 116.799 21.4372H108.937C108.937 21.4372 108.078 22.8267 108.008 22.9178C107.955 22.8724 107.829 22.6335 107.742 22.519C102.871 15.781 91.8401 26.1453 83.5353 38.1644C80.338 42.786 76.2672 47.9896 72.0462 51.7456C72.0462 51.7456 65.7932 57.4777 63.1212 53.3593C62.1445 51.6289 62.445 49.0991 62.9959 47.4378C66.1067 38.5824 71.4671 30.5458 77.5668 25.6964C79.2888 24.3542 81.1604 23.966 82.0892 24.5353C82.9742 25.0597 83.1169 26.3562 82.557 27.2442C81.1365 27.1988 79.9983 27.6306 79.0729 28.5867C77.2502 30.4991 76.6169 32.3433 77.1964 34.0737C80.0117 38.0801 85.6265 30.1579 85.355 25.3319C85.2579 23.6015 84.3347 21.9629 82.9571 21.1653C80.9038 19.9367 77.7715 20.2549 75.7444 21.2344C73.0307 22.2584 68.7351 25.8321 66.2277 28.6098C63.0711 32.0932 57.6576 35.9627 55.9645 35.5294C56.5191 34.0491 61.0919 24.6933 56.2815 21.188ZM94.1867 35.0286C95.7161 32.9119 100.168 27.2433 101.253 26.2874C104.903 23.0764 106.362 24.4892 106.488 25.4902C103.082 31.5909 99.0612 38.5799 95.2813 44.8632C95.2891 44.8408 94.0983 46.6614 94.0983 46.6614C92.4289 49.2105 90.748 51.3959 88.0061 52.921C87.6151 53.0355 86.9706 53.0812 86.5416 52.7615C86.0253 52.4199 85.8215 51.8507 85.8797 51.2585C86.0439 49.3013 88.0369 43.3154 94.1867 35.0286ZM51.4154 38.6935C51.4154 38.6935 51.3469 38.8991 51.313 38.9663C51.3043 38.9663 47.8852 44.5428 47.8852 44.5428C45.8217 47.2978 43.2452 50.7589 40.0246 52.4199C39.07 52.7388 37.7505 52.9441 37.078 52.1023C35.6524 50.3947 36.3871 48.0272 36.9841 46.1152L37.1953 45.4321C38.9067 40.7887 41.6222 36.6903 44.2652 32.8886C44.2982 32.8662 44.3722 32.8435 44.3989 32.8435C44.4052 32.8662 44.4157 32.8662 44.4204 32.9119C46.0789 36.0984 49.1888 37.5774 51.5146 38.2614C51.5286 38.2614 51.5435 38.2841 51.5435 38.3299C51.5438 38.3977 51.5059 38.4894 51.4154 38.6935ZM54.6547 32.1153C54.6397 32.1607 53.1317 35.6206 53.1317 35.6206C52.9137 35.8025 52.569 35.7117 52.174 35.6206L51.4972 35.5061C49.3717 34.8464 47.7686 33.4348 47.2743 31.7505C46.5925 28.4723 49.3929 25.8999 50.6268 24.967C51.8107 24.1468 53.6512 23.7144 54.72 24.557C55.3791 25.3313 55.6289 26.3325 55.6289 27.4259C55.6292 28.9053 55.1726 30.5669 54.6547 32.1153Z" fill="#E61D2A"/>
<path d="M154.049 42.6771C153.29 41.0385 151.491 39.9912 149.573 40.1047C143.345 40.6743 137.253 45.7961 134.054 53.1484C132.376 56.9277 131.46 60.046 130.859 65.0086C132.796 62.7783 136.746 59.1135 141.229 57.11C141.229 57.11 141.839 52.3524 144.949 48.1181C146.126 46.3647 148.482 43.5422 151.127 44.293C153.438 45.0676 152.625 51.4644 149.554 57.6549C147.282 62.2085 143.804 66.7626 140.285 69.9033C137.174 72.5441 132.572 75.7309 128.545 73.2726C126.009 71.7708 124.715 68.6286 124.988 64.5765C126.2 53.0809 131.433 43.2921 138.922 32.1377C146.643 21.78 155.155 11.1491 166.621 5.47986C168.96 4.29631 171.126 4.0232 172.998 4.75169C172.998 4.75169 162.234 10.6704 157.104 21.6204C155.798 24.3981 153.983 28.1531 155.811 31.477C156.766 33.2068 158.463 33.3437 159.828 33.2525C166.117 31.7953 170.181 25.9223 173.501 20.5504C175.425 16.4756 177.136 12.4235 177.136 7.91603C177.136 7.36982 177.108 6.64165 177.061 6.09481C180.066 4.50191 186.228 7.3241 186.228 7.3241C191.042 8.91824 201.294 16.7723 204.753 18.2741C206.439 16.3166 209.212 13.3576 210.772 11.8776L208.513 10.4887C204.895 8.28058 201.072 6.18595 197.308 4.11465C188.76 -0.551455 181.803 1.08717 178.262 2.36218C176.87 2.86266 175.599 3.29534 175.599 3.29534C172.971 0.427118 168.661 0.699601 165.486 1.47412C154.066 4.752 143.463 12.742 132.095 26.606C123.738 37.4648 118.554 46.844 115.791 56.1087C113.661 62.3456 113.014 71.5198 118.212 76.9608C122.632 81.5805 128.492 80.5799 132.631 78.9185C141.598 74.5022 149.657 64.9862 153.672 54.0365C154.641 50.7816 155.717 46.1833 154.049 42.6771ZM174.667 8.37172C173.48 21.985 162.898 29.9759 160.28 30.6123C158.693 30.9305 155.986 30.2254 158.403 24.5123C161.962 16.8171 168.039 10.2844 174.559 6.93777C174.718 7.50699 174.714 7.8703 174.667 8.37172Z" fill="#E61D2A"/>
<path d="M237.437 10.1012C231.745 13.3343 225.845 15.428 218.702 14.6998C216.723 16.9313 214.795 19.2303 213.019 21.5974C223.044 24.1471 233.672 18.4788 239.599 13.0842C245.869 7.64323 249.085 0.791672 249.085 0.791672C249.085 0.791672 244.384 6.16356 237.437 10.1012Z" fill="#E61D2A"/>
<path d="M125.654 28.2807L129.867 21.4375H122.4L118.189 28.2807H125.654Z" fill="#E61D2A"/>
<path d="M218.672 72.472C217.869 73.0182 216.742 72.5982 217.163 71.3466C218.214 68.1595 222.39 61.6647 222.39 61.6647L234.022 41.0338H226.054C225.676 41.6559 224.866 43.0846 224.866 43.0846C224.497 42.4706 223.395 41.1051 222.941 40.8102C220.994 39.58 218.138 40.1616 216.168 41.2768C207.602 46.2857 201.352 56.1818 196.423 63.8993C196.423 63.8993 191.234 72.4782 188.354 73.1162C186.105 73.2984 186.337 70.2694 186.435 69.5636C187.304 64.4636 189.323 59.6152 191.357 55.2216C195.495 52.3534 200.217 48.5974 204.508 44.4772C213.82 35.5755 221.67 25.4908 222.818 23.2373C222.818 23.2373 221.576 23.488 220.109 23.5331C212.945 33.5266 198.285 48.0509 193.84 50.213C195.809 45.4772 208.53 22.8727 219.356 12.0599L221.059 10.4203C223.693 7.84791 226.423 5.20738 228.55 4.77471C228.774 4.752 229.064 4.77471 229.313 5.29914C229.408 7.30201 228.663 8.782 227.807 10.4664L226.608 12.9252C226.608 12.9252 228.306 12.6064 229.422 12.2412C230.716 9.80661 232.149 7.07401 231.62 3.81946C231.444 2.77215 230.686 1.97554 229.695 1.79326C226.466 1.17862 222.946 3.56813 220.115 5.50381L220 5.57162C205.443 16.9767 193.15 33.4127 182.403 55.8586C181.624 56.4496 178.614 57.156 178.103 56.8142C179.164 54.6293 180.5 51.6921 181.169 48.505C181.285 47.5943 181.392 46.6614 181.392 45.751C181.392 43.7916 180.922 41.9483 179.167 40.674C177.109 39.6493 174.565 40.1277 172.85 40.9013C165.168 44.0884 159.426 51.9655 155.283 58.4525C153.055 62.5739 150.833 66.9881 150.218 72.0427C149.784 76.003 150.666 78.5527 152.918 79.8281C155.234 81.011 158.149 79.7814 159.293 79.1901C167.076 75.0926 172.514 66.8752 176.801 59.3623C176.971 59.3399 179.312 59.2721 181.082 58.8161C181.105 58.8161 181.115 58.8161 181.155 58.8401C181.053 59.18 180.138 61.9126 180.138 61.9126C177.422 69.8796 176.165 75.2982 178.731 78.5073C182.398 83.0378 188.469 78.3487 193.408 72.1556C192.348 79.5767 196.194 80.7382 199.126 80.1696C202.493 79.2594 206.246 75.6618 207.988 73.8185C207.429 75.9806 207.581 79.8511 210.644 80.2377C212.744 80.6259 214.316 79.4837 216.134 78.5045C222.657 74.9529 230.464 63.1183 232.491 59.6967H229.833C226.952 64.0518 223.285 69.7618 218.672 72.472ZM160.126 71.6794C159.713 71.0648 159.576 70.3926 159.562 69.6659C159.483 65.2023 164.285 57.2086 167.675 52.8538C167.682 52.8538 167.682 52.8538 167.682 52.8538C169.103 55.9644 172.319 57.9638 174.261 58.8065C171.849 64.1793 163.578 75.6858 160.126 71.6794ZM175.623 56.4045C175.393 56.5647 171.336 55.1983 170.552 51.4423C169.887 48.2086 172.114 45.6819 174.269 44.4081C175.193 43.6793 176.586 43.4296 177.608 43.7923C178.556 44.4305 178.813 45.5696 178.813 46.797C178.813 47.5498 178.713 48.3231 178.625 49.0285C178.625 49.0285 178.609 49.1657 178.606 49.1884C177.93 51.7145 176.896 54.196 175.623 56.4045ZM208.157 70.2454C208.154 70.2454 207.388 70.9282 207.388 70.9282C206.294 71.9065 205.168 72.9538 203.808 72.43C203.433 72.2934 203.169 71.7932 203.105 71.405C203.043 68.605 204.304 66.0105 205.527 63.4841L205.841 62.8234C209.358 56.9504 213.447 50.0301 219.451 45.2275C220.463 44.4974 221.561 43.884 222.72 44.3624C222.987 44.6122 223.297 45.0452 223.297 45.4772C223.297 45.6144 223.175 45.9783 223.105 46.0916C221.428 48.8018 219.831 51.647 218.278 54.3783C215.243 59.7738 212.094 65.3504 208.157 70.2454Z" fill="#E61D2A"/>
<path d="M95.8004 71.8384C86.541 65.8736 73.9748 64.8269 53.7087 70.4495C32.1039 75.5265 24.9006 78.7811 15.4405 72.2477C11.8062 69.0383 10.5032 63.8708 11.4762 56.4273C13.7328 44.2931 19.8313 32.6159 30.6638 19.663C36.7103 12.925 42.3189 7.14249 49.7251 4.82047C55.4012 3.36381 54.8705 7.82462 54.1837 8.46259C53.459 8.46259 52.2415 8.57675 51.3006 9.19077C50.5369 9.78301 48.4407 11.6954 48.3281 14.2678C48.1658 18.2057 52.2412 17.3861 53.999 15.224C55.8936 12.7875 58.6937 8.12168 56.4911 3.77316C55.5679 2.22536 53.9728 1.15565 51.9924 0.791406C45.2108 0.403834 38.8948 3.63661 33.066 7.21061C20.3185 16.066 10.1212 28.3364 4.35117 41.7677C1.02446 49.8715 -1.98404 61.48 2.5256 70.9282C6.01406 77.484 13.2566 80.9662 21.8974 80.2381C27.9576 79.6013 35.2857 77.6426 40.2143 76.46C45.143 75.2755 70.3722 66.6031 78.6617 81.6969C78.6617 81.6969 81.4183 76.3459 88.3071 76.2317C93.9708 75.7091 102.141 77.8713 108.091 82.2413C106.109 79.2601 100.489 74.8665 95.8004 71.8384Z" fill="#E61D2A"/>
<path d="M95.8004 71.8384C86.541 65.8736 73.9748 64.8269 53.7087 70.4495C32.1039 75.5265 24.9006 78.7811 15.4405 72.2477C11.8062 69.0383 10.5032 63.8708 11.4762 56.4273C13.7328 44.2931 19.8313 32.6159 30.6638 19.663C36.7103 12.925 42.3189 7.14249 49.7251 4.82047C55.4012 3.36381 54.8705 7.82462 54.1837 8.46259C53.459 8.46259 52.2415 8.57675 51.3006 9.19077C50.5369 9.78301 48.4407 11.6954 48.3281 14.2678C48.1658 18.2057 52.2412 17.3861 53.999 15.224C55.8936 12.7875 58.6937 8.12168 56.4911 3.77316C55.5679 2.22536 53.9728 1.15565 51.9924 0.791406C45.2108 0.403834 38.8948 3.63661 33.066 7.21061C20.3185 16.066 10.1212 28.3364 4.35117 41.7677C1.02446 49.8715 -1.98404 61.48 2.5256 70.9282C6.01406 77.484 13.2566 80.9662 21.8974 80.2381C27.9576 79.6013 35.2857 77.6426 40.2143 76.46C45.143 75.2755 70.3722 66.6031 78.6617 81.6969C78.6617 81.6969 81.4183 76.3459 88.3071 76.2317C93.9708 75.7091 102.141 77.8713 108.091 82.2413C106.109 79.2601 100.489 74.8665 95.8004 71.8384Z" fill="#0071FE"/>
<path d="M56.2815 21.188C51.5628 18.0921 42.0788 24.0108 34.4826 34.1633C27.5361 43.27 24.5366 53.8542 27.8008 58.7486C32.6567 64.5078 41.671 56.1308 45.5044 51.647L45.999 51.1228C48.6059 48.3227 50.62 44.9534 52.5694 41.7206C52.5694 41.7206 54.361 38.7613 54.4466 38.6244C55.5539 38.4204 56.8877 38.1015 58.3907 37.6689C58.3692 37.7367 52.6403 47.3663 53.2247 52.1459C53.4067 53.6041 53.2677 58.9309 58.4685 60.5468C65.4 61.7086 70.9348 56.3355 75.8178 51.5549C75.8178 51.5549 76.6498 50.7589 77.1205 50.3045C77.0013 50.7813 76.8461 51.4174 76.8461 51.4174C74.8168 58.4746 77.5522 59.9552 79.2633 60.5017C84.4346 62.005 90.6124 54.4922 90.6323 54.4922C90.4721 56.8587 90.0036 58.8164 92.4983 60.3872C94.853 61.2302 97.2359 59.9452 99.0472 58.7387C105.572 54.1404 110.828 46.9435 115.073 40.7225H112.365C112.333 40.7225 105.683 50.3614 101.365 52.4563C101.358 52.4563 100.572 52.8598 100.119 52.5406C99.5586 52.0622 99.7797 51.0681 100.126 50.3639C100.148 50.3178 116.799 21.4372 116.799 21.4372H108.937C108.937 21.4372 108.078 22.8267 108.008 22.9178C107.955 22.8724 107.829 22.6335 107.742 22.519C102.871 15.781 91.8401 26.1453 83.5353 38.1644C80.338 42.786 76.2672 47.9896 72.0462 51.7456C72.0462 51.7456 65.7932 57.4777 63.1212 53.3593C62.1445 51.6289 62.445 49.0991 62.9959 47.4378C66.1067 38.5824 71.4671 30.5458 77.5668 25.6964C79.2888 24.3542 81.1604 23.966 82.0892 24.5353C82.9742 25.0597 83.1169 26.3562 82.557 27.2442C81.1365 27.1988 79.9983 27.6306 79.0729 28.5867C77.2502 30.4991 76.6169 32.3433 77.1964 34.0737C80.0117 38.0801 85.6265 30.1579 85.355 25.3319C85.2579 23.6015 84.3347 21.9629 82.9571 21.1653C80.9038 19.9367 77.7715 20.2549 75.7444 21.2344C73.0307 22.2584 68.7351 25.8321 66.2277 28.6098C63.0711 32.0932 57.6576 35.9627 55.9645 35.5294C56.5191 34.0491 61.0919 24.6933 56.2815 21.188ZM94.1867 35.0286C95.7161 32.9119 100.168 27.2433 101.253 26.2874C104.903 23.0764 106.362 24.4892 106.488 25.4902C103.082 31.5909 99.0612 38.5799 95.2813 44.8632C95.2891 44.8408 94.0983 46.6614 94.0983 46.6614C92.4289 49.2105 90.748 51.3959 88.0061 52.921C87.6151 53.0355 86.9706 53.0812 86.5416 52.7615C86.0253 52.4199 85.8215 51.8507 85.8797 51.2585C86.0439 49.3013 88.0369 43.3154 94.1867 35.0286ZM51.4154 38.6935C51.4154 38.6935 51.3469 38.8991 51.313 38.9663C51.3043 38.9663 47.8852 44.5428 47.8852 44.5428C45.8217 47.2978 43.2452 50.7589 40.0246 52.4199C39.07 52.7388 37.7505 52.9441 37.078 52.1023C35.6524 50.3947 36.3871 48.0272 36.9841 46.1152L37.1953 45.4321C38.9067 40.7887 41.6222 36.6903 44.2652 32.8886C44.2982 32.8662 44.3722 32.8435 44.3989 32.8435C44.4052 32.8662 44.4157 32.8662 44.4204 32.9119C46.0789 36.0984 49.1888 37.5774 51.5146 38.2614C51.5286 38.2614 51.5435 38.2841 51.5435 38.3299C51.5438 38.3977 51.5059 38.4894 51.4154 38.6935ZM54.6547 32.1153C54.6397 32.1607 53.1317 35.6206 53.1317 35.6206C52.9137 35.8025 52.569 35.7117 52.174 35.6206L51.4972 35.5061C49.3717 34.8464 47.7686 33.4348 47.2743 31.7505C46.5925 28.4723 49.3929 25.8999 50.6268 24.967C51.8107 24.1468 53.6512 23.7144 54.72 24.557C55.3791 25.3313 55.6289 26.3325 55.6289 27.4259C55.6292 28.9053 55.1726 30.5669 54.6547 32.1153Z" fill="#E61D2A"/>
<path d="M56.2815 21.188C51.5628 18.0921 42.0788 24.0108 34.4826 34.1633C27.5361 43.27 24.5366 53.8542 27.8008 58.7486C32.6567 64.5078 41.671 56.1308 45.5044 51.647L45.999 51.1228C48.6059 48.3227 50.62 44.9534 52.5694 41.7206C52.5694 41.7206 54.361 38.7613 54.4466 38.6244C55.5539 38.4204 56.8877 38.1015 58.3907 37.6689C58.3692 37.7367 52.6403 47.3663 53.2247 52.1459C53.4067 53.6041 53.2677 58.9309 58.4685 60.5468C65.4 61.7086 70.9348 56.3355 75.8178 51.5549C75.8178 51.5549 76.6498 50.7589 77.1205 50.3045C77.0013 50.7813 76.8461 51.4174 76.8461 51.4174C74.8168 58.4746 77.5522 59.9552 79.2633 60.5017C84.4346 62.005 90.6124 54.4922 90.6323 54.4922C90.4721 56.8587 90.0036 58.8164 92.4983 60.3872C94.853 61.2302 97.2359 59.9452 99.0472 58.7387C105.572 54.1404 110.828 46.9435 115.073 40.7225H112.365C112.333 40.7225 105.683 50.3614 101.365 52.4563C101.358 52.4563 100.572 52.8598 100.119 52.5406C99.5586 52.0622 99.7797 51.0681 100.126 50.3639C100.148 50.3178 116.799 21.4372 116.799 21.4372H108.937C108.937 21.4372 108.078 22.8267 108.008 22.9178C107.955 22.8724 107.829 22.6335 107.742 22.519C102.871 15.781 91.8401 26.1453 83.5353 38.1644C80.338 42.786 76.2672 47.9896 72.0462 51.7456C72.0462 51.7456 65.7932 57.4777 63.1212 53.3593C62.1445 51.6289 62.445 49.0991 62.9959 47.4378C66.1067 38.5824 71.4671 30.5458 77.5668 25.6964C79.2888 24.3542 81.1604 23.966 82.0892 24.5353C82.9742 25.0597 83.1169 26.3562 82.557 27.2442C81.1365 27.1988 79.9983 27.6306 79.0729 28.5867C77.2502 30.4991 76.6169 32.3433 77.1964 34.0737C80.0117 38.0801 85.6265 30.1579 85.355 25.3319C85.2579 23.6015 84.3347 21.9629 82.9571 21.1653C80.9038 19.9367 77.7715 20.2549 75.7444 21.2344C73.0307 22.2584 68.7351 25.8321 66.2277 28.6098C63.0711 32.0932 57.6576 35.9627 55.9645 35.5294C56.5191 34.0491 61.0919 24.6933 56.2815 21.188ZM94.1867 35.0286C95.7161 32.9119 100.168 27.2433 101.253 26.2874C104.903 23.0764 106.362 24.4892 106.488 25.4902C103.082 31.5909 99.0612 38.5799 95.2813 44.8632C95.2891 44.8408 94.0983 46.6614 94.0983 46.6614C92.4289 49.2105 90.748 51.3959 88.0061 52.921C87.6151 53.0355 86.9706 53.0812 86.5416 52.7615C86.0253 52.4199 85.8215 51.8507 85.8797 51.2585C86.0439 49.3013 88.0369 43.3154 94.1867 35.0286ZM51.4154 38.6935C51.4154 38.6935 51.3469 38.8991 51.313 38.9663C51.3043 38.9663 47.8852 44.5428 47.8852 44.5428C45.8217 47.2978 43.2452 50.7589 40.0246 52.4199C39.07 52.7388 37.7505 52.9441 37.078 52.1023C35.6524 50.3947 36.3871 48.0272 36.9841 46.1152L37.1953 45.4321C38.9067 40.7887 41.6222 36.6903 44.2652 32.8886C44.2982 32.8662 44.3722 32.8435 44.3989 32.8435C44.4052 32.8662 44.4157 32.8662 44.4204 32.9119C46.0789 36.0984 49.1888 37.5774 51.5146 38.2614C51.5286 38.2614 51.5435 38.2841 51.5435 38.3299C51.5438 38.3977 51.5059 38.4894 51.4154 38.6935ZM54.6547 32.1153C54.6397 32.1607 53.1317 35.6206 53.1317 35.6206C52.9137 35.8025 52.569 35.7117 52.174 35.6206L51.4972 35.5061C49.3717 34.8464 47.7686 33.4348 47.2743 31.7505C46.5925 28.4723 49.3929 25.8999 50.6268 24.967C51.8107 24.1468 53.6512 23.7144 54.72 24.557C55.3791 25.3313 55.6289 26.3325 55.6289 27.4259C55.6292 28.9053 55.1726 30.5669 54.6547 32.1153Z" fill="#0071FE"/>
<path d="M154.049 42.6771C153.29 41.0385 151.491 39.9912 149.573 40.1047C143.345 40.6743 137.253 45.7961 134.054 53.1484C132.376 56.9277 131.46 60.046 130.859 65.0086C132.796 62.7783 136.746 59.1135 141.229 57.11C141.229 57.11 141.839 52.3524 144.949 48.1181C146.126 46.3647 148.482 43.5422 151.127 44.293C153.438 45.0676 152.625 51.4644 149.554 57.6549C147.282 62.2085 143.804 66.7626 140.285 69.9033C137.174 72.5441 132.572 75.7309 128.545 73.2726C126.009 71.7708 124.715 68.6286 124.988 64.5765C126.2 53.0809 131.433 43.2921 138.922 32.1377C146.643 21.78 155.155 11.1491 166.621 5.47986C168.96 4.29631 171.126 4.0232 172.998 4.75169C172.998 4.75169 162.234 10.6704 157.104 21.6204C155.798 24.3981 153.983 28.1531 155.811 31.477C156.766 33.2068 158.463 33.3437 159.828 33.2525C166.117 31.7953 170.181 25.9223 173.501 20.5504C175.425 16.4756 177.136 12.4235 177.136 7.91603C177.136 7.36982 177.108 6.64165 177.061 6.09481C180.066 4.50191 186.228 7.3241 186.228 7.3241C191.042 8.91824 201.294 16.7723 204.753 18.2741C206.439 16.3166 209.212 13.3576 210.772 11.8776L208.513 10.4887C204.895 8.28058 201.072 6.18595 197.308 4.11465C188.76 -0.551455 181.803 1.08717 178.262 2.36218C176.87 2.86266 175.599 3.29534 175.599 3.29534C172.971 0.427118 168.661 0.699601 165.486 1.47412C154.066 4.752 143.463 12.742 132.095 26.606C123.738 37.4648 118.554 46.844 115.791 56.1087C113.661 62.3456 113.014 71.5198 118.212 76.9608C122.632 81.5805 128.492 80.5799 132.631 78.9185C141.598 74.5022 149.657 64.9862 153.672 54.0365C154.641 50.7816 155.717 46.1833 154.049 42.6771ZM174.667 8.37172C173.48 21.985 162.898 29.9759 160.28 30.6123C158.693 30.9305 155.986 30.2254 158.403 24.5123C161.962 16.8171 168.039 10.2844 174.559 6.93777C174.718 7.50699 174.714 7.8703 174.667 8.37172Z" fill="#E61D2A"/>
<path d="M154.049 42.6771C153.29 41.0385 151.491 39.9912 149.573 40.1047C143.345 40.6743 137.253 45.7961 134.054 53.1484C132.376 56.9277 131.46 60.046 130.859 65.0086C132.796 62.7783 136.746 59.1135 141.229 57.11C141.229 57.11 141.839 52.3524 144.949 48.1181C146.126 46.3647 148.482 43.5422 151.127 44.293C153.438 45.0676 152.625 51.4644 149.554 57.6549C147.282 62.2085 143.804 66.7626 140.285 69.9033C137.174 72.5441 132.572 75.7309 128.545 73.2726C126.009 71.7708 124.715 68.6286 124.988 64.5765C126.2 53.0809 131.433 43.2921 138.922 32.1377C146.643 21.78 155.155 11.1491 166.621 5.47986C168.96 4.29631 171.126 4.0232 172.998 4.75169C172.998 4.75169 162.234 10.6704 157.104 21.6204C155.798 24.3981 153.983 28.1531 155.811 31.477C156.766 33.2068 158.463 33.3437 159.828 33.2525C166.117 31.7953 170.181 25.9223 173.501 20.5504C175.425 16.4756 177.136 12.4235 177.136 7.91603C177.136 7.36982 177.108 6.64165 177.061 6.09481C180.066 4.50191 186.228 7.3241 186.228 7.3241C191.042 8.91824 201.294 16.7723 204.753 18.2741C206.439 16.3166 209.212 13.3576 210.772 11.8776L208.513 10.4887C204.895 8.28058 201.072 6.18595 197.308 4.11465C188.76 -0.551455 181.803 1.08717 178.262 2.36218C176.87 2.86266 175.599 3.29534 175.599 3.29534C172.971 0.427118 168.661 0.699601 165.486 1.47412C154.066 4.752 143.463 12.742 132.095 26.606C123.738 37.4648 118.554 46.844 115.791 56.1087C113.661 62.3456 113.014 71.5198 118.212 76.9608C122.632 81.5805 128.492 80.5799 132.631 78.9185C141.598 74.5022 149.657 64.9862 153.672 54.0365C154.641 50.7816 155.717 46.1833 154.049 42.6771ZM174.667 8.37172C173.48 21.985 162.898 29.9759 160.28 30.6123C158.693 30.9305 155.986 30.2254 158.403 24.5123C161.962 16.8171 168.039 10.2844 174.559 6.93777C174.718 7.50699 174.714 7.8703 174.667 8.37172Z" fill="#0071FE"/>
<path d="M237.437 10.1012C231.745 13.3343 225.845 15.428 218.702 14.6998C216.723 16.9313 214.795 19.2303 213.019 21.5974C223.044 24.1471 233.672 18.4788 239.599 13.0842C245.869 7.64323 249.085 0.791672 249.085 0.791672C249.085 0.791672 244.384 6.16356 237.437 10.1012Z" fill="#E61D2A"/>
<path d="M237.437 10.1012C231.745 13.3343 225.845 15.428 218.702 14.6998C216.723 16.9313 214.795 19.2303 213.019 21.5974C223.044 24.1471 233.672 18.4788 239.599 13.0842C245.869 7.64323 249.085 0.791672 249.085 0.791672C249.085 0.791672 244.384 6.16356 237.437 10.1012Z" fill="#0071FE"/>
<path d="M125.654 28.2807L129.867 21.4375H122.4L118.189 28.2807H125.654Z" fill="#E61D2A"/>
<path d="M125.654 28.2807L129.867 21.4375H122.4L118.189 28.2807H125.654Z" fill="#0071FE"/>
<path d="M218.672 72.472C217.869 73.0182 216.742 72.5982 217.163 71.3466C218.214 68.1595 222.39 61.6647 222.39 61.6647L234.022 41.0338H226.054C225.676 41.6559 224.866 43.0846 224.866 43.0846C224.497 42.4706 223.395 41.1051 222.941 40.8102C220.994 39.58 218.138 40.1616 216.168 41.2768C207.602 46.2857 201.352 56.1818 196.423 63.8993C196.423 63.8993 191.234 72.4782 188.354 73.1162C186.105 73.2984 186.337 70.2694 186.435 69.5636C187.304 64.4636 189.323 59.6152 191.357 55.2216C195.495 52.3534 200.217 48.5974 204.508 44.4772C213.82 35.5755 221.67 25.4908 222.818 23.2373C222.818 23.2373 221.576 23.488 220.109 23.5331C212.945 33.5266 198.285 48.0509 193.84 50.213C195.809 45.4772 208.53 22.8727 219.356 12.0599L221.059 10.4203C223.693 7.84791 226.423 5.20738 228.55 4.77471C228.774 4.752 229.064 4.77471 229.313 5.29914C229.408 7.30201 228.663 8.782 227.807 10.4664L226.608 12.9252C226.608 12.9252 228.306 12.6064 229.422 12.2412C230.716 9.80661 232.149 7.07401 231.62 3.81946C231.444 2.77215 230.686 1.97554 229.695 1.79326C226.466 1.17862 222.946 3.56813 220.115 5.50381L220 5.57162C205.443 16.9767 193.15 33.4127 182.403 55.8586C181.624 56.4496 178.614 57.156 178.103 56.8142C179.164 54.6293 180.5 51.6921 181.169 48.505C181.285 47.5943 181.392 46.6614 181.392 45.751C181.392 43.7916 180.922 41.9483 179.167 40.674C177.109 39.6493 174.565 40.1277 172.85 40.9013C165.168 44.0884 159.426 51.9655 155.283 58.4525C153.055 62.5739 150.833 66.9881 150.218 72.0427C149.784 76.003 150.666 78.5527 152.918 79.8281C155.234 81.011 158.149 79.7814 159.293 79.1901C167.076 75.0926 172.514 66.8752 176.801 59.3623C176.971 59.3399 179.312 59.2721 181.082 58.8161C181.105 58.8161 181.115 58.8161 181.155 58.8401C181.053 59.18 180.138 61.9126 180.138 61.9126C177.422 69.8796 176.165 75.2982 178.731 78.5073C182.398 83.0378 188.469 78.3487 193.408 72.1556C192.348 79.5767 196.194 80.7382 199.126 80.1696C202.493 79.2594 206.246 75.6618 207.988 73.8185C207.429 75.9806 207.581 79.8511 210.644 80.2377C212.744 80.6259 214.316 79.4837 216.134 78.5045C222.657 74.9529 230.464 63.1183 232.491 59.6967H229.833C226.952 64.0518 223.285 69.7618 218.672 72.472ZM160.126 71.6794C159.713 71.0648 159.576 70.3926 159.562 69.6659C159.483 65.2023 164.285 57.2086 167.675 52.8538C167.682 52.8538 167.682 52.8538 167.682 52.8538C169.103 55.9644 172.319 57.9638 174.261 58.8065C171.849 64.1793 163.578 75.6858 160.126 71.6794ZM175.623 56.4045C175.393 56.5647 171.336 55.1983 170.552 51.4423C169.887 48.2086 172.114 45.6819 174.269 44.4081C175.193 43.6793 176.586 43.4296 177.608 43.7923C178.556 44.4305 178.813 45.5696 178.813 46.797C178.813 47.5498 178.713 48.3231 178.625 49.0285C178.625 49.0285 178.609 49.1657 178.606 49.1884C177.93 51.7145 176.896 54.196 175.623 56.4045ZM208.157 70.2454C208.154 70.2454 207.388 70.9282 207.388 70.9282C206.294 71.9065 205.168 72.9538 203.808 72.43C203.433 72.2934 203.169 71.7932 203.105 71.405C203.043 68.605 204.304 66.0105 205.527 63.4841L205.841 62.8234C209.358 56.9504 213.447 50.0301 219.451 45.2275C220.463 44.4974 221.561 43.884 222.72 44.3624C222.987 44.6122 223.297 45.0452 223.297 45.4772C223.297 45.6144 223.175 45.9783 223.105 46.0916C221.428 48.8018 219.831 51.647 218.278 54.3783C215.243 59.7738 212.094 65.3504 208.157 70.2454Z" fill="#E61D2A"/>
<path d="M218.672 72.472C217.869 73.0182 216.742 72.5982 217.163 71.3466C218.214 68.1595 222.39 61.6647 222.39 61.6647L234.022 41.0338H226.054C225.676 41.6559 224.866 43.0846 224.866 43.0846C224.497 42.4706 223.395 41.1051 222.941 40.8102C220.994 39.58 218.138 40.1616 216.168 41.2768C207.602 46.2857 201.352 56.1818 196.423 63.8993C196.423 63.8993 191.234 72.4782 188.354 73.1162C186.105 73.2984 186.337 70.2694 186.435 69.5636C187.304 64.4636 189.323 59.6152 191.357 55.2216C195.495 52.3534 200.217 48.5974 204.508 44.4772C213.82 35.5755 221.67 25.4908 222.818 23.2373C222.818 23.2373 221.576 23.488 220.109 23.5331C212.945 33.5266 198.285 48.0509 193.84 50.213C195.809 45.4772 208.53 22.8727 219.356 12.0599L221.059 10.4203C223.693 7.84791 226.423 5.20738 228.55 4.77471C228.774 4.752 229.064 4.77471 229.313 5.29914C229.408 7.30201 228.663 8.782 227.807 10.4664L226.608 12.9252C226.608 12.9252 228.306 12.6064 229.422 12.2412C230.716 9.80661 232.149 7.07401 231.62 3.81946C231.444 2.77215 230.686 1.97554 229.695 1.79326C226.466 1.17862 222.946 3.56813 220.115 5.50381L220 5.57162C205.443 16.9767 193.15 33.4127 182.403 55.8586C181.624 56.4496 178.614 57.156 178.103 56.8142C179.164 54.6293 180.5 51.6921 181.169 48.505C181.285 47.5943 181.392 46.6614 181.392 45.751C181.392 43.7916 180.922 41.9483 179.167 40.674C177.109 39.6493 174.565 40.1277 172.85 40.9013C165.168 44.0884 159.426 51.9655 155.283 58.4525C153.055 62.5739 150.833 66.9881 150.218 72.0427C149.784 76.003 150.666 78.5527 152.918 79.8281C155.234 81.011 158.149 79.7814 159.293 79.1901C167.076 75.0926 172.514 66.8752 176.801 59.3623C176.971 59.3399 179.312 59.2721 181.082 58.8161C181.105 58.8161 181.115 58.8161 181.155 58.8401C181.053 59.18 180.138 61.9126 180.138 61.9126C177.422 69.8796 176.165 75.2982 178.731 78.5073C182.398 83.0378 188.469 78.3487 193.408 72.1556C192.348 79.5767 196.194 80.7382 199.126 80.1696C202.493 79.2594 206.246 75.6618 207.988 73.8185C207.429 75.9806 207.581 79.8511 210.644 80.2377C212.744 80.6259 214.316 79.4837 216.134 78.5045C222.657 74.9529 230.464 63.1183 232.491 59.6967H229.833C226.952 64.0518 223.285 69.7618 218.672 72.472ZM160.126 71.6794C159.713 71.0648 159.576 70.3926 159.562 69.6659C159.483 65.2023 164.285 57.2086 167.675 52.8538C167.682 52.8538 167.682 52.8538 167.682 52.8538C169.103 55.9644 172.319 57.9638 174.261 58.8065C171.849 64.1793 163.578 75.6858 160.126 71.6794ZM175.623 56.4045C175.393 56.5647 171.336 55.1983 170.552 51.4423C169.887 48.2086 172.114 45.6819 174.269 44.4081C175.193 43.6793 176.586 43.4296 177.608 43.7923C178.556 44.4305 178.813 45.5696 178.813 46.797C178.813 47.5498 178.713 48.3231 178.625 49.0285C178.625 49.0285 178.609 49.1657 178.606 49.1884C177.93 51.7145 176.896 54.196 175.623 56.4045ZM208.157 70.2454C208.154 70.2454 207.388 70.9282 207.388 70.9282C206.294 71.9065 205.168 72.9538 203.808 72.43C203.433 72.2934 203.169 71.7932 203.105 71.405C203.043 68.605 204.304 66.0105 205.527 63.4841L205.841 62.8234C209.358 56.9504 213.447 50.0301 219.451 45.2275C220.463 44.4974 221.561 43.884 222.72 44.3624C222.987 44.6122 223.297 45.0452 223.297 45.4772C223.297 45.6144 223.175 45.9783 223.105 46.0916C221.428 48.8018 219.831 51.647 218.278 54.3783C215.243 59.7738 212.094 65.3504 208.157 70.2454Z" fill="#0071FE"/>
</svg>
