<svg width="111" height="111" viewBox="0 0 111 111" fill="none" xmlns="http://www.w3.org/2000/svg">
<path fill-rule="evenodd" clip-rule="evenodd" d="M8.82733 79.3359C8.1752 79.3359 8.24813 78.8039 8.37749 78.5065C8.38786 78.4827 8.40107 78.4603 8.41582 78.4389L12.0675 73.1389C12.0857 73.1124 12.1063 73.0879 12.1293 73.0654C14.7329 70.511 17.4461 67.1587 18.4811 65.7965L22.3366 59.7205C22.4639 59.5198 22.4323 59.2573 22.2611 59.0925L19.0688 56.02L13.1796 49.5604C13.0565 49.4254 13.0169 49.234 13.0762 49.0613L14.2479 45.6498C14.3092 45.4712 14.466 45.3424 14.6532 45.3169L24.513 43.9739C24.9333 43.9167 25.0958 43.3949 24.7822 43.1092L20.8671 39.5414C20.7 39.3891 20.655 39.1454 20.7589 38.9446C21.9392 36.663 24.2317 32.3047 25.2107 30.7138C26.1642 29.1643 33.1022 23.6775 37.2029 20.5513C37.5524 20.285 37.4128 19.7301 36.9793 19.6584L31.0972 18.6853C30.915 18.6551 30.7643 18.5271 30.7052 18.3522L30.1008 16.5639C29.9481 16.0064 29.7344 14.789 30.1008 14.3795C30.5588 13.8676 34.0881 13.3827 35.2736 13.3827C36.459 13.3827 37.6983 13.0055 39.7728 12.1265C40.9197 11.6405 41.9954 11.4515 42.7314 11.3967C43.0898 11.3699 43.357 11.0055 43.1462 10.7144C42.9332 10.4202 42.7028 10.2435 42.5747 10.1766C40.2917 9.25925 38.5997 7.97907 37.7519 7.18883C37.5299 6.98192 37.5729 6.63112 37.8249 6.46203L39.1195 5.59329C39.2868 5.48104 39.507 5.48213 39.677 5.59027C45.1472 9.07111 49.7008 8.28322 51.6793 7.28175C51.9142 7.16281 52.2049 7.22004 52.3844 7.41275C54.8479 10.0577 59.7057 7.953 62.2599 6.29568C62.4943 6.14362 62.8151 6.20187 63.0391 6.3688C63.7248 6.87987 65.2425 7.42498 67.8703 7.03567C71.0473 6.565 75.0048 2.39872 76.7357 0.194558C76.8318 0.0722216 76.9779 -6.7992e-09 77.1334 0L83.8906 2.95365e-07C84.3124 3.13803e-07 84.5402 0.488317 84.2591 0.802866C75.1607 10.9857 58.8592 12.2967 51.0084 11.6225C50.7654 11.6016 50.5082 12.0044 50.5639 12.2419C50.6023 12.4058 50.776 12.4889 50.9388 12.4457C51.4969 12.2979 52.3762 12.1805 52.8449 12.1306C52.8714 12.1278 52.898 12.1272 52.9246 12.1289C55.2889 12.2728 56.9664 13.2193 57.715 13.8363C57.871 13.9649 57.9123 14.1835 57.8177 14.3622C56.6443 16.5792 53.7789 16.858 51.9642 16.6693C51.6188 16.6334 51.3118 16.9285 51.3242 17.2755C51.3597 18.2736 51.1579 19.1259 51.018 19.5117C51.0072 19.5413 50.9993 19.5687 50.993 19.5996C50.6276 21.4162 47.313 27.6637 45.3722 31.1578C45.1938 31.4788 45.4091 31.8763 45.7758 31.8976C53.9014 32.3702 68.428 32.0707 74.9632 31.8512C75.031 31.8489 75.0966 31.8611 75.1597 31.8858C83.3988 35.1127 86.8322 38.6599 87.7532 40.4196C87.8823 40.6664 87.736 40.9502 87.47 41.0329L85.2838 41.7124C85.0855 41.7741 84.945 41.9549 84.9372 42.1624C84.6934 48.652 88.992 51.6331 91.4983 52.4344C91.7008 52.4992 91.8492 52.678 91.8688 52.8897C92.7676 62.5711 97.1303 67.5599 99.5309 69.0845C99.7344 69.2137 99.8339 69.4601 99.7607 69.6897L99.4121 70.782C99.3272 71.0479 99.4766 71.3317 99.7438 71.4124L101.523 71.95C101.671 71.9946 101.79 72.1049 101.845 72.2489L104.311 78.6565C104.437 78.9839 104.195 79.3359 103.844 79.3359H101.932C101.819 79.3359 101.709 79.2977 101.621 79.2274C100.154 78.0577 97.3548 75.7546 96.889 75.0891C96.4083 74.4025 95.2241 72.254 94.6921 71.2656C93.7533 69.4284 91.2723 64.7158 88.8584 60.5638C86.571 56.6295 80.5401 53.3997 77.3701 52.0809C77.1012 51.9689 76.8007 52.1193 76.7631 52.4083C76.6039 53.6325 76.86 55.4706 77.0774 56.583C77.1221 56.8114 77.005 57.0444 76.7956 57.146C65.2419 62.7471 61.3996 69.3292 60.802 72.3511C60.7523 72.6025 60.5397 72.7935 60.2834 72.7935H59.1824C58.9248 72.7935 58.7094 72.9893 58.6848 73.2457L58.2579 77.6958C58.247 77.8095 58.1975 77.916 58.1177 77.9976L56.956 79.1855C56.8619 79.2817 56.7331 79.3359 56.5986 79.3359H52.2812C52.0413 79.3359 51.8468 79.1414 51.8468 78.9015C51.8468 78.8905 51.8472 78.8795 51.848 78.8686C51.8495 78.8495 51.8522 78.8306 51.8563 78.8118C51.9841 78.2189 52.2148 77.3659 52.3267 76.9686C52.3342 76.942 52.3394 76.9154 52.3427 76.8879C52.6022 74.7107 54.3384 71.845 55.1793 70.6779C56.4673 69.2005 59.9375 65.1848 63.5137 60.9418C66.7617 57.0882 67.4707 55.4525 67.4251 54.9999C67.4179 54.9281 67.3569 54.8825 67.2956 54.8446C66.4362 54.3141 64.1906 51.8386 62.9993 50.4652C62.8962 50.3463 62.7458 50.283 62.5887 50.2938C60.9579 50.4062 57.3106 50.6792 53.9068 51.0034C50.3178 51.3452 45.3853 52.8107 43.3678 53.5007L39.3999 55.0269C39.2358 55.0899 39.0507 55.0623 38.9123 54.954L36.2123 52.8408C36.0115 52.6837 35.7246 52.7028 35.5465 52.8853L29.4238 59.1576C29.293 59.2915 29.2481 59.4872 29.3073 59.6648L29.3408 59.7654C29.4106 59.9747 29.6093 60.1135 29.8298 60.107L33.8178 59.9893C33.9761 59.9846 34.1272 60.0552 34.2252 60.1797L37.0674 63.789C37.3309 64.1237 37.0828 64.6134 36.6571 64.597C34.9957 64.5328 32.4793 64.4316 30.673 64.3455C28.7817 64.2555 27.2806 63.4607 26.504 62.8821C26.2861 62.7198 25.974 62.7241 25.7839 62.9181C20.7446 68.0608 19.0688 72.5686 19.0688 73.0991C19.0688 73.5329 18.677 73.6129 18.4811 73.5987H17.7955C17.1027 73.5987 16.6288 74.2124 16.4785 74.5192L14.5163 79.0352C14.437 79.2178 14.2572 79.3359 14.0582 79.3359H8.82733ZM27.8106 50.4396C25.781 49.9237 22.1964 49.6925 20.2699 49.6278C20.0866 49.6216 19.9618 49.8087 20.0416 49.9738C21.2042 52.3791 23.3434 54.8381 24.4899 55.9925C24.6033 56.1067 24.793 56.0817 24.8757 55.9436L27.9548 50.8013C28.0388 50.6611 27.969 50.4799 27.8106 50.4396ZM40.1853 13.3286C40.6557 13.0812 41.4083 12.8373 42.2893 12.952C43.4937 13.1088 43.4344 13.4392 43.2542 13.5848C42.9991 13.8165 42.0567 14.134 40.2474 13.7047C40.052 13.6583 40.0076 13.422 40.1853 13.3286Z" fill="#0071FE"/>
<path d="M79.1609 96.1773H86.8984C87.1859 96.1012 87.7609 95.7613 87.7609 95.0104C87.7609 94.2594 87.1859 93.9871 86.8984 93.9449H76.0405C75.3979 93.911 74.1125 93.3766 74.1125 91.5095V87.2236H99.4947C100.575 87.1648 102.966 87.3033 103.896 88.3278C104.825 89.3524 105.017 90.6215 104.998 91.1279V93.9449C105.027 95.3786 104.325 98.246 101.275 98.246C102.516 98.5339 104.998 99.6934 104.998 102.028V105.84C104.968 107.25 103.86 110.07 99.6665 110.07C95.4732 110.07 82.2537 110.071 76.1681 110.071C75.4829 110.021 74.1125 109.51 74.1125 107.866V103.398H86.8984C87.1859 103.349 87.7609 103.059 87.7609 102.296C87.7609 101.534 87.1859 101.264 86.8984 101.224H79.1609V96.1773Z" fill="#0071FE"/>
<path fill-rule="evenodd" clip-rule="evenodd" d="M41.9303 110.071H35.2747L42.3098 87.2236H57.9272C62.878 87.2236 65.1666 89.798 65.6921 91.0852L72.2017 110.071H55.8254C54.0739 110.071 53.4025 109.032 53.2858 108.512L52.7019 106.323H43.0688L41.9303 110.071ZM44.4745 101.285H51.2215L49.6437 95.0775C49.5745 94.7005 49.2161 93.9466 48.3358 93.9466H46.5297L44.4745 101.285Z" fill="#0071FE"/>
<path d="M21.7433 110.071H6.13146C6.0876 105.464 5.99988 95.3347 5.99988 91.6683C5.99988 88.0018 9.13308 87.1775 10.6997 87.2236L37.0527 87.2236V91.866C37.0527 93.4896 35.5982 93.9319 34.871 93.9501L23.4046 93.9501L23.4046 108.305C23.4046 109.667 22.2971 110.05 21.7433 110.071Z" fill="#0071FE"/>
</svg>
