<svg width="72" height="81" viewBox="0 0 72 81" fill="none" xmlns="http://www.w3.org/2000/svg">
<path fill-rule="evenodd" clip-rule="evenodd" d="M2.39 58C1.89641 58 1.97414 57.5785 2.07471 57.3678L4.76564 53.4405C6.66615 51.57 8.65283 49.102 9.4086 48.1018L12.3707 43.4077L9.83595 40.9545L5.40915 36.072L6.40366 33.1602L14.5645 32.0425L10.9375 28.7188C11.7467 27.1404 13.5525 23.6775 14.3013 22.4539C15.0501 21.2304 20.8748 16.6487 23.6936 14.5107L18.3658 13.6244L17.8566 12.1093C17.7456 11.7018 17.5902 10.8118 17.8566 10.5124C18.1895 10.1382 20.7555 9.78367 21.6174 9.78367C22.4792 9.78367 23.3802 9.50793 24.8885 8.8653C26.0951 8.3512 27.1933 8.29166 27.5915 8.32616C27.4192 7.80618 27.0757 7.51862 26.9256 7.43983C24.9355 6.6357 23.563 5.4503 23.1256 4.95812L24.6142 3.95362C28.9862 6.85289 32.5863 5.96262 33.8399 5.15508C35.642 7.61316 39.7262 5.67308 41.543 4.39578C41.8092 4.79275 42.9366 5.49806 45.3164 5.14356C47.6961 4.78905 50.678 1.56681 51.8716 -8.79842e-07L57.7311 -6.23714e-07C51.0264 8.23099 38.1345 9.05958 32.5266 8.445C32.6603 8.57947 32.7494 8.98661 32.7773 9.17337C33.1228 9.0277 34.0171 8.90729 34.421 8.8653C36.3823 8.97736 37.6992 9.85446 38.1124 10.279C37.2321 12.3521 34.4963 12.363 33.2384 12.1093C33.3875 13.0839 33.1763 13.9737 33.052 14.2968C32.8035 15.6712 30.0332 20.8602 28.6791 23.283C34.4799 23.6814 45.6736 23.449 50.5454 23.283C57.175 25.88 59.5558 28.7684 59.9175 29.888L57.7371 30.5695C57.4225 35.7165 60.9422 37.9378 62.7413 38.405C63.3704 46.0249 66.905 49.7488 68.5937 50.6583L68.1361 52.1001L69.9534 52.6521L72 58L69.9534 58C68.9192 57.1743 66.7634 55.3974 66.414 54.8954C66.0645 54.3933 65.2035 52.8227 64.8167 52.1001C64.1342 50.7569 62.3305 47.3117 60.5754 44.2763C58.8204 41.2409 54.0342 38.7791 51.8604 37.9276C51.5784 38.865 51.8819 40.8 52.0689 41.6503C43.0202 45.9847 40.3382 51.1675 40.1283 53.2171L38.6697 53.2171L38.3155 56.9294L37.2743 58L33.6667 58L33.6667 57.6492C33.7611 57.2002 33.9441 56.5228 34.0238 56.2402C34.2001 54.645 35.4744 52.529 36.0895 51.6704C37.026 50.5903 39.5489 47.6546 42.1489 44.5527C44.749 41.4507 45.1111 40.3145 44.9672 40.1341C44.377 39.8374 42.5143 37.7583 41.6567 36.7559C40.5798 36.8288 37.7737 37.0371 35.1644 37.287C32.555 37.5369 28.969 38.6083 27.5021 39.1127L24.4251 40.3028L22.0433 38.4284L17.2096 43.4077L17.3895 43.9504L20.7419 43.8509L23.4075 47.2548C22.3827 47.2164 19.921 47.12 18.2725 47.041C16.6241 46.9621 15.3834 46.1427 14.9691 45.7429C11.1097 49.6073 9.83595 53.044 9.83595 53.4405C9.83595 53.7577 9.55105 53.8161 9.4086 53.8057L8.91017 53.8057C8.40648 53.8057 8.06195 54.2544 7.95265 54.4787L6.43111 58L2.39 58ZM17 36.6882C15.4797 36.2218 12.3665 36.0351 11 36C11.864 38.0327 13.7072 40.1803 14.5208 41L17 36.6882ZM25 10.6659C25.2792 10.388 26.0909 9.8716 27.1047 10.0294C28.1185 10.1871 28.0686 10.5195 27.9169 10.6659C27.6847 10.918 26.7761 11.271 25 10.6659Z" fill="#0071FE"/>
<path fill-rule="evenodd" clip-rule="evenodd" d="M53.2085 70.6673L58.8358 70.6673C59.0449 70.6107 59.4631 70.3579 59.4631 69.7995C59.4631 69.241 59.0449 69.0385 58.8358 69.0071L50.9391 69.0071C50.4717 68.9819 49.5369 68.5845 49.5369 67.1959L49.5369 64.0085L67.9969 64.0085C68.7822 63.9648 70.5218 64.0678 71.1976 64.8297C71.8734 65.5917 72.0135 66.5355 71.999 66.9122L71.999 69.0071C72.0207 70.0733 71.5095 72.2058 69.2915 72.2058C70.194 72.4199 71.999 73.2822 71.999 75.0187L71.999 77.8538C71.9774 78.9022 71.1716 80.999 68.1218 80.999C65.0721 80.999 55.4578 80.9997 51.0319 81C50.5336 80.9627 49.5369 80.5826 49.5369 79.3599L49.5369 76.0376L58.8358 76.0376C59.0449 76.0007 59.4631 75.7851 59.4631 75.2181C59.4631 74.651 59.0449 74.4502 58.8358 74.4207L53.2085 74.4207L53.2085 70.6673ZM26.1315 81L21.291 81L26.4075 64.0085L37.7657 64.0085C41.3663 64.0085 43.0308 65.9231 43.4129 66.8804L48.1473 81L36.2371 81C34.9633 81 34.475 80.2273 34.3901 79.8409L33.9655 78.2127L26.9595 78.2127L26.1315 81ZM11.4499 81L0.0956948 81C0.0637964 77.5741 -2.64047e-07 70.0407 -1.44859e-07 67.314C-2.56712e-08 64.5873 2.27871 63.9742 3.41807 64.0085L22.5841 64.0085L22.5841 67.4611C22.5841 68.6685 21.5263 68.9975 20.9974 69.011L12.6581 69.011L12.6581 79.6868C12.6581 80.6996 11.8526 80.9843 11.4499 81ZM28.4307 73.7985L33.3324 73.7985L32.1861 69.2889C32.1359 69.015 31.8754 68.4673 31.236 68.4673L29.9238 68.4673L28.4307 73.7985Z" fill="#0071FE"/>
</svg>
