<svg width="178" height="85" viewBox="0 0 178 85" fill="none" xmlns="http://www.w3.org/2000/svg">
<path fill-rule="evenodd" clip-rule="evenodd" d="M129.758 1.35693C128.574 2.22843 127.868 4.15066 127.784 6.73343L127.651 10.753L143.711 11.2651C156.482 11.6727 159.968 12.0915 160.733 13.3133C161.262 14.1581 161.701 22.568 161.71 32.003C161.73 53.7476 162.056 53.253 147.689 53.253C132.17 53.253 131.777 51.4834 143.728 35.4204C148.375 29.1755 152.522 23.4907 152.943 22.7861C153.54 21.7887 150.807 21.506 140.549 21.506H127.389L121.842 28.9307C112.005 42.0965 111.917 42.8984 119.26 52.7C127.372 63.5288 128.6 64.0183 147.486 63.9466C164.698 63.8811 170.063 62.8672 174.903 58.7678L178 56.143V31.7255V7.30795L174.875 5.06723C169.29 1.06404 163.442 0 147.01 0C135.825 0 131.095 0.371747 129.758 1.35693ZM0 26.5067C0 30.6471 0.349897 31.6005 2.03429 32.044C4.00144 32.5622 4.06857 33.4408 4.06857 58.7893V85H14.2227H24.3768L24.6484 58.6295L24.92 32.259H37.4187C50.1279 32.259 51.8102 32.7588 51.859 36.549C51.8672 37.2187 47.7549 43.3285 42.72 50.1254C37.6851 56.9213 33.5657 62.941 33.5657 63.5001C33.5657 64.1197 38.508 64.5181 46.2007 64.5181H58.8356L66.1184 54.57C72.2253 46.2298 73.3085 44.1539 72.8254 41.7217C71.8601 36.8613 62.8564 25.6362 57.7737 22.9551C55.6021 21.8102 49.2602 21.506 27.5137 21.506H0V26.5067ZM80.8089 41.4964C72.683 52.4911 65.7746 62.1688 65.4572 63.0024C64.9659 64.2907 66.7978 64.5181 77.6914 64.5181H90.5044L105.56 44.2922C113.842 33.1684 120.968 23.4907 121.397 22.7861C122.006 21.7877 119.256 21.506 108.88 21.506H95.584L80.8089 41.4964Z" fill="#0071FE"/>
</svg>
