<svg width="306" height="36" viewBox="0 0 306 36" fill="none" xmlns="http://www.w3.org/2000/svg">
<path fill-rule="evenodd" clip-rule="evenodd" d="M290.943 0.118058C288.384 0.462326 286.296 1.43691 284.463 3.14306C281.976 5.45738 280.973 8.73447 281.699 12.1742C282.451 15.7382 285.151 17.9806 290.907 19.8213C297.346 21.8804 298.922 22.6586 299.669 24.1479C300.457 25.719 300.18 27.3876 298.914 28.6887C297.983 29.646 296.655 30.0818 294.265 30.2143C290.099 30.4451 287.299 28.9748 285.713 25.7247C285.402 25.0868 285.05 24.5915 284.932 24.6242C284.813 24.6567 283.66 25.292 282.37 26.0358L280.025 27.3887L280.36 28.2508C281.309 30.6866 283.616 33.1351 286.132 34.3751C288.534 35.5591 290.569 36 293.635 36C297.958 36 301.001 34.928 303.333 32.5839C305.312 30.5949 306.121 28.3191 305.985 25.126C305.886 22.7687 305.064 21.0819 303.163 19.3313C301.589 17.8814 300.184 17.2233 294.685 15.3606C290.813 14.0491 289.031 13.1973 288.278 12.298C286.846 10.5872 287.279 8.03159 289.227 6.69945C290.269 5.98644 291.447 5.74786 293.426 5.84869C296.139 5.98686 298.1 7.13948 299.407 9.36373C299.753 9.95333 300.109 10.4377 300.199 10.44C300.527 10.4484 304.964 7.80039 304.966 7.59471C304.972 7.09118 303.174 4.68889 301.885 3.47678C299.125 0.881271 294.903 -0.414587 290.943 0.118058ZM0.00129654 0.628976C-0.0589356 0.689518 1.98707 8.49968 4.54788 17.9848L9.20422 35.2307H12.8431H16.4818L20.0769 22.7847C22.0542 15.9394 23.712 10.2238 23.7611 10.0833C23.81 9.94278 25.5028 15.5686 27.5228 22.5849L31.1954 35.3421L34.8509 35.2864L38.5064 35.2307L43.1596 18.0384C45.7189 8.58258 47.7752 0.774952 47.7291 0.68783C47.6831 0.60092 46.2887 0.529619 44.631 0.529619H41.6164L41.3996 1.2152C41.2802 1.59217 39.7037 7.40654 37.8959 14.1358C36.0883 20.8651 34.5468 26.4877 34.4704 26.6303C34.3938 26.7731 32.6263 20.9826 30.5423 13.7624L26.7532 0.635093L23.8822 0.57645C21.0616 0.51865 21.0078 0.526033 20.8324 0.998347C20.7339 1.26267 19.016 7.14687 17.0142 14.0746C15.0125 21.0022 13.3235 26.6191 13.2608 26.5567C13.198 26.4942 11.5789 20.6364 9.66257 13.5392L6.17813 0.635093L3.14449 0.576871C1.47604 0.545018 0.0615287 0.568434 0.00129654 0.628976ZM52.0131 0.664626C51.9329 0.744998 51.8674 8.579 51.8674 18.0736V35.3361H54.9118H57.9561L57.9024 17.9856L57.8487 0.635093L55.0037 0.576661C53.4389 0.544596 52.0931 0.584044 52.0131 0.664626ZM64.6052 0.664415C64.525 0.744998 64.4595 8.579 64.4595 18.0736V35.3361H74.5332H84.6069V32.5938V29.8515H77.4728H70.3388L70.2848 15.2433L70.2309 0.635093L67.4909 0.57645C65.984 0.544385 64.6853 0.583833 64.6052 0.664415ZM88.7517 0.648805C88.6651 0.737825 88.5943 8.579 88.5943 18.0736V35.3361L96.6218 35.3326C105.231 35.3286 106.206 35.2385 108.734 34.2118C110.764 33.3876 112.263 32.3911 113.906 30.774C117.507 27.2277 119.137 23.1733 119.11 17.8274C119.084 12.6486 117.5 8.84859 113.876 5.27596C112.262 3.68457 110.758 2.68636 108.734 1.86492C106.122 0.804274 105.177 0.703652 96.7792 0.591638C92.4507 0.533838 88.8384 0.559574 88.7517 0.648805ZM124.429 0.651758C124.343 0.739302 124.272 8.579 124.272 18.0736V35.3361H132.727C141.935 35.3361 142.58 35.2705 144.712 34.1162C145.295 33.8011 146.351 32.9735 147.06 32.2774C149.196 30.1789 150.008 27.9833 149.838 24.7617C149.693 21.9854 148.502 19.7629 146.284 18.1261L145.227 17.3464L146.174 16.374C148.676 13.8027 149.284 9.8103 147.702 6.33619C147 4.79479 145.145 2.86187 143.547 2.00563C141.167 0.730653 140.846 0.68994 132.352 0.586786C128.081 0.534893 124.516 0.564215 124.429 0.651758ZM155.264 0.668212C155.186 0.746685 155.123 8.579 155.123 18.0736V35.3361H165.826H176.529V32.5938V29.8515H168.764H160.999V25.2106V20.5697H168.029H175.06V17.8274V15.0851H168.029H160.999V10.6552V6.22523H168.665H176.331L176.273 3.43016L176.214 0.635093L165.81 0.580458C160.088 0.550292 155.342 0.58995 155.264 0.668212ZM181.566 17.9137V35.3361H184.504H187.442V29.1132V22.8902H190.753H194.065L197.708 29.1132L201.351 35.3361H204.575C206.349 35.3361 207.799 35.3011 207.799 35.2583C207.799 35.2157 206.048 32.2137 203.908 28.5875C201.767 24.9613 200.044 21.973 200.078 21.9472C200.111 21.9213 200.637 21.6319 201.246 21.3043C203.465 20.1095 205.489 17.639 206.341 15.0851C206.961 13.23 206.963 10.4714 206.348 8.51403C205.541 5.94847 203.309 3.25339 200.899 1.93496C198.756 0.762295 198.071 0.68108 189.488 0.582356L181.566 0.491015V17.9137ZM212.154 0.653235C212.067 0.739935 211.997 8.579 211.997 18.0736V35.3361H214.935H217.873V29.1079V22.8796L221.282 22.9376L224.691 22.9956L228.26 29.1564L231.829 35.3174L235.159 35.3267L238.488 35.3361L238.185 34.8615C237.514 33.8095 230.865 22.4512 230.76 22.1755C230.684 21.9778 230.983 21.7146 231.658 21.3851C233.062 20.6986 235.506 18.2096 236.213 16.745C238.347 12.3242 237.563 7.50864 234.143 4.02567C232.702 2.5581 231.559 1.82801 229.618 1.13462C228.311 0.668212 227.968 0.647539 220.286 0.572863C215.899 0.530463 212.24 0.566535 212.154 0.653235ZM242.573 0.664415C242.493 0.744998 242.428 8.579 242.428 18.0736V35.3361H245.367H248.306L248.253 17.9856L248.199 0.635093L245.459 0.57645C243.952 0.544385 242.653 0.583833 242.573 0.664415ZM254.952 0.668212C254.874 0.746685 254.81 8.579 254.81 18.0736V35.3361H265.513H276.216V32.5938V29.8515H268.556H260.896V25.2106V20.5697H267.822H274.747V17.8274V15.0851H267.822H260.896V10.6552V6.22523H268.457H276.019L275.96 3.43016L275.902 0.635093L265.498 0.580458C259.775 0.550292 255.03 0.58995 254.952 0.668212ZM140.075 6.5657C140.924 6.99604 141.858 7.86304 142.21 8.54567C143.322 10.7083 142.313 13.6901 140.132 14.6857C139.388 15.0254 138.702 15.0764 134.818 15.0804L130.358 15.0851V10.6552V6.22523H134.881C138.626 6.22523 139.519 6.28388 140.075 6.5657ZM197.122 6.43977C198.105 6.71442 199.723 8.15098 200.276 9.24159C201.665 11.978 200.475 15.6827 197.778 17.0178C196.84 17.4819 196.507 17.5152 192.112 17.5812L187.442 17.6515V11.9384V6.22523L191.902 6.2265C194.355 6.22713 196.704 6.32311 197.122 6.43977ZM228.157 6.66422C232.316 8.55643 232.56 14.5815 228.571 16.8562L227.422 17.511L222.648 17.581L217.873 17.6511V11.9381V6.22523L222.543 6.22987C226.785 6.23409 227.298 6.27375 228.157 6.66422ZM105.489 6.72328C109.1 7.69428 112.152 10.9129 113.036 14.6828C113.439 16.4041 113.443 19.6576 113.043 21.3629C112.353 24.3037 110.17 27.2412 107.686 28.5723C105.732 29.619 104.209 29.8437 99.0353 29.8479L94.4707 29.8515V18.1438V6.43618L99.455 6.43871C102.947 6.4404 104.754 6.52562 105.489 6.72328ZM141.804 21.1003C143.307 22.0352 144.063 23.5574 143.96 25.445C143.869 27.1094 143.22 28.2603 141.862 29.164L140.988 29.746L135.673 29.8089L130.358 29.8717V25.099V20.3263L135.569 20.3953L140.781 20.4643L141.804 21.1003Z" fill="url(#paint0_linear_2239_17828)"/>
<defs>
<linearGradient id="paint0_linear_2239_17828" x1="1.6162" y1="13.6364" x2="310.315" y2="21.6179" gradientUnits="userSpaceOnUse">
<stop stop-color="#BE11A5"/>
<stop offset="1" stop-color="#BE11A5"/>
</linearGradient>
</defs>
</svg>
