<svg width="206" height="24" viewBox="0 0 206 24" fill="none" xmlns="http://www.w3.org/2000/svg">
<path fill-rule="evenodd" clip-rule="evenodd" d="M195.864 0.0787055C194.141 0.308218 192.735 0.957939 191.501 2.09537C189.827 3.63825 189.152 5.82298 189.64 8.11613C190.147 10.4921 191.965 11.987 195.839 13.2142C200.174 14.5869 201.235 15.1057 201.738 16.0986C202.269 17.146 202.082 18.2584 201.23 19.1258C200.603 19.764 199.709 20.0546 198.1 20.1429C195.296 20.2967 193.41 19.3165 192.343 17.1498C192.133 16.7245 191.896 16.3943 191.817 16.4161C191.737 16.4378 190.961 16.8614 190.092 17.3572L188.513 18.2591L188.739 18.8339C189.378 20.4578 190.931 22.0901 192.625 22.9167C194.242 23.7061 195.612 24 197.676 24C200.586 24 202.634 23.2853 204.204 21.7226C205.537 20.3966 206.082 18.8794 205.99 16.7507C205.923 15.1791 205.37 14.0546 204.09 12.8875C203.031 11.9209 202.084 11.4822 198.383 10.2404C195.776 9.36607 194.577 8.7982 194.07 8.19868C193.106 7.05815 193.397 5.35439 194.708 4.4663C195.41 3.99096 196.203 3.8319 197.535 3.89913C199.362 3.99124 200.682 4.75966 201.561 6.24248C201.795 6.63555 202.034 6.95844 202.094 6.95999C202.315 6.96562 205.302 5.20026 205.304 5.06314C205.308 4.72745 204.098 3.12593 203.23 2.31786C201.372 0.587514 198.53 -0.276391 195.864 0.0787055ZM0.000872831 0.419317C-0.0396756 0.459679 1.3377 5.66645 3.06164 11.9898L6.1963 23.4871H8.64602H11.0956L13.5158 15.1898C14.847 10.6263 15.963 6.81584 15.996 6.72218C16.0289 6.62852 17.1685 10.379 18.5284 15.0566L21.0009 23.5614L23.4617 23.5242L25.9226 23.4871L29.0552 12.0256C30.7781 5.72172 32.1624 0.516635 32.1313 0.458554C32.1004 0.400613 31.1617 0.353079 30.0457 0.353079H28.0163L27.8704 0.810135C27.79 1.06144 26.7286 4.9377 25.5116 9.42387C24.2947 13.91 23.257 17.6585 23.2056 17.7535C23.154 17.8487 21.9641 13.9884 20.5612 9.17495L18.0103 0.423396L16.0775 0.3843C14.1787 0.345766 14.1425 0.350689 14.0244 0.665565C13.9581 0.841777 12.8016 4.76458 11.454 9.38309C10.1065 14.0015 8.96942 17.7461 8.92718 17.7044C8.88493 17.6628 7.79493 13.7576 6.50487 9.02616L4.15913 0.423396L2.11688 0.384581C0.993673 0.363345 0.0414212 0.378956 0.000872831 0.419317ZM35.0154 0.443084C34.9614 0.496665 34.9173 5.71933 34.9173 12.0491V23.5574H36.9668H39.0162L38.9801 11.9904L38.9439 0.423396L37.0286 0.38444C35.9752 0.363064 35.0692 0.389362 35.0154 0.443084ZM43.4924 0.442943C43.4384 0.496665 43.3943 5.71933 43.3943 12.0491V23.5574H50.1759H56.9576V21.7292V19.901H52.1549H47.3522L47.3159 10.1622L47.2796 0.423396L45.435 0.3843C44.4206 0.362924 43.5463 0.389222 43.4924 0.442943ZM59.7479 0.432537C59.6896 0.491884 59.6419 5.71933 59.6419 12.0491V23.5574L65.0461 23.555C70.8421 23.5524 71.4981 23.4923 73.2002 22.8079C74.5667 22.2584 75.5759 21.5941 76.6816 20.516C79.1062 18.1518 80.2034 15.4488 80.1853 11.8849C80.1678 8.43241 79.1011 5.89906 76.6618 3.51731C75.5754 2.45638 74.5624 1.79091 73.2002 1.24328C71.4414 0.536183 70.8058 0.469101 65.152 0.394425C62.238 0.355892 59.8063 0.373049 59.7479 0.432537ZM83.7661 0.434505C83.7078 0.492868 83.6602 5.71933 83.6602 12.0491V23.5574H89.3525C95.5508 23.5574 95.9849 23.5137 97.4206 22.7442C97.8128 22.534 98.5239 21.9823 99.0009 21.5183C100.439 20.1192 100.986 18.6555 100.872 16.5078C100.774 14.6569 99.9721 13.1752 98.4789 12.0841L97.7675 11.5643L98.4047 10.916C100.089 9.20181 100.498 6.5402 99.4332 4.22413C98.9605 3.19653 97.7121 1.90791 96.6359 1.33708C95.0339 0.487102 94.8178 0.45996 89.0996 0.391191C86.2245 0.356595 83.8245 0.376143 83.7661 0.434505ZM104.524 0.445475C104.472 0.49779 104.429 5.71933 104.429 12.0491V23.5574H111.634H118.84V21.7292V19.901H113.612H108.385V16.8071V13.7132H113.118H117.851V11.8849V10.0567H113.118H108.385V7.10344V4.15015H113.546H118.707L118.667 2.28678L118.628 0.423396L111.624 0.386972C107.772 0.366861 104.577 0.3933 104.524 0.445475ZM122.231 11.9425V23.5574H124.209H126.187V19.4088V15.2601H128.416H130.645L133.098 19.4088L135.55 23.5574H137.721C138.914 23.5574 139.891 23.5341 139.891 23.5055C139.891 23.4771 138.712 21.4758 137.271 19.0583C135.83 16.6408 134.67 14.6486 134.693 14.6315C134.716 14.6142 135.069 14.4212 135.479 14.2028C136.973 13.4063 138.336 11.7594 138.91 10.0567C139.326 8.81999 139.328 6.98094 138.914 5.67602C138.371 3.96564 136.868 2.16893 135.246 1.28997C133.803 0.508197 133.342 0.454053 127.564 0.388237L122.231 0.327344V11.9425ZM142.822 0.43549C142.764 0.49329 142.717 5.71933 142.717 12.0491V23.5574H144.695H146.673V19.4053V15.2531L148.968 15.2918L151.263 15.3304L153.665 19.4376L156.068 23.5449L158.31 23.5511L160.551 23.5574L160.347 23.241C159.895 22.5397 155.419 14.9675 155.348 14.7837C155.297 14.6519 155.499 14.4764 155.953 14.2567C156.898 13.7991 158.543 12.1398 159.019 11.1634C160.456 8.21612 159.928 5.00576 157.626 2.68378C156.656 1.7054 155.886 1.21867 154.579 0.756413C153.7 0.445475 153.469 0.431693 148.297 0.381909C145.344 0.353642 142.88 0.37769 142.822 0.43549ZM163.301 0.442943C163.247 0.496665 163.203 5.71933 163.203 12.0491V23.5574H165.182H167.161L167.124 11.9904L167.088 0.423396L165.244 0.3843C164.229 0.362924 163.355 0.389222 163.301 0.442943ZM171.634 0.445475C171.582 0.49779 171.539 5.71933 171.539 12.0491V23.5574H178.744H185.95V21.7292V19.901H180.793H175.636V16.8071V13.7132H180.298H184.961V11.8849V10.0567H180.298H175.636V7.10344V4.15015H180.726H185.816L185.777 2.28678L185.738 0.423396L178.734 0.386972C174.881 0.366861 171.687 0.3933 171.634 0.445475ZM94.2988 4.37714C94.8702 4.66403 95.4995 5.24202 95.7358 5.69711C96.4846 7.13888 95.8053 9.12671 94.3371 9.7905C93.8363 10.0169 93.3743 10.0509 90.7597 10.0536L87.7574 10.0567V7.10344V4.15015H90.8021C93.3231 4.15015 93.9244 4.18925 94.2988 4.37714ZM132.703 4.29318C133.365 4.47628 134.454 5.43399 134.826 6.16106C135.761 7.98534 134.96 10.4551 133.144 11.3452C132.513 11.6546 132.289 11.6768 129.33 11.7208L126.187 11.7676V7.9589V4.15015L129.189 4.151C130.84 4.15142 132.421 4.21541 132.703 4.29318ZM153.596 4.44281C156.395 5.70428 156.56 9.72103 153.874 11.2375L153.101 11.674L149.887 11.7207L146.673 11.7674V7.95876V4.15015L149.816 4.15325C152.673 4.15606 153.018 4.1825 153.596 4.44281ZM71.0153 4.48219C73.4462 5.12952 75.5008 7.27529 76.0958 9.78853C76.3677 10.9361 76.3699 13.1051 76.1007 14.2419C75.6363 16.2025 74.1669 18.1608 72.4944 19.0482C71.1789 19.746 70.1536 19.8958 66.6708 19.8986L63.5979 19.901V12.0959V4.29079L66.9534 4.29247C69.3039 4.2936 70.5204 4.35042 71.0153 4.48219ZM95.4626 14.0668C96.4747 14.6901 96.9834 15.7049 96.9143 16.9633C96.8532 18.0729 96.4164 18.8402 95.5022 19.4427L94.9137 19.8307L91.3355 19.8726L87.7574 19.9145V16.7327V13.5509L91.2656 13.5969L94.774 13.6428L95.4626 14.0668Z" fill="#0071FE"/>
</svg>
