<svg width="302" height="35" viewBox="0 0 302 35" fill="none" xmlns="http://www.w3.org/2000/svg">
<path fill-rule="evenodd" clip-rule="evenodd" d="M286.391 0.114779C283.872 0.449484 281.817 1.39699 280.012 3.05575C277.564 5.30579 276.577 8.49184 277.291 11.836C278.032 15.301 280.69 17.4811 286.355 19.2707C292.693 21.2726 294.245 22.0291 294.98 23.4771C295.756 25.0046 295.483 26.6268 294.237 27.8918C293.321 28.8225 292.013 29.2462 289.661 29.375C285.56 29.5994 282.803 28.1699 281.242 25.0101C280.936 24.3899 280.59 23.9084 280.473 23.9402C280.357 23.9718 279.222 24.5895 277.952 25.3126L275.643 26.6279L275.974 27.4661C276.907 29.8342 279.178 32.2147 281.655 33.4202C284.019 34.5714 286.023 35 289.041 35C293.296 35 296.291 33.9577 298.587 31.6788C300.535 29.745 301.331 27.5325 301.198 24.4281C301.1 22.1362 300.291 20.4963 298.42 18.7943C296.87 17.3847 295.487 16.7448 290.074 14.9339C286.263 13.6589 284.509 12.8307 283.768 11.9564C282.358 10.2931 282.784 7.80849 284.701 6.51335C285.727 5.82015 286.887 5.58819 288.834 5.68623C291.506 5.82056 293.436 6.94116 294.722 9.10362C295.063 9.67685 295.414 10.1477 295.501 10.15C295.825 10.1582 300.192 7.58371 300.194 7.38375C300.2 6.8942 298.431 4.55865 297.162 3.38021C294.445 0.856791 290.289 -0.403071 286.391 0.114779ZM0.00127625 0.611504C-0.0580134 0.670365 1.95598 8.26358 4.47672 17.4852L9.0602 34.252H12.6422H16.2239L19.7627 22.1518C21.7092 15.4967 23.341 9.93977 23.3893 9.80318C23.4374 9.66659 25.1037 15.1361 27.0921 21.9576L30.7073 34.3603L34.3056 34.3062L37.9039 34.252L42.4843 17.5373C45.0036 8.34418 47.0277 0.753426 46.9823 0.668724C46.937 0.584227 45.5645 0.514907 43.9327 0.514907H40.9653L40.7519 1.18145C40.6343 1.54794 39.0825 7.20081 37.303 13.7431C35.5236 20.2855 34.0063 25.7519 33.9311 25.8906C33.8557 26.0294 32.1158 20.3997 30.0645 13.3801L26.3346 0.617452L23.5085 0.560437C20.732 0.504243 20.6791 0.511421 20.5064 0.970615C20.4095 1.22759 18.7184 6.94834 16.748 13.6837C14.7776 20.4188 13.115 25.8797 13.0533 25.819C12.9915 25.7583 11.3977 20.0632 9.51138 13.1632L6.08146 0.617452L3.09529 0.560847C1.45294 0.529879 0.0605659 0.552644 0.00127625 0.611504ZM51.1993 0.646164C51.1203 0.724303 51.0559 8.34069 51.0559 17.5715V34.3546H54.0526H57.0493L56.9964 17.486L56.9435 0.617452L54.1431 0.560642C52.6028 0.529469 51.278 0.56782 51.1993 0.646164ZM63.5943 0.645959C63.5154 0.724303 63.451 8.34069 63.451 17.5715V34.3546H73.367H83.283V31.6884V29.0223H76.2606H69.2382L69.1851 14.8199L69.132 0.617452L66.4349 0.560437C64.9516 0.529264 63.6732 0.567615 63.5943 0.645959ZM87.3631 0.630783C87.2778 0.71733 87.2081 8.34069 87.2081 17.5715V34.3546L95.11 34.3511C103.585 34.3472 104.544 34.2596 107.033 33.2615C109.031 32.4602 110.507 31.4913 112.123 29.9191C115.669 26.4714 117.273 22.5296 117.247 17.3322C117.221 12.2973 115.661 8.6028 112.095 5.12941C110.506 3.58222 109.025 2.61174 107.033 1.81312C104.461 0.781933 103.532 0.684106 95.2649 0.575203C91.0041 0.519009 87.4484 0.54403 87.3631 0.630783ZM122.482 0.633654C122.397 0.718766 122.327 8.34069 122.327 17.5715V34.3546H130.651C139.714 34.3546 140.349 34.2908 142.448 33.1686C143.021 32.8622 144.061 32.0576 144.759 31.3808C146.861 29.3406 147.66 27.206 147.494 24.0739C147.351 21.3747 146.179 19.2139 143.995 17.6226L142.955 16.8646L143.887 15.9191C146.35 13.4193 146.948 9.5378 145.391 6.16019C144.7 4.6616 142.874 2.78237 141.301 1.94991C138.958 0.710357 138.642 0.670775 130.281 0.570486C126.077 0.520035 122.568 0.548542 122.482 0.633654ZM152.835 0.649651C152.758 0.725944 152.695 8.34069 152.695 17.5715V34.3546H163.231H173.767V31.6884V29.0223H166.123H158.48V24.5103V19.9984H165.4H172.321V17.3322V14.666H165.4H158.48V10.3592V6.05231H166.026H173.572L173.515 3.33488L173.457 0.617452L163.216 0.564334C157.583 0.535006 152.912 0.573563 152.835 0.649651ZM178.725 17.4161V34.3546H181.617H184.509V28.3045V22.2543H187.769H191.028L194.615 28.3045L198.201 34.3546H201.374C203.12 34.3546 204.548 34.3205 204.548 34.2789C204.548 34.2375 202.824 31.3189 200.717 27.7934C198.61 24.2679 196.914 21.3626 196.947 21.3376C196.98 21.3124 197.498 21.031 198.097 20.7125C200.281 19.5509 202.274 17.1491 203.113 14.666C203.722 12.8625 203.725 10.1805 203.119 8.27752C202.325 5.78323 200.128 3.16302 197.756 1.88121C195.646 0.74112 194.972 0.662161 186.524 0.56618L178.725 0.477376V17.4161ZM208.834 0.635089C208.749 0.719381 208.68 8.34069 208.68 17.5715V34.3546H211.572H214.464V28.2993V22.2441L217.82 22.3005L221.176 22.3569L224.689 28.3465L228.202 34.3363L231.479 34.3454L234.757 34.3546L234.459 33.8931C233.797 32.8704 227.253 21.8275 227.149 21.5595C227.075 21.3673 227.369 21.1114 228.033 20.791C229.415 20.1237 231.821 17.7038 232.517 16.2799C234.618 11.9818 233.846 7.30007 230.479 3.91385C229.061 2.48704 227.936 1.77723 226.025 1.1031C224.739 0.649651 224.401 0.629552 216.839 0.556951C212.521 0.515728 208.919 0.550798 208.834 0.635089ZM238.778 0.645959C238.699 0.724303 238.634 8.34069 238.634 17.5715V34.3546H241.528H244.421L244.368 17.486L244.315 0.617452L241.618 0.560437C240.135 0.529264 238.857 0.567615 238.778 0.645959ZM250.963 0.649651C250.886 0.725944 250.823 8.34069 250.823 17.5715V34.3546H261.359H271.895V31.6884V29.0223H264.354H256.814V24.5103V19.9984H263.631H270.448V17.3322V14.666H263.631H256.814V10.3592V6.05231H264.257H271.7L271.642 3.33488L271.585 0.617452L261.343 0.564334C255.711 0.535006 251.039 0.573563 250.963 0.649651ZM137.883 6.38332C138.719 6.8017 139.639 7.64462 139.984 8.30829C141.079 10.4109 140.086 13.3098 137.939 14.2778C137.207 14.608 136.531 14.6576 132.708 14.6615L128.318 14.666V10.3592V6.05231H132.77C136.457 6.05231 137.336 6.10932 137.883 6.38332ZM194.038 6.26088C195.006 6.52791 196.598 7.92457 197.143 8.98488C198.51 11.6453 197.338 15.2471 194.683 16.5451C193.76 16.9963 193.432 17.0287 189.106 17.0929L184.509 17.1612V11.6067V6.05231L188.899 6.05354C191.314 6.05416 193.626 6.14747 194.038 6.26088ZM224.587 6.4791C228.681 8.31875 228.921 14.1765 224.994 16.388L223.864 17.0246L219.164 17.0927L214.464 17.1607V11.6065V6.05231L219.061 6.05682C223.237 6.06092 223.742 6.09948 224.587 6.4791ZM103.838 6.53652C107.393 7.48055 110.397 10.6098 111.267 14.2749C111.664 15.9485 111.668 19.1116 111.274 20.7695C110.595 23.6286 108.446 26.4845 106.001 27.7786C104.077 28.7963 102.578 29.0147 97.4857 29.0188L92.9925 29.0223V17.6398V6.2574L97.8989 6.25986C101.336 6.2615 103.115 6.34436 103.838 6.53652ZM139.585 20.5142C141.065 21.4231 141.809 22.903 141.708 24.7382C141.618 26.3563 140.98 27.4753 139.643 28.3539L138.782 28.9197L133.55 28.9808L128.318 29.042V24.4018V19.7617L133.448 19.8287L138.578 19.8958L139.585 20.5142Z" fill="#0071FE"/>
</svg>
