<svg width="216" height="120" viewBox="0 0 216 120" fill="none" xmlns="http://www.w3.org/2000/svg">
<path d="M2.75623 60.0025C2.75623 27.1611 51.4658 2.70605 107.692 2.70605C163.919 2.70605 212.654 27.1611 212.654 60.0025C212.654 92.8539 163.919 117.249 107.692 117.249C51.4658 117.249 2.75623 92.8539 2.75623 60.0025Z" fill="white"/>
<path fill-rule="evenodd" clip-rule="evenodd" d="M107.692 0C167.151 0 215.41 26.8855 215.41 60.0025C215.41 93.1245 167.151 120 107.692 120C48.2586 120 0 93.1245 0 60.0025C0 26.8855 48.2586 0 107.692 0ZM107.692 5.41219C51.2653 5.41219 5.43723 29.9173 5.43723 60.0025C5.43723 90.1002 51.2653 114.548 107.692 114.548C164.119 114.548 209.947 90.1002 209.947 60.0025C209.947 29.9173 164.119 5.41219 107.692 5.41219ZM88.7748 65.763H67.5771C67.8276 70.9797 70.7592 73.3977 75.1441 73.3977C78.4014 73.3977 80.6314 71.5635 81.2077 69.7169H88.1483C86.3693 76.0286 81.2077 78.9501 74.8434 78.9501C65.8231 78.9501 60.2105 72.7437 60.2105 63.8787C60.2105 55.2919 66.1488 48.7522 74.8434 48.7522C84.6154 48.7522 89.326 56.9531 88.7748 65.763ZM74.643 54.1594C70.233 54.1594 67.978 57.0935 67.6272 60.8469H81.3831C80.8569 56.8404 79.1782 54.1594 74.643 54.1594ZM180.556 65.763H159.359C159.584 70.9797 162.541 73.3977 166.901 73.3977C170.183 73.3977 172.413 71.5635 172.989 69.7169H179.93C178.151 76.0286 172.989 78.9501 166.625 78.9501C157.58 78.9501 151.992 72.7437 151.992 63.8787C151.992 55.2919 157.93 48.7522 166.625 48.7522C176.397 48.7522 181.107 56.9531 180.556 65.763ZM166.399 54.1594C162.015 54.1594 159.759 57.0935 159.384 60.8469H173.165C172.638 56.8404 170.96 54.1594 166.399 54.1594ZM23.127 78.1734H30.9947V61.1075H47.983V78.1734H55.8507V38.5367H47.983V54.7657H30.9947V38.5367H23.127V78.1734ZM93.1095 78.1734H100.526V62.6785C100.526 56.8604 102.581 54.4776 106.84 54.4776C110.499 54.4776 112.152 56.8053 112.152 61.5134V78.1734H119.544V60.5537C119.544 53.4628 117.439 48.7522 109.045 48.7522C105.738 48.7522 102.28 50.3057 100.301 53.5179H100.125V49.529H93.1095V78.1734ZM125.858 78.1734H133.25V62.661L144.174 78.1734H153.37L141.343 62.0997L151.992 49.529H143.172L133.25 61.8792V38.5367H125.858V78.1734ZM184.891 78.1734H192.283V38.5367H184.891V78.1734Z" fill="#EC1B23"/>
</svg>
