<svg width="219" height="122" viewBox="0 0 219 122" fill="none" xmlns="http://www.w3.org/2000/svg">
<path d="M2.80273 61.0023C2.80273 27.6136 52.3242 2.75098 109.488 2.75098C166.652 2.75098 216.198 27.6136 216.198 61.0023C216.198 94.4013 166.652 119.203 109.488 119.203C52.3242 119.203 2.80273 94.4013 2.80273 61.0023Z" fill="white"/>
<path fill-rule="evenodd" clip-rule="evenodd" d="M109.487 0C169.937 0 219 27.3336 219 61.0026C219 94.6766 169.937 122 109.487 122C49.0629 122 0 94.6766 0 61.0026C0 27.3336 49.0629 0 109.487 0ZM109.487 5.50239C52.1198 5.50239 5.52786 30.416 5.52786 61.0026C5.52786 91.6019 52.1198 116.457 109.487 116.457C166.855 116.457 213.447 91.6019 213.447 61.0026C213.447 30.416 166.855 5.50239 109.487 5.50239ZM90.2544 66.859H68.7034C68.9581 72.1627 71.9386 74.6209 76.3965 74.6209C79.7081 74.6209 81.9753 72.7562 82.5612 70.8788H89.6175C87.8089 77.2957 82.5612 80.266 76.0909 80.266C66.9202 80.266 61.214 73.9561 61.214 64.9434C61.214 56.2135 67.2513 49.5647 76.0909 49.5647C86.0257 49.5647 90.8148 57.9024 90.2544 66.859ZM75.8871 55.062C71.4036 55.062 69.111 58.045 68.7543 61.861H82.7396C82.2046 57.7877 80.4978 55.062 75.8871 55.062ZM183.566 66.859H162.015C162.244 72.1627 165.25 74.6209 169.682 74.6209C173.019 74.6209 175.287 72.7562 175.872 70.8788H182.929C181.12 77.2957 175.872 80.266 169.402 80.266C160.206 80.266 154.525 73.9561 154.525 64.9434C154.525 56.2135 160.563 49.5647 169.402 49.5647C179.337 49.5647 184.126 57.9024 183.566 66.859ZM169.173 55.062C164.715 55.062 162.422 58.045 162.04 61.861H176.051C175.516 57.7877 173.809 55.062 169.173 55.062ZM23.5125 79.4763H31.5113V62.126H48.7827V79.4763H56.7815V39.179H48.7827V55.6785H31.5113V39.179H23.5125V79.4763ZM94.6614 79.4763H102.202V63.7232C102.202 57.8081 104.291 55.3856 108.621 55.3856C112.34 55.3856 114.022 57.7521 114.022 62.5386V79.4763H121.536V61.563C121.536 54.3538 119.397 49.5647 110.863 49.5647C107.5 49.5647 103.985 51.1441 101.972 54.4099H101.794V50.3544H94.6614V79.4763ZM127.956 79.4763H135.471V63.7053L146.577 79.4763H155.926L143.699 63.1347L154.525 50.3544H145.558L135.471 62.9106V39.179H127.956V79.4763ZM187.973 79.4763H195.487V39.179H187.973V79.4763Z" fill="#EC1B23"/>
<path d="M2.80273 61.0023C2.80273 27.6136 52.3242 2.75098 109.488 2.75098C166.652 2.75098 216.198 27.6136 216.198 61.0023C216.198 94.4013 166.652 119.203 109.488 119.203C52.3242 119.203 2.80273 94.4013 2.80273 61.0023Z" fill="white"/>
<path fill-rule="evenodd" clip-rule="evenodd" d="M109.487 0C169.937 0 219 27.3336 219 61.0026C219 94.6766 169.937 122 109.487 122C49.0629 122 0 94.6766 0 61.0026C0 27.3336 49.0629 0 109.487 0ZM109.487 5.50239C52.1198 5.50239 5.52786 30.416 5.52786 61.0026C5.52786 91.6019 52.1198 116.457 109.487 116.457C166.855 116.457 213.447 91.6019 213.447 61.0026C213.447 30.416 166.855 5.50239 109.487 5.50239ZM90.2544 66.859H68.7034C68.9581 72.1627 71.9386 74.6209 76.3965 74.6209C79.7081 74.6209 81.9753 72.7562 82.5612 70.8788H89.6175C87.8089 77.2957 82.5612 80.266 76.0909 80.266C66.9202 80.266 61.214 73.9561 61.214 64.9434C61.214 56.2135 67.2513 49.5647 76.0909 49.5647C86.0257 49.5647 90.8148 57.9024 90.2544 66.859ZM75.8871 55.062C71.4036 55.062 69.111 58.045 68.7543 61.861H82.7396C82.2046 57.7877 80.4978 55.062 75.8871 55.062ZM183.566 66.859H162.015C162.244 72.1627 165.25 74.6209 169.682 74.6209C173.019 74.6209 175.287 72.7562 175.872 70.8788H182.929C181.12 77.2957 175.872 80.266 169.402 80.266C160.206 80.266 154.525 73.9561 154.525 64.9434C154.525 56.2135 160.563 49.5647 169.402 49.5647C179.337 49.5647 184.126 57.9024 183.566 66.859ZM169.173 55.062C164.715 55.062 162.422 58.045 162.04 61.861H176.051C175.516 57.7877 173.809 55.062 169.173 55.062ZM23.5125 79.4763H31.5113V62.126H48.7827V79.4763H56.7815V39.179H48.7827V55.6785H31.5113V39.179H23.5125V79.4763ZM94.6614 79.4763H102.202V63.7232C102.202 57.8081 104.291 55.3856 108.621 55.3856C112.34 55.3856 114.022 57.7521 114.022 62.5386V79.4763H121.536V61.563C121.536 54.3538 119.397 49.5647 110.863 49.5647C107.5 49.5647 103.985 51.1441 101.972 54.4099H101.794V50.3544H94.6614V79.4763ZM127.956 79.4763H135.471V63.7053L146.577 79.4763H155.926L143.699 63.1347L154.525 50.3544H145.558L135.471 62.9106V39.179H127.956V79.4763ZM187.973 79.4763H195.487V39.179H187.973V79.4763Z" fill="#0071FE"/>
</svg>
