<svg width="380" height="380" viewBox="0 0 380 380" fill="none" xmlns="http://www.w3.org/2000/svg">
<path d="M83.8027 190.002C83.8027 156.614 133.324 131.751 190.488 131.751C247.652 131.751 297.198 156.614 297.198 190.002C297.198 223.401 247.652 248.203 190.488 248.203C133.324 248.203 83.8027 223.401 83.8027 190.002Z" fill="white"/>
<path fill-rule="evenodd" clip-rule="evenodd" d="M190.487 129C250.937 129 300 156.334 300 190.003C300 223.677 250.937 251 190.487 251C130.063 251 81 223.677 81 190.003C81 156.334 130.063 129 190.487 129ZM190.487 134.502C133.12 134.502 86.5279 159.416 86.5279 190.003C86.5279 220.602 133.12 245.457 190.487 245.457C247.855 245.457 294.447 220.602 294.447 190.003C294.447 159.416 247.855 134.502 190.487 134.502ZM171.254 195.859H149.703C149.958 201.163 152.939 203.621 157.396 203.621C160.708 203.621 162.975 201.756 163.561 199.879H170.618C168.809 206.296 163.561 209.266 157.091 209.266C147.92 209.266 142.214 202.956 142.214 193.943C142.214 185.213 148.251 178.565 157.091 178.565C167.026 178.565 171.815 186.902 171.254 195.859ZM156.887 184.062C152.404 184.062 150.111 187.045 149.754 190.861H163.74C163.205 186.788 161.498 184.062 156.887 184.062ZM264.566 195.859H243.015C243.244 201.163 246.25 203.621 250.682 203.621C254.019 203.621 256.287 201.756 256.872 199.879H263.929C262.12 206.296 256.872 209.266 250.402 209.266C241.206 209.266 235.525 202.956 235.525 193.943C235.525 185.213 241.563 178.565 250.402 178.565C260.337 178.565 265.126 186.902 264.566 195.859ZM250.173 184.062C245.715 184.062 243.422 187.045 243.04 190.861H257.051C256.516 186.788 254.809 184.062 250.173 184.062ZM104.513 208.476H112.511V191.126H129.783V208.476H137.782V168.179H129.783V184.679H112.511V168.179H104.513V208.476ZM175.661 208.476H183.202V192.723C183.202 186.808 185.291 184.386 189.621 184.386C193.34 184.386 195.022 186.752 195.022 191.539V208.476H202.536V190.563C202.536 183.354 200.397 178.565 191.863 178.565C188.5 178.565 184.985 180.144 182.972 183.41H182.794V179.354H175.661V208.476ZM208.956 208.476H216.471V192.705L227.577 208.476H236.926L224.699 192.135L235.525 179.354H226.558L216.471 191.911V168.179H208.956V208.476ZM268.973 208.476H276.487V168.179H268.973V208.476Z" fill="#EC1B23"/>
<path d="M83.8027 190.002C83.8027 156.614 133.324 131.751 190.488 131.751C247.652 131.751 297.198 156.614 297.198 190.002C297.198 223.401 247.652 248.203 190.488 248.203C133.324 248.203 83.8027 223.401 83.8027 190.002Z" fill="white"/>
<path fill-rule="evenodd" clip-rule="evenodd" d="M190.487 129C250.937 129 300 156.334 300 190.003C300 223.677 250.937 251 190.487 251C130.063 251 81 223.677 81 190.003C81 156.334 130.063 129 190.487 129ZM190.487 134.502C133.12 134.502 86.5279 159.416 86.5279 190.003C86.5279 220.602 133.12 245.457 190.487 245.457C247.855 245.457 294.447 220.602 294.447 190.003C294.447 159.416 247.855 134.502 190.487 134.502ZM171.254 195.859H149.703C149.958 201.163 152.939 203.621 157.396 203.621C160.708 203.621 162.975 201.756 163.561 199.879H170.618C168.809 206.296 163.561 209.266 157.091 209.266C147.92 209.266 142.214 202.956 142.214 193.943C142.214 185.213 148.251 178.565 157.091 178.565C167.026 178.565 171.815 186.902 171.254 195.859ZM156.887 184.062C152.404 184.062 150.111 187.045 149.754 190.861H163.74C163.205 186.788 161.498 184.062 156.887 184.062ZM264.566 195.859H243.015C243.244 201.163 246.25 203.621 250.682 203.621C254.019 203.621 256.287 201.756 256.872 199.879H263.929C262.12 206.296 256.872 209.266 250.402 209.266C241.206 209.266 235.525 202.956 235.525 193.943C235.525 185.213 241.563 178.565 250.402 178.565C260.337 178.565 265.126 186.902 264.566 195.859ZM250.173 184.062C245.715 184.062 243.422 187.045 243.04 190.861H257.051C256.516 186.788 254.809 184.062 250.173 184.062ZM104.513 208.476H112.511V191.126H129.783V208.476H137.782V168.179H129.783V184.679H112.511V168.179H104.513V208.476ZM175.661 208.476H183.202V192.723C183.202 186.808 185.291 184.386 189.621 184.386C193.34 184.386 195.022 186.752 195.022 191.539V208.476H202.536V190.563C202.536 183.354 200.397 178.565 191.863 178.565C188.5 178.565 184.985 180.144 182.972 183.41H182.794V179.354H175.661V208.476ZM208.956 208.476H216.471V192.705L227.577 208.476H236.926L224.699 192.135L235.525 179.354H226.558L216.471 191.911V168.179H208.956V208.476ZM268.973 208.476H276.487V168.179H268.973V208.476Z" fill="#0071FE"/>
</svg>
