<svg width="162" height="90" viewBox="0 0 162 90" fill="none" xmlns="http://www.w3.org/2000/svg">
<path fill-rule="evenodd" clip-rule="evenodd" d="M80.9906 0C125.707 0 162 20.1641 162 45.0019C162 69.8434 125.707 90 80.9906 90C36.2931 90 0 69.8434 0 45.0019C0 20.1641 36.2931 0 80.9906 0ZM80.9906 4.05914C38.5544 4.05914 4.0891 22.438 4.0891 45.0019C4.0891 67.5752 38.5544 85.9108 80.9906 85.9108C123.427 85.9108 157.892 67.5752 157.892 45.0019C157.892 22.438 123.427 4.05914 80.9906 4.05914ZM66.7635 49.3222H50.8217C51.0101 53.2348 53.2148 55.0482 56.5125 55.0482C58.9622 55.0482 60.6393 53.6726 61.0727 52.2877H66.2924C64.9545 57.0214 61.0727 59.2126 56.2864 59.2126C49.5026 59.2126 45.2816 54.5578 45.2816 47.9091C45.2816 41.4689 49.7476 36.5642 56.2864 36.5642C63.6354 36.5642 67.1781 42.7149 66.7635 49.3222ZM56.1356 40.6195C52.8191 40.6195 51.1232 42.8201 50.8594 45.6352H61.2046C60.8089 42.6303 59.5463 40.6195 56.1356 40.6195ZM135.788 49.3222H119.846C120.016 53.2348 122.24 55.0482 125.518 55.0482C127.987 55.0482 129.664 53.6726 130.097 52.2877H135.317C133.979 57.0214 130.097 59.2126 125.311 59.2126C118.509 59.2126 114.306 54.5578 114.306 47.9091C114.306 41.4689 118.772 36.5642 125.311 36.5642C132.66 36.5642 136.203 42.7149 135.788 49.3222ZM125.142 40.6195C121.844 40.6195 120.148 42.8201 119.865 45.6352H130.229C129.834 42.6303 128.571 40.6195 125.142 40.6195ZM17.3928 58.63H23.3098V45.8306H36.0858V58.63H42.0028V28.9025H36.0858V41.0743H23.3098V28.9025H17.3928V58.63ZM70.0235 58.63H75.6013V47.0089C75.6013 42.6453 77.1464 40.8582 80.3499 40.8582C83.1011 40.8582 84.3448 42.604 84.3448 46.1351V58.63H89.9037V45.4153C89.9037 40.0971 88.3208 36.5642 82.0081 36.5642C79.5208 36.5642 76.9203 37.7293 75.4317 40.1384H75.2997V37.1467H70.0235V58.63ZM94.6523 58.63H100.211V46.9957L108.427 58.63H115.343L106.298 46.5748L114.306 37.1467H107.673L100.211 46.4094V28.9025H94.6523V58.63ZM139.048 58.63H144.607V28.9025H139.048V58.63Z" fill="#0071FE"/>
</svg>
