<svg width="214" height="76" viewBox="0 0 214 76" fill="none" xmlns="http://www.w3.org/2000/svg">
<path fill-rule="evenodd" clip-rule="evenodd" d="M0.00417809 0.9793C1.14428 3.95326 15.1443 25.8111 15.7763 25.6027C16.6978 25.2995 32.5026 3.52278 33.2889 1.47289C33.7396 0.299763 30.3688 0 16.7418 0C7.32919 0 -0.203112 0.440629 0.00417809 0.9793ZM43.4304 9.86062C40.0788 15.2845 32.4248 27.6976 26.4202 37.4456L15.5025 55.1699L15.827 65.5849L16.1514 76L36.4298 43.6414L56.7082 11.2817L64.2056 11.2749L71.703 11.2693L74.6265 6.27924C76.2341 3.53404 77.5499 0.998458 77.5499 0.644603C77.5499 0.28962 71.2434 0 63.5364 0H49.5218L43.4304 9.86062ZM87.9043 5.63464L84.4029 11.2693H91.1151H97.8284V17.4674V23.6655H87.2227H76.6171L73.1507 29.3001L69.6842 34.9348H83.6661H97.6481L103.371 28.5113L109.094 22.0889V11.0439V0H100.249H91.4057L87.9043 5.63464ZM122.649 17.7491C122.69 37.9527 122.022 37.689 131.799 21.362L137.822 11.3065L149.879 11.2884L161.935 11.2693L165.369 6.27699C167.257 3.53066 168.803 0.995077 168.803 0.642349C168.803 0.288493 158.41 0 145.708 0H122.613L122.649 17.7491ZM179.157 5.63464L175.656 11.2693H188.564H201.474V17.4674V23.6655H184.662H167.85L163.82 30.1104C159.912 36.3603 159.79 36.8866 159.79 47.5778V58.6002H182.874H205.957L209.604 50.9935L213.252 43.3867L213.626 21.6934L214 0H198.329H182.659L179.157 5.63464ZM97.8284 41.0483V47.2848L75.2089 47.589L52.5883 47.8944L48.6127 53.2654L44.637 58.6363L76.34 58.3365L108.043 58.0368L108.286 46.7675L108.531 35.4982L103.18 35.1545L97.8284 34.8108V41.0483ZM129.814 46.5432L122.932 58.0368L129.663 58.376C133.364 58.5619 136.606 58.5011 136.867 58.2407C137.128 57.9804 137.196 52.6557 137.018 46.408L136.695 35.0497L129.814 46.5432ZM201.474 41.1329V47.331H186.265H171.056V41.1329V34.9348H186.265H201.474V41.1329Z" fill="#0071FE"/>
</svg>
