<svg width="320" height="56" viewBox="0 0 320 56" fill="none" xmlns="http://www.w3.org/2000/svg">
<path fill-rule="evenodd" clip-rule="evenodd" d="M27.9545 52.5854C41.5106 52.5854 52.5 41.5781 52.5 28C52.5 14.4219 41.5106 3.41463 27.9545 3.41463C14.3985 3.41463 3.40909 14.4219 3.40909 28C3.40909 41.5781 14.3985 52.5854 27.9545 52.5854ZM27.9545 56C43.3934 56 55.9091 43.464 55.9091 28C55.9091 12.536 43.3934 0 27.9545 0C12.5157 0 0 12.536 0 28C0 43.464 12.5157 56 27.9545 56Z" fill="#EC4631"/>
<path fill-rule="evenodd" clip-rule="evenodd" d="M27.9545 49.1707C39.6278 49.1707 49.0909 39.6923 49.0909 28C49.0909 16.3077 39.6278 6.82927 27.9545 6.82927C16.2813 6.82927 6.81818 16.3077 6.81818 28C6.81818 39.6923 16.2813 49.1707 27.9545 49.1707ZM27.9545 52.5854C41.5106 52.5854 52.5 41.5781 52.5 28C52.5 14.4219 41.5106 3.41463 27.9545 3.41463C14.3985 3.41463 3.40909 14.4219 3.40909 28C3.40909 41.5781 14.3985 52.5854 27.9545 52.5854Z" fill="#FED304"/>
<path d="M45.6818 28C45.6818 37.8064 37.745 45.7561 27.9545 45.7561C18.164 45.7561 10.2273 37.8064 10.2273 28C10.2273 18.1936 18.164 10.2439 27.9545 10.2439C37.745 10.2439 45.6818 18.1936 45.6818 28Z" fill="#3E3E3F"/>
<path fill-rule="evenodd" clip-rule="evenodd" d="M27.9545 45.7561C37.745 45.7561 45.6818 37.8064 45.6818 28C45.6818 18.1936 37.745 10.2439 27.9545 10.2439C18.164 10.2439 10.2273 18.1936 10.2273 28C10.2273 37.8064 18.164 45.7561 27.9545 45.7561ZM27.9545 49.1707C39.6278 49.1707 49.0909 39.6923 49.0909 28C49.0909 16.3077 39.6278 6.82927 27.9545 6.82927C16.2813 6.82927 6.81818 16.3077 6.81818 28C6.81818 39.6923 16.2813 49.1707 27.9545 49.1707Z" fill="#0CAB4B"/>
<path d="M29.8864 22.1951L20.5682 39.2683H14.5455L23.5227 22.1951H14.5455V16.6179H41.4773V22.1951H29.8864Z" fill="white"/>
<path d="M27.2727 30.6179L24.4318 36.0813H33.4091L35 39.1545H41.1364L31.7045 22.4228L28.75 27.7724L30.3409 30.6179H27.2727Z" fill="white"/>
<path fill-rule="evenodd" clip-rule="evenodd" d="M95.3418 16.7183C95.3418 16.7735 94.9761 16.8393 94.529 16.8646C94.0313 16.8928 93.6987 16.9635 93.6708 17.0471C93.6457 17.1223 93.4312 17.1837 93.1941 17.1837C92.9152 17.1837 92.7399 17.2437 92.6977 17.3534C92.662 17.4468 92.5037 17.5232 92.3461 17.5232C92.1885 17.5232 92.0596 17.5741 92.0596 17.6363C92.0596 17.6986 91.9359 17.7495 91.7847 17.7495C91.6336 17.7495 91.4426 17.816 91.3603 17.8973C91.2781 17.9785 91.1216 18.0788 91.0127 18.1201C90.9038 18.1613 90.8147 18.2475 90.8147 18.3118C90.8147 18.376 90.7059 18.4285 90.573 18.4285C90.44 18.4285 90.2133 18.5558 90.069 18.7114C89.9249 18.867 89.7535 18.9943 89.6883 18.9943C89.5373 18.9943 89.117 19.4106 89.117 19.5601C89.117 19.6223 89.0644 19.6733 89 19.6733C88.8309 19.6733 88.2434 20.3001 88.1568 20.5728C88.1163 20.7004 88.0357 20.8049 87.9776 20.8049C87.9196 20.8049 87.872 20.8813 87.872 20.9746C87.872 21.068 87.7956 21.1444 87.7023 21.1444C87.6044 21.1444 87.5325 21.2467 87.5325 21.386C87.5325 21.5189 87.4052 21.7456 87.2496 21.8899C87.0939 22.0341 86.9666 22.2563 86.9666 22.3837C86.9666 22.5143 86.8925 22.6155 86.7968 22.6155C86.6837 22.6155 86.6271 22.7286 86.6271 22.955C86.6271 23.1417 86.5827 23.2945 86.5284 23.2945C86.4741 23.2945 86.3971 23.4981 86.3573 23.7471C86.3174 23.9961 86.2346 24.1998 86.173 24.1998C86.1116 24.1998 86.0612 24.3998 86.0612 24.6444C86.0612 24.8888 85.9848 25.1653 85.8914 25.2586C85.7704 25.3796 85.7217 25.6745 85.7217 26.2852C85.7217 26.781 85.674 27.142 85.6085 27.142C85.541 27.142 85.4953 27.5757 85.4953 28.217C85.4953 28.8583 85.541 29.2921 85.6085 29.2921C85.674 29.2921 85.7217 29.653 85.7217 30.1488C85.7217 30.7595 85.7704 31.0544 85.8914 31.1754C85.9848 31.2688 86.0612 31.4979 86.0612 31.6846C86.0612 31.8714 86.1376 32.1005 86.2309 32.1939C86.3243 32.2872 86.4007 32.4873 86.4007 32.6384C86.4007 32.7896 86.4516 32.9132 86.5139 32.9132C86.5761 32.9132 86.6271 33.1169 86.6271 33.3659C86.6271 33.6928 86.6743 33.8185 86.7968 33.8185C86.8902 33.8185 86.9666 33.8949 86.9666 33.9883C86.9666 34.0816 87.0175 34.158 87.0798 34.158C87.142 34.158 87.193 34.2308 87.193 34.3197C87.193 34.4086 87.2627 34.551 87.3478 34.6361C87.433 34.7213 87.5383 34.9032 87.5817 35.0404C87.6253 35.1774 87.7084 35.2896 87.7664 35.2896C87.8245 35.2896 87.872 35.3398 87.872 35.4011C87.872 35.5556 89.7445 37.4397 89.8979 37.4397C89.9664 37.4397 90.0224 37.5161 90.0224 37.6095C90.0224 37.7151 90.1293 37.7792 90.3054 37.7792C90.4815 37.7792 90.5883 37.8434 90.5883 37.949C90.5883 38.0423 90.6647 38.1187 90.7581 38.1187C90.8514 38.1187 90.9278 38.1696 90.9278 38.2319C90.9278 38.2941 91.0552 38.345 91.2108 38.345C91.3869 38.345 91.4937 38.4092 91.4937 38.5148C91.4937 38.6373 91.6195 38.6845 91.9464 38.6845C92.2734 38.6845 92.3991 38.7317 92.3991 38.8543C92.3991 38.9768 92.5249 39.024 92.8519 39.024C93.1009 39.024 93.3046 39.0749 93.3046 39.1372C93.3046 39.1994 93.4537 39.2503 93.6361 39.2503C93.8183 39.2503 94.0439 39.3267 94.1372 39.4201C94.3902 39.673 100.141 39.673 100.394 39.4201C100.488 39.3267 100.764 39.2503 101.009 39.2503C101.253 39.2503 101.453 39.206 101.453 39.1516C101.453 39.0973 101.657 39.0204 101.906 38.9805C102.155 38.9407 102.359 38.8579 102.359 38.7963C102.359 38.7349 102.512 38.6845 102.698 38.6845C102.925 38.6845 103.038 38.6279 103.038 38.5148C103.038 38.4092 103.145 38.345 103.321 38.345C103.476 38.345 103.604 38.2997 103.604 38.2441C103.604 38.1886 103.731 38.1112 103.887 38.0722C104.042 38.0332 104.17 37.9512 104.17 37.8902C104.17 37.8291 104.246 37.7792 104.339 37.7792C104.433 37.7792 104.509 37.7028 104.509 37.6095C104.509 37.5039 104.616 37.4397 104.792 37.4397C104.968 37.4397 105.075 37.3756 105.075 37.27C105.075 37.1766 105.128 37.1002 105.192 37.1002C105.339 37.1002 105.981 36.4521 105.981 36.3043C105.981 36.2441 106.057 36.1949 106.15 36.1949C106.244 36.1949 106.32 36.1404 106.32 36.0737C106.32 36.007 106.384 35.8815 106.462 35.7947C106.797 35.4202 106.886 35.2922 106.886 35.1812C106.886 35.1164 106.962 35.0633 107.056 35.0633C107.159 35.0633 107.225 34.9577 107.225 34.7925C107.225 34.6436 107.302 34.4924 107.395 34.4565C107.489 34.4208 107.565 34.2881 107.565 34.1615C107.565 34.0351 107.616 33.9317 107.678 33.9317C107.74 33.9317 107.791 33.8537 107.791 33.7585C107.791 33.6631 107.868 33.5558 107.961 33.52C108.067 33.4794 108.131 33.3069 108.131 33.0628C108.131 32.8472 108.207 32.5944 108.301 32.501C108.394 32.4076 108.47 32.1821 108.47 31.9999C108.47 31.8176 108.514 31.6685 108.568 31.6685C108.621 31.6685 108.698 31.3502 108.738 30.9612C108.779 30.5723 108.863 30.237 108.924 30.2162C109.063 30.1694 109.078 26.2367 108.939 26.2367C108.886 26.2367 108.809 25.9185 108.768 25.5294C108.728 25.1405 108.644 24.8052 108.582 24.7845C108.521 24.7636 108.47 24.5473 108.47 24.3035C108.47 23.985 108.423 23.8603 108.301 23.8603C108.179 23.8603 108.131 23.7359 108.131 23.4197C108.131 23.1325 108.072 22.9566 107.961 22.914C107.868 22.8782 107.791 22.7455 107.791 22.619C107.791 22.4926 107.746 22.3892 107.69 22.3892C107.635 22.3892 107.558 22.2619 107.518 22.1063C107.479 21.9507 107.397 21.8233 107.336 21.8233C107.275 21.8233 107.225 21.7215 107.225 21.597C107.225 21.4725 107.176 21.3707 107.114 21.3707C107.053 21.3707 106.971 21.2434 106.932 21.0878C106.893 20.9322 106.812 20.8049 106.752 20.8049C106.637 20.8049 106.32 20.5236 106.32 20.4213C106.32 20.3036 105.32 19.3338 105.198 19.3338C105.131 19.3338 105.075 19.2574 105.075 19.164C105.075 19.0707 105.021 18.9943 104.954 18.9943C104.887 18.9943 104.762 18.9307 104.675 18.8528C104.299 18.5156 104.172 18.4285 104.058 18.4285C103.991 18.4285 103.907 18.3521 103.871 18.2587C103.835 18.1654 103.684 18.089 103.535 18.089C103.386 18.089 103.264 18.0391 103.264 17.978C103.264 17.917 103.137 17.8351 102.981 17.796C102.826 17.757 102.698 17.6796 102.698 17.6241C102.698 17.5686 102.549 17.5232 102.367 17.5232C102.185 17.5232 101.959 17.4468 101.866 17.3534C101.772 17.2601 101.518 17.1837 101.301 17.1837C101.084 17.1837 100.886 17.123 100.861 17.0489C100.835 16.9696 100.506 16.8945 100.06 16.8661C99.6436 16.8396 99.303 16.7728 99.303 16.7179C99.303 16.6629 98.4117 16.6179 97.3224 16.6179C96.2331 16.6179 95.3418 16.663 95.3418 16.7183ZM265.448 16.7183C265.448 16.7735 265.083 16.8393 264.636 16.8646C264.138 16.8928 263.805 16.9635 263.777 17.0471C263.752 17.1223 263.574 17.1837 263.382 17.1837C263.19 17.1837 262.839 17.2728 262.602 17.3817L262.172 17.5798L262.166 22.4137L262.477 22.3364C262.649 22.294 262.806 22.2121 262.826 22.1545C262.847 22.0969 262.965 22.0497 263.089 22.0497C263.213 22.0497 263.39 21.9733 263.484 21.8799C263.577 21.7866 263.798 21.7102 263.976 21.7102C264.153 21.7102 264.319 21.6466 264.345 21.5687C264.38 21.4637 264.839 21.4273 266.127 21.4273C267.414 21.4273 267.874 21.4638 267.91 21.5687C267.936 21.6466 268.106 21.7102 268.287 21.7102C268.505 21.7102 268.617 21.7679 268.617 21.8799C268.617 21.9855 268.724 22.0497 268.9 22.0497C269.076 22.0497 269.183 22.1138 269.183 22.2194C269.183 22.3128 269.234 22.3892 269.296 22.3892C269.359 22.3892 269.409 22.5128 269.409 22.664C269.409 22.8151 269.486 23.0152 269.579 23.1085C269.763 23.292 269.816 24.0866 269.645 24.0866C269.587 24.0866 269.507 24.2394 269.466 24.4261C269.425 24.6128 269.345 24.7656 269.287 24.7656C269.23 24.7656 269.183 24.8419 269.183 24.9353C269.183 25.0287 269.125 25.1051 269.055 25.1051C268.984 25.1051 268.808 25.2324 268.664 25.388C268.451 25.6177 268.294 25.6709 267.83 25.6709C267.516 25.6709 267.259 25.7218 267.259 25.784C267.259 25.8494 266.901 25.8972 266.41 25.8972C265.92 25.8972 265.561 25.8494 265.561 25.784C265.561 25.7166 265.128 25.6709 264.486 25.6709H263.411V30.5368H265.844C267.183 30.5368 268.278 30.5811 268.278 30.6352C268.278 30.6893 268.454 30.7621 268.67 30.7972C269.152 30.8753 269.749 31.4539 269.749 31.842C269.749 31.9956 269.8 32.1211 269.862 32.1211C269.924 32.1211 269.975 32.2993 269.975 32.5172C269.975 32.735 269.924 32.9132 269.862 32.9132C269.8 32.9132 269.749 33.1169 269.749 33.3659C269.749 33.6928 269.702 33.8185 269.579 33.8185C269.486 33.8185 269.409 33.8731 269.409 33.9397C269.409 34.1124 269.158 34.3411 268.867 34.4336C268.729 34.4771 268.617 34.5602 268.617 34.6183C268.617 34.6763 268.486 34.7238 268.326 34.7238C268.166 34.7238 267.959 34.8002 267.865 34.8936C267.736 35.0229 267.413 35.0633 266.507 35.0633C265.602 35.0633 265.278 35.0229 265.149 34.8936C265.056 34.8002 264.779 34.7238 264.535 34.7238C264.29 34.7238 264.09 34.677 264.09 34.6196C264.09 34.5624 263.937 34.4819 263.751 34.4409C263.564 34.4 263.411 34.3195 263.411 34.2622C263.411 34.2049 263.335 34.158 263.241 34.158C263.148 34.158 263.072 34.0816 263.072 33.9883C263.072 33.8827 262.965 33.8185 262.789 33.8185C262.633 33.8185 262.506 33.7676 262.506 33.7054C262.506 33.6431 262.429 33.5922 262.336 33.5922C262.19 33.5922 262.166 33.9254 262.166 35.912C262.166 38.4117 262.232 38.6845 262.833 38.6845C262.951 38.6845 263.077 38.7609 263.112 38.8543C263.148 38.9476 263.306 39.024 263.464 39.024C263.622 39.024 263.751 39.0684 263.751 39.1227C263.751 39.177 263.954 39.2539 264.203 39.2938C264.452 39.3336 264.656 39.4164 264.656 39.478C264.656 39.6799 270.523 39.624 270.727 39.4201C270.821 39.3267 271.046 39.2503 271.228 39.2503C271.411 39.2503 271.56 39.206 271.56 39.1516C271.56 39.0973 271.764 39.0204 272.013 38.9805C272.262 38.9407 272.465 38.8579 272.465 38.7963C272.465 38.7349 272.587 38.6845 272.736 38.6845C272.885 38.6845 273.036 38.6081 273.072 38.5148C273.108 38.4214 273.248 38.345 273.382 38.345C273.517 38.345 273.737 38.2272 273.87 38.0833C274.004 37.9393 274.277 37.7247 274.478 37.6062C274.678 37.4877 274.875 37.2872 274.914 37.1607C274.954 37.034 275.107 36.8184 275.254 36.6813C275.401 36.5443 275.521 36.3787 275.521 36.3135C275.521 36.2482 275.571 36.1949 275.632 36.1949C275.693 36.1949 275.775 36.0676 275.814 35.912C275.853 35.7564 275.931 35.6291 275.986 35.6291C276.042 35.6291 276.087 35.5116 276.087 35.3678C276.087 35.2241 276.162 35.0078 276.253 34.8869C276.495 34.5677 276.501 31.244 276.26 30.9262C276.169 30.8055 276.093 30.5921 276.091 30.452C276.089 30.3119 276.042 30.1973 275.986 30.1973C275.931 30.1973 275.853 30.07 275.814 29.9144C275.775 29.7588 275.693 29.6315 275.632 29.6315C275.571 29.6315 275.521 29.5767 275.521 29.5097C275.521 29.3513 274.896 28.7262 274.738 28.7262C274.671 28.7262 274.616 28.6499 274.616 28.5565C274.616 28.453 274.51 28.3868 274.345 28.3868C274.196 28.3868 274.045 28.3104 274.009 28.217C273.973 28.1237 273.815 28.0473 273.657 28.0473C273.427 28.0473 273.371 27.9916 273.371 27.7644C273.371 27.5255 273.424 27.4815 273.71 27.4815C273.937 27.4815 274.05 27.4249 274.05 27.3117C274.05 27.2061 274.157 27.142 274.333 27.142C274.488 27.142 274.616 27.0874 274.616 27.0208C274.616 26.864 274.904 26.5762 275.06 26.5762C275.127 26.5762 275.182 26.4489 275.182 26.2933C275.182 26.1172 275.246 26.0103 275.351 26.0103C275.464 26.0103 275.521 25.8972 275.521 25.6709C275.521 25.4841 275.568 25.3314 275.626 25.3314C275.684 25.3314 275.766 25.0513 275.809 24.709C275.852 24.3667 275.932 24.0866 275.987 24.0866C276.042 24.0866 276.087 23.5519 276.087 22.8984C276.087 22.1911 276.042 21.7102 275.975 21.7102C275.914 21.7102 275.831 21.5065 275.791 21.2575C275.751 21.0086 275.674 20.8049 275.62 20.8049C275.565 20.8049 275.521 20.683 275.521 20.5341C275.521 20.3852 275.445 20.234 275.351 20.1981C275.258 20.1624 275.182 20.0526 275.182 19.9544C275.182 19.856 275.054 19.6576 274.899 19.5135C274.743 19.3692 274.616 19.1935 274.616 19.1227C274.616 19.0521 274.539 18.9943 274.446 18.9943C274.353 18.9943 274.276 18.9179 274.276 18.8246C274.276 18.7312 274.212 18.6548 274.133 18.6548C274.055 18.6548 273.895 18.5275 273.778 18.3719C273.661 18.2163 273.476 18.089 273.367 18.089C273.258 18.089 273.139 18.0126 273.103 17.9193C273.068 17.8259 272.909 17.7495 272.752 17.7495C272.594 17.7495 272.465 17.6986 272.465 17.6363C272.465 17.5741 272.338 17.5232 272.182 17.5232C272.006 17.5232 271.899 17.459 271.899 17.3534C271.899 17.2315 271.775 17.1837 271.456 17.1837C271.212 17.1837 270.993 17.123 270.968 17.0489C270.941 16.9696 270.612 16.8945 270.166 16.8661C269.75 16.8396 269.409 16.7728 269.409 16.7179C269.409 16.6629 268.518 16.6179 267.429 16.6179C266.34 16.6179 265.448 16.663 265.448 16.7183ZM288.537 16.7179C288.537 16.7728 288.196 16.8396 287.78 16.8661C287.334 16.8945 287.005 16.9696 286.978 17.0489C286.951 17.1288 286.707 17.1837 286.377 17.1837C285.958 17.1837 285.82 17.2256 285.82 17.3534C285.82 17.4666 285.707 17.5232 285.481 17.5232C285.294 17.5232 285.141 17.5741 285.141 17.6363C285.141 17.6986 285.038 17.7495 284.911 17.7495C284.785 17.7495 284.652 17.8259 284.616 17.9193C284.58 18.0126 284.435 18.089 284.292 18.089C284.15 18.089 284.004 18.1654 283.968 18.2587C283.933 18.3521 283.823 18.4285 283.725 18.4285C283.626 18.4285 283.428 18.5558 283.284 18.7114C283.139 18.867 282.964 18.9943 282.893 18.9943C282.822 18.9943 282.764 19.0707 282.764 19.164C282.764 19.2574 282.688 19.3338 282.595 19.3338C282.501 19.3338 282.425 19.3837 282.425 19.4448C282.425 19.5058 282.298 19.5877 282.142 19.6268C281.986 19.6658 281.859 19.7712 281.859 19.8607C281.859 19.9503 281.732 20.1415 281.576 20.2857C281.42 20.43 281.293 20.6057 281.293 20.6764C281.293 20.7471 281.217 20.8049 281.123 20.8049C281.03 20.8049 280.954 20.8813 280.954 20.9746C280.954 21.068 280.904 21.1444 280.843 21.1444C280.782 21.1444 280.7 21.2717 280.661 21.4273C280.622 21.5829 280.55 21.7102 280.501 21.7102C280.452 21.7102 280.38 21.8375 280.341 21.9931C280.302 22.1487 280.22 22.276 280.159 22.276C280.098 22.276 280.048 22.356 280.048 22.4538C280.048 22.5517 279.972 22.7081 279.878 22.8014C279.785 22.8948 279.709 23.0948 279.709 23.2459C279.709 23.3971 279.658 23.5208 279.595 23.5208C279.533 23.5208 279.482 23.6699 279.482 23.8522C279.482 24.0344 279.406 24.26 279.313 24.3533C279.21 24.4555 279.143 24.7323 279.143 25.0485C279.143 25.3646 279.075 25.6414 278.973 25.7436C278.833 25.8834 278.803 26.3202 278.803 28.217C278.803 30.1138 278.833 30.5506 278.973 30.6904C279.078 30.7958 279.143 31.0734 279.143 31.422C279.143 31.8169 279.193 32.0031 279.313 32.0489C279.419 32.0898 279.482 32.2628 279.482 32.5137C279.482 32.7334 279.533 32.9132 279.595 32.9132C279.658 32.9132 279.709 33.0421 279.709 33.1997C279.709 33.3573 279.785 33.5155 279.878 33.5513C279.972 33.5871 280.048 33.7383 280.048 33.8872C280.048 34.0524 280.114 34.158 280.218 34.158C280.324 34.158 280.388 34.2648 280.388 34.4409C280.388 34.5965 280.439 34.7238 280.501 34.7238C280.563 34.7238 280.614 34.8002 280.614 34.8936C280.614 34.9869 280.69 35.0633 280.784 35.0633C280.889 35.0633 280.954 35.1701 280.954 35.3462C280.954 35.5223 281.018 35.6291 281.123 35.6291C281.217 35.6291 281.293 35.6837 281.293 35.7503C281.293 35.9071 281.581 36.1949 281.738 36.1949C281.804 36.1949 281.859 36.2713 281.859 36.3647C281.859 36.458 281.935 36.5344 282.029 36.5344C282.122 36.5344 282.199 36.5893 282.199 36.6563C282.199 36.8369 282.792 37.3973 283.08 37.4887C283.218 37.5324 283.33 37.6156 283.33 37.6736C283.33 37.7317 283.407 37.7792 283.5 37.7792C283.593 37.7792 283.67 37.8267 283.67 37.8848C283.67 37.9429 283.785 38.026 283.925 38.0697C284.065 38.1135 284.205 38.1805 284.236 38.2189C284.343 38.3499 285.046 38.6845 285.215 38.6845C285.308 38.6845 285.46 38.7609 285.554 38.8543C285.647 38.9476 285.872 39.024 286.055 39.024C286.237 39.024 286.386 39.0684 286.386 39.1226C286.386 39.1768 286.641 39.255 286.952 39.2963C287.263 39.3375 287.518 39.4204 287.518 39.4805C287.518 39.5479 288.644 39.5898 290.461 39.5898C292.195 39.5898 293.403 39.5467 293.403 39.4848C293.403 39.4271 293.683 39.3448 294.026 39.302C294.368 39.2593 294.648 39.1791 294.648 39.1242C294.648 39.069 294.772 39.024 294.923 39.024C295.074 39.024 295.274 38.9476 295.368 38.8543C295.461 38.7609 295.668 38.6845 295.828 38.6845C295.989 38.6845 296.119 38.6346 296.119 38.5735C296.119 38.5125 296.247 38.4306 296.402 38.3915C296.558 38.3525 296.685 38.2806 296.685 38.2319C296.685 38.1831 296.813 38.1112 296.968 38.0722C297.124 38.0332 297.251 37.9512 297.251 37.8902C297.251 37.8291 297.328 37.7792 297.421 37.7792C297.514 37.7792 297.591 37.7317 297.591 37.6736C297.591 37.6156 297.701 37.5333 297.835 37.4907C297.969 37.4481 298.191 37.2919 298.329 37.1436C298.466 36.9952 298.637 36.8739 298.707 36.8739C298.778 36.8739 298.836 36.8171 298.836 36.7476C298.836 36.6783 299.083 36.3854 299.385 36.0969C299.688 35.8085 299.971 35.458 300.015 35.3179C300.06 35.1778 300.143 35.0633 300.201 35.0633C300.26 35.0633 300.307 34.9869 300.307 34.8936C300.307 34.8002 300.357 34.7238 300.418 34.7238C300.479 34.7238 300.561 34.5965 300.6 34.4409C300.639 34.2853 300.711 34.158 300.76 34.158C300.809 34.158 300.88 34.0307 300.919 33.8751C300.958 33.7195 301.04 33.5922 301.101 33.5922C301.163 33.5922 301.212 33.4431 301.212 33.2608C301.212 33.0786 301.289 32.853 301.382 32.7597C301.476 32.6663 301.552 32.459 301.552 32.2989C301.552 32.1389 301.596 32.0079 301.651 32.0079C301.705 32.0079 301.785 31.6903 301.829 31.302C301.873 30.9138 301.963 30.5629 302.028 30.5225C302.184 30.426 302.185 25.7832 302.03 25.6843C301.969 25.6459 301.883 25.3469 301.838 25.0202C301.794 24.6935 301.711 24.4261 301.655 24.4261C301.598 24.4261 301.552 24.2463 301.552 24.0265C301.552 23.7756 301.489 23.6026 301.382 23.5617C301.279 23.5221 301.212 23.3508 301.212 23.1247C301.212 22.8986 301.146 22.7273 301.043 22.6877C300.949 22.6519 300.873 22.5446 300.873 22.4492C300.873 22.354 300.822 22.276 300.76 22.276C300.698 22.276 300.647 22.1487 300.647 21.9931C300.647 21.817 300.582 21.7102 300.477 21.7102C300.371 21.7102 300.307 21.6034 300.307 21.4273C300.307 21.2512 300.243 21.1444 300.137 21.1444C300.044 21.1444 299.968 21.0865 299.968 21.0159C299.968 20.9452 299.84 20.7695 299.685 20.6252C299.529 20.481 299.402 20.3315 299.402 20.2929C299.402 20.1776 299.087 19.8996 298.957 19.8996C298.89 19.8996 298.836 19.8232 298.836 19.7298C298.836 19.6365 298.784 19.5601 298.721 19.5601C298.658 19.5601 298.353 19.3055 298.043 18.9943C297.734 18.6831 297.378 18.4285 297.253 18.4285C297.126 18.4285 297.025 18.3535 297.025 18.2587C297.025 18.1552 296.919 18.089 296.754 18.089C296.605 18.089 296.454 18.0126 296.418 17.9193C296.382 17.8259 296.224 17.7495 296.066 17.7495C295.909 17.7495 295.78 17.6986 295.78 17.6363C295.78 17.5741 295.665 17.5216 295.525 17.5196C295.385 17.5176 295.172 17.4413 295.051 17.3498C294.93 17.2585 294.641 17.1837 294.41 17.1837C294.178 17.1837 293.968 17.1239 293.944 17.0511C293.919 16.9766 293.592 16.8962 293.199 16.8677C292.813 16.8398 292.498 16.7722 292.498 16.7175C292.498 16.6627 291.607 16.6179 290.517 16.6179C289.428 16.6179 288.537 16.6629 288.537 16.7179ZM67.5763 17.2584C67.5343 17.3003 67.5 18.6501 67.5 20.258V23.1813H71.8008V39.0273L78.7612 38.9674L78.8194 23.1813H80.9102C83.4177 23.1813 83.1366 23.5965 83.0939 19.9562L83.062 17.2403L75.3573 17.2112C71.1197 17.1952 67.6182 17.2164 67.5763 17.2584ZM115.71 24.3978C115.707 30.5617 115.682 31.6439 115.54 31.8315C115.449 31.9524 115.374 32.1942 115.374 32.369C115.374 32.5439 115.327 32.6869 115.269 32.6869C115.211 32.6869 115.127 32.8014 115.083 32.9415C114.989 33.2381 114.615 33.5922 114.395 33.5922C114.311 33.5922 114.242 33.6431 114.242 33.7054C114.242 33.7676 114.044 33.8185 113.802 33.8185C113.515 33.8185 113.339 33.8776 113.296 33.9883C113.21 34.2132 112.478 34.2104 112.043 33.9835C111.414 33.6556 111.406 33.6889 111.439 36.4468L111.47 38.9674L111.781 39.0032C111.952 39.0229 112.092 39.0866 112.092 39.1446C112.092 39.2061 112.922 39.2503 114.073 39.2503C115.162 39.2503 116.053 39.2055 116.053 39.1507C116.053 39.096 116.369 39.0284 116.754 39.0005C117.148 38.9721 117.475 38.8916 117.499 38.8171C117.524 38.7443 117.743 38.6845 117.987 38.6845C118.305 38.6845 118.43 38.6368 118.43 38.5148C118.43 38.4092 118.537 38.345 118.713 38.345C118.869 38.345 118.996 38.2997 118.996 38.2441C118.996 38.1886 119.123 38.1112 119.279 38.0722C119.435 38.0332 119.562 37.9512 119.562 37.8902C119.562 37.8291 119.611 37.7792 119.671 37.7792C119.849 37.7792 120.769 36.8319 120.855 36.5598C120.899 36.4214 120.983 36.3081 121.041 36.3081C121.099 36.3081 121.146 36.2372 121.146 36.1505C121.146 36.0638 121.223 35.9635 121.316 35.9277C121.423 35.8868 121.486 35.7138 121.486 35.4629C121.486 35.2431 121.53 35.0633 121.585 35.0633C121.639 35.0633 121.716 34.8596 121.756 34.6107C121.796 34.3617 121.878 34.158 121.94 34.158C122.012 34.158 122.052 32.2094 122.052 28.6697C122.052 23.8666 122.073 23.1813 122.222 23.1813C122.315 23.1813 122.391 23.1304 122.391 23.0681C122.391 22.8572 126.202 22.9216 126.284 23.134C126.322 23.2324 126.353 26.8488 126.353 31.1703V39.0276L132.634 38.9674L132.692 17.1837H115.714L115.71 24.3978ZM135.067 39.0297L141.254 38.9985C146.081 38.9742 147.452 38.9363 147.489 38.826C147.517 38.7405 147.745 38.683 148.064 38.6809C148.354 38.679 148.691 38.6026 148.812 38.5111C148.933 38.4198 149.149 38.345 149.293 38.345C149.436 38.345 149.554 38.2982 149.554 38.2408C149.554 38.1835 149.707 38.1031 149.894 38.0621C150.08 38.0212 150.233 37.9407 150.233 37.8834C150.233 37.8261 150.36 37.7792 150.516 37.7792C150.692 37.7792 150.799 37.7151 150.799 37.6095C150.799 37.5161 150.875 37.4397 150.969 37.4397C151.062 37.4397 151.139 37.3852 151.139 37.3185C151.139 37.1618 151.426 36.8739 151.583 36.8739C151.65 36.8739 151.704 36.7975 151.704 36.7042C151.704 36.6108 151.781 36.5344 151.874 36.5344C151.98 36.5344 152.044 36.4276 152.044 36.2515C152.044 36.0959 152.094 35.9686 152.155 35.9686C152.216 35.9686 152.298 35.8413 152.337 35.6857C152.376 35.5301 152.453 35.4028 152.509 35.4028C152.564 35.4028 152.61 35.25 152.61 35.0633C152.61 34.837 152.666 34.7238 152.78 34.7238C152.925 34.7238 152.949 34.3969 152.949 32.4606C152.949 30.5243 152.925 30.1973 152.78 30.1973C152.657 30.1973 152.61 30.0716 152.61 29.7447C152.61 29.4178 152.563 29.2921 152.44 29.2921C152.347 29.2921 152.27 29.2157 152.27 29.1223C152.27 29.0289 152.219 28.9526 152.157 28.9526C152.095 28.9526 152.044 28.8253 152.044 28.6697C152.044 28.4936 151.98 28.3868 151.874 28.3868C151.781 28.3868 151.704 28.3104 151.704 28.217C151.704 28.1237 151.65 28.0473 151.583 28.0473C151.426 28.0473 151.139 27.7594 151.139 27.6027C151.139 27.536 151.062 27.4815 150.969 27.4815C150.875 27.4815 150.799 27.4361 150.799 27.3805C150.799 27.3251 150.672 27.2477 150.516 27.2086C150.36 27.1696 150.233 27.0877 150.233 27.0267C150.233 26.9655 150.104 26.9156 149.947 26.9156C149.789 26.9156 149.631 26.8393 149.595 26.7459C149.555 26.6427 149.384 26.5762 149.158 26.5762C148.932 26.5762 148.76 26.5096 148.721 26.4064C148.678 26.2952 148.502 26.2367 148.209 26.2367C147.963 26.2367 147.743 26.1785 147.719 26.1076C147.689 26.0175 146.837 25.9615 144.908 25.9225C143.055 25.8852 142.113 25.825 142.058 25.7405C142.012 25.6711 141.974 23.7175 141.973 21.399L141.971 17.1837H135.067V39.0297ZM162.548 17.3036C162.526 17.3696 162.115 17.4534 161.633 17.4897C161.152 17.5261 160.759 17.5929 160.759 17.6383C160.759 17.6835 160.555 17.7531 160.306 17.793C160.057 17.8328 159.853 17.9156 159.853 17.9772C159.853 18.0386 159.726 18.089 159.57 18.089C159.394 18.089 159.287 18.1532 159.287 18.2587C159.287 18.3656 159.18 18.4285 158.996 18.4285C158.836 18.4285 158.634 18.4922 158.547 18.5699C158.222 18.8621 158.05 18.9943 157.997 18.9943C157.866 18.9943 156.926 20.0113 156.858 20.2272C156.816 20.3582 156.735 20.4654 156.677 20.4654C156.619 20.4654 156.571 20.5199 156.571 20.5866C156.571 20.6534 156.495 20.7843 156.401 20.8777C156.308 20.971 156.232 21.1456 156.232 21.2656C156.232 21.3856 156.187 21.4839 156.133 21.4839C156.079 21.4839 156.008 21.7241 155.974 22.0176C155.941 22.3113 155.858 22.5701 155.79 22.593C155.627 22.6471 155.615 26.5762 155.777 26.5762C155.839 26.5762 155.922 26.7799 155.962 27.0288C156.002 27.2778 156.079 27.4815 156.133 27.4815C156.187 27.4815 156.232 27.6033 156.232 27.7523C156.232 27.9012 156.308 28.0524 156.401 28.0882C156.495 28.124 156.571 28.2338 156.571 28.332C156.571 28.4303 156.698 28.6287 156.854 28.7729C157.01 28.9171 157.137 29.0929 157.137 29.1636C157.137 29.2342 157.213 29.2921 157.307 29.2921C157.4 29.2921 157.476 29.3684 157.476 29.4618C157.476 29.5552 157.534 29.6315 157.605 29.6315C157.676 29.6315 157.851 29.7588 157.996 29.9144C158.14 30.07 158.362 30.1973 158.49 30.1973C158.62 30.1973 158.721 30.2715 158.721 30.3671C158.721 30.4857 158.841 30.5368 159.118 30.5368C159.335 30.5368 159.514 30.5878 159.514 30.65C159.514 30.7122 159.666 30.7632 159.853 30.7632C160.22 30.7632 160.308 30.9904 160.051 31.2766C159.763 31.5981 159.67 31.7298 159.596 31.9231C159.555 32.0319 159.468 32.1211 159.404 32.1211C159.34 32.1211 159.287 32.2484 159.287 32.404C159.287 32.5801 159.223 32.6869 159.118 32.6869C159.024 32.6869 158.948 32.7633 158.948 32.8567C158.948 32.95 158.897 33.0264 158.835 33.0264C158.772 33.0264 158.721 33.1282 158.721 33.2527C158.721 33.3785 158.646 33.4791 158.552 33.4791C158.458 33.4791 158.382 33.5591 158.382 33.6568C158.382 33.7547 158.318 33.9057 158.24 33.9925C157.952 34.314 157.859 34.4457 157.786 34.639C157.744 34.7478 157.657 34.837 157.593 34.837C157.529 34.837 157.476 34.9334 157.476 35.0512C157.476 35.169 157.4 35.2947 157.307 35.3306C157.213 35.3664 157.137 35.4736 157.137 35.569C157.137 35.6643 157.086 35.7423 157.024 35.7423C156.962 35.7423 156.911 35.8441 156.911 35.9686C156.911 36.0931 156.847 36.1955 156.769 36.1962C156.691 36.197 156.527 36.4133 156.404 36.6771C156.281 36.941 156.065 37.269 155.923 37.406C155.782 37.543 155.666 37.7356 155.666 37.834C155.666 37.9322 155.589 38.042 155.496 38.0777C155.402 38.1136 155.326 38.192 155.326 38.252C155.326 38.3121 155.247 38.4399 155.151 38.536C154.753 38.9341 154.981 38.9666 158.391 38.9991C162.099 39.0344 162.197 39.025 162.297 38.6262C162.336 38.4715 162.408 38.345 162.456 38.345C162.505 38.345 162.577 38.2177 162.616 38.0621C162.655 37.9065 162.737 37.7792 162.798 37.7792C162.859 37.7792 162.909 37.7028 162.909 37.6095C162.909 37.5161 162.959 37.4397 163.02 37.4397C163.081 37.4397 163.163 37.3124 163.202 37.1568C163.241 37.0012 163.313 36.8739 163.362 36.8739C163.411 36.8739 163.482 36.7466 163.521 36.591C163.56 36.4354 163.642 36.3081 163.703 36.3081C163.765 36.3081 163.814 36.2317 163.814 36.1384C163.814 36.045 163.864 35.9686 163.925 35.9686C163.986 35.9686 164.071 35.8291 164.114 35.6586C164.157 35.488 164.26 35.2807 164.343 35.1978C164.426 35.1149 164.494 34.9744 164.494 34.8855C164.494 34.7966 164.544 34.7238 164.607 34.7238C164.669 34.7238 164.72 34.6475 164.72 34.5541C164.72 34.4607 164.77 34.3843 164.831 34.3843C164.892 34.3843 164.974 34.257 165.013 34.1014C165.052 33.9458 165.124 33.8185 165.173 33.8185C165.221 33.8185 165.293 33.6912 165.332 33.5356C165.371 33.38 165.453 33.2527 165.514 33.2527C165.575 33.2527 165.625 33.1763 165.625 33.083C165.625 32.9896 165.675 32.9132 165.736 32.9132C165.797 32.9132 165.879 32.7859 165.918 32.6303C165.957 32.4747 166.029 32.3474 166.078 32.3474C166.127 32.3474 166.199 32.2201 166.238 32.0645C166.29 31.8579 166.384 31.7816 166.589 31.7816H166.87V39.024H173.548V17.1837H168.068C164.31 17.1837 162.576 17.2214 162.548 17.3036ZM175.924 23.1763L180.169 23.2379L180.227 39.024H187.129V23.1813H191.43V17.1837H175.924V23.1763ZM193.807 23.1813H198.334V39.024H205.236L205.294 23.2379L209.538 23.1763V17.1837H193.807V23.1813ZM212.255 39.024H215.424C218.165 39.024 218.593 39.0011 218.593 38.8543C218.593 38.7609 218.669 38.6845 218.762 38.6845C218.868 38.6845 218.932 38.5777 218.932 38.4016C218.932 38.246 218.983 38.1187 219.045 38.1187C219.108 38.1187 219.158 38.0423 219.158 37.949C219.158 37.8556 219.229 37.7792 219.316 37.7792C219.403 37.7792 219.505 37.6519 219.545 37.4963C219.584 37.3407 219.665 37.2134 219.726 37.2134C219.788 37.2134 219.838 37.137 219.838 37.0437C219.838 36.9503 219.883 36.8739 219.938 36.8739C219.994 36.8739 220.071 36.7466 220.11 36.591C220.149 36.4354 220.231 36.3081 220.292 36.3081C220.354 36.3081 220.403 36.2317 220.403 36.1384C220.403 36.045 220.48 35.9686 220.573 35.9686C220.679 35.9686 220.743 35.8618 220.743 35.6857C220.743 35.5301 220.794 35.4028 220.856 35.4028C220.918 35.4028 220.969 35.3264 220.969 35.2331C220.969 35.1397 221.04 35.0633 221.127 35.0633C221.213 35.0633 221.316 34.936 221.355 34.7804C221.394 34.6248 221.476 34.4975 221.537 34.4975C221.598 34.4975 221.648 34.4211 221.648 34.3278C221.648 34.2344 221.694 34.158 221.749 34.158C221.805 34.158 221.882 34.0307 221.921 33.8751C221.96 33.7195 222.042 33.5922 222.103 33.5922C222.164 33.5922 222.214 33.5158 222.214 33.4225C222.214 33.3291 222.291 33.2527 222.384 33.2527C222.49 33.2527 222.554 33.1459 222.554 32.9698C222.554 32.8142 222.605 32.6869 222.667 32.6869C222.729 32.6869 222.78 32.6105 222.78 32.5172C222.78 32.4238 222.851 32.3474 222.938 32.3474C223.024 32.3474 223.127 32.2201 223.166 32.0645C223.205 31.9089 223.287 31.7816 223.348 31.7816C223.409 31.7816 223.459 31.7052 223.459 31.6119C223.459 31.5185 223.505 31.4421 223.56 31.4421C223.616 31.4421 223.693 31.3148 223.732 31.1592C223.771 31.0036 223.853 30.8763 223.914 30.8763C223.975 30.8763 224.025 30.8054 224.025 30.7187C224.025 30.632 224.102 30.5317 224.195 30.4959C224.288 30.4601 224.365 30.3503 224.365 30.2521C224.365 30.1538 224.485 29.9612 224.632 29.8241C224.779 29.6871 224.935 29.4604 224.979 29.3203C225.023 29.1802 225.106 29.0657 225.164 29.0657C225.223 29.0657 225.27 28.9893 225.27 28.896C225.27 28.8026 225.315 28.7262 225.371 28.7262C225.426 28.7262 225.504 28.5989 225.543 28.4433C225.582 28.2877 225.664 28.1604 225.725 28.1604C225.786 28.1604 225.836 28.084 225.836 27.9907C225.836 27.8973 225.912 27.8209 226.006 27.8209C226.154 27.8209 226.175 28.5111 226.175 33.3538C226.175 38.2947 226.195 38.894 226.355 38.9553C226.453 38.9931 227.955 39.024 229.693 39.024H232.853V17.1837H229.514C226.622 17.1837 226.175 17.2064 226.175 17.3534C226.175 17.4468 226.099 17.5232 226.006 17.5232C225.9 17.5232 225.836 17.63 225.836 17.8061C225.836 17.9617 225.785 18.089 225.723 18.089C225.661 18.089 225.61 18.1654 225.61 18.2587C225.61 18.3521 225.533 18.4285 225.44 18.4285C225.334 18.4285 225.27 18.5353 225.27 18.7114C225.27 18.8875 225.206 18.9943 225.1 18.9943C224.995 18.9943 224.931 19.1011 224.931 19.2772C224.931 19.4328 224.88 19.5601 224.817 19.5601C224.755 19.5601 224.704 19.6365 224.704 19.7298C224.704 19.8232 224.628 19.8996 224.534 19.8996C224.428 19.8996 224.365 20.0069 224.365 20.186C224.365 20.3436 224.288 20.5018 224.195 20.5376C224.102 20.5735 224.025 20.7061 224.025 20.8323C224.025 20.9586 223.898 21.1798 223.742 21.3241C223.587 21.4682 223.459 21.6905 223.459 21.8179C223.459 21.9485 223.385 22.0497 223.289 22.0497C223.184 22.0497 223.12 22.1565 223.12 22.3326C223.12 22.4882 223.069 22.6155 223.007 22.6155C222.944 22.6155 222.893 22.6919 222.893 22.7852C222.893 22.8786 222.817 22.955 222.724 22.955C222.62 22.955 222.554 23.0606 222.554 23.2258C222.554 23.3747 222.477 23.5259 222.384 23.5617C222.291 23.5975 222.214 23.7302 222.214 23.8568C222.214 23.9832 222.163 24.0866 222.101 24.0866C222.039 24.0866 221.988 24.1646 221.988 24.2598C221.988 24.3552 221.912 24.4625 221.818 24.4983C221.725 24.5341 221.648 24.6853 221.648 24.8343C221.648 24.9995 221.582 25.1051 221.479 25.1051C221.381 25.1051 221.309 25.2073 221.309 25.3467C221.309 25.4796 221.182 25.7063 221.026 25.8506C220.87 25.9947 220.743 26.217 220.743 26.3444C220.743 26.475 220.669 26.5762 220.573 26.5762C220.468 26.5762 220.403 26.683 220.403 26.8591C220.403 27.0147 220.352 27.142 220.29 27.142C220.228 27.142 220.177 27.2184 220.177 27.3117C220.177 27.4051 220.101 27.4815 220.007 27.4815C219.904 27.4815 219.838 27.587 219.838 27.7523C219.838 27.9012 219.761 28.0524 219.668 28.0882C219.574 28.124 219.498 28.2567 219.498 28.3832C219.498 28.6559 219.325 28.6884 219.227 28.4341C219.189 28.3356 219.158 25.764 219.158 22.7194V17.1837H212.255V39.024ZM243.422 17.6363C243.382 17.8853 243.305 18.089 243.251 18.089C243.197 18.089 243.152 18.2381 243.152 18.4204C243.152 18.6026 243.076 18.8282 242.982 18.9215C242.889 19.0149 242.813 19.2677 242.813 19.4834C242.813 19.7275 242.749 19.8999 242.643 19.9406C242.55 19.9763 242.473 20.1345 242.473 20.2921C242.473 20.4497 242.422 20.5786 242.36 20.5786C242.298 20.5786 242.247 20.7584 242.247 20.9781C242.247 21.229 242.184 21.402 242.077 21.4429C241.972 21.4832 241.907 21.6551 241.907 21.892C241.907 22.1032 241.857 22.276 241.795 22.276C241.734 22.276 241.651 22.4797 241.611 22.7286C241.571 22.9776 241.494 23.1813 241.44 23.1813C241.386 23.1813 241.341 23.3304 241.341 23.5127C241.341 23.6949 241.265 23.9205 241.172 24.0138C241.078 24.1072 241.002 24.3145 241.002 24.4746C241.002 24.6346 240.951 24.7656 240.89 24.7656C240.828 24.7656 240.746 24.9693 240.706 25.2182C240.666 25.4672 240.595 25.6709 240.549 25.6709C240.503 25.6709 240.432 25.8746 240.392 26.1235C240.353 26.3725 240.27 26.5762 240.208 26.5762C240.147 26.5762 240.096 26.7799 240.096 27.0288C240.096 27.2778 240.046 27.4815 239.985 27.4815C239.923 27.4815 239.84 27.6851 239.8 27.9341C239.76 28.1831 239.683 28.3868 239.629 28.3868C239.575 28.3868 239.53 28.5156 239.53 28.6732C239.53 28.8308 239.454 28.989 239.361 29.0248C239.255 29.0654 239.191 29.2378 239.191 29.4819C239.191 29.6976 239.115 29.9504 239.021 30.0438C238.928 30.1371 238.851 30.3372 238.851 30.4883C238.851 30.6395 238.8 30.7632 238.738 30.7632C238.676 30.7632 238.625 30.9123 238.625 31.0946C238.625 31.2768 238.549 31.5023 238.455 31.5957C238.362 31.6891 238.286 31.9419 238.286 32.1575C238.286 32.4016 238.221 32.5741 238.116 32.6147C238.009 32.6556 237.946 32.8286 237.946 33.0795C237.946 33.2992 237.895 33.4791 237.833 33.4791C237.771 33.4791 237.72 33.6318 237.72 33.8185C237.72 34.0449 237.663 34.158 237.55 34.158C237.431 34.158 237.38 34.2783 237.38 34.5621C237.38 34.7845 237.304 35.0427 237.21 35.1361C237.117 35.2294 237.041 35.455 237.041 35.6372C237.041 35.8195 236.996 35.9686 236.942 35.9686C236.888 35.9686 236.811 36.1723 236.771 36.4213C236.731 36.6702 236.648 36.8739 236.587 36.8739C236.525 36.8739 236.475 37.0205 236.475 37.1996C236.475 37.3786 236.398 37.5885 236.305 37.6661C236.212 37.7436 236.135 37.9535 236.135 38.1325C236.135 38.3116 236.084 38.4582 236.022 38.4582C235.96 38.4582 235.909 38.5855 235.909 38.7411V39.024H242.813V38.7331C242.813 38.5729 242.889 38.3656 242.982 38.2723C243.076 38.1789 243.152 37.9788 243.152 37.8278C243.152 37.6766 243.203 37.5529 243.265 37.5529C243.328 37.5529 243.379 37.4001 243.379 37.2134C243.379 36.9871 243.435 36.8739 243.548 36.8739C243.661 36.8739 243.718 36.7608 243.718 36.5344C243.718 36.3081 243.775 36.1949 243.888 36.1949C243.981 36.1949 244.058 36.144 244.058 36.0818C244.058 36.0089 245.265 35.9686 247.453 35.9686C251.228 35.9686 251.301 35.9834 251.301 36.7486C251.301 36.9353 251.374 37.1041 251.471 37.1412C251.564 37.177 251.641 37.3352 251.641 37.4928C251.641 37.6503 251.691 37.7792 251.754 37.7792C251.816 37.7792 251.867 37.9029 251.867 38.0541C251.867 38.2052 251.943 38.4052 252.037 38.4986C252.13 38.5919 252.206 38.7483 252.206 38.8462C252.206 39.004 252.601 39.024 255.72 39.024H259.234L259.156 38.5996C259.113 38.3663 259.034 38.1583 258.981 38.1376C258.927 38.1168 258.884 37.955 258.884 37.7779C258.884 37.6008 258.808 37.3795 258.714 37.2862C258.621 37.1928 258.544 36.9855 258.544 36.8254C258.544 36.6654 258.494 36.5344 258.433 36.5344C258.371 36.5344 258.288 36.3307 258.248 36.0818C258.208 35.8328 258.138 35.6291 258.092 35.6291C258.045 35.6291 257.975 35.4254 257.935 35.1765C257.895 34.9275 257.812 34.7238 257.751 34.7238C257.689 34.7238 257.639 34.5965 257.639 34.4409C257.639 34.2853 257.589 34.158 257.527 34.158C257.466 34.158 257.383 33.9543 257.343 33.7054C257.303 33.4564 257.226 33.2527 257.172 33.2527C257.117 33.2527 257.073 33.1036 257.073 32.9213C257.073 32.7391 256.997 32.5136 256.903 32.4202C256.81 32.3268 256.734 32.1414 256.734 32.0079C256.734 31.8745 256.657 31.6891 256.564 31.5957C256.47 31.5023 256.394 31.2768 256.394 31.0946C256.394 30.9123 256.343 30.7632 256.281 30.7632C256.219 30.7632 256.168 30.6395 256.168 30.4883C256.168 30.3372 256.091 30.1371 255.998 30.0438C255.905 29.9504 255.828 29.7431 255.828 29.583C255.828 29.423 255.778 29.2921 255.716 29.2921C255.655 29.2921 255.572 29.0884 255.532 28.8394C255.492 28.5904 255.415 28.3868 255.361 28.3868C255.307 28.3868 255.262 28.2376 255.262 28.0553C255.262 27.8731 255.186 27.6476 255.092 27.5542C254.999 27.4609 254.923 27.2026 254.923 26.9803C254.923 26.6965 254.872 26.5762 254.753 26.5762C254.64 26.5762 254.583 26.463 254.583 26.2367C254.583 26.05 254.532 25.8972 254.47 25.8972C254.408 25.8972 254.357 25.7735 254.357 25.6223C254.357 25.4712 254.28 25.2712 254.187 25.1778C254.094 25.0845 254.017 24.8317 254.017 24.616C254.017 24.3719 253.953 24.1994 253.847 24.1588C253.754 24.123 253.678 23.9648 253.678 23.8072C253.678 23.6497 253.633 23.5208 253.579 23.5208C253.525 23.5208 253.448 23.3171 253.408 23.0681C253.368 22.8192 253.285 22.6155 253.224 22.6155C253.162 22.6155 253.112 22.4118 253.112 22.1628C253.112 21.8359 253.065 21.7102 252.942 21.7102C252.836 21.7102 252.772 21.6034 252.772 21.4273C252.772 21.2717 252.728 21.1444 252.674 21.1444C252.619 21.1444 252.542 20.9407 252.503 20.6917C252.463 20.4428 252.38 20.2391 252.318 20.2391C252.257 20.2391 252.206 20.0354 252.206 19.7864C252.206 19.4595 252.159 19.3338 252.037 19.3338C251.923 19.3338 251.867 19.2206 251.867 18.9943C251.867 18.8076 251.823 18.6548 251.768 18.6548C251.714 18.6548 251.637 18.4511 251.597 18.2022C251.557 17.9532 251.474 17.7495 251.413 17.7495C251.351 17.7495 251.301 17.6222 251.301 17.4666V17.1837H243.494L243.422 17.6363ZM304.268 23.1813H308.795V39.024L312.106 39.0223C313.927 39.0213 315.48 38.9803 315.557 38.9312C315.666 38.8617 315.704 37.109 315.727 31.0398L315.756 23.2379L320 23.1763V17.1837H304.268V23.1813ZM98.7152 22.493C98.7376 22.5604 98.9045 22.6155 99.086 22.6155C99.2677 22.6155 99.4162 22.6654 99.4162 22.7265C99.4162 22.7875 99.5435 22.8694 99.6991 22.9085C99.8547 22.9475 99.9821 23.0215 99.9821 23.0728C99.9821 23.124 100.087 23.1992 100.214 23.2397C100.522 23.3375 101.069 23.8798 101.165 24.1835C101.208 24.3169 101.29 24.4261 101.348 24.4261C101.406 24.4261 101.453 24.5025 101.453 24.5958C101.453 24.6892 101.53 24.7656 101.623 24.7656C101.742 24.7656 101.793 24.8859 101.793 25.1697C101.793 25.392 101.869 25.6503 101.963 25.7436C102.056 25.837 102.132 26.0625 102.132 26.2447C102.132 26.427 102.183 26.5762 102.246 26.5762C102.315 26.5762 102.359 27.1609 102.359 28.1038C102.359 28.9441 102.315 29.6315 102.26 29.6315C102.206 29.6315 102.135 29.8718 102.102 30.1653C102.069 30.459 101.986 30.7178 101.917 30.7406C101.849 30.7634 101.793 30.9305 101.793 31.112C101.793 31.33 101.735 31.4421 101.623 31.4421C101.525 31.4421 101.453 31.5444 101.453 31.6837C101.453 31.8167 101.326 32.0434 101.17 32.1876C101.015 32.3318 100.887 32.5031 100.887 32.5683C100.887 32.6336 100.823 32.6869 100.745 32.6869C100.666 32.6869 100.506 32.8142 100.389 32.9698C100.272 33.1254 100.129 33.2527 100.071 33.2527C100.013 33.2527 99.8895 33.3291 99.7961 33.4225C99.7028 33.5158 99.5027 33.5922 99.3516 33.5922C99.2004 33.5922 99.0767 33.6431 99.0767 33.7054C99.0767 33.7676 98.8772 33.8185 98.6333 33.8185C98.3896 33.8185 98.1705 33.8772 98.1467 33.9488C98.0723 34.1718 96.8718 34.212 96.5712 34.0015C96.4276 33.9009 96.1176 33.8185 95.8824 33.8185C95.6474 33.8185 95.455 33.7717 95.455 33.7143C95.455 33.6571 95.3022 33.5766 95.1154 33.5356C94.9287 33.4947 94.7759 33.4142 94.7759 33.357C94.7759 33.2996 94.7032 33.2527 94.6145 33.2527C94.3691 33.2527 93.3046 32.1472 93.3046 31.8924C93.3046 31.7688 93.2285 31.6685 93.1348 31.6685C93.0292 31.6685 92.965 31.5616 92.965 31.3856C92.965 31.23 92.9141 31.1026 92.8519 31.1026C92.7896 31.1026 92.7387 30.9738 92.7387 30.8162C92.7387 30.6586 92.6623 30.5004 92.5689 30.4646C92.4392 30.4148 92.3991 30.2021 92.3991 29.5628C92.3991 29.0806 92.3512 28.7262 92.286 28.7262C92.2237 28.7262 92.1728 28.4462 92.1728 28.1038C92.1728 27.7615 92.2237 27.4815 92.286 27.4815C92.3498 27.4815 92.3991 27.1609 92.3991 26.7459C92.3991 26.3368 92.4488 26.0103 92.511 26.0103C92.5725 26.0103 92.6554 25.8067 92.6952 25.5577C92.7351 25.3087 92.812 25.1051 92.8664 25.1051C92.9207 25.1051 92.965 25.0271 92.965 24.9318C92.965 24.8364 93.0414 24.7291 93.1348 24.6934C93.2282 24.6575 93.3046 24.5549 93.3046 24.4651C93.3046 24.3755 93.4319 24.1841 93.5875 24.04C93.7431 23.8957 93.8705 23.7199 93.8705 23.6492C93.8705 23.5786 93.9469 23.5208 94.0402 23.5208C94.1336 23.5208 94.21 23.4444 94.21 23.351C94.21 23.2577 94.2864 23.1813 94.3798 23.1813C94.4731 23.1813 94.5495 23.1304 94.5495 23.0681C94.5495 23.0059 94.6769 22.955 94.8325 22.955C95.0086 22.955 95.1154 22.8908 95.1154 22.7852C95.1154 22.6627 95.2412 22.6155 95.5681 22.6155C95.8171 22.6155 96.0208 22.5683 96.0208 22.5106C96.0208 22.2565 98.6306 22.2396 98.7152 22.493ZM291.794 22.4863C291.818 22.5573 291.982 22.6155 292.16 22.6155C292.337 22.6155 292.558 22.6919 292.651 22.7852C292.745 22.8786 292.876 22.955 292.942 22.955C293.009 22.955 293.064 23.0003 293.064 23.0559C293.064 23.1114 293.191 23.1888 293.347 23.2278C293.502 23.2668 293.63 23.3488 293.63 23.4098C293.63 23.4709 293.706 23.5208 293.799 23.5208C293.893 23.5208 293.969 23.5972 293.969 23.6905C293.969 23.7839 294.045 23.8603 294.139 23.8603C294.232 23.8603 294.309 23.9367 294.309 24.03C294.309 24.1234 294.354 24.1998 294.41 24.1998C294.465 24.1998 294.542 24.3271 294.581 24.4827C294.621 24.6383 294.702 24.7656 294.763 24.7656C294.825 24.7656 294.874 24.8874 294.874 25.0364C294.874 25.1853 294.951 25.3365 295.044 25.3723C295.15 25.4127 295.214 25.5852 295.214 25.8276C295.214 26.0423 295.267 26.2354 295.332 26.2569C295.479 26.306 295.495 30.092 295.349 30.1875C295.293 30.2241 295.212 30.4449 295.169 30.6783C295.126 30.9117 295.042 31.1026 294.983 31.1026C294.923 31.1026 294.874 31.2069 294.874 31.3344C294.874 31.4618 294.747 31.6841 294.592 31.8282C294.436 31.9725 294.309 32.1483 294.309 32.219C294.309 32.2896 294.232 32.3474 294.139 32.3474C294.045 32.3474 293.969 32.402 293.969 32.4686C293.969 32.6254 293.681 32.9132 293.524 32.9132C293.458 32.9132 293.403 32.9896 293.403 33.083C293.403 33.1763 293.327 33.2527 293.233 33.2527C293.14 33.2527 293.064 33.2996 293.064 33.357C293.064 33.4142 292.911 33.4947 292.724 33.5356C292.537 33.5766 292.385 33.6571 292.385 33.7143C292.385 33.7717 292.13 33.8185 291.819 33.8185C291.391 33.8185 291.253 33.8601 291.253 33.9883C291.253 34.2232 289.93 34.2203 289.618 33.9847C289.498 33.8933 289.205 33.8185 288.968 33.8185C288.731 33.8185 288.537 33.7732 288.537 33.7176C288.537 33.6621 288.409 33.5847 288.254 33.5457C288.098 33.5067 287.971 33.4247 287.971 33.3637C287.971 33.3026 287.9 33.2527 287.813 33.2527C287.726 33.2527 287.626 33.1763 287.59 33.083C287.554 32.9896 287.425 32.9132 287.303 32.9132C287.171 32.9132 287.048 32.8091 287 32.6586C286.957 32.5185 286.8 32.2919 286.653 32.1548C286.506 32.0178 286.386 31.8522 286.386 31.7871C286.386 31.7218 286.336 31.6685 286.275 31.6685C286.214 31.6685 286.132 31.5411 286.093 31.3856C286.054 31.23 285.977 31.1026 285.921 31.1026C285.866 31.1026 285.82 30.9535 285.82 30.7712C285.82 30.589 285.744 30.3635 285.651 30.2701C285.513 30.1325 285.481 29.7358 285.481 28.1766C285.481 26.6175 285.513 26.2207 285.651 26.0831C285.744 25.9898 285.82 25.7824 285.82 25.6223C285.82 25.4623 285.871 25.3314 285.933 25.3314C285.996 25.3314 286.047 25.2041 286.047 25.0485C286.047 24.8724 286.111 24.7656 286.216 24.7656C286.322 24.7656 286.386 24.6587 286.386 24.4827C286.386 24.3066 286.45 24.1998 286.556 24.1998C286.649 24.1998 286.726 24.1422 286.726 24.0717C286.726 23.892 287.5 23.1813 287.696 23.1813C287.785 23.1813 287.857 23.1304 287.857 23.0681C287.857 23.0059 287.934 22.955 288.027 22.955C288.121 22.955 288.197 22.9046 288.197 22.8432C288.197 22.7816 288.401 22.6988 288.65 22.6589C288.899 22.6191 289.102 22.5459 289.102 22.4962C289.102 22.2501 291.713 22.2405 291.794 22.4863ZM166.87 26.5762H164.958C163.363 26.5762 163.036 26.548 162.981 26.4064C162.945 26.3131 162.787 26.2367 162.63 26.2367C162.472 26.2367 162.343 26.1858 162.343 26.1235C162.343 26.0613 162.267 26.0103 162.173 26.0103C162.08 26.0103 162.004 25.934 162.004 25.8406C162.004 25.7472 161.927 25.6709 161.834 25.6709C161.711 25.6709 161.664 25.5451 161.664 25.2182C161.664 24.9693 161.613 24.7656 161.551 24.7656C161.489 24.7656 161.438 24.6892 161.438 24.5958C161.438 24.5025 161.489 24.4261 161.551 24.4261C161.613 24.4261 161.664 24.2463 161.664 24.0265C161.664 23.7756 161.727 23.6026 161.834 23.5617C161.927 23.5259 162.004 23.4256 162.004 23.3389C162.004 23.2522 162.08 23.1813 162.173 23.1813C162.267 23.1813 162.343 23.1304 162.343 23.0681C162.343 23.0059 162.486 22.955 162.66 22.955C162.834 22.955 163.025 22.909 163.084 22.8528C163.27 22.6761 163.6 22.6421 165.257 22.6286L166.87 22.6155V26.5762ZM247.679 24.03C247.679 24.2478 247.724 24.4261 247.778 24.4261C247.832 24.4261 247.909 24.6298 247.949 24.8787C247.989 25.1277 248.072 25.3314 248.133 25.3314C248.195 25.3314 248.245 25.4805 248.245 25.6628C248.245 25.845 248.322 26.0706 248.415 26.1639C248.508 26.2573 248.585 26.4646 248.585 26.6247C248.585 26.7847 248.629 26.9156 248.683 26.9156C248.738 26.9156 248.815 27.1193 248.855 27.3683C248.894 27.6173 248.977 27.8209 249.039 27.8209C249.1 27.8209 249.151 28.0008 249.151 28.2205C249.151 28.4714 249.214 28.6444 249.32 28.6853C249.431 28.7278 249.49 28.9038 249.49 29.191C249.49 29.4333 249.541 29.6315 249.603 29.6315C249.666 29.6315 249.716 29.7588 249.716 29.9144V30.1973H245.179L245.257 29.773C245.3 29.5397 245.379 29.3317 245.432 29.3109C245.485 29.2901 245.529 29.0738 245.529 28.83C245.529 28.5115 245.577 28.3868 245.699 28.3868C245.821 28.3868 245.868 28.261 245.868 27.9341C245.868 27.6851 245.919 27.4815 245.98 27.4815C246.042 27.4815 246.125 27.2778 246.165 27.0288C246.204 26.7799 246.281 26.5762 246.336 26.5762C246.39 26.5762 246.434 26.427 246.434 26.2447C246.434 26.0625 246.511 25.837 246.604 25.7436C246.697 25.6503 246.774 25.392 246.774 25.1697C246.774 24.9474 246.823 24.7656 246.882 24.7656C246.941 24.7656 247.025 24.577 247.069 24.3466C247.211 23.5872 247.679 23.3445 247.679 24.03ZM145.932 30.65C145.932 30.7122 146.061 30.7632 146.219 30.7632C146.376 30.7632 146.533 30.8349 146.567 30.9227C146.6 31.0104 146.751 31.1133 146.902 31.1512C147.101 31.201 147.177 31.298 147.177 31.5009C147.177 31.6553 147.228 31.7816 147.29 31.7816C147.353 31.7816 147.404 32.0834 147.404 32.4606C147.404 32.8378 147.353 33.1396 147.29 33.1396C147.228 33.1396 147.177 33.2196 147.177 33.3173C147.177 33.5206 146.913 33.8185 146.733 33.8185C146.666 33.8185 146.611 33.8949 146.611 33.9883C146.611 34.1014 146.498 34.158 146.272 34.158C146.085 34.158 145.932 34.2089 145.932 34.2712C145.932 34.3424 145.197 34.3843 143.952 34.3843H141.971V30.5368H143.952C145.197 30.5368 145.932 30.5788 145.932 30.65Z" fill="black"/>
</svg>
