<svg width="380" height="380" viewBox="0 0 380 380" fill="none" xmlns="http://www.w3.org/2000/svg">
<path fill-rule="evenodd" clip-rule="evenodd" d="M165.567 164.737C168.328 164.37 172.727 164.649 174.812 165.398C175.78 165.745 176.514 166.013 177.345 166.493C179.838 167.932 183.2 171.273 196.327 184.352M189.17 200.783C187.4 200.777 185.758 200.773 184.232 200.768C183.48 200.766 182.757 200.764 182.06 200.762C184.17 200.768 186.528 200.774 189.17 200.783ZM161.312 199.125C161.273 199.105 161.234 199.084 161.194 199.063C160.955 198.937 160.696 198.801 160.41 198.655C160.744 198.825 161.039 198.982 161.312 199.125ZM128.775 213.384C122.419 209.895 121.176 203.747 126.353 201.399C127.471 200.892 128.066 200.86 136.496 200.854L145.451 200.849L145.3 206.546L138.276 206.612C131.51 206.675 131.235 206.698 130.792 207.233C129.709 208.539 131.743 209.978 139.03 213.064C145.665 215.874 148.461 219.632 148.475 225.759C148.503 238.662 131.123 243.047 125.086 231.66C122.05 225.933 123.939 218.32 129.153 215.264C129.846 214.859 130.213 214.644 130.216 214.424C130.219 214.177 129.757 213.924 128.775 213.384ZM206.196 214.479C206.46 214.215 210.158 212.946 211.568 212.636C215.507 211.77 220.726 212.308 223.691 213.888C228.637 216.524 229.336 222.948 224.98 225.743C223.699 226.565 223.182 226.714 215.839 228.387C213.246 228.977 212.496 229.457 212.496 230.524C212.496 233.036 218.148 233.636 223.652 231.708C224.733 231.33 225.804 230.961 226.034 230.888C226.646 230.695 228.567 235.249 228.076 235.731C227.431 236.365 223.709 237.667 221.386 238.072C212.827 239.565 205.907 236.54 205.412 231.09C204.997 226.513 207.299 224.506 214.718 222.978C219.054 222.085 219.964 221.754 220.448 220.898C221.957 218.226 216.296 216.975 210.539 218.708C209.244 219.098 208.161 219.383 208.133 219.342C207.877 218.968 206.119 214.556 206.196 214.479ZM69.4469 230.924C66.0193 223.709 70.4594 214.987 78.4169 213.306C80.6334 212.837 83.6303 213.269 86.6341 214.49C86.9789 214.63 87.0977 214.503 87.1642 213.921L87.2501 213.171H93.3467L93.4167 226.157C93.5028 242.106 93.3968 242.755 90.1526 246.156C83.0479 253.602 70.0049 249.598 68.6731 239.562L68.4942 238.214H71.7093C74.7684 238.214 74.9243 238.24 74.9243 238.755C74.9243 239.052 75.1541 239.746 75.4354 240.297C78.2353 245.784 86.6863 244.365 87.0698 238.343L87.1785 236.637L85.4913 237.324C79.4141 239.802 72.3195 236.972 69.4469 230.924ZM157.361 244.309H151.265V213.039H157.361V213.834C157.361 214.2 157.353 214.426 157.461 214.519C157.638 214.671 158.124 214.463 159.461 213.916C163.82 212.135 169.826 213.573 172.968 217.15C178.519 223.471 176.76 233.145 169.389 236.832C165.667 238.694 162.38 238.674 157.825 236.762C157.396 236.582 157.361 236.854 157.361 240.438V244.309ZM182.141 234.371C175.274 227.38 179.261 215.03 188.937 213.323C197.854 211.749 205.612 220.084 203.342 228.797C200.87 238.288 189.042 241.397 182.141 234.371ZM237.943 244.309H231.846V213.081L237.81 213.171L237.894 213.9C237.932 214.229 237.944 214.436 238.052 214.522C238.236 214.669 238.699 214.465 240.043 213.916C244.445 212.117 250.307 213.543 253.633 217.224C259.162 223.342 257.335 233.148 249.98 236.827C246.248 238.694 242.965 238.676 238.407 236.762C237.977 236.582 237.943 236.854 237.943 240.438V244.309ZM259.371 227.684C258.277 221.306 262.631 214.875 269.026 213.424C271.096 212.954 273.787 213.127 275.798 213.86C277.431 214.456 277.971 214.669 278.148 214.5C278.247 214.406 278.233 214.194 278.233 213.865V213.039H284.33L284.347 222.248C284.368 233.762 284.547 236.605 285.358 238.28C289.257 246.332 301.892 246.285 305.51 238.205C305.822 237.51 305.993 237.155 305.895 237.05C305.788 236.936 305.365 237.117 304.46 237.48C295.699 240.994 285.924 232.705 287.764 223.322C289.379 215.082 297.521 211.106 305.847 214.49C306.192 214.63 306.311 214.503 306.378 213.921L306.463 213.171L312.722 213.022L312.632 225.287C312.559 235.449 312.566 237.649 311.835 239.569C311.604 240.175 311.3 240.753 310.895 241.545C305.111 252.88 288.056 253.786 280.931 243.136C279.713 241.316 278.499 238.443 278.499 237.383C278.499 236.624 278.144 236.615 276.38 237.327C269.033 240.294 260.726 235.584 259.371 227.684ZM97.6629 231.68C93.9672 224.89 97.3432 216.413 104.758 213.864C113.949 210.704 123.36 219.377 120.916 228.755C118.027 239.846 103.127 241.72 97.6629 231.68ZM86.474 228.261C87.9788 225.187 86.664 221.569 83.4914 220.053C79.5667 218.179 74.9786 220.833 74.7045 225.136C74.2584 232.141 83.3888 234.565 86.474 228.261ZM108.721 231.92C115.271 231.92 117.345 223.193 111.504 220.202C109.041 218.941 106.166 219.474 104.162 221.563C100.432 225.45 103.28 231.92 108.721 231.92ZM140.485 230.087C143.322 227.251 142.742 222.512 139.299 220.384C135.16 217.825 129.964 220.82 129.936 225.78C129.905 231.229 136.607 233.965 140.485 230.087ZM166.592 231.165C171.107 228.916 171.076 222.48 166.538 220.147C162.384 218.011 157.558 221.023 157.546 225.759C157.534 230.352 162.394 233.257 166.592 231.165ZM191.158 231.854C198.208 231.854 199.821 222.151 193.161 219.802C188.961 218.32 184.495 221.905 185.018 226.337C185.407 229.631 187.881 231.854 191.158 231.854ZM247.192 231.156C251.933 228.794 251.637 222.189 246.69 219.95C242.667 218.13 238.139 221.201 238.127 225.759C238.116 230.346 242.991 233.249 247.192 231.156ZM276.01 230.208C279.05 227.407 278.56 222.575 275.015 220.384C270.867 217.819 265.668 220.742 265.649 225.647C265.629 231.161 271.954 233.946 276.01 230.208ZM305.7 228.295C307.294 224.873 305.681 221.063 302.105 219.802C296.182 217.713 291.28 224.931 295.374 229.713C298.31 233.143 303.793 232.39 305.7 228.295Z" fill="black"/>
<path fill-rule="evenodd" clip-rule="evenodd" d="M184.23 168.518C175.255 157.847 181.303 141.333 195.098 138.844C203.803 137.274 212.643 142.694 215.617 151.426L216.34 153.546L216.491 200.646L201.085 185.444C192.611 177.082 185.026 169.466 184.23 168.518ZM233.172 139.126C233.973 138.971 234.868 138.788 235.16 138.721C235.451 138.654 236.763 138.646 238.075 138.704C251.377 139.29 259.405 152.973 253.546 165.073C252.458 167.321 252.422 167.359 235.787 184.021L219.117 200.716L219.255 153.281L220.002 151.161C222.113 145.165 227.519 140.225 233.172 139.126ZM229.727 193.541C256.656 166.537 258.148 165.289 264.386 164.553C284.411 162.192 292.865 190.088 274.77 198.816C273.984 199.195 273.366 199.503 272.726 199.754C269.843 200.884 266.502 200.849 245.311 200.849H222.44L229.727 193.541ZM160.41 198.654C145.79 191.191 148.485 168.956 164.496 164.934C167.023 164.299 172.429 164.542 174.812 165.398C178.682 166.787 178.825 166.913 196.327 184.352L212.894 200.859L189.17 200.783C168.034 200.715 165.052 200.803 162.563 199.74C161.915 199.464 161.301 199.11 160.41 198.654Z" fill="#E53F25"/>
<path fill-rule="evenodd" clip-rule="evenodd" d="M195.097 138.844C181.303 141.333 175.255 157.847 184.23 168.518C185.026 169.466 192.611 177.082 201.085 185.443L216.491 200.646L216.339 153.546L215.617 151.426C212.643 142.694 203.803 137.274 195.097 138.844ZM235.159 138.721C234.868 138.788 233.973 138.971 233.171 139.126C227.519 140.225 222.112 145.165 220.002 151.161L219.255 153.281L219.117 200.716L235.787 184.021C252.422 167.359 252.458 167.321 253.546 165.073C259.405 152.973 251.377 139.29 238.075 138.704C236.763 138.646 235.451 138.654 235.159 138.721ZM264.386 164.553C258.148 165.289 256.656 166.537 229.727 193.541L222.44 200.849H245.311C271.209 200.849 270.446 200.901 274.77 198.816C292.865 190.088 284.411 162.192 264.386 164.553ZM164.496 164.934C148.485 168.956 145.79 191.191 160.41 198.654C164.729 200.86 162.538 200.697 189.17 200.783L212.894 200.859L196.327 184.352C178.825 166.913 178.682 166.787 174.812 165.398C172.429 164.542 167.023 164.299 164.496 164.934ZM126.353 201.399C121.176 203.746 122.419 209.895 128.775 213.384C130.628 214.401 130.628 214.401 129.153 215.264C123.939 218.32 122.05 225.933 125.086 231.66C131.123 243.047 148.503 238.662 148.475 225.759C148.461 219.632 145.665 215.874 139.03 213.064C131.743 209.978 129.709 208.539 130.792 207.233C131.235 206.698 131.51 206.675 138.276 206.612L145.3 206.546L145.451 200.849L136.496 200.854C128.066 200.86 127.471 200.892 126.353 201.399ZM211.568 212.636C210.158 212.946 206.46 214.215 206.196 214.479C206.119 214.555 207.877 218.968 208.133 219.342C208.161 219.383 209.244 219.098 210.539 218.708C216.296 216.975 221.957 218.226 220.448 220.898C219.964 221.754 219.054 222.085 214.718 222.978C207.299 224.506 204.997 226.513 205.412 231.09C205.907 236.54 212.827 239.565 221.386 238.072C223.709 237.667 227.431 236.365 228.076 235.731C228.567 235.249 226.646 230.695 226.034 230.888C225.804 230.961 224.733 231.33 223.652 231.708C218.148 233.636 212.496 233.036 212.496 230.524C212.496 229.457 213.246 228.977 215.839 228.387C223.182 226.714 223.699 226.565 224.98 225.743C229.336 222.948 228.637 216.524 223.691 213.888C220.726 212.308 215.507 211.769 211.568 212.636ZM78.4169 213.306C70.4594 214.987 66.0193 223.709 69.4469 230.924C72.3195 236.972 79.4141 239.802 85.4913 237.324L87.1785 236.637L87.0698 238.343C86.6863 244.365 78.2353 245.784 75.4354 240.297C75.1541 239.746 74.9243 239.052 74.9243 238.755C74.9243 238.24 74.7684 238.214 71.7093 238.214H68.4942L68.6731 239.562C70.0049 249.598 83.0479 253.602 90.1526 246.156C93.3968 242.755 93.5028 242.106 93.4167 226.156L93.3467 213.171H87.2501L87.1642 213.921C87.0977 214.503 86.9789 214.63 86.6341 214.49C83.6303 213.269 80.6334 212.837 78.4169 213.306ZM151.265 244.309H157.361V240.438C157.361 236.854 157.396 236.582 157.825 236.762C162.38 238.674 165.667 238.694 169.389 236.832C176.76 233.145 178.519 223.47 172.968 217.15C169.826 213.573 163.82 212.135 159.461 213.916C157.307 214.796 157.361 214.798 157.361 213.834V213.039H151.265V244.309ZM188.937 213.323C179.261 215.03 175.274 227.379 182.141 234.371C189.043 241.397 200.87 238.288 203.342 228.797C205.612 220.084 197.854 211.749 188.937 213.323ZM231.846 244.309H237.943V240.438C237.943 236.854 237.977 236.582 238.407 236.762C242.965 238.676 246.248 238.694 249.98 236.827C257.335 233.148 259.162 223.342 253.633 217.223C250.307 213.543 244.445 212.117 240.043 213.916C237.91 214.788 237.996 214.789 237.894 213.9L237.81 213.171L231.846 213.081V244.309ZM269.026 213.424C262.631 214.875 258.277 221.306 259.371 227.684C260.726 235.584 269.033 240.294 276.38 237.327C278.144 236.615 278.499 236.624 278.499 237.383C278.499 238.443 279.713 241.316 280.931 243.136C288.056 253.786 305.111 252.88 310.895 241.545C312.579 238.245 312.535 238.658 312.632 225.287L312.722 213.022L306.463 213.171L306.378 213.921C306.311 214.503 306.192 214.63 305.847 214.49C297.521 211.106 289.379 215.082 287.764 223.322C285.924 232.705 295.699 240.994 304.46 237.48C306.199 236.783 306.159 236.755 305.51 238.205C301.892 246.285 289.257 246.331 285.358 238.28C284.547 236.605 284.368 233.762 284.347 222.248L284.33 213.039H278.233V213.865C278.233 214.787 278.339 214.787 275.798 213.86C273.787 213.127 271.096 212.954 269.026 213.424ZM104.758 213.864C97.3432 216.413 93.9672 224.89 97.6629 231.68C103.127 241.72 118.027 239.846 120.916 228.755C123.36 219.377 113.949 210.704 104.758 213.864ZM83.4914 220.053C86.664 221.569 87.9788 225.187 86.474 228.261C83.3888 234.565 74.2584 232.141 74.7045 225.136C74.9786 220.833 79.5667 218.179 83.4914 220.053ZM111.504 220.202C117.345 223.193 115.271 231.92 108.721 231.92C103.28 231.92 100.432 225.45 104.162 221.563C106.166 219.474 109.041 218.941 111.504 220.202ZM139.299 220.384C142.742 222.512 143.322 227.251 140.485 230.087C136.607 233.965 129.905 231.229 129.936 225.78C129.964 220.82 135.16 217.825 139.299 220.384ZM166.538 220.147C171.076 222.48 171.107 228.916 166.592 231.165C162.394 233.256 157.534 230.352 157.546 225.759C157.558 221.023 162.384 218.011 166.538 220.147ZM193.161 219.802C199.821 222.151 198.208 231.854 191.158 231.854C187.881 231.854 185.407 229.631 185.018 226.337C184.495 221.905 188.961 218.32 193.161 219.802ZM246.69 219.95C251.637 222.189 251.933 228.794 247.192 231.156C242.991 233.249 238.116 230.346 238.127 225.759C238.139 221.201 242.667 218.13 246.69 219.95ZM275.015 220.384C278.56 222.575 279.05 227.407 276.01 230.208C271.954 233.946 265.629 231.161 265.649 225.647C265.668 220.741 270.867 217.819 275.015 220.384ZM302.105 219.802C305.681 221.063 307.294 224.873 305.7 228.295C303.793 232.39 298.31 233.143 295.374 229.713C291.28 224.931 296.182 217.712 302.105 219.802Z" fill="#0071FE"/>
</svg>
