<svg width="380" height="380" viewBox="0 0 380 380" fill="none" xmlns="http://www.w3.org/2000/svg">
<path d="M160.8 219.838C151.541 213.874 138.975 212.827 118.709 218.45C97.1039 223.527 89.9006 226.781 80.4405 220.248C76.8062 217.038 75.5032 211.871 76.4762 204.427C78.7328 192.293 84.8313 180.616 95.6638 167.663C101.71 160.925 107.319 155.142 114.725 152.82C120.401 151.364 119.871 155.825 119.184 156.463C118.459 156.463 117.241 156.577 116.301 157.191C115.537 157.783 113.441 159.695 113.328 162.268C113.166 166.206 117.241 165.386 118.999 163.224C120.894 160.787 123.694 156.122 121.491 151.773C120.568 150.225 118.973 149.156 116.992 148.791C110.211 148.404 103.895 151.637 98.066 155.211C85.3185 164.066 75.1212 176.336 69.3512 189.768C66.0245 197.872 63.016 209.48 67.5256 218.928C71.0141 225.484 78.2566 228.966 86.8974 228.238C92.9576 227.601 100.286 225.643 105.214 224.46C110.143 223.275 135.372 214.603 143.662 229.697C143.662 229.697 146.418 224.346 153.307 224.232C158.971 223.709 167.141 225.871 173.091 230.241C171.109 227.26 165.489 222.867 160.8 219.838Z" fill="#E61D2A"/>
<path d="M121.282 169.188C116.563 166.092 107.079 172.011 99.4828 182.163C92.5363 191.27 89.5368 201.854 92.801 206.749C97.6569 212.508 106.671 204.131 110.505 199.647L110.999 199.123C113.606 196.323 115.62 192.953 117.57 189.721C117.57 189.721 119.361 186.761 119.447 186.624C120.554 186.42 121.888 186.101 123.391 185.669C123.369 185.737 117.641 195.366 118.225 200.146C118.407 201.604 118.268 206.931 123.469 208.547C130.4 209.709 135.935 204.335 140.818 199.555C140.818 199.555 141.65 198.759 142.121 198.304C142.002 198.781 141.846 199.417 141.846 199.417C139.817 206.475 142.552 207.955 144.264 208.502C149.435 210.005 155.613 202.492 155.633 202.492C155.472 204.859 155.004 206.816 157.499 208.387C159.853 209.23 162.236 207.945 164.047 206.739C170.572 202.14 175.828 194.943 180.073 188.722H177.365C177.333 188.722 170.683 198.361 166.365 200.456C166.358 200.456 165.572 200.86 165.119 200.541C164.559 200.062 164.78 199.068 165.126 198.364C165.148 198.318 181.799 169.437 181.799 169.437H173.937C173.937 169.437 173.078 170.827 173.008 170.918C172.955 170.872 172.829 170.633 172.742 170.519C167.871 163.781 156.84 174.145 148.536 186.164C145.338 190.786 141.267 195.99 137.046 199.746C137.046 199.746 130.793 205.478 128.121 201.359C127.145 199.629 127.445 197.099 127.996 195.438C131.107 186.582 136.467 178.546 142.567 173.696C144.289 172.354 146.161 171.966 147.089 172.535C147.974 173.06 148.117 174.356 147.557 175.244C146.137 175.199 144.999 175.631 144.073 176.587C142.25 178.499 141.617 180.343 142.197 182.074C145.012 186.08 150.627 178.158 150.355 173.332C150.258 171.601 149.335 169.963 147.957 169.165C145.904 167.937 142.772 168.255 140.745 169.234C138.031 170.258 133.735 173.832 131.228 176.61C128.071 180.093 122.658 183.963 120.965 183.529C121.519 182.049 126.092 172.693 121.282 169.188ZM159.187 183.029C160.716 180.912 165.168 175.243 166.253 174.287C169.903 171.076 171.362 172.489 171.488 173.49C168.082 179.591 164.061 186.58 160.282 192.863C160.289 192.841 159.099 194.661 159.099 194.661C157.429 197.21 155.748 199.396 153.006 200.921C152.615 201.035 151.971 201.081 151.542 200.761C151.026 200.42 150.822 199.851 150.88 199.258C151.044 197.301 153.037 191.315 159.187 183.029ZM116.416 186.693C116.416 186.693 116.347 186.899 116.313 186.966C116.305 186.966 112.885 192.543 112.885 192.543C110.822 195.298 108.245 198.759 105.025 200.42C104.07 200.739 102.751 200.944 102.078 200.102C100.653 198.395 101.387 196.027 101.984 194.115L102.196 193.432C103.907 188.789 106.622 184.69 109.265 180.889C109.298 180.866 109.372 180.843 109.399 180.843C109.405 180.866 109.416 180.866 109.421 180.912C111.079 184.098 114.189 185.577 116.515 186.261C116.529 186.261 116.544 186.284 116.544 186.33C116.544 186.398 116.506 186.489 116.416 186.693ZM119.655 180.115C119.64 180.161 118.132 183.621 118.132 183.621C117.914 183.802 117.569 183.712 117.174 183.621L116.497 183.506C114.372 182.846 112.769 181.435 112.275 179.75C111.593 176.472 114.393 173.9 115.627 172.967C116.811 172.147 118.651 171.714 119.72 172.557C120.379 173.331 120.629 174.332 120.629 175.426C120.629 176.905 120.173 178.567 119.655 180.115Z" fill="#E61D2A"/>
<path d="M219.049 190.677C218.29 189.039 216.491 187.991 214.573 188.105C208.345 188.674 202.253 193.796 199.054 201.148C197.376 204.928 196.46 208.046 195.859 213.009C197.796 210.778 201.746 207.114 206.229 205.11C206.229 205.11 206.839 200.352 209.949 196.118C211.126 194.365 213.482 191.542 216.127 192.293C218.438 193.068 217.625 199.464 214.554 205.655C212.282 210.208 208.804 214.763 205.285 217.903C202.174 220.544 197.572 223.731 193.545 221.273C191.009 219.771 189.715 216.629 189.988 212.576C191.2 201.081 196.433 191.292 203.922 180.138C211.643 169.78 220.155 159.149 231.621 153.48C233.96 152.296 236.126 152.023 237.998 152.752C237.998 152.752 227.234 158.67 222.104 169.62C220.798 172.398 218.983 176.153 220.811 179.477C221.766 181.207 223.463 181.344 224.828 181.252C231.117 179.795 235.181 173.922 238.501 168.55C240.425 164.476 242.136 160.424 242.136 155.916C242.136 155.37 242.108 154.642 242.061 154.095C245.066 152.502 251.228 155.324 251.228 155.324C256.042 156.918 266.294 164.772 269.753 166.274C271.439 164.317 274.212 161.358 275.772 159.878L273.513 158.489C269.895 156.281 266.072 154.186 262.308 152.115C253.76 147.449 246.803 149.087 243.262 150.362C241.87 150.863 240.599 151.295 240.599 151.295C237.971 148.427 233.661 148.7 230.486 149.474C219.066 152.752 208.463 160.742 197.095 174.606C188.738 185.465 183.554 194.844 180.791 204.109C178.661 210.346 178.014 219.52 183.212 224.961C187.632 229.581 193.492 228.58 197.631 226.919C206.598 222.502 214.657 212.986 218.672 202.036C219.641 198.782 220.717 194.183 219.049 190.677ZM239.667 156.372C238.48 169.985 227.898 177.976 225.28 178.612C223.693 178.931 220.986 178.225 223.403 172.512C226.962 164.817 233.039 158.284 239.559 154.938C239.718 155.507 239.714 155.87 239.667 156.372Z" fill="#E61D2A"/>
<path d="M302.437 158.101C296.745 161.334 290.845 163.428 283.702 162.7C281.723 164.931 279.795 167.23 278.019 169.597C288.044 172.147 298.672 166.479 304.599 161.084C310.869 155.643 314.085 148.792 314.085 148.792C314.085 148.792 309.384 154.164 302.437 158.101Z" fill="#E61D2A"/>
<path d="M190.654 176.281L194.867 169.438H187.4L183.189 176.281H190.654Z" fill="#E61D2A"/>
<path d="M283.672 220.472C282.869 221.018 281.742 220.598 282.163 219.347C283.214 216.159 287.39 209.665 287.39 209.665L299.022 189.034H291.054C290.676 189.656 289.866 191.085 289.866 191.085C289.497 190.471 288.395 189.105 287.941 188.81C285.994 187.58 283.138 188.162 281.168 189.277C272.602 194.286 266.352 204.182 261.423 211.899C261.423 211.899 256.234 220.478 253.354 221.116C251.105 221.298 251.337 218.269 251.435 217.564C252.304 212.464 254.323 207.615 256.357 203.222C260.495 200.353 265.217 196.597 269.508 192.477C278.82 183.575 286.67 173.491 287.818 171.237C287.818 171.237 286.576 171.488 285.109 171.533C277.945 181.527 263.285 196.051 258.84 198.213C260.809 193.477 273.53 170.873 284.356 160.06L286.059 158.42C288.693 155.848 291.423 153.207 293.55 152.775C293.774 152.752 294.064 152.775 294.313 153.299C294.408 155.302 293.663 156.782 292.807 158.466L291.608 160.925C291.608 160.925 293.306 160.606 294.422 160.241C295.716 157.807 297.149 155.074 296.62 151.819C296.444 150.772 295.686 149.975 294.695 149.793C291.466 149.179 287.946 151.568 285.115 153.504L285 153.572C270.443 164.977 258.15 181.413 247.403 203.859C246.624 204.45 243.614 205.156 243.103 204.814C244.164 202.629 245.5 199.692 246.169 196.505C246.285 195.594 246.392 194.661 246.392 193.751C246.392 191.792 245.922 189.948 244.167 188.674C242.109 187.649 239.565 188.128 237.85 188.901C230.168 192.088 224.426 199.965 220.283 206.452C218.055 210.574 215.833 214.988 215.218 220.043C214.784 224.003 215.666 226.553 217.918 227.828C220.234 229.011 223.149 227.781 224.293 227.19C232.076 223.093 237.514 214.875 241.801 207.362C241.971 207.34 244.312 207.272 246.082 206.816C246.105 206.816 246.115 206.816 246.155 206.84C246.053 207.18 245.138 209.913 245.138 209.913C242.422 217.88 241.165 223.298 243.731 226.507C247.398 231.038 253.469 226.349 258.408 220.156C257.348 227.577 261.194 228.738 264.126 228.17C267.493 227.259 271.246 223.662 272.988 221.818C272.429 223.981 272.581 227.851 275.644 228.238C277.744 228.626 279.316 227.484 281.134 226.504C287.657 222.953 295.464 211.118 297.491 207.697H294.833C291.952 212.052 288.285 217.762 283.672 220.472ZM225.126 219.679C224.713 219.065 224.576 218.393 224.562 217.666C224.483 213.202 229.285 205.209 232.675 200.854C232.682 200.854 232.682 200.854 232.682 200.854C234.103 203.964 237.319 205.964 239.261 206.806C236.849 212.179 228.578 223.686 225.126 219.679ZM240.623 204.404C240.393 204.565 236.336 203.198 235.552 199.442C234.887 196.209 237.114 193.682 239.269 192.408C240.193 191.679 241.586 191.43 242.608 191.792C243.556 192.43 243.813 193.57 243.813 194.797C243.813 195.55 243.713 196.323 243.625 197.028C243.625 197.028 243.609 197.166 243.606 197.188C242.93 199.714 241.896 202.196 240.623 204.404ZM273.157 218.245C273.154 218.245 272.388 218.928 272.388 218.928C271.294 219.906 270.168 220.954 268.808 220.43C268.433 220.293 268.169 219.793 268.105 219.405C268.043 216.605 269.304 214.01 270.527 211.484L270.841 210.823C274.358 204.95 278.447 198.03 284.451 193.227C285.463 192.497 286.561 191.884 287.72 192.362C287.987 192.612 288.297 193.045 288.297 193.477C288.297 193.614 288.175 193.978 288.105 194.092C286.428 196.802 284.831 199.647 283.278 202.378C280.243 207.774 277.094 213.35 273.157 218.245Z" fill="#E61D2A"/>
<path d="M160.8 219.838C151.541 213.874 138.975 212.827 118.709 218.45C97.1039 223.527 89.9006 226.781 80.4405 220.248C76.8062 217.038 75.5032 211.871 76.4762 204.427C78.7328 192.293 84.8313 180.616 95.6638 167.663C101.71 160.925 107.319 155.142 114.725 152.82C120.401 151.364 119.871 155.825 119.184 156.463C118.459 156.463 117.241 156.577 116.301 157.191C115.537 157.783 113.441 159.695 113.328 162.268C113.166 166.206 117.241 165.386 118.999 163.224C120.894 160.787 123.694 156.122 121.491 151.773C120.568 150.225 118.973 149.156 116.992 148.791C110.211 148.404 103.895 151.637 98.066 155.211C85.3185 164.066 75.1212 176.336 69.3512 189.768C66.0245 197.872 63.016 209.48 67.5256 218.928C71.0141 225.484 78.2566 228.966 86.8974 228.238C92.9576 227.601 100.286 225.643 105.214 224.46C110.143 223.275 135.372 214.603 143.662 229.697C143.662 229.697 146.418 224.346 153.307 224.232C158.971 223.709 167.141 225.871 173.091 230.241C171.109 227.26 165.489 222.867 160.8 219.838Z" fill="#E61D2A"/>
<path d="M160.8 219.838C151.541 213.874 138.975 212.827 118.709 218.45C97.1039 223.527 89.9006 226.781 80.4405 220.248C76.8062 217.038 75.5032 211.871 76.4762 204.427C78.7328 192.293 84.8313 180.616 95.6638 167.663C101.71 160.925 107.319 155.142 114.725 152.82C120.401 151.364 119.871 155.825 119.184 156.463C118.459 156.463 117.241 156.577 116.301 157.191C115.537 157.783 113.441 159.695 113.328 162.268C113.166 166.206 117.241 165.386 118.999 163.224C120.894 160.787 123.694 156.122 121.491 151.773C120.568 150.225 118.973 149.156 116.992 148.791C110.211 148.404 103.895 151.637 98.066 155.211C85.3185 164.066 75.1212 176.336 69.3512 189.768C66.0245 197.872 63.016 209.48 67.5256 218.928C71.0141 225.484 78.2566 228.966 86.8974 228.238C92.9576 227.601 100.286 225.643 105.214 224.46C110.143 223.275 135.372 214.603 143.662 229.697C143.662 229.697 146.418 224.346 153.307 224.232C158.971 223.709 167.141 225.871 173.091 230.241C171.109 227.26 165.489 222.867 160.8 219.838Z" fill="#0071FE"/>
<path d="M121.282 169.188C116.563 166.092 107.079 172.011 99.4828 182.163C92.5363 191.27 89.5368 201.854 92.801 206.749C97.6569 212.508 106.671 204.131 110.505 199.647L110.999 199.123C113.606 196.323 115.62 192.953 117.57 189.721C117.57 189.721 119.361 186.761 119.447 186.624C120.554 186.42 121.888 186.101 123.391 185.669C123.369 185.737 117.641 195.366 118.225 200.146C118.407 201.604 118.268 206.931 123.469 208.547C130.4 209.709 135.935 204.335 140.818 199.555C140.818 199.555 141.65 198.759 142.121 198.304C142.002 198.781 141.846 199.417 141.846 199.417C139.817 206.475 142.552 207.955 144.264 208.502C149.435 210.005 155.613 202.492 155.633 202.492C155.472 204.859 155.004 206.816 157.499 208.387C159.853 209.23 162.236 207.945 164.047 206.739C170.572 202.14 175.828 194.943 180.073 188.722H177.365C177.333 188.722 170.683 198.361 166.365 200.456C166.358 200.456 165.572 200.86 165.119 200.541C164.559 200.062 164.78 199.068 165.126 198.364C165.148 198.318 181.799 169.437 181.799 169.437H173.937C173.937 169.437 173.078 170.827 173.008 170.918C172.955 170.872 172.829 170.633 172.742 170.519C167.871 163.781 156.84 174.145 148.536 186.164C145.338 190.786 141.267 195.99 137.046 199.746C137.046 199.746 130.793 205.478 128.121 201.359C127.145 199.629 127.445 197.099 127.996 195.438C131.107 186.582 136.467 178.546 142.567 173.696C144.289 172.354 146.161 171.966 147.089 172.535C147.974 173.06 148.117 174.356 147.557 175.244C146.137 175.199 144.999 175.631 144.073 176.587C142.25 178.499 141.617 180.343 142.197 182.074C145.012 186.08 150.627 178.158 150.355 173.332C150.258 171.601 149.335 169.963 147.957 169.165C145.904 167.937 142.772 168.255 140.745 169.234C138.031 170.258 133.735 173.832 131.228 176.61C128.071 180.093 122.658 183.963 120.965 183.529C121.519 182.049 126.092 172.693 121.282 169.188ZM159.187 183.029C160.716 180.912 165.168 175.243 166.253 174.287C169.903 171.076 171.362 172.489 171.488 173.49C168.082 179.591 164.061 186.58 160.282 192.863C160.289 192.841 159.099 194.661 159.099 194.661C157.429 197.21 155.748 199.396 153.006 200.921C152.615 201.035 151.971 201.081 151.542 200.761C151.026 200.42 150.822 199.851 150.88 199.258C151.044 197.301 153.037 191.315 159.187 183.029ZM116.416 186.693C116.416 186.693 116.347 186.899 116.313 186.966C116.305 186.966 112.885 192.543 112.885 192.543C110.822 195.298 108.245 198.759 105.025 200.42C104.07 200.739 102.751 200.944 102.078 200.102C100.653 198.395 101.387 196.027 101.984 194.115L102.196 193.432C103.907 188.789 106.622 184.69 109.265 180.889C109.298 180.866 109.372 180.843 109.399 180.843C109.405 180.866 109.416 180.866 109.421 180.912C111.079 184.098 114.189 185.577 116.515 186.261C116.529 186.261 116.544 186.284 116.544 186.33C116.544 186.398 116.506 186.489 116.416 186.693ZM119.655 180.115C119.64 180.161 118.132 183.621 118.132 183.621C117.914 183.802 117.569 183.712 117.174 183.621L116.497 183.506C114.372 182.846 112.769 181.435 112.275 179.75C111.593 176.472 114.393 173.9 115.627 172.967C116.811 172.147 118.651 171.714 119.72 172.557C120.379 173.331 120.629 174.332 120.629 175.426C120.629 176.905 120.173 178.567 119.655 180.115Z" fill="#E61D2A"/>
<path d="M121.282 169.188C116.563 166.092 107.079 172.011 99.4828 182.163C92.5363 191.27 89.5368 201.854 92.801 206.749C97.6569 212.508 106.671 204.131 110.505 199.647L110.999 199.123C113.606 196.323 115.62 192.953 117.57 189.721C117.57 189.721 119.361 186.761 119.447 186.624C120.554 186.42 121.888 186.101 123.391 185.669C123.369 185.737 117.641 195.366 118.225 200.146C118.407 201.604 118.268 206.931 123.469 208.547C130.4 209.709 135.935 204.335 140.818 199.555C140.818 199.555 141.65 198.759 142.121 198.304C142.002 198.781 141.846 199.417 141.846 199.417C139.817 206.475 142.552 207.955 144.264 208.502C149.435 210.005 155.613 202.492 155.633 202.492C155.472 204.859 155.004 206.816 157.499 208.387C159.853 209.23 162.236 207.945 164.047 206.739C170.572 202.14 175.828 194.943 180.073 188.722H177.365C177.333 188.722 170.683 198.361 166.365 200.456C166.358 200.456 165.572 200.86 165.119 200.541C164.559 200.062 164.78 199.068 165.126 198.364C165.148 198.318 181.799 169.437 181.799 169.437H173.937C173.937 169.437 173.078 170.827 173.008 170.918C172.955 170.872 172.829 170.633 172.742 170.519C167.871 163.781 156.84 174.145 148.536 186.164C145.338 190.786 141.267 195.99 137.046 199.746C137.046 199.746 130.793 205.478 128.121 201.359C127.145 199.629 127.445 197.099 127.996 195.438C131.107 186.582 136.467 178.546 142.567 173.696C144.289 172.354 146.161 171.966 147.089 172.535C147.974 173.06 148.117 174.356 147.557 175.244C146.137 175.199 144.999 175.631 144.073 176.587C142.25 178.499 141.617 180.343 142.197 182.074C145.012 186.08 150.627 178.158 150.355 173.332C150.258 171.601 149.335 169.963 147.957 169.165C145.904 167.937 142.772 168.255 140.745 169.234C138.031 170.258 133.735 173.832 131.228 176.61C128.071 180.093 122.658 183.963 120.965 183.529C121.519 182.049 126.092 172.693 121.282 169.188ZM159.187 183.029C160.716 180.912 165.168 175.243 166.253 174.287C169.903 171.076 171.362 172.489 171.488 173.49C168.082 179.591 164.061 186.58 160.282 192.863C160.289 192.841 159.099 194.661 159.099 194.661C157.429 197.21 155.748 199.396 153.006 200.921C152.615 201.035 151.971 201.081 151.542 200.761C151.026 200.42 150.822 199.851 150.88 199.258C151.044 197.301 153.037 191.315 159.187 183.029ZM116.416 186.693C116.416 186.693 116.347 186.899 116.313 186.966C116.305 186.966 112.885 192.543 112.885 192.543C110.822 195.298 108.245 198.759 105.025 200.42C104.07 200.739 102.751 200.944 102.078 200.102C100.653 198.395 101.387 196.027 101.984 194.115L102.196 193.432C103.907 188.789 106.622 184.69 109.265 180.889C109.298 180.866 109.372 180.843 109.399 180.843C109.405 180.866 109.416 180.866 109.421 180.912C111.079 184.098 114.189 185.577 116.515 186.261C116.529 186.261 116.544 186.284 116.544 186.33C116.544 186.398 116.506 186.489 116.416 186.693ZM119.655 180.115C119.64 180.161 118.132 183.621 118.132 183.621C117.914 183.802 117.569 183.712 117.174 183.621L116.497 183.506C114.372 182.846 112.769 181.435 112.275 179.75C111.593 176.472 114.393 173.9 115.627 172.967C116.811 172.147 118.651 171.714 119.72 172.557C120.379 173.331 120.629 174.332 120.629 175.426C120.629 176.905 120.173 178.567 119.655 180.115Z" fill="#0071FE"/>
<path d="M219.049 190.677C218.29 189.039 216.491 187.991 214.573 188.105C208.345 188.674 202.253 193.796 199.054 201.148C197.376 204.928 196.46 208.046 195.859 213.009C197.796 210.778 201.746 207.114 206.229 205.11C206.229 205.11 206.839 200.352 209.949 196.118C211.126 194.365 213.482 191.542 216.127 192.293C218.438 193.068 217.625 199.464 214.554 205.655C212.282 210.208 208.804 214.763 205.285 217.903C202.174 220.544 197.572 223.731 193.545 221.273C191.009 219.771 189.715 216.629 189.988 212.576C191.2 201.081 196.433 191.292 203.922 180.138C211.643 169.78 220.155 159.149 231.621 153.48C233.96 152.296 236.126 152.023 237.998 152.752C237.998 152.752 227.234 158.67 222.104 169.62C220.798 172.398 218.983 176.153 220.811 179.477C221.766 181.207 223.463 181.344 224.828 181.252C231.117 179.795 235.181 173.922 238.501 168.55C240.425 164.476 242.136 160.424 242.136 155.916C242.136 155.37 242.108 154.642 242.061 154.095C245.066 152.502 251.228 155.324 251.228 155.324C256.042 156.918 266.294 164.772 269.753 166.274C271.439 164.317 274.212 161.358 275.772 159.878L273.513 158.489C269.895 156.281 266.072 154.186 262.308 152.115C253.76 147.449 246.803 149.087 243.262 150.362C241.87 150.863 240.599 151.295 240.599 151.295C237.971 148.427 233.661 148.7 230.486 149.474C219.066 152.752 208.463 160.742 197.095 174.606C188.738 185.465 183.554 194.844 180.791 204.109C178.661 210.346 178.014 219.52 183.212 224.961C187.632 229.581 193.492 228.58 197.631 226.919C206.598 222.502 214.657 212.986 218.672 202.036C219.641 198.782 220.717 194.183 219.049 190.677ZM239.667 156.372C238.48 169.985 227.898 177.976 225.28 178.612C223.693 178.931 220.986 178.225 223.403 172.512C226.962 164.817 233.039 158.284 239.559 154.938C239.718 155.507 239.714 155.87 239.667 156.372Z" fill="#E61D2A"/>
<path d="M219.049 190.677C218.29 189.039 216.491 187.991 214.573 188.105C208.345 188.674 202.253 193.796 199.054 201.148C197.376 204.928 196.46 208.046 195.859 213.009C197.796 210.778 201.746 207.114 206.229 205.11C206.229 205.11 206.839 200.352 209.949 196.118C211.126 194.365 213.482 191.542 216.127 192.293C218.438 193.068 217.625 199.464 214.554 205.655C212.282 210.208 208.804 214.763 205.285 217.903C202.174 220.544 197.572 223.731 193.545 221.273C191.009 219.771 189.715 216.629 189.988 212.576C191.2 201.081 196.433 191.292 203.922 180.138C211.643 169.78 220.155 159.149 231.621 153.48C233.96 152.296 236.126 152.023 237.998 152.752C237.998 152.752 227.234 158.67 222.104 169.62C220.798 172.398 218.983 176.153 220.811 179.477C221.766 181.207 223.463 181.344 224.828 181.252C231.117 179.795 235.181 173.922 238.501 168.55C240.425 164.476 242.136 160.424 242.136 155.916C242.136 155.37 242.108 154.642 242.061 154.095C245.066 152.502 251.228 155.324 251.228 155.324C256.042 156.918 266.294 164.772 269.753 166.274C271.439 164.317 274.212 161.358 275.772 159.878L273.513 158.489C269.895 156.281 266.072 154.186 262.308 152.115C253.76 147.449 246.803 149.087 243.262 150.362C241.87 150.863 240.599 151.295 240.599 151.295C237.971 148.427 233.661 148.7 230.486 149.474C219.066 152.752 208.463 160.742 197.095 174.606C188.738 185.465 183.554 194.844 180.791 204.109C178.661 210.346 178.014 219.52 183.212 224.961C187.632 229.581 193.492 228.58 197.631 226.919C206.598 222.502 214.657 212.986 218.672 202.036C219.641 198.782 220.717 194.183 219.049 190.677ZM239.667 156.372C238.48 169.985 227.898 177.976 225.28 178.612C223.693 178.931 220.986 178.225 223.403 172.512C226.962 164.817 233.039 158.284 239.559 154.938C239.718 155.507 239.714 155.87 239.667 156.372Z" fill="#0071FE"/>
<path d="M302.437 158.101C296.745 161.334 290.845 163.428 283.702 162.7C281.723 164.931 279.795 167.23 278.019 169.597C288.044 172.147 298.672 166.479 304.599 161.084C310.869 155.643 314.085 148.792 314.085 148.792C314.085 148.792 309.384 154.164 302.437 158.101Z" fill="#E61D2A"/>
<path d="M302.437 158.101C296.745 161.334 290.845 163.428 283.702 162.7C281.723 164.931 279.795 167.23 278.019 169.597C288.044 172.147 298.672 166.479 304.599 161.084C310.869 155.643 314.085 148.792 314.085 148.792C314.085 148.792 309.384 154.164 302.437 158.101Z" fill="#0071FE"/>
<path d="M190.654 176.281L194.867 169.438H187.4L183.189 176.281H190.654Z" fill="#E61D2A"/>
<path d="M190.654 176.281L194.867 169.438H187.4L183.189 176.281H190.654Z" fill="#0071FE"/>
<path d="M283.672 220.472C282.869 221.018 281.742 220.598 282.163 219.347C283.214 216.159 287.39 209.665 287.39 209.665L299.022 189.034H291.054C290.676 189.656 289.866 191.085 289.866 191.085C289.497 190.471 288.395 189.105 287.941 188.81C285.994 187.58 283.138 188.162 281.168 189.277C272.602 194.286 266.352 204.182 261.423 211.899C261.423 211.899 256.234 220.478 253.354 221.116C251.105 221.298 251.337 218.269 251.435 217.564C252.304 212.464 254.323 207.615 256.357 203.222C260.495 200.353 265.217 196.597 269.508 192.477C278.82 183.575 286.67 173.491 287.818 171.237C287.818 171.237 286.576 171.488 285.109 171.533C277.945 181.527 263.285 196.051 258.84 198.213C260.809 193.477 273.53 170.873 284.356 160.06L286.059 158.42C288.693 155.848 291.423 153.207 293.55 152.775C293.774 152.752 294.064 152.775 294.313 153.299C294.408 155.302 293.663 156.782 292.807 158.466L291.608 160.925C291.608 160.925 293.306 160.606 294.422 160.241C295.716 157.807 297.149 155.074 296.62 151.819C296.444 150.772 295.686 149.975 294.695 149.793C291.466 149.179 287.946 151.568 285.115 153.504L285 153.572C270.443 164.977 258.15 181.413 247.403 203.859C246.624 204.45 243.614 205.156 243.103 204.814C244.164 202.629 245.5 199.692 246.169 196.505C246.285 195.594 246.392 194.661 246.392 193.751C246.392 191.792 245.922 189.948 244.167 188.674C242.109 187.649 239.565 188.128 237.85 188.901C230.168 192.088 224.426 199.965 220.283 206.452C218.055 210.574 215.833 214.988 215.218 220.043C214.784 224.003 215.666 226.553 217.918 227.828C220.234 229.011 223.149 227.781 224.293 227.19C232.076 223.093 237.514 214.875 241.801 207.362C241.971 207.34 244.312 207.272 246.082 206.816C246.105 206.816 246.115 206.816 246.155 206.84C246.053 207.18 245.138 209.913 245.138 209.913C242.422 217.88 241.165 223.298 243.731 226.507C247.398 231.038 253.469 226.349 258.408 220.156C257.348 227.577 261.194 228.738 264.126 228.17C267.493 227.259 271.246 223.662 272.988 221.818C272.429 223.981 272.581 227.851 275.644 228.238C277.744 228.626 279.316 227.484 281.134 226.504C287.657 222.953 295.464 211.118 297.491 207.697H294.833C291.952 212.052 288.285 217.762 283.672 220.472ZM225.126 219.679C224.713 219.065 224.576 218.393 224.562 217.666C224.483 213.202 229.285 205.209 232.675 200.854C232.682 200.854 232.682 200.854 232.682 200.854C234.103 203.964 237.319 205.964 239.261 206.806C236.849 212.179 228.578 223.686 225.126 219.679ZM240.623 204.404C240.393 204.565 236.336 203.198 235.552 199.442C234.887 196.209 237.114 193.682 239.269 192.408C240.193 191.679 241.586 191.43 242.608 191.792C243.556 192.43 243.813 193.57 243.813 194.797C243.813 195.55 243.713 196.323 243.625 197.028C243.625 197.028 243.609 197.166 243.606 197.188C242.93 199.714 241.896 202.196 240.623 204.404ZM273.157 218.245C273.154 218.245 272.388 218.928 272.388 218.928C271.294 219.906 270.168 220.954 268.808 220.43C268.433 220.293 268.169 219.793 268.105 219.405C268.043 216.605 269.304 214.01 270.527 211.484L270.841 210.823C274.358 204.95 278.447 198.03 284.451 193.227C285.463 192.497 286.561 191.884 287.72 192.362C287.987 192.612 288.297 193.045 288.297 193.477C288.297 193.614 288.175 193.978 288.105 194.092C286.428 196.802 284.831 199.647 283.278 202.378C280.243 207.774 277.094 213.35 273.157 218.245Z" fill="#E61D2A"/>
<path d="M283.672 220.472C282.869 221.018 281.742 220.598 282.163 219.347C283.214 216.159 287.39 209.665 287.39 209.665L299.022 189.034H291.054C290.676 189.656 289.866 191.085 289.866 191.085C289.497 190.471 288.395 189.105 287.941 188.81C285.994 187.58 283.138 188.162 281.168 189.277C272.602 194.286 266.352 204.182 261.423 211.899C261.423 211.899 256.234 220.478 253.354 221.116C251.105 221.298 251.337 218.269 251.435 217.564C252.304 212.464 254.323 207.615 256.357 203.222C260.495 200.353 265.217 196.597 269.508 192.477C278.82 183.575 286.67 173.491 287.818 171.237C287.818 171.237 286.576 171.488 285.109 171.533C277.945 181.527 263.285 196.051 258.84 198.213C260.809 193.477 273.53 170.873 284.356 160.06L286.059 158.42C288.693 155.848 291.423 153.207 293.55 152.775C293.774 152.752 294.064 152.775 294.313 153.299C294.408 155.302 293.663 156.782 292.807 158.466L291.608 160.925C291.608 160.925 293.306 160.606 294.422 160.241C295.716 157.807 297.149 155.074 296.62 151.819C296.444 150.772 295.686 149.975 294.695 149.793C291.466 149.179 287.946 151.568 285.115 153.504L285 153.572C270.443 164.977 258.15 181.413 247.403 203.859C246.624 204.45 243.614 205.156 243.103 204.814C244.164 202.629 245.5 199.692 246.169 196.505C246.285 195.594 246.392 194.661 246.392 193.751C246.392 191.792 245.922 189.948 244.167 188.674C242.109 187.649 239.565 188.128 237.85 188.901C230.168 192.088 224.426 199.965 220.283 206.452C218.055 210.574 215.833 214.988 215.218 220.043C214.784 224.003 215.666 226.553 217.918 227.828C220.234 229.011 223.149 227.781 224.293 227.19C232.076 223.093 237.514 214.875 241.801 207.362C241.971 207.34 244.312 207.272 246.082 206.816C246.105 206.816 246.115 206.816 246.155 206.84C246.053 207.18 245.138 209.913 245.138 209.913C242.422 217.88 241.165 223.298 243.731 226.507C247.398 231.038 253.469 226.349 258.408 220.156C257.348 227.577 261.194 228.738 264.126 228.17C267.493 227.259 271.246 223.662 272.988 221.818C272.429 223.981 272.581 227.851 275.644 228.238C277.744 228.626 279.316 227.484 281.134 226.504C287.657 222.953 295.464 211.118 297.491 207.697H294.833C291.952 212.052 288.285 217.762 283.672 220.472ZM225.126 219.679C224.713 219.065 224.576 218.393 224.562 217.666C224.483 213.202 229.285 205.209 232.675 200.854C232.682 200.854 232.682 200.854 232.682 200.854C234.103 203.964 237.319 205.964 239.261 206.806C236.849 212.179 228.578 223.686 225.126 219.679ZM240.623 204.404C240.393 204.565 236.336 203.198 235.552 199.442C234.887 196.209 237.114 193.682 239.269 192.408C240.193 191.679 241.586 191.43 242.608 191.792C243.556 192.43 243.813 193.57 243.813 194.797C243.813 195.55 243.713 196.323 243.625 197.028C243.625 197.028 243.609 197.166 243.606 197.188C242.93 199.714 241.896 202.196 240.623 204.404ZM273.157 218.245C273.154 218.245 272.388 218.928 272.388 218.928C271.294 219.906 270.168 220.954 268.808 220.43C268.433 220.293 268.169 219.793 268.105 219.405C268.043 216.605 269.304 214.01 270.527 211.484L270.841 210.823C274.358 204.95 278.447 198.03 284.451 193.227C285.463 192.497 286.561 191.884 287.72 192.362C287.987 192.612 288.297 193.045 288.297 193.477C288.297 193.614 288.175 193.978 288.105 194.092C286.428 196.802 284.831 199.647 283.278 202.378C280.243 207.774 277.094 213.35 273.157 218.245Z" fill="#0071FE"/>
</svg>
