<svg width="380" height="380" viewBox="0 0 380 380" fill="none" xmlns="http://www.w3.org/2000/svg">
<path fill-rule="evenodd" clip-rule="evenodd" d="M230.758 148.357C229.574 149.228 228.868 151.151 228.784 153.733L228.651 157.753L244.711 158.265C257.482 158.673 260.968 159.092 261.733 160.313C262.262 161.158 262.701 169.568 262.71 179.003C262.73 200.748 263.056 200.253 248.689 200.253C233.17 200.253 232.777 198.483 244.728 182.42C249.375 176.175 253.522 170.491 253.943 169.786C254.54 168.789 251.807 168.506 241.549 168.506H228.389L222.842 175.931C213.005 189.097 212.917 189.898 220.26 199.7C228.372 210.529 229.6 211.018 248.486 210.947C265.698 210.881 271.063 209.867 275.903 205.768L279 203.143V178.726V154.308L275.875 152.067C270.29 148.064 264.442 147 248.01 147C236.825 147 232.095 147.372 230.758 148.357ZM101 173.507C101 177.647 101.35 178.6 103.034 179.044C105.001 179.562 105.069 180.441 105.069 205.789V232H115.223H125.377L125.648 205.63L125.92 179.259H138.419C151.128 179.259 152.81 179.759 152.859 183.549C152.867 184.219 148.755 190.329 143.72 197.125C138.685 203.921 134.566 209.941 134.566 210.5C134.566 211.12 139.508 211.518 147.201 211.518H159.836L167.118 201.57C173.225 193.23 174.309 191.154 173.825 188.722C172.86 183.861 163.856 172.636 158.774 169.955C156.602 168.81 150.26 168.506 128.514 168.506H101V173.507ZM181.809 188.496C173.683 199.491 166.775 209.169 166.457 210.002C165.966 211.291 167.798 211.518 178.691 211.518H191.504L206.56 191.292C214.842 180.168 221.968 170.491 222.397 169.786C223.006 168.788 220.256 168.506 209.88 168.506H196.584L181.809 188.496Z" fill="#0071FE"/>
</svg>
