<svg width="380" height="380" viewBox="0 0 380 380" fill="none" xmlns="http://www.w3.org/2000/svg">
<path fill-rule="evenodd" clip-rule="evenodd" d="M327.943 172.118C325.384 172.462 323.296 173.437 321.463 175.143C318.976 177.457 317.973 180.734 318.699 184.174C319.451 187.738 322.151 189.981 327.907 191.821C334.346 193.88 335.922 194.659 336.669 196.148C337.457 197.719 337.18 199.388 335.914 200.689C334.983 201.646 333.655 202.082 331.265 202.214C327.099 202.445 324.299 200.975 322.713 197.725C322.402 197.087 322.05 196.592 321.932 196.624C321.813 196.657 320.66 197.292 319.37 198.036L317.025 199.389L317.36 200.251C318.309 202.687 320.616 205.135 323.132 206.375C325.534 207.559 327.569 208 330.635 208C334.958 208 338.001 206.928 340.333 204.584C342.312 202.595 343.121 200.319 342.985 197.126C342.886 194.769 342.064 193.082 340.163 191.331C338.589 189.881 337.184 189.223 331.685 187.361C327.813 186.049 326.031 185.197 325.278 184.298C323.846 182.587 324.279 180.032 326.227 178.699C327.269 177.986 328.447 177.748 330.426 177.849C333.139 177.987 335.1 179.139 336.407 181.364C336.753 181.953 337.109 182.438 337.199 182.44C337.527 182.448 341.964 179.8 341.966 179.595C341.972 179.091 340.174 176.689 338.885 175.477C336.125 172.881 331.903 171.585 327.943 172.118ZM37.0013 172.629C36.9411 172.69 38.9871 180.5 41.5479 189.985L46.2042 207.231H49.8431H53.4818L57.0769 194.785C59.0542 187.939 60.712 182.224 60.7611 182.083C60.81 181.943 62.5028 187.569 64.5228 194.585L68.1954 207.342L71.8509 207.286L75.5064 207.231L80.1596 190.038C82.7189 180.583 84.7752 172.775 84.7291 172.688C84.6831 172.601 83.2887 172.53 81.631 172.53H78.6164L78.3996 173.215C78.2802 173.592 76.7037 179.407 74.8959 186.136C73.0883 192.865 71.5468 198.488 71.4704 198.63C71.3938 198.773 69.6263 192.983 67.5423 185.762L63.7532 172.635L60.8822 172.576C58.0616 172.519 58.0078 172.526 57.8324 172.998C57.7339 173.263 56.016 179.147 54.0142 186.075C52.0125 193.002 50.3235 198.619 50.2608 198.557C50.198 198.494 48.5789 192.636 46.6626 185.539L43.1781 172.635L40.1445 172.577C38.476 172.545 37.0615 172.568 37.0013 172.629ZM89.0131 172.665C88.9329 172.745 88.8674 180.579 88.8674 190.074V207.336H91.9118H94.9561L94.9024 189.986L94.8487 172.635L92.0037 172.577C90.4389 172.545 89.0931 172.584 89.0131 172.665ZM101.605 172.664C101.525 172.745 101.46 180.579 101.46 190.074V207.336H111.533H121.607V204.594V201.851H114.473H107.339L107.285 187.243L107.231 172.635L104.491 172.576C102.984 172.544 101.685 172.584 101.605 172.664ZM125.752 172.649C125.665 172.738 125.594 180.579 125.594 190.074V207.336L133.622 207.333C142.231 207.329 143.206 207.238 145.734 206.212C147.764 205.388 149.263 204.391 150.906 202.774C154.507 199.228 156.137 195.173 156.11 189.827C156.084 184.649 154.5 180.849 150.876 177.276C149.262 175.685 147.758 174.686 145.734 173.865C143.122 172.804 142.177 172.704 133.779 172.592C129.451 172.534 125.838 172.56 125.752 172.649ZM161.429 172.652C161.343 172.739 161.272 180.579 161.272 190.074V207.336H169.727C178.935 207.336 179.58 207.27 181.712 206.116C182.295 205.801 183.351 204.974 184.06 204.277C186.196 202.179 187.008 199.983 186.838 196.762C186.693 193.985 185.502 191.763 183.284 190.126L182.227 189.346L183.174 188.374C185.676 185.803 186.284 181.81 184.702 178.336C184 176.795 182.145 174.862 180.547 174.006C178.167 172.731 177.846 172.69 169.352 172.587C165.081 172.535 161.516 172.564 161.429 172.652ZM192.264 172.668C192.186 172.747 192.123 180.579 192.123 190.074V207.336H202.826H213.529V204.594V201.851H205.764H197.999V197.211V192.57H205.029H212.06V189.827V187.085H205.029H197.999V182.655V178.225H205.665H213.331L213.273 175.43L213.214 172.635L202.81 172.58C197.088 172.55 192.342 172.59 192.264 172.668ZM218.566 189.914V207.336H221.504H224.442V201.113V194.89H227.753H231.065L234.708 201.113L238.351 207.336H241.575C243.349 207.336 244.799 207.301 244.799 207.258C244.799 207.216 243.048 204.214 240.908 200.587C238.767 196.961 237.044 193.973 237.078 193.947C237.111 193.921 237.637 193.632 238.246 193.304C240.465 192.11 242.489 189.639 243.341 187.085C243.961 185.23 243.963 182.471 243.348 180.514C242.541 177.948 240.309 175.253 237.899 173.935C235.756 172.762 235.071 172.681 226.488 172.582L218.566 172.491V189.914ZM249.154 172.653C249.067 172.74 248.997 180.579 248.997 190.074V207.336H251.935H254.873V201.108V194.88L258.282 194.938L261.691 194.996L265.26 201.156L268.829 207.317L272.159 207.327L275.488 207.336L275.185 206.861C274.514 205.809 267.865 194.451 267.76 194.176C267.684 193.978 267.983 193.715 268.658 193.385C270.062 192.699 272.506 190.21 273.213 188.745C275.347 184.324 274.563 179.509 271.143 176.026C269.702 174.558 268.559 173.828 266.618 173.135C265.311 172.668 264.968 172.648 257.286 172.573C252.899 172.53 249.24 172.567 249.154 172.653ZM279.573 172.664C279.493 172.745 279.428 180.579 279.428 190.074V207.336H282.367H285.306L285.253 189.986L285.199 172.635L282.459 172.576C280.952 172.544 279.653 172.584 279.573 172.664ZM291.952 172.668C291.874 172.747 291.81 180.579 291.81 190.074V207.336H302.513H313.216V204.594V201.851H305.556H297.896V197.211V192.57H304.822H311.747V189.827V187.085H304.822H297.896V182.655V178.225H305.457H313.019L312.96 175.43L312.902 172.635L302.498 172.58C296.775 172.55 292.03 172.59 291.952 172.668ZM177.075 178.566C177.924 178.996 178.858 179.863 179.21 180.546C180.322 182.708 179.313 185.69 177.132 186.686C176.388 187.025 175.702 187.076 171.818 187.08L167.358 187.085V182.655V178.225H171.881C175.626 178.225 176.519 178.284 177.075 178.566ZM234.122 178.44C235.105 178.714 236.723 180.151 237.276 181.242C238.665 183.978 237.475 187.683 234.778 189.018C233.84 189.482 233.507 189.515 229.112 189.581L224.442 189.652V183.938V178.225L228.902 178.227C231.355 178.227 233.704 178.323 234.122 178.44ZM265.157 178.664C269.316 180.556 269.56 186.581 265.571 188.856L264.422 189.511L259.648 189.581L254.873 189.651V183.938V178.225L259.543 178.23C263.785 178.234 264.298 178.274 265.157 178.664ZM142.489 178.723C146.1 179.694 149.152 182.913 150.036 186.683C150.439 188.404 150.443 191.658 150.043 193.363C149.353 196.304 147.17 199.241 144.686 200.572C142.732 201.619 141.209 201.844 136.035 201.848L131.471 201.851V190.144V178.436L136.455 178.439C139.947 178.44 141.754 178.526 142.489 178.723ZM178.804 193.1C180.307 194.035 181.063 195.557 180.96 197.445C180.869 199.109 180.22 200.26 178.862 201.164L177.988 201.746L172.673 201.809L167.358 201.872V197.099V192.326L172.569 192.395L177.781 192.464L178.804 193.1Z" fill="#0071FE"/>
</svg>
