<svg width="380" height="380" viewBox="0 0 380 380" fill="none" xmlns="http://www.w3.org/2000/svg">
<path fill-rule="evenodd" clip-rule="evenodd" d="M83.0042 152.979C84.1443 155.953 98.1443 177.811 98.7763 177.603C99.6978 177.299 115.503 155.523 116.289 153.473C116.74 152.3 113.369 152 99.7418 152C90.3292 152 82.7969 152.441 83.0042 152.979ZM126.43 161.861C123.079 167.284 115.425 179.698 109.42 189.446L98.5025 207.17L98.827 217.585L99.1514 228L119.43 195.641L139.708 163.282L147.206 163.275L154.703 163.269L157.627 158.279C159.234 155.534 160.55 152.998 160.55 152.645C160.55 152.29 154.243 152 146.536 152H132.522L126.43 161.861ZM170.904 157.635L167.403 163.269H174.115H180.828V169.467V175.666H170.223H159.617L156.151 181.3L152.684 186.935H166.666H180.648L186.371 180.511L192.094 174.089V163.044V152H183.249H174.406L170.904 157.635ZM205.649 169.749C205.69 189.953 205.022 189.689 214.799 173.362L220.822 163.307L232.879 163.288L244.935 163.269L248.369 158.277C250.257 155.531 251.803 152.995 251.803 152.642C251.803 152.288 241.41 152 228.708 152H205.613L205.649 169.749ZM262.157 157.635L258.656 163.269H271.564H284.474V169.467V175.666H267.662H250.85L246.82 182.11C242.912 188.36 242.79 188.887 242.79 199.578V210.6H265.874H288.957L292.604 202.993L296.252 195.387L296.626 173.693L297 152H281.329H265.659L262.157 157.635ZM180.828 193.048V199.285L158.209 199.589L135.588 199.894L131.613 205.265L127.637 210.636L159.34 210.336L191.043 210.037L191.286 198.768L191.531 187.498L186.18 187.154L180.828 186.811V193.048ZM212.814 198.543L205.932 210.037L212.663 210.376C216.364 210.562 219.606 210.501 219.867 210.241C220.128 209.98 220.196 204.656 220.018 198.408L219.695 187.05L212.814 198.543ZM284.474 193.133V199.331H269.265H254.056V193.133V186.935H269.265H284.474V193.133Z" fill="#0071FE"/>
</svg>
