<svg width="380" height="380" viewBox="0 0 380 380" fill="none" xmlns="http://www.w3.org/2000/svg">
<path fill-rule="evenodd" clip-rule="evenodd" d="M57.9545 214.585C71.5106 214.585 82.5 203.578 82.5 190C82.5 176.422 71.5106 165.415 57.9545 165.415C44.3985 165.415 33.4091 176.422 33.4091 190C33.4091 203.578 44.3985 214.585 57.9545 214.585ZM57.9545 218C73.3934 218 85.9091 205.464 85.9091 190C85.9091 174.536 73.3934 162 57.9545 162C42.5157 162 30 174.536 30 190C30 205.464 42.5157 218 57.9545 218Z" fill="#EC4631"/>
<path fill-rule="evenodd" clip-rule="evenodd" d="M57.9546 211.171C69.6279 211.171 79.091 201.692 79.091 190C79.091 178.308 69.6279 168.829 57.9546 168.829C46.2814 168.829 36.8183 178.308 36.8183 190C36.8183 201.692 46.2814 211.171 57.9546 211.171ZM57.9546 214.585C71.5107 214.585 82.5001 203.578 82.5001 190C82.5001 176.422 71.5107 165.415 57.9546 165.415C44.3986 165.415 33.4092 176.422 33.4092 190C33.4092 203.578 44.3986 214.585 57.9546 214.585Z" fill="#FED304"/>
<path d="M75.682 190C75.682 199.806 67.7452 207.756 57.9547 207.756C48.1642 207.756 40.2275 199.806 40.2275 190C40.2275 180.194 48.1642 172.244 57.9547 172.244C67.7452 172.244 75.682 180.194 75.682 190Z" fill="#3E3E3F"/>
<path fill-rule="evenodd" clip-rule="evenodd" d="M57.9547 207.756C67.7452 207.756 75.682 199.806 75.682 190C75.682 180.194 67.7452 172.244 57.9547 172.244C48.1642 172.244 40.2275 180.194 40.2275 190C40.2275 199.806 48.1642 207.756 57.9547 207.756ZM57.9547 211.171C69.628 211.171 79.0911 201.692 79.0911 190C79.0911 178.308 69.628 168.829 57.9547 168.829C46.2815 168.829 36.8184 178.308 36.8184 190C36.8184 201.692 46.2815 211.171 57.9547 211.171Z" fill="#0CAB4B"/>
<path d="M59.8863 184.195L50.5681 201.268H44.5454L53.5226 184.195H44.5454V178.618H71.4772V184.195H59.8863Z" fill="white"/>
<path d="M57.2725 192.618L54.4316 198.081H63.4089L64.9998 201.155H71.1362L61.7043 184.423L58.7498 189.772L60.3407 192.618H57.2725Z" fill="white"/>
<path fill-rule="evenodd" clip-rule="evenodd" d="M125.342 178.718C125.342 178.774 124.976 178.839 124.529 178.865C124.031 178.893 123.699 178.964 123.671 179.047C123.646 179.122 123.431 179.184 123.194 179.184C122.915 179.184 122.74 179.244 122.698 179.353C122.662 179.447 122.504 179.523 122.346 179.523C122.188 179.523 122.06 179.574 122.06 179.636C122.06 179.699 121.936 179.75 121.785 179.75C121.634 179.75 121.443 179.816 121.36 179.897C121.278 179.979 121.122 180.079 121.013 180.12C120.904 180.161 120.815 180.248 120.815 180.312C120.815 180.376 120.706 180.429 120.573 180.429C120.44 180.429 120.213 180.556 120.069 180.711C119.925 180.867 119.754 180.994 119.688 180.994C119.537 180.994 119.117 181.411 119.117 181.56C119.117 181.622 119.064 181.673 119 181.673C118.831 181.673 118.243 182.3 118.157 182.573C118.116 182.7 118.036 182.805 117.978 182.805C117.92 182.805 117.872 182.881 117.872 182.975C117.872 183.068 117.796 183.144 117.702 183.144C117.604 183.144 117.533 183.247 117.533 183.386C117.533 183.519 117.405 183.746 117.25 183.89C117.094 184.034 116.967 184.256 116.967 184.384C116.967 184.514 116.892 184.616 116.797 184.616C116.684 184.616 116.627 184.729 116.627 184.955C116.627 185.142 116.583 185.295 116.528 185.295C116.474 185.295 116.397 185.498 116.357 185.747C116.317 185.996 116.235 186.2 116.173 186.2C116.112 186.2 116.061 186.4 116.061 186.644C116.061 186.889 115.985 187.165 115.891 187.259C115.77 187.38 115.722 187.675 115.722 188.285C115.722 188.781 115.674 189.142 115.608 189.142C115.541 189.142 115.495 189.576 115.495 190.217C115.495 190.858 115.541 191.292 115.608 191.292C115.674 191.292 115.722 191.653 115.722 192.149C115.722 192.76 115.77 193.054 115.891 193.175C115.985 193.269 116.061 193.498 116.061 193.685C116.061 193.871 116.138 194.101 116.231 194.194C116.324 194.287 116.401 194.487 116.401 194.638C116.401 194.79 116.452 194.913 116.514 194.913C116.576 194.913 116.627 195.117 116.627 195.366C116.627 195.693 116.674 195.819 116.797 195.819C116.89 195.819 116.967 195.895 116.967 195.988C116.967 196.082 117.018 196.158 117.08 196.158C117.142 196.158 117.193 196.231 117.193 196.32C117.193 196.409 117.263 196.551 117.348 196.636C117.433 196.721 117.538 196.903 117.582 197.04C117.625 197.177 117.708 197.29 117.766 197.29C117.825 197.29 117.872 197.34 117.872 197.401C117.872 197.556 119.745 199.44 119.898 199.44C119.966 199.44 120.022 199.516 120.022 199.61C120.022 199.715 120.129 199.779 120.305 199.779C120.481 199.779 120.588 199.843 120.588 199.949C120.588 200.042 120.665 200.119 120.758 200.119C120.851 200.119 120.928 200.17 120.928 200.232C120.928 200.294 121.055 200.345 121.211 200.345C121.387 200.345 121.494 200.409 121.494 200.515C121.494 200.637 121.62 200.685 121.946 200.685C122.273 200.685 122.399 200.732 122.399 200.854C122.399 200.977 122.525 201.024 122.852 201.024C123.101 201.024 123.305 201.075 123.305 201.137C123.305 201.199 123.454 201.25 123.636 201.25C123.818 201.25 124.044 201.327 124.137 201.42C124.39 201.673 130.141 201.673 130.394 201.42C130.488 201.327 130.764 201.25 131.009 201.25C131.253 201.25 131.453 201.206 131.453 201.152C131.453 201.097 131.657 201.02 131.906 200.981C132.155 200.941 132.359 200.858 132.359 200.796C132.359 200.735 132.512 200.685 132.698 200.685C132.925 200.685 133.038 200.628 133.038 200.515C133.038 200.409 133.145 200.345 133.321 200.345C133.476 200.345 133.604 200.3 133.604 200.244C133.604 200.189 133.731 200.111 133.887 200.072C134.042 200.033 134.17 199.951 134.17 199.89C134.17 199.829 134.246 199.779 134.339 199.779C134.433 199.779 134.509 199.703 134.509 199.61C134.509 199.504 134.616 199.44 134.792 199.44C134.968 199.44 135.075 199.376 135.075 199.27C135.075 199.177 135.128 199.1 135.192 199.1C135.339 199.1 135.981 198.452 135.981 198.304C135.981 198.244 136.057 198.195 136.15 198.195C136.244 198.195 136.32 198.14 136.32 198.074C136.32 198.007 136.384 197.882 136.462 197.795C136.797 197.42 136.886 197.292 136.886 197.181C136.886 197.116 136.962 197.063 137.056 197.063C137.159 197.063 137.225 196.958 137.225 196.793C137.225 196.644 137.302 196.492 137.395 196.457C137.489 196.421 137.565 196.288 137.565 196.162C137.565 196.035 137.616 195.932 137.678 195.932C137.74 195.932 137.791 195.854 137.791 195.759C137.791 195.663 137.868 195.556 137.961 195.52C138.067 195.479 138.131 195.307 138.131 195.063C138.131 194.847 138.207 194.594 138.301 194.501C138.394 194.408 138.47 194.182 138.47 194C138.47 193.818 138.514 193.669 138.568 193.669C138.621 193.669 138.698 193.35 138.738 192.961C138.779 192.572 138.863 192.237 138.924 192.216C139.063 192.169 139.078 188.237 138.939 188.237C138.886 188.237 138.809 187.919 138.768 187.529C138.728 187.141 138.644 186.805 138.582 186.785C138.521 186.764 138.47 186.547 138.47 186.304C138.47 185.985 138.423 185.86 138.301 185.86C138.179 185.86 138.131 185.736 138.131 185.42C138.131 185.133 138.072 184.957 137.961 184.914C137.868 184.878 137.791 184.746 137.791 184.619C137.791 184.493 137.746 184.389 137.69 184.389C137.635 184.389 137.558 184.262 137.518 184.106C137.479 183.951 137.397 183.823 137.336 183.823C137.275 183.823 137.225 183.722 137.225 183.597C137.225 183.473 137.176 183.371 137.114 183.371C137.053 183.371 136.971 183.243 136.932 183.088C136.893 182.932 136.812 182.805 136.752 182.805C136.637 182.805 136.32 182.524 136.32 182.421C136.32 182.304 135.32 181.334 135.198 181.334C135.131 181.334 135.075 181.257 135.075 181.164C135.075 181.071 135.021 180.994 134.954 180.994C134.887 180.994 134.762 180.931 134.675 180.853C134.299 180.516 134.172 180.429 134.058 180.429C133.991 180.429 133.907 180.352 133.871 180.259C133.835 180.165 133.684 180.089 133.535 180.089C133.386 180.089 133.264 180.039 133.264 179.978C133.264 179.917 133.137 179.835 132.981 179.796C132.826 179.757 132.698 179.68 132.698 179.624C132.698 179.569 132.549 179.523 132.367 179.523C132.185 179.523 131.959 179.447 131.866 179.353C131.772 179.26 131.518 179.184 131.301 179.184C131.084 179.184 130.886 179.123 130.861 179.049C130.835 178.97 130.506 178.895 130.06 178.866C129.644 178.84 129.303 178.773 129.303 178.718C129.303 178.663 128.412 178.618 127.322 178.618C126.233 178.618 125.342 178.663 125.342 178.718ZM295.448 178.718C295.448 178.774 295.083 178.839 294.636 178.865C294.138 178.893 293.805 178.964 293.777 179.047C293.752 179.122 293.574 179.184 293.382 179.184C293.19 179.184 292.839 179.273 292.602 179.382L292.172 179.58L292.166 184.414L292.477 184.336C292.649 184.294 292.806 184.212 292.826 184.155C292.847 184.097 292.965 184.05 293.089 184.05C293.213 184.05 293.39 183.973 293.484 183.88C293.577 183.787 293.798 183.71 293.976 183.71C294.153 183.71 294.319 183.647 294.345 183.569C294.38 183.464 294.839 183.427 296.127 183.427C297.414 183.427 297.874 183.464 297.91 183.569C297.936 183.647 298.106 183.71 298.287 183.71C298.505 183.71 298.617 183.768 298.617 183.88C298.617 183.986 298.724 184.05 298.9 184.05C299.076 184.05 299.183 184.114 299.183 184.219C299.183 184.313 299.234 184.389 299.296 184.389C299.359 184.389 299.409 184.513 299.409 184.664C299.409 184.815 299.486 185.015 299.579 185.109C299.763 185.292 299.816 186.087 299.645 186.087C299.587 186.087 299.507 186.239 299.466 186.426C299.425 186.613 299.345 186.766 299.287 186.766C299.23 186.766 299.183 186.842 299.183 186.935C299.183 187.029 299.125 187.105 299.055 187.105C298.984 187.105 298.808 187.232 298.664 187.388C298.451 187.618 298.294 187.671 297.83 187.671C297.516 187.671 297.259 187.722 297.259 187.784C297.259 187.849 296.901 187.897 296.41 187.897C295.92 187.897 295.561 187.849 295.561 187.784C295.561 187.717 295.128 187.671 294.486 187.671H293.411V192.537H295.844C297.183 192.537 298.278 192.581 298.278 192.635C298.278 192.689 298.454 192.762 298.67 192.797C299.152 192.875 299.749 193.454 299.749 193.842C299.749 193.996 299.8 194.121 299.862 194.121C299.924 194.121 299.975 194.299 299.975 194.517C299.975 194.735 299.924 194.913 299.862 194.913C299.8 194.913 299.749 195.117 299.749 195.366C299.749 195.693 299.702 195.819 299.579 195.819C299.486 195.819 299.409 195.873 299.409 195.94C299.409 196.112 299.158 196.341 298.867 196.434C298.729 196.477 298.617 196.56 298.617 196.618C298.617 196.676 298.486 196.724 298.326 196.724C298.166 196.724 297.959 196.8 297.865 196.894C297.736 197.023 297.413 197.063 296.507 197.063C295.602 197.063 295.278 197.023 295.149 196.894C295.056 196.8 294.779 196.724 294.535 196.724C294.29 196.724 294.09 196.677 294.09 196.62C294.09 196.562 293.937 196.482 293.751 196.441C293.564 196.4 293.411 196.32 293.411 196.262C293.411 196.205 293.335 196.158 293.241 196.158C293.148 196.158 293.072 196.082 293.072 195.988C293.072 195.883 292.965 195.819 292.789 195.819C292.633 195.819 292.506 195.768 292.506 195.705C292.506 195.643 292.429 195.592 292.336 195.592C292.19 195.592 292.166 195.925 292.166 197.912C292.166 200.412 292.232 200.685 292.833 200.685C292.951 200.685 293.077 200.761 293.112 200.854C293.148 200.948 293.306 201.024 293.464 201.024C293.622 201.024 293.751 201.068 293.751 201.123C293.751 201.177 293.954 201.254 294.203 201.294C294.452 201.334 294.656 201.416 294.656 201.478C294.656 201.68 300.523 201.624 300.727 201.42C300.821 201.327 301.046 201.25 301.228 201.25C301.411 201.25 301.56 201.206 301.56 201.152C301.56 201.097 301.764 201.02 302.013 200.981C302.262 200.941 302.465 200.858 302.465 200.796C302.465 200.735 302.587 200.685 302.736 200.685C302.885 200.685 303.036 200.608 303.072 200.515C303.108 200.421 303.248 200.345 303.382 200.345C303.517 200.345 303.737 200.227 303.87 200.083C304.004 199.939 304.277 199.725 304.478 199.606C304.678 199.488 304.875 199.287 304.914 199.161C304.954 199.034 305.107 198.818 305.254 198.681C305.401 198.544 305.521 198.379 305.521 198.314C305.521 198.248 305.571 198.195 305.632 198.195C305.693 198.195 305.775 198.068 305.814 197.912C305.853 197.756 305.931 197.629 305.986 197.629C306.042 197.629 306.087 197.512 306.087 197.368C306.087 197.224 306.162 197.008 306.253 196.887C306.495 196.568 306.501 193.244 306.26 192.926C306.169 192.806 306.093 192.592 306.091 192.452C306.089 192.312 306.042 192.197 305.986 192.197C305.931 192.197 305.853 192.07 305.814 191.914C305.775 191.759 305.693 191.632 305.632 191.632C305.571 191.632 305.521 191.577 305.521 191.51C305.521 191.351 304.896 190.726 304.738 190.726C304.671 190.726 304.616 190.65 304.616 190.557C304.616 190.453 304.51 190.387 304.345 190.387C304.196 190.387 304.045 190.31 304.009 190.217C303.973 190.124 303.815 190.047 303.657 190.047C303.427 190.047 303.371 189.992 303.371 189.764C303.371 189.526 303.424 189.482 303.71 189.482C303.937 189.482 304.05 189.425 304.05 189.312C304.05 189.206 304.157 189.142 304.333 189.142C304.488 189.142 304.616 189.087 304.616 189.021C304.616 188.864 304.904 188.576 305.06 188.576C305.127 188.576 305.182 188.449 305.182 188.293C305.182 188.117 305.246 188.01 305.351 188.01C305.464 188.01 305.521 187.897 305.521 187.671C305.521 187.484 305.568 187.331 305.626 187.331C305.684 187.331 305.766 187.051 305.809 186.709C305.852 186.367 305.932 186.087 305.987 186.087C306.042 186.087 306.087 185.552 306.087 184.898C306.087 184.191 306.042 183.71 305.975 183.71C305.914 183.71 305.831 183.507 305.791 183.258C305.751 183.009 305.674 182.805 305.62 182.805C305.565 182.805 305.521 182.683 305.521 182.534C305.521 182.385 305.445 182.234 305.351 182.198C305.258 182.162 305.182 182.053 305.182 181.954C305.182 181.856 305.054 181.658 304.899 181.514C304.743 181.369 304.616 181.194 304.616 181.123C304.616 181.052 304.539 180.994 304.446 180.994C304.353 180.994 304.276 180.918 304.276 180.825C304.276 180.731 304.212 180.655 304.133 180.655C304.055 180.655 303.895 180.528 303.778 180.372C303.661 180.216 303.476 180.089 303.367 180.089C303.258 180.089 303.139 180.013 303.103 179.919C303.068 179.826 302.909 179.75 302.752 179.75C302.594 179.75 302.465 179.699 302.465 179.636C302.465 179.574 302.338 179.523 302.182 179.523C302.006 179.523 301.899 179.459 301.899 179.353C301.899 179.232 301.775 179.184 301.456 179.184C301.212 179.184 300.993 179.123 300.968 179.049C300.941 178.97 300.612 178.895 300.166 178.866C299.75 178.84 299.409 178.773 299.409 178.718C299.409 178.663 298.518 178.618 297.429 178.618C296.34 178.618 295.448 178.663 295.448 178.718ZM318.537 178.718C318.537 178.773 318.196 178.84 317.78 178.866C317.334 178.895 317.005 178.97 316.978 179.049C316.951 179.129 316.707 179.184 316.377 179.184C315.958 179.184 315.82 179.226 315.82 179.353C315.82 179.467 315.707 179.523 315.481 179.523C315.294 179.523 315.141 179.574 315.141 179.636C315.141 179.699 315.038 179.75 314.911 179.75C314.785 179.75 314.652 179.826 314.616 179.919C314.58 180.013 314.435 180.089 314.292 180.089C314.15 180.089 314.004 180.165 313.968 180.259C313.933 180.352 313.823 180.429 313.725 180.429C313.626 180.429 313.428 180.556 313.284 180.711C313.139 180.867 312.964 180.994 312.893 180.994C312.822 180.994 312.764 181.071 312.764 181.164C312.764 181.257 312.688 181.334 312.595 181.334C312.501 181.334 312.425 181.384 312.425 181.445C312.425 181.506 312.298 181.588 312.142 181.627C311.986 181.666 311.859 181.771 311.859 181.861C311.859 181.95 311.732 182.142 311.576 182.286C311.42 182.43 311.293 182.606 311.293 182.676C311.293 182.747 311.217 182.805 311.123 182.805C311.03 182.805 310.954 182.881 310.954 182.975C310.954 183.068 310.904 183.144 310.843 183.144C310.782 183.144 310.7 183.272 310.661 183.427C310.622 183.583 310.55 183.71 310.501 183.71C310.452 183.71 310.38 183.838 310.341 183.993C310.302 184.149 310.22 184.276 310.159 184.276C310.098 184.276 310.048 184.356 310.048 184.454C310.048 184.552 309.972 184.708 309.878 184.801C309.785 184.895 309.709 185.095 309.709 185.246C309.709 185.397 309.658 185.521 309.595 185.521C309.533 185.521 309.482 185.67 309.482 185.852C309.482 186.034 309.406 186.26 309.313 186.353C309.21 186.456 309.143 186.732 309.143 187.049C309.143 187.365 309.075 187.641 308.973 187.744C308.833 187.883 308.803 188.32 308.803 190.217C308.803 192.114 308.833 192.551 308.973 192.69C309.078 192.796 309.143 193.073 309.143 193.422C309.143 193.817 309.193 194.003 309.313 194.049C309.419 194.09 309.482 194.263 309.482 194.514C309.482 194.733 309.533 194.913 309.595 194.913C309.658 194.913 309.709 195.042 309.709 195.2C309.709 195.357 309.785 195.516 309.878 195.551C309.972 195.587 310.048 195.738 310.048 195.887C310.048 196.052 310.114 196.158 310.218 196.158C310.324 196.158 310.388 196.265 310.388 196.441C310.388 196.597 310.439 196.724 310.501 196.724C310.563 196.724 310.614 196.8 310.614 196.894C310.614 196.987 310.69 197.063 310.784 197.063C310.889 197.063 310.954 197.17 310.954 197.346C310.954 197.522 311.018 197.629 311.123 197.629C311.217 197.629 311.293 197.684 311.293 197.75C311.293 197.907 311.581 198.195 311.738 198.195C311.804 198.195 311.859 198.271 311.859 198.365C311.859 198.458 311.935 198.534 312.029 198.534C312.122 198.534 312.199 198.589 312.199 198.656C312.199 198.837 312.792 199.397 313.08 199.489C313.218 199.532 313.33 199.616 313.33 199.674C313.33 199.732 313.407 199.779 313.5 199.779C313.593 199.779 313.67 199.827 313.67 199.885C313.67 199.943 313.785 200.026 313.925 200.07C314.065 200.114 314.205 200.181 314.236 200.219C314.343 200.35 315.046 200.685 315.215 200.685C315.308 200.685 315.46 200.761 315.554 200.854C315.647 200.948 315.872 201.024 316.055 201.024C316.237 201.024 316.386 201.068 316.386 201.123C316.386 201.177 316.641 201.255 316.952 201.296C317.263 201.338 317.518 201.42 317.518 201.481C317.518 201.548 318.644 201.59 320.461 201.59C322.195 201.59 323.403 201.547 323.403 201.485C323.403 201.427 323.683 201.345 324.026 201.302C324.368 201.259 324.648 201.179 324.648 201.124C324.648 201.069 324.772 201.024 324.923 201.024C325.074 201.024 325.274 200.948 325.368 200.854C325.461 200.761 325.668 200.685 325.828 200.685C325.989 200.685 326.119 200.635 326.119 200.574C326.119 200.513 326.247 200.431 326.402 200.392C326.558 200.353 326.685 200.281 326.685 200.232C326.685 200.183 326.813 200.111 326.968 200.072C327.124 200.033 327.251 199.951 327.251 199.89C327.251 199.829 327.328 199.779 327.421 199.779C327.514 199.779 327.591 199.732 327.591 199.674C327.591 199.616 327.701 199.533 327.835 199.491C327.969 199.448 328.191 199.292 328.329 199.144C328.466 198.995 328.637 198.874 328.707 198.874C328.778 198.874 328.836 198.817 328.836 198.748C328.836 198.678 329.083 198.385 329.385 198.097C329.688 197.809 329.971 197.458 330.015 197.318C330.06 197.178 330.143 197.063 330.201 197.063C330.26 197.063 330.307 196.987 330.307 196.894C330.307 196.8 330.357 196.724 330.418 196.724C330.479 196.724 330.561 196.597 330.6 196.441C330.639 196.285 330.711 196.158 330.76 196.158C330.809 196.158 330.88 196.031 330.919 195.875C330.958 195.72 331.04 195.592 331.101 195.592C331.163 195.592 331.212 195.443 331.212 195.261C331.212 195.079 331.289 194.853 331.382 194.76C331.476 194.666 331.552 194.459 331.552 194.299C331.552 194.139 331.596 194.008 331.651 194.008C331.705 194.008 331.785 193.69 331.829 193.302C331.873 192.914 331.963 192.563 332.028 192.523C332.184 192.426 332.185 187.783 332.03 187.684C331.969 187.646 331.883 187.347 331.838 187.02C331.794 186.694 331.711 186.426 331.655 186.426C331.598 186.426 331.552 186.246 331.552 186.027C331.552 185.776 331.489 185.603 331.382 185.562C331.279 185.522 331.212 185.351 331.212 185.125C331.212 184.899 331.146 184.727 331.043 184.688C330.949 184.652 330.873 184.545 330.873 184.449C330.873 184.354 330.822 184.276 330.76 184.276C330.698 184.276 330.647 184.149 330.647 183.993C330.647 183.817 330.582 183.71 330.477 183.71C330.371 183.71 330.307 183.603 330.307 183.427C330.307 183.251 330.243 183.144 330.137 183.144C330.044 183.144 329.968 183.087 329.968 183.016C329.968 182.945 329.84 182.77 329.685 182.625C329.529 182.481 329.402 182.332 329.402 182.293C329.402 182.178 329.087 181.9 328.957 181.9C328.89 181.9 328.836 181.823 328.836 181.73C328.836 181.637 328.784 181.56 328.721 181.56C328.658 181.56 328.353 181.306 328.043 180.994C327.734 180.683 327.378 180.429 327.253 180.429C327.126 180.429 327.025 180.354 327.025 180.259C327.025 180.155 326.919 180.089 326.754 180.089C326.605 180.089 326.454 180.013 326.418 179.919C326.382 179.826 326.224 179.75 326.066 179.75C325.909 179.75 325.78 179.699 325.78 179.636C325.78 179.574 325.665 179.522 325.525 179.52C325.385 179.518 325.172 179.441 325.051 179.35C324.93 179.259 324.641 179.184 324.41 179.184C324.178 179.184 323.968 179.124 323.944 179.051C323.919 178.977 323.592 178.896 323.199 178.868C322.813 178.84 322.498 178.772 322.498 178.718C322.498 178.663 321.607 178.618 320.517 178.618C319.428 178.618 318.537 178.663 318.537 178.718ZM97.5763 179.258C97.5343 179.3 97.5 180.65 97.5 182.258V185.181H101.801V201.027L108.761 200.967L108.819 185.181H110.91C113.418 185.181 113.137 185.597 113.094 181.956L113.062 179.24L105.357 179.211C101.12 179.195 97.6182 179.216 97.5763 179.258ZM145.71 186.398C145.707 192.562 145.682 193.644 145.54 193.832C145.449 193.952 145.374 194.194 145.374 194.369C145.374 194.544 145.327 194.687 145.269 194.687C145.211 194.687 145.127 194.801 145.083 194.942C144.989 195.238 144.615 195.592 144.395 195.592C144.311 195.592 144.242 195.643 144.242 195.705C144.242 195.768 144.044 195.819 143.802 195.819C143.515 195.819 143.339 195.878 143.296 195.988C143.21 196.213 142.478 196.21 142.043 195.984C141.414 195.656 141.406 195.689 141.439 198.447L141.47 200.967L141.781 201.003C141.952 201.023 142.092 201.087 142.092 201.145C142.092 201.206 142.922 201.25 144.073 201.25C145.162 201.25 146.053 201.206 146.053 201.151C146.053 201.096 146.369 201.028 146.754 201.001C147.148 200.972 147.475 200.892 147.499 200.817C147.524 200.744 147.743 200.685 147.987 200.685C148.305 200.685 148.43 200.637 148.43 200.515C148.43 200.409 148.537 200.345 148.713 200.345C148.869 200.345 148.996 200.3 148.996 200.244C148.996 200.189 149.123 200.111 149.279 200.072C149.435 200.033 149.562 199.951 149.562 199.89C149.562 199.829 149.611 199.779 149.671 199.779C149.849 199.779 150.769 198.832 150.855 198.56C150.899 198.421 150.983 198.308 151.041 198.308C151.099 198.308 151.146 198.237 151.146 198.151C151.146 198.064 151.223 197.964 151.316 197.928C151.423 197.887 151.486 197.714 151.486 197.463C151.486 197.243 151.53 197.063 151.585 197.063C151.639 197.063 151.716 196.86 151.756 196.611C151.796 196.362 151.878 196.158 151.94 196.158C152.012 196.158 152.052 194.209 152.052 190.67C152.052 185.867 152.073 185.181 152.222 185.181C152.315 185.181 152.391 185.13 152.391 185.068C152.391 184.857 156.202 184.922 156.284 185.134C156.322 185.232 156.353 188.849 156.353 193.17V201.028L162.634 200.967L162.692 179.184H145.714L145.71 186.398ZM165.067 201.03L171.254 200.999C176.081 200.974 177.452 200.936 177.489 200.826C177.517 200.741 177.745 200.683 178.064 200.681C178.354 200.679 178.691 200.603 178.812 200.511C178.933 200.42 179.149 200.345 179.293 200.345C179.436 200.345 179.554 200.298 179.554 200.241C179.554 200.184 179.707 200.103 179.894 200.062C180.08 200.021 180.233 199.941 180.233 199.883C180.233 199.826 180.36 199.779 180.516 199.779C180.692 199.779 180.799 199.715 180.799 199.61C180.799 199.516 180.875 199.44 180.969 199.44C181.062 199.44 181.139 199.385 181.139 199.319C181.139 199.162 181.426 198.874 181.583 198.874C181.65 198.874 181.704 198.798 181.704 198.704C181.704 198.611 181.781 198.534 181.874 198.534C181.98 198.534 182.044 198.428 182.044 198.252C182.044 198.096 182.094 197.969 182.155 197.969C182.216 197.969 182.298 197.841 182.337 197.686C182.376 197.53 182.453 197.403 182.509 197.403C182.564 197.403 182.61 197.25 182.61 197.063C182.61 196.837 182.666 196.724 182.78 196.724C182.925 196.724 182.949 196.397 182.949 194.461C182.949 192.524 182.925 192.197 182.78 192.197C182.657 192.197 182.61 192.072 182.61 191.745C182.61 191.418 182.563 191.292 182.44 191.292C182.347 191.292 182.27 191.216 182.27 191.122C182.27 191.029 182.219 190.953 182.157 190.953C182.095 190.953 182.044 190.825 182.044 190.67C182.044 190.494 181.98 190.387 181.874 190.387C181.781 190.387 181.704 190.31 181.704 190.217C181.704 190.124 181.65 190.047 181.583 190.047C181.426 190.047 181.139 189.759 181.139 189.603C181.139 189.536 181.062 189.482 180.969 189.482C180.875 189.482 180.799 189.436 180.799 189.381C180.799 189.325 180.672 189.248 180.516 189.209C180.36 189.17 180.233 189.088 180.233 189.027C180.233 188.966 180.104 188.916 179.947 188.916C179.789 188.916 179.631 188.839 179.595 188.746C179.555 188.643 179.384 188.576 179.158 188.576C178.932 188.576 178.76 188.51 178.721 188.406C178.678 188.295 178.502 188.237 178.209 188.237C177.963 188.237 177.743 188.179 177.719 188.108C177.689 188.018 176.837 187.962 174.908 187.923C173.055 187.885 172.113 187.825 172.058 187.741C172.012 187.671 171.974 185.718 171.973 183.399L171.971 179.184H165.067V201.03ZM192.548 179.304C192.526 179.37 192.115 179.453 191.633 179.49C191.152 179.526 190.759 179.593 190.759 179.638C190.759 179.684 190.555 179.753 190.306 179.793C190.057 179.833 189.853 179.916 189.853 179.977C189.853 180.039 189.726 180.089 189.57 180.089C189.394 180.089 189.287 180.153 189.287 180.259C189.287 180.366 189.18 180.429 188.996 180.429C188.836 180.429 188.634 180.492 188.547 180.57C188.222 180.862 188.05 180.994 187.997 180.994C187.866 180.994 186.926 182.011 186.858 182.227C186.816 182.358 186.735 182.465 186.677 182.465C186.619 182.465 186.571 182.52 186.571 182.587C186.571 182.653 186.495 182.784 186.401 182.878C186.308 182.971 186.232 183.146 186.232 183.266C186.232 183.386 186.187 183.484 186.133 183.484C186.079 183.484 186.008 183.724 185.974 184.018C185.941 184.311 185.858 184.57 185.79 184.593C185.627 184.647 185.615 188.576 185.777 188.576C185.839 188.576 185.922 188.78 185.962 189.029C186.002 189.278 186.079 189.482 186.133 189.482C186.187 189.482 186.232 189.603 186.232 189.752C186.232 189.901 186.308 190.052 186.401 190.088C186.495 190.124 186.571 190.234 186.571 190.332C186.571 190.43 186.698 190.629 186.854 190.773C187.01 190.917 187.137 191.093 187.137 191.164C187.137 191.234 187.213 191.292 187.307 191.292C187.4 191.292 187.476 191.368 187.476 191.462C187.476 191.555 187.534 191.632 187.605 191.632C187.676 191.632 187.851 191.759 187.996 191.914C188.14 192.07 188.362 192.197 188.49 192.197C188.62 192.197 188.721 192.272 188.721 192.367C188.721 192.486 188.841 192.537 189.118 192.537C189.335 192.537 189.514 192.588 189.514 192.65C189.514 192.712 189.666 192.763 189.853 192.763C190.22 192.763 190.308 192.99 190.051 193.277C189.763 193.598 189.67 193.73 189.596 193.923C189.555 194.032 189.468 194.121 189.404 194.121C189.34 194.121 189.287 194.248 189.287 194.404C189.287 194.58 189.223 194.687 189.118 194.687C189.024 194.687 188.948 194.763 188.948 194.857C188.948 194.95 188.897 195.026 188.835 195.026C188.772 195.026 188.721 195.128 188.721 195.253C188.721 195.379 188.646 195.479 188.552 195.479C188.458 195.479 188.382 195.559 188.382 195.657C188.382 195.755 188.318 195.906 188.24 195.993C187.952 196.314 187.859 196.446 187.786 196.639C187.744 196.748 187.657 196.837 187.593 196.837C187.529 196.837 187.476 196.933 187.476 197.051C187.476 197.169 187.4 197.295 187.307 197.331C187.213 197.366 187.137 197.474 187.137 197.569C187.137 197.664 187.086 197.742 187.024 197.742C186.962 197.742 186.911 197.844 186.911 197.969C186.911 198.093 186.847 198.196 186.769 198.196C186.691 198.197 186.527 198.413 186.404 198.677C186.281 198.941 186.065 199.269 185.923 199.406C185.782 199.543 185.666 199.736 185.666 199.834C185.666 199.932 185.589 200.042 185.496 200.078C185.402 200.114 185.326 200.192 185.326 200.252C185.326 200.312 185.247 200.44 185.151 200.536C184.753 200.934 184.981 200.967 188.391 200.999C192.099 201.034 192.197 201.025 192.297 200.626C192.336 200.472 192.408 200.345 192.456 200.345C192.505 200.345 192.577 200.218 192.616 200.062C192.655 199.907 192.737 199.779 192.798 199.779C192.859 199.779 192.909 199.703 192.909 199.61C192.909 199.516 192.959 199.44 193.02 199.44C193.081 199.44 193.163 199.312 193.202 199.157C193.241 199.001 193.313 198.874 193.362 198.874C193.411 198.874 193.482 198.747 193.521 198.591C193.56 198.435 193.642 198.308 193.703 198.308C193.765 198.308 193.814 198.232 193.814 198.138C193.814 198.045 193.864 197.969 193.925 197.969C193.986 197.969 194.071 197.829 194.114 197.659C194.157 197.488 194.26 197.281 194.343 197.198C194.426 197.115 194.494 196.974 194.494 196.886C194.494 196.797 194.544 196.724 194.607 196.724C194.669 196.724 194.72 196.648 194.72 196.554C194.72 196.461 194.77 196.384 194.831 196.384C194.892 196.384 194.974 196.257 195.013 196.101C195.052 195.946 195.124 195.819 195.173 195.819C195.221 195.819 195.293 195.691 195.332 195.536C195.371 195.38 195.453 195.253 195.514 195.253C195.575 195.253 195.625 195.176 195.625 195.083C195.625 194.99 195.675 194.913 195.736 194.913C195.797 194.913 195.879 194.786 195.918 194.63C195.957 194.475 196.029 194.347 196.078 194.347C196.127 194.347 196.199 194.22 196.238 194.065C196.29 193.858 196.384 193.782 196.589 193.782H196.87V201.024H203.548V179.184H198.068C194.31 179.184 192.576 179.221 192.548 179.304ZM205.924 185.176L210.169 185.238L210.227 201.024H217.129V185.181H221.43V179.184H205.924V185.176ZM223.807 185.181H228.334V201.024H235.236L235.294 185.238L239.538 185.176V179.184H223.807V185.181ZM242.255 201.024H245.424C248.165 201.024 248.593 201.001 248.593 200.854C248.593 200.761 248.669 200.685 248.762 200.685C248.868 200.685 248.932 200.578 248.932 200.402C248.932 200.246 248.983 200.119 249.045 200.119C249.108 200.119 249.158 200.042 249.158 199.949C249.158 199.856 249.229 199.779 249.316 199.779C249.403 199.779 249.505 199.652 249.545 199.496C249.584 199.341 249.665 199.213 249.726 199.213C249.788 199.213 249.838 199.137 249.838 199.044C249.838 198.95 249.883 198.874 249.938 198.874C249.994 198.874 250.071 198.747 250.11 198.591C250.149 198.435 250.231 198.308 250.292 198.308C250.354 198.308 250.403 198.232 250.403 198.138C250.403 198.045 250.48 197.969 250.573 197.969C250.679 197.969 250.743 197.862 250.743 197.686C250.743 197.53 250.794 197.403 250.856 197.403C250.918 197.403 250.969 197.326 250.969 197.233C250.969 197.14 251.04 197.063 251.127 197.063C251.213 197.063 251.316 196.936 251.355 196.78C251.394 196.625 251.476 196.498 251.537 196.498C251.598 196.498 251.648 196.421 251.648 196.328C251.648 196.234 251.694 196.158 251.749 196.158C251.805 196.158 251.882 196.031 251.921 195.875C251.96 195.72 252.042 195.592 252.103 195.592C252.164 195.592 252.214 195.516 252.214 195.423C252.214 195.329 252.291 195.253 252.384 195.253C252.49 195.253 252.554 195.146 252.554 194.97C252.554 194.814 252.605 194.687 252.667 194.687C252.729 194.687 252.78 194.611 252.78 194.517C252.78 194.424 252.851 194.347 252.938 194.347C253.024 194.347 253.127 194.22 253.166 194.065C253.205 193.909 253.287 193.782 253.348 193.782C253.409 193.782 253.459 193.705 253.459 193.612C253.459 193.519 253.505 193.442 253.56 193.442C253.616 193.442 253.693 193.315 253.732 193.159C253.771 193.004 253.853 192.876 253.914 192.876C253.975 192.876 254.025 192.805 254.025 192.719C254.025 192.632 254.102 192.532 254.195 192.496C254.288 192.46 254.365 192.35 254.365 192.252C254.365 192.154 254.485 191.961 254.632 191.824C254.779 191.687 254.935 191.46 254.979 191.32C255.023 191.18 255.106 191.066 255.164 191.066C255.223 191.066 255.27 190.989 255.27 190.896C255.27 190.803 255.315 190.726 255.371 190.726C255.426 190.726 255.504 190.599 255.543 190.443C255.582 190.288 255.664 190.16 255.725 190.16C255.786 190.16 255.836 190.084 255.836 189.991C255.836 189.897 255.912 189.821 256.006 189.821C256.154 189.821 256.175 190.511 256.175 195.354C256.175 200.295 256.195 200.894 256.355 200.955C256.453 200.993 257.955 201.024 259.693 201.024H262.853V179.184H259.514C256.622 179.184 256.175 179.206 256.175 179.353C256.175 179.447 256.099 179.523 256.006 179.523C255.9 179.523 255.836 179.63 255.836 179.806C255.836 179.962 255.785 180.089 255.723 180.089C255.661 180.089 255.61 180.165 255.61 180.259C255.61 180.352 255.533 180.429 255.44 180.429C255.334 180.429 255.27 180.535 255.27 180.711C255.27 180.888 255.206 180.994 255.1 180.994C254.995 180.994 254.931 181.101 254.931 181.277C254.931 181.433 254.88 181.56 254.817 181.56C254.755 181.56 254.704 181.637 254.704 181.73C254.704 181.823 254.628 181.9 254.534 181.9C254.428 181.9 254.365 182.007 254.365 182.186C254.365 182.344 254.288 182.502 254.195 182.538C254.102 182.574 254.025 182.706 254.025 182.832C254.025 182.959 253.898 183.18 253.742 183.324C253.587 183.468 253.459 183.691 253.459 183.818C253.459 183.949 253.385 184.05 253.289 184.05C253.184 184.05 253.12 184.157 253.12 184.333C253.12 184.488 253.069 184.616 253.007 184.616C252.944 184.616 252.893 184.692 252.893 184.785C252.893 184.879 252.817 184.955 252.724 184.955C252.62 184.955 252.554 185.061 252.554 185.226C252.554 185.375 252.477 185.526 252.384 185.562C252.291 185.598 252.214 185.73 252.214 185.857C252.214 185.983 252.163 186.087 252.101 186.087C252.039 186.087 251.988 186.165 251.988 186.26C251.988 186.355 251.912 186.463 251.818 186.498C251.725 186.534 251.648 186.685 251.648 186.834C251.648 187 251.582 187.105 251.479 187.105C251.381 187.105 251.309 187.207 251.309 187.347C251.309 187.48 251.182 187.706 251.026 187.851C250.87 187.995 250.743 188.217 250.743 188.344C250.743 188.475 250.669 188.576 250.573 188.576C250.468 188.576 250.403 188.683 250.403 188.859C250.403 189.015 250.352 189.142 250.29 189.142C250.228 189.142 250.177 189.218 250.177 189.312C250.177 189.405 250.101 189.482 250.007 189.482C249.904 189.482 249.838 189.587 249.838 189.752C249.838 189.901 249.761 190.052 249.668 190.088C249.574 190.124 249.498 190.257 249.498 190.383C249.498 190.656 249.325 190.688 249.227 190.434C249.189 190.336 249.158 187.764 249.158 184.719V179.184H242.255V201.024ZM273.422 179.636C273.382 179.885 273.305 180.089 273.251 180.089C273.197 180.089 273.152 180.238 273.152 180.42C273.152 180.603 273.076 180.828 272.982 180.922C272.889 181.015 272.813 181.268 272.813 181.483C272.813 181.728 272.749 181.9 272.643 181.941C272.55 181.976 272.473 182.135 272.473 182.292C272.473 182.45 272.422 182.579 272.36 182.579C272.298 182.579 272.247 182.758 272.247 182.978C272.247 183.229 272.184 183.402 272.077 183.443C271.972 183.483 271.907 183.655 271.907 183.892C271.907 184.103 271.857 184.276 271.795 184.276C271.734 184.276 271.651 184.48 271.611 184.729C271.571 184.978 271.494 185.181 271.44 185.181C271.386 185.181 271.341 185.33 271.341 185.513C271.341 185.695 271.265 185.921 271.172 186.014C271.078 186.107 271.002 186.315 271.002 186.475C271.002 186.635 270.951 186.766 270.89 186.766C270.828 186.766 270.746 186.969 270.706 187.218C270.666 187.467 270.595 187.671 270.549 187.671C270.503 187.671 270.432 187.875 270.392 188.124C270.353 188.373 270.27 188.576 270.208 188.576C270.147 188.576 270.096 188.78 270.096 189.029C270.096 189.278 270.046 189.482 269.985 189.482C269.923 189.482 269.84 189.685 269.8 189.934C269.76 190.183 269.683 190.387 269.629 190.387C269.575 190.387 269.53 190.516 269.53 190.673C269.53 190.831 269.454 190.989 269.361 191.025C269.255 191.065 269.191 191.238 269.191 191.482C269.191 191.698 269.115 191.95 269.021 192.044C268.928 192.137 268.851 192.337 268.851 192.488C268.851 192.64 268.8 192.763 268.738 192.763C268.676 192.763 268.625 192.912 268.625 193.095C268.625 193.277 268.549 193.502 268.455 193.596C268.362 193.689 268.286 193.942 268.286 194.158C268.286 194.402 268.221 194.574 268.116 194.615C268.009 194.656 267.946 194.829 267.946 195.08C267.946 195.299 267.895 195.479 267.833 195.479C267.771 195.479 267.72 195.632 267.72 195.819C267.72 196.045 267.663 196.158 267.55 196.158C267.431 196.158 267.38 196.278 267.38 196.562C267.38 196.785 267.304 197.043 267.21 197.136C267.117 197.229 267.041 197.455 267.041 197.637C267.041 197.82 266.996 197.969 266.942 197.969C266.888 197.969 266.811 198.172 266.771 198.421C266.731 198.67 266.648 198.874 266.587 198.874C266.525 198.874 266.475 199.021 266.475 199.2C266.475 199.379 266.398 199.589 266.305 199.666C266.212 199.744 266.135 199.954 266.135 200.133C266.135 200.312 266.084 200.458 266.022 200.458C265.96 200.458 265.909 200.586 265.909 200.741V201.024H272.813V200.733C272.813 200.573 272.889 200.366 272.982 200.272C273.076 200.179 273.152 199.979 273.152 199.828C273.152 199.677 273.203 199.553 273.265 199.553C273.328 199.553 273.379 199.4 273.379 199.213C273.379 198.987 273.435 198.874 273.548 198.874C273.661 198.874 273.718 198.761 273.718 198.534C273.718 198.308 273.775 198.195 273.888 198.195C273.981 198.195 274.058 198.144 274.058 198.082C274.058 198.009 275.265 197.969 277.453 197.969C281.228 197.969 281.301 197.983 281.301 198.749C281.301 198.935 281.374 199.104 281.471 199.141C281.564 199.177 281.641 199.335 281.641 199.493C281.641 199.65 281.691 199.779 281.754 199.779C281.816 199.779 281.867 199.903 281.867 200.054C281.867 200.205 281.943 200.405 282.037 200.499C282.13 200.592 282.206 200.748 282.206 200.846C282.206 201.004 282.601 201.024 285.72 201.024H289.234L289.156 200.6C289.113 200.366 289.034 200.158 288.981 200.138C288.927 200.117 288.884 199.955 288.884 199.778C288.884 199.601 288.808 199.38 288.714 199.286C288.621 199.193 288.544 198.986 288.544 198.825C288.544 198.665 288.494 198.534 288.433 198.534C288.371 198.534 288.288 198.331 288.248 198.082C288.208 197.833 288.138 197.629 288.092 197.629C288.045 197.629 287.975 197.425 287.935 197.177C287.895 196.928 287.812 196.724 287.751 196.724C287.689 196.724 287.639 196.597 287.639 196.441C287.639 196.285 287.589 196.158 287.527 196.158C287.466 196.158 287.383 195.954 287.343 195.705C287.303 195.456 287.226 195.253 287.172 195.253C287.117 195.253 287.073 195.104 287.073 194.921C287.073 194.739 286.997 194.514 286.903 194.42C286.81 194.327 286.734 194.141 286.734 194.008C286.734 193.875 286.657 193.689 286.564 193.596C286.47 193.502 286.394 193.277 286.394 193.095C286.394 192.912 286.343 192.763 286.281 192.763C286.219 192.763 286.168 192.64 286.168 192.488C286.168 192.337 286.091 192.137 285.998 192.044C285.905 191.95 285.828 191.743 285.828 191.583C285.828 191.423 285.778 191.292 285.716 191.292C285.655 191.292 285.572 191.088 285.532 190.839C285.492 190.59 285.415 190.387 285.361 190.387C285.307 190.387 285.262 190.238 285.262 190.055C285.262 189.873 285.186 189.648 285.092 189.554C284.999 189.461 284.923 189.203 284.923 188.98C284.923 188.697 284.872 188.576 284.753 188.576C284.64 188.576 284.583 188.463 284.583 188.237C284.583 188.05 284.532 187.897 284.47 187.897C284.408 187.897 284.357 187.774 284.357 187.622C284.357 187.471 284.28 187.271 284.187 187.178C284.094 187.085 284.017 186.832 284.017 186.616C284.017 186.372 283.953 186.199 283.847 186.159C283.754 186.123 283.678 185.965 283.678 185.807C283.678 185.65 283.633 185.521 283.579 185.521C283.525 185.521 283.448 185.317 283.408 185.068C283.368 184.819 283.285 184.616 283.224 184.616C283.162 184.616 283.112 184.412 283.112 184.163C283.112 183.836 283.065 183.71 282.942 183.71C282.836 183.71 282.772 183.603 282.772 183.427C282.772 183.272 282.728 183.144 282.674 183.144C282.619 183.144 282.542 182.941 282.503 182.692C282.463 182.443 282.38 182.239 282.318 182.239C282.257 182.239 282.206 182.035 282.206 181.786C282.206 181.46 282.159 181.334 282.037 181.334C281.923 181.334 281.867 181.221 281.867 180.994C281.867 180.808 281.823 180.655 281.768 180.655C281.714 180.655 281.637 180.451 281.597 180.202C281.557 179.953 281.474 179.75 281.413 179.75C281.351 179.75 281.301 179.622 281.301 179.467V179.184H273.494L273.422 179.636ZM334.268 185.181H338.795V201.024L342.106 201.022C343.927 201.021 345.48 200.98 345.557 200.931C345.666 200.862 345.704 199.109 345.727 193.04L345.756 185.238L350 185.176V179.184H334.268V185.181ZM128.715 184.493C128.738 184.56 128.904 184.616 129.086 184.616C129.268 184.616 129.416 184.665 129.416 184.727C129.416 184.788 129.543 184.869 129.699 184.909C129.855 184.948 129.982 185.022 129.982 185.073C129.982 185.124 130.087 185.199 130.214 185.24C130.522 185.338 131.069 185.88 131.165 186.184C131.208 186.317 131.29 186.426 131.348 186.426C131.406 186.426 131.453 186.503 131.453 186.596C131.453 186.689 131.53 186.766 131.623 186.766C131.742 186.766 131.793 186.886 131.793 187.17C131.793 187.392 131.869 187.65 131.963 187.744C132.056 187.837 132.132 188.063 132.132 188.245C132.132 188.427 132.183 188.576 132.246 188.576C132.315 188.576 132.359 189.161 132.359 190.104C132.359 190.944 132.315 191.632 132.26 191.632C132.206 191.632 132.135 191.872 132.102 192.165C132.069 192.459 131.986 192.718 131.917 192.741C131.849 192.763 131.793 192.931 131.793 193.112C131.793 193.33 131.735 193.442 131.623 193.442C131.525 193.442 131.453 193.544 131.453 193.684C131.453 193.817 131.326 194.043 131.17 194.188C131.015 194.332 130.887 194.503 130.887 194.568C130.887 194.634 130.823 194.687 130.745 194.687C130.666 194.687 130.506 194.814 130.389 194.97C130.272 195.125 130.129 195.253 130.071 195.253C130.013 195.253 129.889 195.329 129.796 195.423C129.703 195.516 129.503 195.592 129.352 195.592C129.2 195.592 129.077 195.643 129.077 195.705C129.077 195.768 128.877 195.819 128.633 195.819C128.39 195.819 128.17 195.877 128.147 195.949C128.072 196.172 126.872 196.212 126.571 196.002C126.428 195.901 126.118 195.819 125.882 195.819C125.647 195.819 125.455 195.772 125.455 195.714C125.455 195.657 125.302 195.577 125.115 195.536C124.929 195.495 124.776 195.414 124.776 195.357C124.776 195.3 124.703 195.253 124.615 195.253C124.369 195.253 123.305 194.147 123.305 193.892C123.305 193.769 123.229 193.669 123.135 193.669C123.029 193.669 122.965 193.562 122.965 193.386C122.965 193.23 122.914 193.103 122.852 193.103C122.79 193.103 122.739 192.974 122.739 192.816C122.739 192.659 122.662 192.5 122.569 192.465C122.439 192.415 122.399 192.202 122.399 191.563C122.399 191.081 122.351 190.726 122.286 190.726C122.224 190.726 122.173 190.446 122.173 190.104C122.173 189.762 122.224 189.482 122.286 189.482C122.35 189.482 122.399 189.161 122.399 188.746C122.399 188.337 122.449 188.01 122.511 188.01C122.573 188.01 122.655 187.807 122.695 187.558C122.735 187.309 122.812 187.105 122.866 187.105C122.921 187.105 122.965 187.027 122.965 186.932C122.965 186.836 123.041 186.729 123.135 186.693C123.228 186.658 123.305 186.555 123.305 186.465C123.305 186.376 123.432 186.184 123.588 186.04C123.743 185.896 123.87 185.72 123.87 185.649C123.87 185.579 123.947 185.521 124.04 185.521C124.134 185.521 124.21 185.444 124.21 185.351C124.21 185.258 124.286 185.181 124.38 185.181C124.473 185.181 124.549 185.13 124.549 185.068C124.549 185.006 124.677 184.955 124.832 184.955C125.009 184.955 125.115 184.891 125.115 184.785C125.115 184.663 125.241 184.616 125.568 184.616C125.817 184.616 126.021 184.568 126.021 184.511C126.021 184.257 128.631 184.24 128.715 184.493ZM321.794 184.486C321.818 184.557 321.982 184.616 322.16 184.616C322.337 184.616 322.558 184.692 322.651 184.785C322.745 184.879 322.876 184.955 322.942 184.955C323.009 184.955 323.064 185 323.064 185.056C323.064 185.111 323.191 185.189 323.347 185.228C323.502 185.267 323.63 185.349 323.63 185.41C323.63 185.471 323.706 185.521 323.799 185.521C323.893 185.521 323.969 185.597 323.969 185.691C323.969 185.784 324.045 185.86 324.139 185.86C324.232 185.86 324.309 185.937 324.309 186.03C324.309 186.123 324.354 186.2 324.41 186.2C324.465 186.2 324.542 186.327 324.581 186.483C324.621 186.638 324.702 186.766 324.763 186.766C324.825 186.766 324.874 186.887 324.874 187.036C324.874 187.185 324.951 187.337 325.044 187.372C325.15 187.413 325.214 187.585 325.214 187.828C325.214 188.042 325.267 188.235 325.332 188.257C325.479 188.306 325.495 192.092 325.349 192.188C325.293 192.224 325.212 192.445 325.169 192.678C325.126 192.912 325.042 193.103 324.983 193.103C324.923 193.103 324.874 193.207 324.874 193.334C324.874 193.462 324.747 193.684 324.592 193.828C324.436 193.973 324.309 194.148 324.309 194.219C324.309 194.29 324.232 194.347 324.139 194.347C324.045 194.347 323.969 194.402 323.969 194.469C323.969 194.625 323.681 194.913 323.524 194.913C323.458 194.913 323.403 194.99 323.403 195.083C323.403 195.176 323.327 195.253 323.233 195.253C323.14 195.253 323.064 195.3 323.064 195.357C323.064 195.414 322.911 195.495 322.724 195.536C322.537 195.577 322.385 195.657 322.385 195.714C322.385 195.772 322.13 195.819 321.819 195.819C321.391 195.819 321.253 195.86 321.253 195.988C321.253 196.223 319.93 196.22 319.618 195.985C319.498 195.893 319.205 195.819 318.968 195.819C318.731 195.819 318.537 195.773 318.537 195.718C318.537 195.662 318.409 195.585 318.254 195.546C318.098 195.507 317.971 195.425 317.971 195.364C317.971 195.303 317.9 195.253 317.813 195.253C317.726 195.253 317.626 195.176 317.59 195.083C317.554 194.99 317.425 194.913 317.303 194.913C317.171 194.913 317.048 194.809 317 194.659C316.957 194.519 316.8 194.292 316.653 194.155C316.506 194.018 316.386 193.852 316.386 193.787C316.386 193.722 316.336 193.669 316.275 193.669C316.214 193.669 316.132 193.541 316.093 193.386C316.054 193.23 315.977 193.103 315.921 193.103C315.866 193.103 315.82 192.954 315.82 192.771C315.82 192.589 315.744 192.364 315.651 192.27C315.513 192.133 315.481 191.736 315.481 190.177C315.481 188.618 315.513 188.221 315.651 188.083C315.744 187.99 315.82 187.782 315.82 187.622C315.82 187.462 315.871 187.331 315.933 187.331C315.996 187.331 316.047 187.204 316.047 187.049C316.047 186.872 316.111 186.766 316.216 186.766C316.322 186.766 316.386 186.659 316.386 186.483C316.386 186.307 316.45 186.2 316.556 186.2C316.649 186.2 316.726 186.142 316.726 186.072C316.726 185.892 317.5 185.181 317.696 185.181C317.785 185.181 317.857 185.13 317.857 185.068C317.857 185.006 317.934 184.955 318.027 184.955C318.121 184.955 318.197 184.905 318.197 184.843C318.197 184.782 318.401 184.699 318.65 184.659C318.899 184.619 319.102 184.546 319.102 184.496C319.102 184.25 321.713 184.241 321.794 184.486ZM196.87 188.576H194.958C193.363 188.576 193.036 188.548 192.981 188.406C192.945 188.313 192.787 188.237 192.63 188.237C192.472 188.237 192.343 188.186 192.343 188.124C192.343 188.061 192.267 188.01 192.173 188.01C192.08 188.01 192.004 187.934 192.004 187.841C192.004 187.747 191.927 187.671 191.834 187.671C191.711 187.671 191.664 187.545 191.664 187.218C191.664 186.969 191.613 186.766 191.551 186.766C191.489 186.766 191.438 186.689 191.438 186.596C191.438 186.503 191.489 186.426 191.551 186.426C191.613 186.426 191.664 186.246 191.664 186.027C191.664 185.776 191.727 185.603 191.834 185.562C191.927 185.526 192.004 185.426 192.004 185.339C192.004 185.252 192.08 185.181 192.173 185.181C192.267 185.181 192.343 185.13 192.343 185.068C192.343 185.006 192.486 184.955 192.66 184.955C192.834 184.955 193.025 184.909 193.084 184.853C193.27 184.676 193.6 184.642 195.257 184.629L196.87 184.616V188.576ZM277.679 186.03C277.679 186.248 277.724 186.426 277.778 186.426C277.832 186.426 277.909 186.63 277.949 186.879C277.989 187.128 278.072 187.331 278.133 187.331C278.195 187.331 278.245 187.481 278.245 187.663C278.245 187.845 278.322 188.071 278.415 188.164C278.508 188.257 278.585 188.465 278.585 188.625C278.585 188.785 278.629 188.916 278.683 188.916C278.738 188.916 278.815 189.119 278.855 189.368C278.894 189.617 278.977 189.821 279.039 189.821C279.1 189.821 279.151 190.001 279.151 190.221C279.151 190.471 279.214 190.644 279.32 190.685C279.431 190.728 279.49 190.904 279.49 191.191C279.49 191.433 279.541 191.632 279.603 191.632C279.666 191.632 279.716 191.759 279.716 191.914V192.197H275.179L275.257 191.773C275.3 191.54 275.379 191.332 275.432 191.311C275.485 191.29 275.529 191.074 275.529 190.83C275.529 190.512 275.577 190.387 275.699 190.387C275.821 190.387 275.868 190.261 275.868 189.934C275.868 189.685 275.919 189.482 275.98 189.482C276.042 189.482 276.125 189.278 276.165 189.029C276.204 188.78 276.281 188.576 276.336 188.576C276.39 188.576 276.434 188.427 276.434 188.245C276.434 188.063 276.511 187.837 276.604 187.744C276.697 187.65 276.774 187.392 276.774 187.17C276.774 186.947 276.823 186.766 276.882 186.766C276.941 186.766 277.025 186.577 277.069 186.347C277.211 185.587 277.679 185.345 277.679 186.03ZM175.932 192.65C175.932 192.712 176.061 192.763 176.219 192.763C176.376 192.763 176.533 192.835 176.567 192.923C176.6 193.01 176.751 193.113 176.902 193.151C177.101 193.201 177.177 193.298 177.177 193.501C177.177 193.655 177.228 193.782 177.29 193.782C177.353 193.782 177.404 194.083 177.404 194.461C177.404 194.838 177.353 195.14 177.29 195.14C177.228 195.14 177.177 195.22 177.177 195.317C177.177 195.521 176.913 195.819 176.733 195.819C176.666 195.819 176.611 195.895 176.611 195.988C176.611 196.101 176.498 196.158 176.272 196.158C176.085 196.158 175.932 196.209 175.932 196.271C175.932 196.342 175.197 196.384 173.952 196.384H171.971V192.537H173.952C175.197 192.537 175.932 192.579 175.932 192.65Z" fill="black"/>
</svg>
