<svg width="400" height="160" viewBox="0 0 400 160" fill="none" xmlns="http://www.w3.org/2000/svg">
<path d="M72.2713 1.99557H0V118.388H18.9043V19.9531H72.2713V1.99557ZM160.491 19.9531V1.99557H84.0374V118.388H160.491V100.431H102.942V68.0067H156.309V50.0492H102.942V19.9531H160.491ZM229.639 0C195.343 0 168.911 25.9391 168.911 60.1918C168.911 94.4446 195.343 120.384 229.639 120.384C263.934 120.384 290.199 94.4446 290.367 60.1918C290.199 25.9391 263.934 0 229.639 0ZM229.639 17.9579C253.227 17.9579 271.128 35.9158 271.128 60.1918C271.128 84.4682 253.227 102.426 229.639 102.426C205.883 102.426 187.982 84.4682 187.982 60.1918C187.982 35.9158 205.883 17.9579 229.639 17.9579ZM381.096 1.99557V49.5504H321.037V1.99557H302.133V118.388H321.037V67.5079H381.096V118.388H400V1.99557H381.096Z" fill="white"/>
<path d="M11.9036 140.506H0.00305176V159.672H3.11591V143.463H11.9036V140.506ZM31.363 140.506H23.4569V159.672H26.5697V153.183H31.363C35.5779 153.183 38.1399 150.554 38.1399 146.803C38.1399 143.025 35.5779 140.506 31.363 140.506ZM31.2529 150.225H26.5697V143.463H31.2529C33.7875 143.463 34.9717 144.887 34.9717 146.83C34.9717 148.774 33.7875 150.225 31.2529 150.225ZM65.257 140.506H61.7863L56.7726 149.541L51.7039 140.506H48.2052L55.0372 152.881L51.3181 159.672H54.7893L65.257 140.506ZM92.9257 140.506H79.9231H76.8103V159.672H79.9231V143.463H89.8129V159.672H92.9257V140.506ZM121.972 140.506H108.969H105.856V159.672H108.969V143.463H118.859V159.672H121.972V140.506ZM149.089 159.672H152.394L144.929 140.506H140.963L133.497 159.672H136.803L138.759 154.524H147.133L149.089 159.672ZM139.888 151.595L142.946 143.572L146.004 151.595H139.888ZM195.682 159.672L186.977 149.842L195.296 140.506H191.385L183.589 149.267V140.506H180.476V159.672H183.589V150.527L191.743 159.672H195.682ZM214.701 140.177C209.053 140.177 204.701 144.448 204.701 150.089C204.701 155.729 209.053 160 214.701 160C220.348 160 224.673 155.729 224.7 150.089C224.673 144.448 220.348 140.177 214.701 140.177ZM214.701 143.134C218.585 143.134 221.532 146.091 221.532 150.089C221.532 154.086 218.585 157.043 214.701 157.043C210.789 157.043 207.841 154.086 207.841 150.089C207.841 146.091 210.789 143.134 214.701 143.134ZM251.404 140.506L245.867 148.774L240.33 140.506H236.667V159.672H239.779V144.695L245.702 153.621H246.005L251.955 144.695V159.672H255.068V140.506H251.404ZM284.142 140.506H271.139H268.026V159.672H271.139V143.463H281.029V159.672H284.142V140.506ZM311.259 159.672H314.564L307.099 140.506H303.133L295.667 159.672H298.973L300.929 154.524H309.303L311.259 159.672ZM302.058 151.595L305.116 143.572L308.174 151.595H302.058ZM339.12 140.506V148.336H329.231V140.506H326.118V159.672H329.231V151.293H339.12V159.672H342.233V140.506H339.12ZM367.505 140.506L357.863 155.291L358.139 148.528V140.506H355.026V159.672H358.69L368.359 144.859L368.056 151.649V159.672H371.169V140.506H367.505ZM391.923 138.398C394.32 138.398 396.413 136.782 396.413 134.126V133.524H393.934V134.044C393.934 135.249 393.135 136.016 391.923 136.016C390.683 136.016 389.884 135.249 389.884 134.044V133.524H387.405V134.126C387.405 136.782 389.498 138.398 391.923 138.398ZM396.33 140.506L386.689 155.291L386.964 148.528V140.506H383.851V159.672H387.515L397.184 144.859L396.881 151.649V159.672H399.994V140.506H396.33Z" fill="white"/>
</svg>
