<svg width="172" height="172" viewBox="0 0 172 172" fill="none" xmlns="http://www.w3.org/2000/svg">
<path d="M86 83C108.091 83 126 65.0914 126 43C126 20.9086 108.091 3 86 3C63.9086 3 46 20.9086 46 43C46 65.0914 63.9086 83 86 83Z" fill="#0071FE"/>
<path d="M40 169C62.0914 169 80 151.091 80 129C80 106.909 62.0914 89 40 89C17.9086 89 0 106.909 0 129C0 151.091 17.9086 169 40 169Z" fill="#0071FE"/>
<path d="M132 169C154.091 169 172 151.091 172 129C172 106.909 154.091 89 132 89C109.909 89 92 106.909 92 129C92 151.091 109.909 169 132 169Z" fill="#0071FE"/>
</svg>
