<svg width="60" height="60" viewBox="0 0 60 60" fill="none" xmlns="http://www.w3.org/2000/svg">
<path d="M20.1629 25.6123C21.2611 25.6123 22.1564 25.8844 22.8489 26.4285C23.5414 26.9627 23.8877 27.769 23.8877 28.8473C23.8877 29.9257 23.5513 30.7221 22.8786 31.2365C22.2059 31.7411 21.3105 31.9933 20.1926 31.9933H16.5569V36H14.8059V25.6123H20.1629ZM20.0146 30.6429C20.6675 30.6429 21.1819 30.4945 21.5579 30.1977C21.9437 29.8911 22.1366 29.4409 22.1366 28.8473C22.1366 28.2538 21.9437 27.8086 21.5579 27.5118C21.1819 27.2051 20.6675 27.0518 20.0146 27.0518H16.5569V30.6429H20.0146ZM30.0492 25.6123C31.7409 25.6123 33.0517 26.0724 33.9817 26.9924C34.9215 27.9125 35.3914 29.1837 35.3914 30.8062C35.3914 32.4286 34.9215 33.6999 33.9817 34.6199C33.0517 35.54 31.7409 36 30.0492 36H25.5083V25.6123H30.0492ZM29.8563 34.5606C31.083 34.5606 32.0179 34.2242 32.661 33.5515C33.3139 32.8788 33.6404 31.9636 33.6404 30.8062C33.6404 29.6487 33.3139 28.7336 32.661 28.0609C32.0179 27.3881 31.083 27.0518 29.8563 27.0518H27.2594V34.5606H29.8563ZM45.1233 27.0518H38.8313V30.2423H43.9213V31.6372H38.8313V36H37.0802V25.6123H45.1233V27.0518Z" fill="#0071FE"/>
<rect x="1" y="1" width="58" height="58" stroke="#0071FE" stroke-width="2"/>
</svg>
