<svg width="24" height="24" viewBox="0 0 24 24" fill="none" xmlns="http://www.w3.org/2000/svg">
<path d="M21.1391 17.8025C21.1391 18.1325 21.0658 18.4717 20.91 18.8017C20.7541 19.1317 20.5525 19.4433 20.2866 19.7367C19.8375 20.2317 19.3425 20.5892 18.7833 20.8183C18.2333 21.0475 17.6375 21.1667 16.9958 21.1667C16.0608 21.1667 15.0616 20.9467 14.0075 20.4975C12.9533 20.0483 11.8991 19.4433 10.8541 18.6825C9.79998 17.9125 8.80081 17.06 7.84748 16.1158C6.90331 15.1625 6.05081 14.1633 5.28998 13.1183C4.53831 12.0733 3.93331 11.0283 3.49331 9.9925C3.05331 8.9475 2.83331 7.94833 2.83331 6.995C2.83331 6.37167 2.94331 5.77583 3.16331 5.22583C3.38331 4.66667 3.73165 4.15333 4.21748 3.695C4.80415 3.1175 5.44581 2.83333 6.12415 2.83333C6.38081 2.83333 6.63748 2.88833 6.86665 2.99833C7.10498 3.10833 7.31581 3.27333 7.48081 3.51167L9.60748 6.50917C9.77248 6.73833 9.89165 6.94917 9.97415 7.15083C10.0566 7.34333 10.1025 7.53583 10.1025 7.71C10.1025 7.93 10.0383 8.15 9.90998 8.36083C9.79081 8.57166 9.61665 8.79166 9.39665 9.01166L8.69998 9.73583C8.59915 9.83666 8.55331 9.95583 8.55331 10.1025C8.55331 10.1758 8.56248 10.24 8.58081 10.3133C8.60831 10.3867 8.63581 10.4417 8.65415 10.4967C8.81915 10.7992 9.10331 11.1933 9.50665 11.67C9.91915 12.1467 10.3591 12.6325 10.8358 13.1183C11.3308 13.6042 11.8075 14.0533 12.2933 14.4658C12.77 14.8692 13.1641 15.1442 13.4758 15.3092C13.5216 15.3275 13.5766 15.355 13.6408 15.3825C13.7141 15.41 13.7875 15.4192 13.87 15.4192C14.0258 15.4192 14.145 15.3642 14.2458 15.2633L14.9425 14.5758C15.1716 14.3467 15.3916 14.1725 15.6025 14.0625C15.8133 13.9342 16.0241 13.87 16.2533 13.87C16.4275 13.87 16.6108 13.9067 16.8125 13.9892C17.0141 14.0717 17.225 14.1908 17.4541 14.3467L20.4883 16.5008C20.7266 16.6658 20.8916 16.8583 20.9925 17.0875C21.0841 17.3167 21.1391 17.5458 21.1391 17.8025Z" stroke="black" stroke-width="1.83333" stroke-miterlimit="10"/>
</svg>
