<svg width="24" height="25" viewBox="0 0 24 25" fill="none" xmlns="http://www.w3.org/2000/svg">
<path fill-rule="evenodd" clip-rule="evenodd" d="M16.2858 2.5H19.5524C20.9039 2.5 22.0003 3.6059 22.0003 4.97018V8.2641C22.0003 9.62735 20.9039 10.7343 19.5524 10.7343H16.2858C14.9333 10.7343 13.8369 9.62735 13.8369 8.2641V4.97018C13.8369 3.6059 14.9333 2.5 16.2858 2.5Z" stroke="white" stroke-width="1.5" stroke-linecap="round" stroke-linejoin="round"/>
<path fill-rule="evenodd" clip-rule="evenodd" d="M4.44892 2.5H7.71449C9.06703 2.5 10.1634 3.6059 10.1634 4.97018V8.2641C10.1634 9.62735 9.06703 10.7343 7.71449 10.7343H4.44892C3.09638 10.7343 2 9.62735 2 8.2641V4.97018C2 3.6059 3.09638 2.5 4.44892 2.5Z" stroke="white" stroke-width="1.5" stroke-linecap="round" stroke-linejoin="round"/>
<path fill-rule="evenodd" clip-rule="evenodd" d="M4.44892 14.2656H7.71449C9.06703 14.2656 10.1634 15.3715 10.1634 16.7368V20.0297C10.1634 21.394 9.06703 22.4999 7.71449 22.4999H4.44892C3.09638 22.4999 2 21.394 2 20.0297V16.7368C2 15.3715 3.09638 14.2656 4.44892 14.2656Z" stroke="white" stroke-width="1.5" stroke-linecap="round" stroke-linejoin="round"/>
<path fill-rule="evenodd" clip-rule="evenodd" d="M16.2858 14.2656H19.5524C20.9039 14.2656 22.0003 15.3715 22.0003 16.7368V20.0297C22.0003 21.394 20.9039 22.4999 19.5524 22.4999H16.2858C14.9333 22.4999 13.8369 21.394 13.8369 20.0297V16.7368C13.8369 15.3715 14.9333 14.2656 16.2858 14.2656Z" stroke="white" stroke-width="1.5" stroke-linecap="round" stroke-linejoin="round"/>
</svg>
