<svg width="46" height="56" viewBox="0 0 46 56" fill="none" xmlns="http://www.w3.org/2000/svg">
<g opacity="0.3">
<path fill-rule="evenodd" clip-rule="evenodd" d="M28.9143 0.0165124C28.7515 0.00554241 28.5878 0 28.4234 0H12.4857C5.59004 0 0 5.53917 0 12.3721V43.6279C0 50.4608 5.59004 56 12.4857 56H33.5143C40.41 56 46 50.4608 46 43.6279V19.5349H36.1429C32.1506 19.5349 28.9143 16.328 28.9143 12.3721V0.0165124ZM10.5143 28C10.5143 26.9211 11.3969 26.0465 12.4857 26.0465H33.5143C34.6031 26.0465 35.4857 26.9211 35.4857 28C35.4857 29.0789 34.6031 29.9535 33.5143 29.9535H12.4857C11.3969 29.9535 10.5143 29.0789 10.5143 28ZM12.4857 39.0698C11.3969 39.0698 10.5143 39.9444 10.5143 41.0233C10.5143 42.1021 11.3969 42.9767 12.4857 42.9767H23C24.0888 42.9767 24.9714 42.1021 24.9714 41.0233C24.9714 39.9444 24.0888 39.0698 23 39.0698H12.4857Z" fill="#0071FE"/>
<path d="M44.8738 15.6279C44.7079 15.369 44.5246 15.1197 44.3246 14.8819L33.9765 2.57728C33.6403 2.17751 33.2645 1.81901 32.8571 1.50554V12.3721C32.8571 14.1702 34.3282 15.6279 36.1429 15.6279H44.8738Z" fill="#0071FE"/>
</g>
<path d="M12.4867 28H33.5153" stroke="#0071FE" stroke-width="3.90698" stroke-linecap="round"/>
<path d="M12.4867 41.0234H23.001" stroke="#0071FE" stroke-width="3.90698" stroke-linecap="round"/>
</svg>
