<svg width="58" height="56" viewBox="0 0 58 56" fill="none" xmlns="http://www.w3.org/2000/svg">
<path d="M54.2008 19.38V14.2C54.2008 8.01441 49.1864 3 43.0008 3H37.8208M54.2008 37.02V42.2C54.2008 48.3856 49.1864 53.4 43.0008 53.4H37.8208M20.1808 53.4H15.0008C8.81519 53.4 3.80078 48.3856 3.80078 42.2V37.02M3.80078 19.38V14.2C3.80078 8.01441 8.81519 3 15.0008 3H20.1808" stroke="#0071FE" stroke-width="4.2" stroke-linecap="round"/>
<path d="M55 28L3 28" stroke="#0071FE" stroke-width="4.2" stroke-linecap="round" stroke-linejoin="round"/>
<path opacity="0.3" fill-rule="evenodd" clip-rule="evenodd" d="M12.2031 19.8004C12.2031 15.1612 15.9639 11.4004 20.6031 11.4004H37.4031C42.0423 11.4004 45.8031 15.1612 45.8031 19.8004V23.3003L12.2031 23.3003V19.8004ZM12.2031 27.5003V28.9L45.8031 28.9V27.5003L12.2031 27.5003ZM12.2031 33.1L45.8031 33.1V36.6004C45.8031 41.2396 42.0423 45.0004 37.4031 45.0004H20.6031C15.9639 45.0004 12.2031 41.2396 12.2031 36.6004V33.1Z" fill="#217AF1"/>
</svg>
