<svg width="42" height="41" viewBox="0 0 42 41" fill="none" xmlns="http://www.w3.org/2000/svg">
<path opacity="0.3" fill-rule="evenodd" clip-rule="evenodd" d="M41.6087 38.5387C41.6087 39.5056 40.8255 40.2894 39.8594 40.2894H25.5754C24.6093 40.2894 23.826 39.5056 23.826 38.5387C23.826 37.5719 24.6093 36.7881 25.5754 36.7881H39.8594C40.8255 36.7881 41.6087 37.5719 41.6087 38.5387Z" fill="#0071FE"/>
<path d="M31.3568 2.11806C29.5343 0.295611 26.5807 0.296728 24.7596 2.12055L20.8789 6.00715L33.34 18.4683L37.2132 14.4944C38.9968 12.6645 38.978 9.73928 37.1711 7.93238L31.3568 2.11806Z" fill="#217AF1"/>
<path opacity="0.3" d="M30.8976 20.9744L18.4066 8.4834L3.0605 23.8528C1.82134 25.0938 1.09282 26.7551 1.01909 28.508L0.743395 35.0624C0.659703 37.0521 2.24888 38.7109 4.23882 38.711L10.6605 38.7113C12.5466 38.7113 14.3529 37.9494 15.6699 36.5982L30.8976 20.9744Z" fill="#217AF1"/>
</svg>
