<svg width="63" height="60" viewBox="0 0 63 60" fill="none" xmlns="http://www.w3.org/2000/svg">
<ellipse opacity="0.3" rx="12.6801" ry="12.68" transform="matrix(-1 0 0 1 25.191 15.68)" fill="#217AF1" stroke="#0071FE" stroke-width="4.75498"/>
<path d="M3 47.1731C3 44.4458 4.71452 42.0129 7.283 41.0956V41.0956C18.8629 36.9599 31.5173 36.9599 43.0972 41.0956V41.0956C45.6657 42.0129 47.3802 44.4458 47.3802 47.1731V51.3433C47.3802 55.1074 44.0463 57.9989 40.3199 57.4666L37.2942 57.0343C29.2656 55.8874 21.1146 55.8874 13.086 57.0343L10.0602 57.4666C6.33391 57.9989 3 55.1074 3 51.3433V47.1731Z" fill="#217AF1" stroke="#0071FE" stroke-width="4.75498"/>
<path d="M47.3805 28.3604H60.0605" stroke="#0071FE" stroke-width="4.75498" stroke-linecap="round" stroke-linejoin="round"/>
<path d="M53.7187 22.0202L53.7188 34.7002" stroke="#0071FE" stroke-width="4.75498" stroke-linecap="round" stroke-linejoin="round"/>
</svg>
