<svg width="56" height="56" viewBox="0 0 56 56" fill="none" xmlns="http://www.w3.org/2000/svg">
<path d="M34.9944 1.77449C30.7832 -0.591494 25.6533 -0.591498 21.4421 1.77449L5.82849 10.5467C2.05718 12.6656 2.05716 18.1165 5.82848 20.2353L21.4421 29.0076C25.6533 31.3735 30.7832 31.3735 34.9944 29.0076L50.608 20.2353C54.3793 18.1165 54.3794 12.6656 50.608 10.5467L34.9944 1.77449Z" fill="#217AF1"/>
<path opacity="0.3" d="M4.87563 36.4355C2.08968 38.8668 2.40729 43.5311 5.82848 45.4532L21.4421 54.2254C25.6533 56.5914 30.7832 56.5914 34.9944 54.2254L50.608 45.4532C54.0292 43.5311 54.3468 38.8668 51.5609 36.4355L36.8948 44.6754C31.5034 47.7045 24.9331 47.7045 19.5418 44.6754L4.87563 36.4355Z" fill="#217AF1"/>
<path opacity="0.3" d="M4.87563 23.9248C2.08968 26.3561 2.40729 31.0203 5.82848 32.9425L21.4421 41.7147C25.6533 44.0807 30.7832 44.0807 34.9944 41.7147L50.608 32.9425C54.0292 31.0203 54.3468 26.3561 51.5609 23.9248L36.8948 32.1647C31.5034 35.1937 24.9331 35.1937 19.5418 32.1647L4.87563 23.9248Z" fill="#217AF1"/>
</svg>
