<svg width="166" height="43" viewBox="0 0 166 43" fill="none" xmlns="http://www.w3.org/2000/svg">
<path fill-rule="evenodd" clip-rule="evenodd" d="M79.5186 0.563971H60.1841V31.3897H65.4572V5.46807H79.5186V0.563971ZM102.72 5.11777V0.563971H82.3309V31.3897H102.72V26.4856H87.6039V18.0786H101.665V13.1745H87.6039V5.11777H102.72ZM120.996 0C111.927 0 104.935 6.87975 104.935 15.9593C104.935 25.0389 111.927 31.9187 120.996 31.9187C130.066 31.9187 137.012 25.0389 137.058 15.9593C137.012 6.87624 130.066 0 120.996 0ZM120.996 4.76048C127.236 4.76048 131.968 9.52095 131.968 15.9593C131.968 22.3977 127.233 27.1582 120.996 27.1582C114.76 27.1582 109.979 22.3977 109.979 15.9593C109.979 9.52095 114.714 4.76048 120.996 4.76048V4.76048ZM161.075 0.563971V13.1745H145.256V0.563971H140.334V31.3897H145.256V17.7283H161.075V31.3897H165.996V0.563971H161.075Z" fill="white"/>
<path fill-rule="evenodd" clip-rule="evenodd" d="M63.348 37.3449H60.1841V42.5993H60.8872V38.0455H63.348V37.3449ZM68.5366 37.3449H66.5118V42.5993H67.2149V40.8478H68.5366C69.6967 40.8478 70.4033 40.1227 70.4033 39.0859C70.4033 38.049 69.6967 37.3449 68.5366 37.3449ZM68.4241 39.797H67.2149V38.0455H68.4241C69.078 38.0455 69.3838 38.4133 69.3838 38.9177C69.3838 39.4222 69.078 39.797 68.4241 39.797ZM77.5992 37.3449H76.6501L75.2791 39.8215L73.894 37.3449H72.9379L74.8045 40.7393L73.7886 42.5993H74.7377L77.5992 37.3449V37.3449ZM84.7917 37.3449H80.5732V42.5993H81.6278V38.0455H84.0886V42.5993H84.7917V37.3449ZM92.5255 37.3449H88.307V42.5993H89.0101V38.0455H91.4709V42.5993H92.5255V37.3449ZM99.6933 42.5993H100.653L98.6105 37.3449H97.5243L95.4819 42.5993H96.4416L96.9583 40.8478H99.173L99.6898 42.3401V42.5993H99.6933ZM97.2606 40.1473L98.0692 38.021L98.8777 40.1473H97.2606V40.1473ZM112.018 42.5993L109.716 39.7339L111.916 37.3449H110.883L108.7 39.5798V37.3449H107.997V42.5993H108.7V39.9126L110.978 42.5993H112.018V42.5993ZM117.049 37.1698C115.555 37.1698 114.405 38.3012 114.405 39.797C114.405 41.2927 115.555 42.4242 117.049 42.4242C118.543 42.4242 119.685 41.2927 119.692 39.797C119.685 38.3012 118.543 37.1698 117.049 37.1698ZM117.049 37.9544C118.075 37.9544 118.856 38.7391 118.856 39.797C118.856 40.8549 118.075 41.6395 117.049 41.6395C116.022 41.6395 115.235 40.8549 115.235 39.797C115.235 38.7391 116.015 37.9544 117.049 37.9544ZM126.702 37.3449L125.222 39.4607L123.742 37.3449H122.761V42.249H123.816V37.9124L125.355 40.4976H125.433L126.979 37.9124V42.249H127.683V37.3449H126.702ZM135.416 37.3449H131.198V42.5993H131.901V38.0455H134.362V42.5993H135.416V37.3449ZM142.588 42.5993H143.547L141.505 37.3449H140.419L138.376 42.5993H139.336L139.853 40.8478H142.067L142.584 42.3401V42.5993H142.588ZM140.155 40.1473L140.964 38.021L141.772 40.1473H140.155V40.1473ZM150.181 37.3449V39.4467H147.369V37.3449H146.666V42.5993H147.369V40.1473H150.181V42.5993H150.884V37.3449H150.181ZM157.63 37.3449L155.029 41.3978L155.102 39.5448V37.3449H154.048V42.5993H155.036L157.644 38.5394L157.563 40.3995V42.5993H158.618V37.3449H157.63ZM164.07 36.5357C164.724 36.5357 165.297 36.1084 165.297 35.4043V35.2432H164.594V35.3798C164.594 35.6565 164.376 35.8912 164.098 35.9017C163.761 35.9122 163.539 35.7091 163.539 35.3798V35.2432H162.836V35.4043C162.836 36.1084 163.409 36.5357 164.07 36.5357ZM165.012 37.3449L162.411 41.3978L162.485 39.5448V37.3449H161.782V42.5993H162.769L165.378 38.5394L165.297 40.3995V42.5993H166V37.3449H165.012Z" fill="white"/>
<path d="M23.2975 21.3468C29.2132 21.3468 34.0088 16.5682 34.0088 10.6734C34.0088 4.77865 29.2132 0 23.2975 0C17.3818 0 12.5862 4.77865 12.5862 10.6734C12.5862 16.5682 17.3818 21.3468 23.2975 21.3468Z" fill="white"/>
<path d="M11.6502 42.4134C17.56 42.1522 22.1384 37.1664 21.8762 31.2775C21.6141 25.3885 16.6107 20.8263 10.7008 21.0875C4.7909 21.3488 0.212526 26.3345 0.474691 32.2235C0.736856 38.1124 5.74028 42.6746 11.6502 42.4134Z" fill="white"/>
<path d="M46.1158 32.3431C46.444 26.4574 41.9218 21.421 36.0152 21.094C30.1086 20.767 25.0544 25.2733 24.7262 31.1589C24.398 37.0446 28.9202 42.081 34.8268 42.408C40.7334 42.735 45.7877 38.2288 46.1158 32.3431Z" fill="white"/>
</svg>
