<svg width="24" height="25" viewBox="0 0 24 25" fill="none" xmlns="http://www.w3.org/2000/svg">
<path d="M17.5947 11.4319C19.1971 11.4319 20.4969 10.133 20.4969 8.53064C20.4969 6.92831 19.1971 5.62939 17.5947 5.62939" stroke="white" stroke-width="1.5" stroke-linecap="round" stroke-linejoin="round"/>
<path d="M18.9287 14.5847C19.4072 14.6177 19.883 14.6856 20.3514 14.791C21.0022 14.9184 21.785 15.1851 22.0637 15.7691C22.2415 16.1431 22.2415 16.5785 22.0637 16.9534C21.786 17.5373 21.0022 17.8031 20.3514 17.937" stroke="white" stroke-width="1.5" stroke-linecap="round" stroke-linejoin="round"/>
<path d="M6.28986 11.4319C4.68753 11.4319 3.3877 10.133 3.3877 8.53064C3.3877 6.92831 4.68753 5.62939 6.28986 5.62939" stroke="white" stroke-width="1.5" stroke-linecap="round" stroke-linejoin="round"/>
<path d="M4.95565 14.5847C4.47715 14.6177 4.0014 14.6856 3.53298 14.791C2.88215 14.9184 2.09931 15.1851 1.82156 15.7691C1.64281 16.1431 1.64281 16.5785 1.82156 16.9534C2.0984 17.5373 2.88215 17.8031 3.53298 17.937" stroke="white" stroke-width="1.5" stroke-linecap="round" stroke-linejoin="round"/>
<path fill-rule="evenodd" clip-rule="evenodd" d="M11.9377 15.2095C15.1845 15.2095 17.9583 15.7008 17.9583 17.6671C17.9583 19.6324 15.2028 20.1421 11.9377 20.1421C8.68991 20.1421 5.91699 19.6507 5.91699 17.6845C5.91699 15.7182 8.67249 15.2095 11.9377 15.2095Z" stroke="white" stroke-width="1.5" stroke-linecap="round" stroke-linejoin="round"/>
<path fill-rule="evenodd" clip-rule="evenodd" d="M11.9374 12.4049C9.79602 12.4049 8.0791 10.688 8.0791 8.54575C8.0791 6.40442 9.79602 4.6875 11.9374 4.6875C14.0787 4.6875 15.7956 6.40442 15.7956 8.54575C15.7956 10.688 14.0787 12.4049 11.9374 12.4049Z" stroke="white" stroke-width="1.5" stroke-linecap="round" stroke-linejoin="round"/>
</svg>
