<svg width="24" height="25" viewBox="0 0 24 25" fill="none" xmlns="http://www.w3.org/2000/svg">
<path fill-rule="evenodd" clip-rule="evenodd" d="M20.8064 8.12361L20.184 7.04352C19.6574 6.1296 18.4905 5.81432 17.5753 6.33872V6.33872C17.1397 6.59534 16.6198 6.66815 16.1305 6.54109C15.6411 6.41402 15.2224 6.09752 14.9666 5.66137C14.8021 5.38415 14.7137 5.06839 14.7103 4.74604V4.74604C14.7251 4.22922 14.5302 3.7284 14.1698 3.35767C13.8094 2.98694 13.3143 2.77786 12.7973 2.77808H11.5433C11.0367 2.77807 10.5511 2.97991 10.1938 3.33895C9.83644 3.69798 9.63693 4.18459 9.63937 4.69112V4.69112C9.62435 5.73693 8.77224 6.57681 7.72632 6.5767C7.40397 6.57336 7.08821 6.48494 6.81099 6.32041V6.32041C5.89582 5.79601 4.72887 6.11129 4.20229 7.02522L3.5341 8.12361C3.00817 9.03639 3.31916 10.2026 4.22975 10.7323V10.7323C4.82166 11.074 5.18629 11.7056 5.18629 12.3891C5.18629 13.0725 4.82166 13.7041 4.22975 14.0458V14.0458C3.32031 14.5719 3.00898 15.7353 3.5341 16.6454V16.6454L4.16568 17.7346C4.4124 18.1798 4.82636 18.5083 5.31595 18.6474C5.80554 18.7866 6.3304 18.7249 6.77438 18.476V18.476C7.21084 18.2213 7.73094 18.1516 8.2191 18.2822C8.70725 18.4128 9.12299 18.733 9.37392 19.1717C9.53845 19.4489 9.62686 19.7646 9.63021 20.087V20.087C9.63021 21.1435 10.4867 22 11.5433 22H12.7973C13.8502 22.0001 14.7053 21.1491 14.7103 20.0962V20.0962C14.7079 19.588 14.9086 19.1 15.2679 18.7407C15.6272 18.3814 16.1152 18.1807 16.6233 18.1831C16.9449 18.1917 17.2594 18.2798 17.5387 18.4394V18.4394C18.4515 18.9653 19.6177 18.6544 20.1474 17.7438V17.7438L20.8064 16.6454C21.0615 16.2075 21.1315 15.686 21.001 15.1964C20.8704 14.7067 20.55 14.2894 20.1108 14.0367V14.0367C19.6715 13.784 19.3511 13.3666 19.2206 12.8769C19.09 12.3873 19.16 11.8658 19.4151 11.428C19.581 11.1383 19.8211 10.8982 20.1108 10.7323V10.7323C21.0159 10.2029 21.3262 9.04349 20.8064 8.13277V8.13277V8.12361Z" stroke="white" stroke-width="1.5" stroke-linecap="round" stroke-linejoin="round"/>
<circle cx="12.1752" cy="12.3893" r="2.63616" stroke="white" stroke-width="1.5" stroke-linecap="round" stroke-linejoin="round"/>
</svg>
