<svg width="24" height="25" viewBox="0 0 24 25" fill="none" xmlns="http://www.w3.org/2000/svg">
<path fill-rule="evenodd" clip-rule="evenodd" d="M6.53539 3.75C5.95028 3.75 5.40387 4.04243 5.07931 4.52927L1.49008 9.91311C1.27035 10.2427 1.24407 10.6648 1.42123 11.0191C3.38533 14.9473 6.11489 18.4432 9.44945 21.3014L11.2002 22.8021C11.6605 23.1967 12.3399 23.1967 12.8003 22.8021L14.551 21.3014C17.8855 18.4432 20.6151 14.9473 22.5792 11.0191C22.7563 10.6648 22.7301 10.2427 22.5103 9.91311L18.9211 4.52927C18.5965 4.04243 18.0501 3.75 17.465 3.75H6.53539ZM6.32738 5.36132C6.37375 5.29178 6.45181 5.25 6.53539 5.25H8.8752L6.96009 9.84629C6.91597 9.95216 6.88268 10.0614 6.86024 10.1722C6.1564 10.1199 5.45317 10.0567 4.75079 9.98276L3.34507 9.83479L6.32738 5.36132ZM3.27887 11.3361C5.07227 14.6261 7.44042 17.5714 10.2734 20.0312L7.14796 11.6967C6.29562 11.6381 5.44408 11.564 4.59376 11.4745L3.27887 11.3361ZM8.78502 11.7902L12.0002 20.364L15.2154 11.7902C13.0731 11.8876 10.9274 11.8876 8.78502 11.7902ZM16.8525 11.6967L13.727 20.0312C16.56 17.5714 18.9282 14.6261 20.7216 11.3361L19.4067 11.4745C18.5563 11.564 17.7048 11.6381 16.8525 11.6967ZM20.6553 9.83479L19.2496 9.98276C18.5472 10.0567 17.844 10.1199 17.1402 10.1722C17.1178 10.0613 17.0845 9.95216 17.0403 9.84629L15.1252 5.25H17.465C17.5486 5.25 17.6267 5.29178 17.673 5.36133L20.6553 9.83479ZM15.5919 10.2701C13.1991 10.3943 10.8014 10.3943 8.40852 10.2701L10.5002 5.25H13.5002L15.5919 10.2701Z" fill="white"/>
</svg>
