<svg width="24" height="24" viewBox="0 0 24 24" fill="none" xmlns="http://www.w3.org/2000/svg">
<path d="M20.1234 3.18755C19.8634 3.19902 19.6211 3.27477 19.4078 3.36099C19.208 3.44136 18.4446 3.76878 17.2422 4.28442C16.0387 4.80052 14.4452 5.48467 12.7453 6.21567C9.34556 7.67768 5.52336 9.32338 3.56562 10.1657C3.492 10.1973 3.23513 10.2794 2.96249 10.4922C2.68986 10.7051 2.39999 11.1461 2.39999 11.6375C2.39999 12.0338 2.58885 12.4275 2.82656 12.6625C3.06426 12.8976 3.31579 13.0137 3.53124 13.1016C4.31298 13.4206 6.73747 14.4127 7.19531 14.6C7.35643 15.0936 8.23399 17.7781 8.43749 18.436C8.57165 18.8701 8.69935 19.1421 8.86562 19.3579C8.94875 19.4658 9.04539 19.5603 9.16249 19.6344C9.2093 19.664 9.26063 19.6869 9.31249 19.7079L9.31562 19.7094C9.32757 19.7142 9.33787 19.7224 9.34999 19.7266C9.37286 19.7346 9.38816 19.7356 9.41874 19.7422C9.5406 19.7816 9.66363 19.8063 9.77343 19.8063C10.2416 19.8063 10.5281 19.5485 10.5281 19.5485L10.5453 19.536L12.9531 17.4532L15.8734 20.2157C15.9145 20.2738 16.298 20.8 17.1437 20.8C17.6459 20.8 18.0442 20.5481 18.3 20.2797C18.5557 20.0114 18.7151 19.7295 18.7828 19.375V19.3735C18.8462 19.0386 21.5375 5.22192 21.5375 5.22192L21.5328 5.24067C21.6116 4.88106 21.6322 4.54616 21.5453 4.21567C21.4584 3.88519 21.2293 3.56876 20.9453 3.39849C20.6613 3.22825 20.3835 3.17608 20.1234 3.18755ZM19.9734 4.85942C19.9696 4.88277 19.9763 4.87103 19.9703 4.89849L19.9687 4.90786L19.9672 4.91724C19.9672 4.91724 17.3092 18.5571 17.2109 19.0766C17.2181 19.0374 17.1853 19.1154 17.1516 19.1625C17.1039 19.1297 17.0062 19.0875 17.0062 19.0875L16.9906 19.0704L13.0016 15.2969L10.1812 17.7344L11.0203 14.375C11.0203 14.375 16.2652 8.94574 16.5812 8.62974C16.8356 8.37694 16.8891 8.28881 16.8891 8.20161C16.8891 8.08481 16.8282 8.00005 16.6922 8.00005C16.5698 8.00005 16.4052 8.11905 16.3172 8.17505C15.1707 8.90588 10.1375 11.8394 7.88124 13.1516C7.5227 13.0049 5.03172 11.9852 4.18749 11.6407C4.19389 11.6379 4.19178 11.6389 4.19843 11.636C6.15669 10.7935 9.9773 9.14778 13.3766 7.68599C15.0762 6.95509 16.6709 6.27042 17.8734 5.75474C19.0574 5.247 19.8801 4.89756 19.9734 4.85942Z" fill="black"/>
</svg>
