<svg width="24" height="24" viewBox="0 0 24 24" fill="none" xmlns="http://www.w3.org/2000/svg">
<path d="M11.7744 3C10.3494 3 6.8247 3.14971 4.9497 4.94971C3.5997 6.22471 3.075 8.175 3 10.5C2.85 14.175 3.67441 16.4997 5.02441 17.6997C5.32441 17.9247 6.075 18.5256 7.5 18.9756V20.8506C7.5 20.8506 7.4997 21.6 7.9497 21.75C8.0247 21.75 8.10029 21.8247 8.17529 21.8247C8.62529 21.8247 8.99941 21.2994 9.52441 20.7744C9.97441 20.2494 10.3497 19.875 10.5747 19.5H11.625H12.2256C13.6506 19.5 17.1753 19.3503 19.0503 17.5503C20.4003 16.2003 20.9253 14.2494 20.9253 11.7744C21.0003 11.3994 21 10.95 21 10.5C20.925 7.725 20.1006 5.85029 18.9756 4.80029C18.5256 4.42529 16.575 3 12.375 3H11.7744ZM11.625 4.42529H12.1494H12.2256H12.3003C16.2753 4.42529 17.7753 5.70059 17.9253 5.85059C18.8253 6.60059 19.3503 8.25029 19.4253 10.4253V10.7256C19.5003 11.1756 19.5 11.5494 19.5 11.7744C19.425 14.0244 18.9747 15.525 18.0747 16.5C16.4997 17.925 13.2003 18 12.3003 18H11.7744H11.6997H11.625H10.875L9.67529 19.3506L8.92529 20.1753L8.77441 20.3994C8.62441 20.5494 8.4 20.8503 8.25 20.9253V20.7744V17.5503C6.75 17.1753 6.15 16.65 6 16.5C4.95 15.6 4.35 13.425 4.5 10.5V9.75C4.65 7.95 5.10058 6.75029 5.85058 5.92529C7.42558 4.50029 10.725 4.42529 11.625 4.42529ZM11.5503 6.07471C11.1753 6.07471 11.1753 6.60059 11.5503 6.60059C14.3253 6.60059 16.7256 8.475 16.7256 12C16.7256 12.375 17.25 12.375 17.25 12C17.25 8.175 14.7003 5.99971 11.5503 6.07471ZM8.57812 6.76904C8.41875 6.75029 8.25058 6.78691 8.10058 6.89941C7.35058 7.27441 6.5997 8.02559 6.8247 8.85059C6.8247 8.85059 6.97529 9.52471 7.80029 10.9497C8.25029 11.6247 8.625 12.2253 9 12.6753C9.375 13.2003 9.9747 13.8 10.5747 14.25C11.7747 15.225 13.6506 16.2003 14.4756 16.4253C15.2256 16.6503 16.0503 15.8994 16.4253 15.1494C16.5753 14.8494 16.4997 14.475 16.1997 14.25C15.7497 13.8 15.0006 13.2756 14.4756 12.9756C14.1006 12.7506 13.65 12.9 13.5 13.125L13.125 13.5747C12.975 13.7997 12.6006 13.8003 12.6006 13.8003C10.1256 13.1253 9.4497 10.5747 9.4497 10.5747C9.4497 10.5747 9.45029 10.2753 9.67529 10.0503L10.125 9.67529C10.35 9.52529 10.4994 9.07471 10.2744 8.69971C10.1244 8.47471 9.90029 8.02529 9.67529 7.80029C9.45029 7.50029 9 6.97559 9 6.97559C8.8875 6.86309 8.7375 6.78779 8.57812 6.76904ZM12.0747 7.57471C11.6997 7.49971 11.625 8.10059 12 8.10059C14.1 8.25059 15.3006 9.67559 15.2256 11.4756C15.1506 11.8506 15.75 11.8506 15.75 11.4756C15.825 9.37559 14.4747 7.64971 12.0747 7.57471ZM12.3003 9C11.9253 8.925 11.9253 9.52441 12.3003 9.52441C13.2003 9.52441 13.6494 10.0497 13.6494 10.9497C13.7244 11.3247 14.25 11.3247 14.25 10.9497C14.175 9.74971 13.5003 9 12.3003 9Z" fill="black"/>
</svg>
